<svg xmlns="http://www.w3.org/2000/svg" version="1.1" xmlns:xlink="http://www.w3.org/1999/xlink" xmlns:svgjs="http://svgjs.com/svgjs" x="0" y="0" viewBox="0 0 682.66669 682.66669" style="enable-background:new 0 0 512 512" xml:space="preserve" class=""><g><defs id="defs2638"><clipPath clipPathUnits="userSpaceOnUse" id="clipPath2648"><path d="M 0,512 H 512 V 0 H 0 Z" id="path2646" fill="#000000" data-original="#000000"/></clipPath></defs><g id="g2640" transform="matrix(1.3333333,0,0,-1.3333333,0,682.66667)"><g id="g2642"><g id="g2644" clip-path="url(#clipPath2648)"><g id="g2650" transform="translate(441,117.0016)"><path d="m 0,0 h 30 c 25.933,40.029 41,87.752 41,138.998 0,141.385 -114.615,256 -256,256 -141.385,0 -256,-114.615 -256,-256 0,-51.246 15.067,-98.969 41,-138.998 h 30 l 30,-64.74 c 43.025,-32.783 96.734,-52.262 155,-52.262 58.266,0 111.975,19.479 155,52.262 z" style="fill-opacity:1;fill-rule:nonzero;stroke:none" id="path2652" fill="#ffdf8e" data-original="#ffdf8e"/></g><g id="g2654" transform="translate(71,416)"><path d="m 0,0 v 0 c 0,11.046 8.954,20 20,20 h 330 c 11.046,0 20,-8.954 20,-20 v 0 c 0,-11.046 -8.954,-20 -20,-20 H 20 C 8.954,-20 0,-11.046 0,0" style="fill-opacity:1;fill-rule:nonzero;stroke:none" id="path2656" fill="#a96a51" data-original="#a96a51" class=""/></g><g id="g2658" transform="translate(152,416)"><path d="m 0,0 c 0,11.046 8.954,20 20,20 h -81 c -11.046,0 -20,-8.954 -20,-20 0,-11.046 8.954,-20 20,-20 H 20 C 8.954,-20 0,-11.046 0,0" style="fill-opacity:1;fill-rule:nonzero;stroke:none" id="path2660" fill="#925b44" data-original="#925b44"/></g><g id="g2662" transform="translate(231,356)"><path d="m 0,0 v 0 c -11.046,0 -20,8.954 -20,20 v 80 c 0,11.046 8.954,20 20,20 v 0 c 11.046,0 20,-8.954 20,-20 V 20 C 20,8.954 11.046,0 0,0" style="fill-opacity:1;fill-rule:nonzero;stroke:none" id="path2664" fill="#fd8e82" data-original="#fd8e82"/></g><g id="g2666" transform="translate(231,416)"><path d="m 0,0 c -11.046,0 -20,8.954 -20,20 v -60 c 0,-11.046 8.954,-20 20,-20 11.046,0 20,8.954 20,20 V 20 C 20,8.954 11.046,0 0,0" style="fill-opacity:1;fill-rule:nonzero;stroke:none" id="path2668" fill="#fd6c55" data-original="#fd6c55"/></g><g id="g2670" transform="translate(311,356)"><path d="m 0,0 v 0 c -11.046,0 -20,8.954 -20,20 v 80 c 0,11.046 8.954,20 20,20 v 0 c 11.046,0 20,-8.954 20,-20 V 20 C 20,8.954 11.046,0 0,0" style="fill-opacity:1;fill-rule:nonzero;stroke:none" id="path2672" fill="#fdf061" data-original="#fdf061" class=""/></g><g id="g2674" transform="translate(311,416)"><path d="m 0,0 c -11.046,0 -20,8.954 -20,20 v -60 c 0,-11.046 8.954,-20 20,-20 11.046,0 20,8.954 20,20 V 20 C 20,8.954 11.046,0 0,0" style="fill-opacity:1;fill-rule:nonzero;stroke:none" id="path2676" fill="#f5c02c" data-original="#f5c02c"/></g><g id="g2678" transform="translate(351,356)"><path d="m 0,0 v 0 c -11.046,0 -20,8.954 -20,20 v 80 c 0,11.046 8.954,20 20,20 v 0 c 11.046,0 20,-8.954 20,-20 V 20 C 20,8.954 11.046,0 0,0" style="fill-opacity:1;fill-rule:nonzero;stroke:none" id="path2680" fill="#88b9d3" data-original="#88b9d3" class=""/></g><g id="g2682" transform="translate(351,416)"><path d="m 0,0 c -11.046,0 -20,8.954 -20,20 v -60 c 0,-11.046 8.954,-20 20,-20 11.046,0 20,8.954 20,20 V 20 C 20,8.954 11.046,0 0,0" style="fill-opacity:1;fill-rule:nonzero;stroke:none" id="path2684" fill="#6caac9" data-original="#6caac9"/></g><g id="g2686" transform="translate(101,482)"><path d="m 0,0 v -429.75 c -23.54,17.93 -43.87,39.84 -60,64.74 V 0 c 0,16.57 13.43,30 30,30 8.28,0 15.78,-3.36 21.21,-8.79 C -3.36,15.78 0,8.28 0,0" style="fill-opacity:1;fill-rule:nonzero;stroke:none" id="path2688" fill="#a96a51" data-original="#a96a51" class=""/></g><g id="g2690" transform="translate(471,482)"><path d="m 0,0 v -365.01 c -16.13,-24.9 -36.46,-46.81 -60,-64.74 V 0 c 0,16.57 13.43,30 30,30 8.28,0 15.78,-3.36 21.21,-8.79 C -3.36,15.78 0,8.28 0,0" style="fill-opacity:1;fill-rule:nonzero;stroke:none" id="path2692" fill="#a96a51" data-original="#a96a51" class=""/></g><g id="g2694" transform="translate(71,96)"><path d="m 0,0 v 0 c 0,11.046 8.954,20 20,20 h 330 c 11.046,0 20,-8.954 20,-20 v 0 c 0,-11.046 -8.954,-20 -20,-20 H 20 C 8.954,-20 0,-11.046 0,0" style="fill-opacity:1;fill-rule:nonzero;stroke:none" id="path2696" fill="#a96a51" data-original="#a96a51" class=""/></g><g id="g2698" transform="translate(246,96)"><path d="m 0,0 c 0,11.046 8.954,20 20,20 h -175 c -11.046,0 -20,-8.954 -20,-20 0,-11.046 8.954,-20 20,-20 H 20 C 8.954,-20 0,-11.046 0,0" style="fill-opacity:1;fill-rule:nonzero;stroke:none" id="path2700" fill="#925b44" data-original="#925b44"/></g><g id="g2702" transform="translate(351,36)"><path d="m 0,0 v 0 c -11.046,0 -20,8.954 -20,20 v 80 c 0,11.046 8.954,20 20,20 v 0 c 11.046,0 20,-8.954 20,-20 V 20 C 20,8.954 11.046,0 0,0" style="fill-opacity:1;fill-rule:nonzero;stroke:none" id="path2704" fill="#fdf061" data-original="#fdf061" class=""/></g><g id="g2706" transform="translate(351,96)"><path d="m 0,0 c -11.046,0 -20,8.954 -20,20 v -60 c 0,-11.046 8.954,-20 20,-20 11.046,0 20,8.954 20,20 V 20 C 20,8.954 11.046,0 0,0" style="fill-opacity:1;fill-rule:nonzero;stroke:none" id="path2708" fill="#f5c02c" data-original="#f5c02c"/></g><g id="g2710" transform="translate(311,36)"><path d="m 0,0 v 0 c -11.046,0 -20,8.954 -20,20 v 80 c 0,11.046 8.954,20 20,20 v 0 c 11.046,0 20,-8.954 20,-20 V 20 C 20,8.954 11.046,0 0,0" style="fill-opacity:1;fill-rule:nonzero;stroke:none" id="path2712" fill="#04d481" data-original="#04d481"/></g><g id="g2714" transform="translate(311,96)"><path d="m 0,0 c -11.046,0 -20,8.954 -20,20 v -60 c 0,-11.046 8.954,-20 20,-20 11.046,0 20,8.954 20,20 V 20 C 20,8.954 11.046,0 0,0" style="fill-opacity:1;fill-rule:nonzero;stroke:none" id="path2716" fill="#22b27f" data-original="#22b27f"/></g><g id="g2718" transform="translate(161,36)"><path d="m 0,0 v 0 c -11.046,0 -20,8.954 -20,20 v 80 c 0,11.046 8.954,20 20,20 v 0 c 11.046,0 20,-8.954 20,-20 V 20 C 20,8.954 11.046,0 0,0" style="fill-opacity:1;fill-rule:nonzero;stroke:none" id="path2720" fill="#fd8e82" data-original="#fd8e82"/></g><g id="g2722" transform="translate(161,96)"><path d="m 0,0 c -11.046,0 -20,8.954 -20,20 v -60 c 0,-11.046 8.954,-20 20,-20 11.046,0 20,8.954 20,20 V 20 C 20,8.954 11.046,0 0,0" style="fill-opacity:1;fill-rule:nonzero;stroke:none" id="path2724" fill="#fd6c55" data-original="#fd6c55"/></g><g id="g2726" transform="translate(201,36)"><path d="m 0,0 v 0 c -11.046,0 -20,8.954 -20,20 v 80 c 0,11.046 8.954,20 20,20 v 0 c 11.046,0 20,-8.954 20,-20 V 20 C 20,8.954 11.046,0 0,0" style="fill-opacity:1;fill-rule:nonzero;stroke:none" id="path2728" fill="#88b9d3" data-original="#88b9d3" class=""/></g><g id="g2730" transform="translate(201,96)"><path d="m 0,0 c -11.046,0 -20,8.954 -20,20 v -60 c 0,-11.046 8.954,-20 20,-20 11.046,0 20,8.954 20,20 V 20 C 20,8.954 11.046,0 0,0" style="fill-opacity:1;fill-rule:nonzero;stroke:none" id="path2732" fill="#6caac9" data-original="#6caac9"/></g><g id="g2734" transform="translate(71,256)"><path d="m 0,0 v 0 c 0,11.046 8.954,20 20,20 h 330 c 11.046,0 20,-8.954 20,-20 v 0 c 0,-11.046 -8.954,-20 -20,-20 H 20 C 8.954,-20 0,-11.046 0,0" style="fill-opacity:1;fill-rule:nonzero;stroke:none" id="path2736" fill="#a96a51" data-original="#a96a51" class=""/></g><g id="g2738" transform="translate(206,256)"><path d="m 0,0 c 0,11.046 8.954,20 20,20 h -135 c -11.046,0 -20,-8.954 -20,-20 0,-11.046 8.954,-20 20,-20 H 20 C 8.954,-20 0,-11.046 0,0" style="fill-opacity:1;fill-rule:nonzero;stroke:none" id="path2740" fill="#925b44" data-original="#925b44"/></g><g id="g2742" transform="translate(161,196)"><path d="m 0,0 v 0 c -11.046,0 -20,8.954 -20,20 v 80 c 0,11.046 8.954,20 20,20 v 0 c 11.046,0 20,-8.954 20,-20 V 20 C 20,8.954 11.046,0 0,0" style="fill-opacity:1;fill-rule:nonzero;stroke:none" id="path2744" fill="#04d481" data-original="#04d481"/></g><g id="g2746" transform="translate(161,256)"><path d="m 0,0 c -11.046,0 -20,8.954 -20,20 v -60 c 0,-11.046 8.954,-20 20,-20 11.046,0 20,8.954 20,20 V 20 C 20,8.954 11.046,0 0,0" style="fill-opacity:1;fill-rule:nonzero;stroke:none" id="path2748" fill="#22b27f" data-original="#22b27f"/></g><g id="g2750" transform="translate(271,196)"><path d="m 0,0 v 0 c -11.046,0 -20,8.954 -20,20 v 80 c 0,11.046 8.954,20 20,20 v 0 c 11.046,0 20,-8.954 20,-20 V 20 C 20,8.954 11.046,0 0,0" style="fill-opacity:1;fill-rule:nonzero;stroke:none" id="path2752" fill="#fd8e82" data-original="#fd8e82"/></g><g id="g2754" transform="translate(271,256)"><path d="m 0,0 c -11.046,0 -20,8.954 -20,20 v -60 c 0,-11.046 8.954,-20 20,-20 11.046,0 20,8.954 20,20 V 20 C 20,8.954 11.046,0 0,0" style="fill-opacity:1;fill-rule:nonzero;stroke:none" id="path2756" fill="#fd6c55" data-original="#fd6c55"/></g><g id="g2758" transform="translate(311,196)"><path d="m 0,0 v 0 c -11.046,0 -20,8.954 -20,20 v 80 c 0,11.046 8.954,20 20,20 v 0 c 11.046,0 20,-8.954 20,-20 V 20 C 20,8.954 11.046,0 0,0" style="fill-opacity:1;fill-rule:nonzero;stroke:none" id="path2760" fill="#fdf061" data-original="#fdf061" class=""/></g><g id="g2762" transform="translate(311,256)"><path d="m 0,0 c -11.046,0 -20,8.954 -20,20 v -60 c 0,-11.046 8.954,-20 20,-20 11.046,0 20,8.954 20,20 V 20 C 20,8.954 11.046,0 0,0" style="fill-opacity:1;fill-rule:nonzero;stroke:none" id="path2764" fill="#f5c02c" data-original="#f5c02c"/></g><g id="g2766" transform="translate(471,117.0016)"><path d="m 0,0 v 218.998 c 0,-16.568 -13.431,-30 -30,-30 -16.569,0 -30,13.432 -30,30 V -64.74 C -36.465,-46.807 -16.129,-24.896 0,0" style="fill-opacity:1;fill-rule:nonzero;stroke:none" id="path2768" fill="#925b44" data-original="#925b44"/></g><g id="g2770" transform="translate(71,306)"><path d="m 0,0 c -16.569,0 -30,13.431 -30,30 v -218.998 c 16.129,-24.896 36.465,-46.807 60,-64.74 V 30 C 30,13.431 16.569,0 0,0" style="fill-opacity:1;fill-rule:nonzero;stroke:none" id="path2772" fill="#925b44" data-original="#925b44"/></g></g></g></g></g></svg>