<svg id="Layer_1" enable-background="new 0 0 510.084 510.084" height="512" viewBox="0 0 510.084 510.084" width="512" xmlns="http://www.w3.org/2000/svg"><g><g><g><path d="m255.042.084c-98.131 0-158.58 55.352-158.747 55.445 0 0-2.513 3.137-2.983 5.222-3.818 16.948-7.385 39.663-7.385 56.238 0 140.833 118.763 254.972 259.596 254.972 54.231 0 114.568-25.992 154.949-57.243.903-.699 3.769-5.396 3.769-5.396.178-1.087 5.8-23.477 5.8-54.239.001-140.832-114.166-254.999-254.999-254.999z" fill="#6ee1ff"/></g><path d="m345.501 364.763c-140.833 0-255-114.167-255-255 0-18.615 2.007-36.753 5.795-54.234-58.645 46.72-96.254 118.747-96.254 199.555 0 82.338 39.025 155.562 99.587 202.184l137.383 52.189c5.956.416 11.968.628 18.03.628 121.17 0 224.116-84.98 249.199-200.761-43.559 34.694-98.724 55.439-158.74 55.439z" fill="#05cdff"/></g><g><g><path d="m350.717 353.311v-330.242c0-12.741-10.328-23.069-23.069-23.069h-89.106v353.311z" fill="#2896ff"/></g><g><path d="m262.719 351.936c-12.741 0-23.069-10.328-23.069-23.069v-328.867h-46.786c-12.741 0-23.069 10.328-23.069 23.069v362.701c0 12.741 10.328 23.069 23.069 23.069h134.784c12.741 0 23.069-10.328 23.069-23.069v-33.834z" fill="#1e87dc"/></g></g><g><circle cx="260.256" cy="156.515" fill="#1e87dc" r="63.751"/></g><g><circle cx="260.256" cy="126.671" fill="#195fa0" r="63.751"/></g><g><path d="m459.063 99.541h-112.2c.001.061.009.118.009.179v54.08h112.191c14.983 0 27.129-12.146 27.129-27.129s-12.145-27.13-27.129-27.13z" fill="#5ab4ff"/></g><g><path d="m348.731 153.8h-74.006c-14.983 0-27.129-12.146-27.129-27.129s12.146-27.129 27.129-27.129h74.006c14.983 0 27.129 12.146 27.129 27.129s-12.145 27.129-27.129 27.129z" fill="#2896ff"/></g><g><path d="m196.505 246.744h127.333v27.129h-127.333z" fill="#195fa0"/></g><g><path d="m257.096 349.022c-17.277-6.386-33.673-14.59-48.955-24.379h-50.289c-25.891 0-46.88 20.989-46.88 46.88v27.484c0 24.056 8.899 47.283 25.052 65.11 12.396 13.68 23.626 27.525 23.626 27.525 24.171 9.756 50.179 15.915 77.362 17.814 12.314-10.836 20.084-26.713 20.084-44.406z" fill="#ff965a"/><g><path d="m289.971 415.843v-134.956c0-9.54-7.733-17.273-17.273-17.273h-69.165v152.23h86.438z" fill="#fff"/></g><g><path d="m221.773 415.006c-9.54 0-17.273-7.733-17.273-17.273v-134.119h-32.423c-9.54 0-17.273 7.733-17.273 17.273v156.662c0 9.54 7.733 17.273 17.273 17.273h100.621c9.54 0 17.273-7.733 17.273-17.273v-22.542h-68.198z" fill="#f5f0f0"/></g><path d="m177.063 324.104c-21.841 23.094-6.651 7.033-64.932 68.657l.001.022c-9.005 11.023-14.706 27.256-14.706 45.375 0 6.68.774 13.106 2.202 19.109 18.217 14.024 38.383 25.641 60.021 34.375 13.765-9.98 23.179-30.184 23.179-53.484 0-10.19-1.803-19.783-4.983-28.189-3.46-9.148-1.493-19.457 5.319-26.476l26.244-27.043c8.932-8.932 8.932-23.414 0-32.346-8.931-8.932-23.413-8.932-32.345 0z" fill="#ffbe82"/><g><path d="m174.112 342.369-7.592-7.284 18.375-19.149c5.904-6.153 15.677-6.354 21.83-.451l.714.685c3.034 2.911 3.133 7.731.222 10.765l-14.432 15.041c-5.17 5.386-13.729 5.563-19.117.393z" fill="#ffcea1"/></g></g></g></svg>