<svg id="Capa_1" enable-background="new 0 0 501 501" height="512" viewBox="0 0 501 501" width="512" xmlns="http://www.w3.org/2000/svg"><g><path d="m501 250.5c0 135.31-109.69 245-245 245s-245-109.69-245-245 109.69-245 245-245 245 109.69 245 245z" fill="#f5c02c"/><path d="m501 250.5c0 13.622-1.112 26.983-3.25 40h-483.5c-2.138-13.017-3.25-26.378-3.25-40s1.112-26.983 3.25-40h483.5c2.138 13.017 3.25 26.378 3.25 40zm-78.791-180h-332.418c-24.199 22.356-43.88 49.531-57.52 80h447.458c-13.64-30.469-33.321-57.644-57.52-80zm-332.418 360h321.418c24.199-22.356 43.88-49.531 57.52-80h-436.458c13.64 30.469 33.321 57.644 57.52 80z" fill="#f19b0b"/><path d="m238.5 250.5c0 4.142-3.358 7.5-7.5 7.5s-7.5-3.358-7.5-7.5 3.358-7.5 7.5-7.5 7.5 3.358 7.5 7.5zm17.5-7.5c-4.142 0-7.5 3.358-7.5 7.5s3.358 7.5 7.5 7.5 7.5-3.358 7.5-7.5-3.358-7.5-7.5-7.5zm25 0c-4.142 0-7.5 3.358-7.5 7.5s3.358 7.5 7.5 7.5 7.5-3.358 7.5-7.5-3.358-7.5-7.5-7.5z" fill="#f7e6b0"/><path d="m201.579 151.289c0 55.664-45.125 100.789-100.789 100.789s-100.79-45.124-100.79-100.789 45.125-100.789 100.789-100.789 100.79 45.125 100.79 100.789zm256.151 21.408c-2.93-2.929-7.678-2.929-10.607 0l-30.05 30.05v-74.747c0-15.164-12.337-27.5-27.5-27.5h-160c-4.143 0-7.5 3.358-7.5 7.5s3.357 7.5 7.5 7.5h160c6.893 0 12.5 5.607 12.5 12.5v73.893l-29.196-29.196c-2.93-2.929-7.678-2.929-10.607 0s-2.929 7.678 0 10.606l42.427 42.426c1.465 1.464 3.385 2.197 5.304 2.197s3.839-.732 5.304-2.197l42.427-42.426c2.927-2.928 2.927-7.678-.002-10.606z" fill="#172a7d"/><path d="m201.579 151.289c0 55.664-45.125 100.789-100.789 100.789-4.863 0-9.646-.345-14.325-1.011-25.248-22.387-41.669-58.739-41.669-99.779s16.42-77.392 41.669-99.779c4.679-.666 9.462-1.011 14.325-1.011 55.664.002 100.789 45.127 100.789 100.791z" fill="#1f3595"/><path d="m398.634 449.722c-49.729-6.19-88.213-48.607-88.213-100.012 0-55.664 45.125-100.789 100.789-100.789 36.061 0 67.698 18.938 85.51 47.411-11.916 62.969-47.928 117.416-98.086 153.39zm-108.707-56.722c0 4.142-3.357 7.5-7.5 7.5h-160c-15.163 0-27.5-12.336-27.5-27.5v-74.747l-30.05 30.05c-2.931 2.93-7.679 2.929-10.607 0s-2.929-7.678 0-10.606l42.427-42.426c2.93-2.929 7.678-2.929 10.607 0l42.427 42.426c2.929 2.929 2.929 7.678 0 10.606-1.465 1.464-3.385 2.197-5.304 2.197s-3.839-.732-5.304-2.197l-29.196-29.196v73.893c0 6.893 5.607 12.5 12.5 12.5h160c4.142 0 7.5 3.358 7.5 7.5z" fill="#d80d80"/><path d="m398.634 449.722c-.585-.073-1.168-.151-1.749-.233-25.248-22.387-41.669-58.739-41.669-99.779s16.42-77.392 41.669-99.779c4.679-.666 9.462-1.011 14.325-1.011 36.061 0 67.698 18.938 85.51 47.411-11.916 62.97-47.928 117.417-98.086 153.391z" fill="#f02399"/><path d="m137.691 186.493-28.169-74.643c-.025-.068-.052-.135-.079-.202-1.427-3.471-4.771-5.713-8.523-5.713h-.007c-3.756.003-7.101 2.25-8.523 5.726-.023.057-.046.114-.067.171l-28.427 74.64c-1.475 3.871.469 8.204 4.34 9.678 3.865 1.476 8.203-.468 9.678-4.339l5.24-13.759h35.321l5.184 13.737c1.133 3.003 3.987 4.854 7.018 4.854.88 0 1.775-.156 2.647-.485 3.874-1.462 5.83-5.79 4.367-9.665zm-48.825-23.441 12.028-31.583 11.919 31.583zm341.102 181.248c3.168-4.18 5.049-9.385 5.049-15.022 0-13.741-11.179-24.92-24.92-24.92h-21.991c-4.143 0-7.5 3.358-7.5 7.5v75.706c0 1.995.795 3.908 2.208 5.315 1.406 1.4 3.309 2.185 5.292 2.185h.033c.002 0 20.225-.09 25.798-.09 15.372 0 27.878-12.506 27.878-27.878 0-9.41-4.686-17.745-11.847-22.796zm-19.871-24.942c5.47 0 9.92 4.45 9.92 9.92s-4.45 9.92-9.92 9.92c-1.623 0-4.684.009-8.019.021h-6.472v-19.86h14.491zm3.84 60.615c-3.347 0-11.959.032-18.331.058v-25.789c2.07-.008 4.342-.017 6.499-.025h11.833c7.101 0 12.878 5.777 12.878 12.877-.001 7.103-5.778 12.879-12.879 12.879z" fill="#fff5f5"/></g></svg>