<?xml version="1.0" encoding="iso-8859-1"?>
<!-- Generator: Adobe Illustrator 19.0.0, SVG Export Plug-In . SVG Version: 6.00 Build 0)  -->
<svg xmlns="http://www.w3.org/2000/svg" xmlns:xlink="http://www.w3.org/1999/xlink" version="1.1" id="Capa_1" x="0px" y="0px" viewBox="0 0 501 501" style="enable-background:new 0 0 501 501;" xml:space="preserve" width="512" height="512">
<g>
	<path style="fill:#D8E7F2;" d="M495.5,256c0,135.31-109.69,245-245,245S5.5,391.31,5.5,256s109.69-245,245-245   S495.5,120.69,495.5,256z"/>
	<path style="fill:#9FB0BD;" d="M400.5,110v20h-300v-20H400.5z M100.5,270h300v-20h-300V270z M100.5,410h300v-20h-300V410z"/>
	<path style="fill:#FF4927;" d="M165.5,95v50c0,8.284-6.716,15-15,15h-11c-8.284,0-15-6.716-15-15V95c0-8.284,6.716-15,15-15h11   C158.784,80,165.5,86.716,165.5,95z M150.5,220h-11c-8.284,0-15,6.716-15,15v50c0,8.284,6.716,15,15,15h11c8.284,0,15-6.716,15-15   v-50C165.5,226.716,158.784,220,150.5,220z M150.5,360h-11c-8.284,0-15,6.716-15,15v50c0,8.284,6.716,15,15,15h11   c8.284,0,15-6.716,15-15v-50C165.5,366.716,158.784,360,150.5,360z M205.25,220h-11c-8.284,0-15,6.716-15,15v50   c0,8.284,6.716,15,15,15h11c8.284,0,15-6.716,15-15v-50C220.25,226.716,213.534,220,205.25,220z M205.25,80h-11   c-8.284,0-15,6.716-15,15v50c0,8.284,6.716,15,15,15h11c8.284,0,15-6.716,15-15V95C220.25,86.716,213.534,80,205.25,80z    M250.75,360h-11c-8.284,0-15,6.716-15,15v50c0,8.284,6.716,15,15,15h11c8.284,0,15-6.716,15-15v-50   C265.75,366.716,259.034,360,250.75,360z"/>
	<path style="fill:#FF5526;" d="M165.5,95v30c0,8.284-6.716,15-15,15s-15-6.716-15-15V95c0-8.284,6.716-15,15-15   S165.5,86.716,165.5,95z M150.5,360c-8.284,0-15,6.716-15,15v30c0,8.284,6.716,15,15,15s15-6.716,15-15v-30   C165.5,366.716,158.784,360,150.5,360z M150.5,220c-8.284,0-15,6.716-15,15v30c0,8.284,6.716,15,15,15s15-6.716,15-15v-30   C165.5,226.716,158.784,220,150.5,220z M250.75,360c-8.284,0-15,6.716-15,15v30c0,8.284,6.716,15,15,15s15-6.716,15-15v-30   C265.75,366.716,259.034,360,250.75,360z M205.25,220c-8.284,0-15,6.716-15,15v30c0,8.284,6.716,15,15,15s15-6.716,15-15v-30   C220.25,226.716,213.534,220,205.25,220z M205.25,80c-8.284,0-15,6.716-15,15v30c0,8.284,6.716,15,15,15s15-6.716,15-15V95   C220.25,86.716,213.534,80,205.25,80z"/>
	<path style="fill:#33877C;" d="M320.125,375v50c0,8.284-6.716,15-15,15h-11c-8.284,0-15-6.716-15-15v-50c0-8.284,6.716-15,15-15h11   C313.409,360,320.125,366.716,320.125,375z M260,220h-11c-8.284,0-15,6.716-15,15v50c0,8.284,6.716,15,15,15h11   c8.284,0,15-6.716,15-15v-50C275,226.716,268.284,220,260,220z M359.5,80h-11c-8.284,0-15,6.716-15,15v50c0,8.284,6.716,15,15,15   h11c8.284,0,15-6.716,15-15V95C374.5,86.716,367.784,80,359.5,80z M305.5,80h-11c-8.284,0-15,6.716-15,15v50   c0,8.284,6.716,15,15,15h11c8.284,0,15-6.716,15-15V95C320.5,86.716,313.784,80,305.5,80z M359.5,220h-11c-8.284,0-15,6.716-15,15   v50c0,8.284,6.716,15,15,15h11c8.284,0,15-6.716,15-15v-50C374.5,226.716,367.784,220,359.5,220z M359.5,360h-11   c-8.284,0-15,6.716-15,15v50c0,8.284,6.716,15,15,15h11c8.284,0,15-6.716,15-15v-50C374.5,366.716,367.784,360,359.5,360z"/>
	<path style="fill:#409A8F;" d="M320.125,375v30c0,8.284-6.716,15-15,15s-15-6.716-15-15v-30c0-8.284,6.716-15,15-15   S320.125,366.716,320.125,375z M305.5,80c-8.284,0-15,6.716-15,15v30c0,8.284,6.716,15,15,15s15-6.716,15-15V95   C320.5,86.716,313.784,80,305.5,80z M260,220c-8.284,0-15,6.716-15,15v30c0,8.284,6.716,15,15,15s15-6.716,15-15v-30   C275,226.716,268.284,220,260,220z M359.5,360c-8.284,0-15,6.716-15,15v30c0,8.284,6.716,15,15,15s15-6.716,15-15v-30   C374.5,366.716,367.784,360,359.5,360z M359.5,220c-8.284,0-15,6.716-15,15v30c0,8.284,6.716,15,15,15s15-6.716,15-15v-30   C374.5,226.716,367.784,220,359.5,220z M359.5,80c-8.284,0-15,6.716-15,15v30c0,8.284,6.716,15,15,15s15-6.716,15-15V95   C374.5,86.716,367.784,80,359.5,80z"/>
	<path style="fill:#014C7E;" d="M104.75,10v120v130v42.855V380v10v62.938c-21.698-16.085-40.638-35.673-56-57.925V380v-42.218   v-34.927V260V130V10c0-5.523,4.477-10,10-10h36C100.273,0,104.75,4.477,104.75,10z M442.25,0h-36c-5.523,0-10,4.477-10,10v120v130   v42.855V380v10v62.938c21.698-16.085,40.638-35.673,56-57.925V380v-42.218v-34.927V260V130V10C452.25,4.477,447.773,0,442.25,0z"/>
	<path style="fill:#015D96;" d="M104.75,44.5V380c0,8.008-6.492,14.5-14.5,14.5s-14.5-6.492-14.5-14.5V44.5   c0-8.008,6.492-14.5,14.5-14.5S104.75,36.492,104.75,44.5z M437.75,30c-8.008,0-14.5,6.492-14.5,14.5V380   c0,8.008,6.492,14.5,14.5,14.5s14.5-6.492,14.5-14.5V44.5C452.25,36.492,445.758,30,437.75,30z"/>
</g>















</svg>
