<svg height="512pt" viewBox="0 0 512 512" width="512pt" xmlns="http://www.w3.org/2000/svg"><path d="m512 256c0 141.386719-114.613281 256-256 256s-256-114.613281-256-256 114.613281-256 256-256 256 114.613281 256 256zm0 0" fill="#16c6cc"/><path d="m451.988281 8.660156v146.011719c0 4.777344-3.867187 8.65625-8.660156 8.65625h-63.976563c-4.78125 0-8.660156-3.878906-8.660156-8.65625v-64.710937c0-4.78125-3.882812-8.660157-8.660156-8.660157h-56.722656c-4.777344 0-8.660156 3.878907-8.660156 8.660157v332.078124c0 4.78125 3.882812 8.660157 8.660156 8.660157h68.339844c4.78125 0 8.660156 3.878906 8.660156 8.660156v39.351563c-37.269532 21.1875-80.378906 33.289062-126.308594 33.289062s-89.039062-12.101562-126.308594-33.289062v-39.351563c0-4.78125 3.878906-8.660156 8.660156-8.660156h68.339844c4.777344 0 8.660156-3.878907 8.660156-8.660157v-332.078124c0-4.78125-3.882812-8.660157-8.660156-8.660157h-56.722656c-4.789062 0-8.660156 3.878907-8.660156 8.660157v64.710937c0 4.777344-3.878906 8.65625-8.660156 8.65625h-63.976563c-4.792969 0-8.660156-3.878906-8.660156-8.65625v-146.011719c0-4.78125 3.867187-8.660156 8.660156-8.660156h374.65625c4.792969 0 8.660156 3.878906 8.660156 8.660156zm0 0" fill="#465365"/><path d="m256 49v463c-45.929688 0-89.039062-12.101562-126.308594-33.289062v-39.351563c0-4.78125 3.878906-8.660156 8.660156-8.660156h68.339844c4.777344 0 8.660156-3.878907 8.660156-8.660157v-332.078124c0-4.78125-3.882812-8.660157-8.660156-8.660157h-56.722656c-4.789062 0-8.660156 3.878907-8.660156 8.660157v64.710937c0 4.777344-3.878906 8.65625-8.660156 8.65625h-31.988282v-114.328125c0-4.609375 3.730469-8.351562 8.339844-8.351562h138.648438c4.613281 0 8.351562 3.742187 8.351562 8.351562zm0 0" fill="#3e4959"/></svg>