<svg xmlns="http://www.w3.org/2000/svg" version="1.1" xmlns:xlink="http://www.w3.org/1999/xlink" xmlns:svgjs="http://svgjs.com/svgjs" x="0" y="0" viewBox="0 0 512 512" style="enable-background:new 0 0 512 512" xml:space="preserve" class=""><g><path fill="#bfecf5" d="M512 256c0 36.05-7.45 70.352-20.898 101.46-12.965 30.028-31.536 57.071-54.368 79.84a256.735 256.735 0 0 1-20.894 18.673 256.136 256.136 0 0 1-37.461 24.93 253.299 253.299 0 0 1-75.254 26.762 258.702 258.702 0 0 1-20.898 3.007A258.714 258.714 0 0 1 256 512c-3.762 0-7.512-.082-11.234-.25a260.91 260.91 0 0 1-20.895-1.746 254.58 254.58 0 0 1-54.367-12.988 251.746 251.746 0 0 1-20.899-8.567 254.403 254.403 0 0 1-34.093-19.07 254.867 254.867 0 0 1-20.899-15.477 257.37 257.37 0 0 1-54.367-61.636 255.108 255.108 0 0 1-20.262-39.32v-.012C6.75 323.03 0 290.304 0 256c0-3.262.063-6.508.188-9.738a243.7 243.7 0 0 1 .816-13.051c.238-2.719.523-5.434.844-8.129.504-4.168 1.109-8.309 1.808-12.402C24.23 91.918 129.38 0 256 0c61.828 0 118.535 21.922 162.773 58.41 4.817 3.961 9.489 8.11 13.993 12.414 25.59 24.43 46.12 54.114 59.863 87.332C505.113 188.301 512 221.352 512 256zm0 0" data-original="#bfecf5" class=""/><g fill="#7ad8eb"><path d="M352.477 149.148a37.483 37.483 0 0 1 5.003 18.758c0 20.781-16.843 37.625-37.625 37.625-20.785 0-37.64-16.844-37.64-37.625 0-.804.043-1.61.094-2.394l-64.29-20.887c-6.68 10.512-18.414 17.492-31.777 17.492a37.503 37.503 0 0 1-17.879-4.515L84.207 248.77a37.454 37.454 0 0 1 6.05 20.457c0 20.785-16.843 37.628-37.624 37.628-20.785 0-37.637-16.843-37.637-37.628 0-4.22.7-8.262 1.984-12.047L.188 246.262a243.7 243.7 0 0 1 .816-13.051c.238-2.719.523-5.434.844-8.129l25.308 16.445c6.707-6.164 15.645-9.937 25.477-9.937 6.465 0 12.547 1.64 17.867 4.515l84.156-91.168a37.52 37.52 0 0 1-6.05-20.457c0-20.785 16.855-37.628 37.636-37.628 20.785 0 37.63 16.843 37.63 37.628 0 .805-.032 1.606-.087 2.403l64.293 20.875c6.676-10.512 18.402-17.492 31.777-17.492 7.176 0 13.887 2.02 19.59 5.507l79.328-77.363c4.817 3.961 9.489 8.11 13.993 12.414zM93.613 357.336v96.566a257.37 257.37 0 0 1-54.367-61.636 255.108 255.108 0 0 1-20.262-39.32v-.012c1.895-6.34 7.778-10.97 14.735-10.97h44.523c8.485 0 15.371 6.888 15.371 15.372zm0 0" fill="#7ad8eb" data-original="#7ad8eb"/><path d="M223.871 260.379v249.625a254.58 254.58 0 0 1-54.367-12.988 251.746 251.746 0 0 1-20.899-8.567V260.38c0-8.484 6.875-15.371 15.372-15.371H208.5c8.484 0 15.371 6.887 15.371 15.37zM357.48 303.793v187.309a253.299 253.299 0 0 1-54.355 16.562 258.702 258.702 0 0 1-20.898 3.008V303.793c0-8.484 6.875-15.371 15.37-15.371h44.512c8.485 0 15.371 6.887 15.371 15.371zM491.102 173.527v183.934c-12.965 30.027-31.536 57.07-54.368 79.84a256.735 256.735 0 0 1-20.894 18.672V173.527c0-8.484 6.875-15.37 15.367-15.37h44.523c8.485 0 15.372 6.886 15.372 15.37zm0 0" fill="#7ad8eb" data-original="#7ad8eb"/></g><path fill="#394852" d="m54.91 245.98-10.18 15.653L1.004 233.21a249.356 249.356 0 0 1 2.652-20.531zM236.938 124.363l79.789 25.91-5.766 17.754-79.785-25.914zM447.578 50.691l13.031 13.364-93.082 90.78-13.03-13.358zM181.078 138.957l13.715 12.66-95.219 103.149-13.715-12.66zm0 0" data-original="#394852" class=""/><path fill="#f4de6e" d="M114.512 357.332v112.047a257.381 257.381 0 0 1-75.266-77.113v-34.934c0-8.488 6.883-15.367 15.371-15.367h44.524c8.488 0 15.37 6.879 15.37 15.367zm0 0" data-original="#f4de6e"/><path fill="#ff806d" d="M244.766 260.379V511.75c-26.309-1.129-51.594-6.238-75.262-14.734V260.379c0-8.492 6.879-15.371 15.367-15.371h44.527c8.489 0 15.368 6.879 15.368 15.37zm0 0" data-original="#ff806d"/><path fill="#f4de6e" d="M378.379 303.793v177.11a253.637 253.637 0 0 1-75.254 26.761V303.793c0-8.488 6.879-15.371 15.371-15.371h44.512c8.488 0 15.37 6.883 15.37 15.371zm0 0" data-original="#f4de6e"/><path fill="#ff806d" d="M496.629 158.156c8.492 0 15.371 6.88 15.371 15.367V256c0 70.832-28.766 134.95-75.266 181.3V173.524c0-8.488 6.883-15.367 15.371-15.367zm0 0" data-original="#ff806d"/><path fill="#1e7fca" d="M511.996 37.633c0 20.785-16.848 37.633-37.629 37.633-20.785 0-37.633-16.848-37.633-37.633 0-20.781 16.848-37.63 37.633-37.63 20.781 0 37.63 16.849 37.63 37.63zM378.383 167.902c0 20.786-16.848 37.633-37.63 37.633-20.784 0-37.632-16.847-37.632-37.633 0-20.78 16.848-37.629 37.633-37.629 20.781 0 37.629 16.848 37.629 37.63zM244.77 124.48c0 20.786-16.848 37.633-37.63 37.633-20.785 0-37.632-16.847-37.632-37.633 0-20.78 16.847-37.628 37.633-37.628 20.78 0 37.629 16.847 37.629 37.628zM111.156 269.227c0 20.78-16.847 37.628-37.629 37.628-20.785 0-37.632-16.847-37.632-37.628 0-20.786 16.847-37.633 37.632-37.633 20.782 0 37.63 16.847 37.63 37.633zm0 0" data-original="#1e7fca" class=""/></g></svg>