<svg height="512pt" viewBox="0 0 512 512" width="512pt" xmlns="http://www.w3.org/2000/svg"><path d="m512 256c0 67.050781-25.777344 128.09375-67.96875 173.726562-3.460938 3.738282-7.023438 7.363282-10.691406 10.886719-33.257813 31.960938-75.136719 55.023438-121.804688 65.347657-17.878906 3.949218-36.464844 6.039062-55.535156 6.039062-16.507812 0-32.664062-1.566406-48.304688-4.554688 0 0-.011718 0-.023437 0-33.800781-6.457031-65.261719-19.570312-92.941406-37.929687-9.351563-6.1875-18.265625-12.988281-26.699219-20.335937-4.40625-3.824219-8.683594-7.804688-12.820312-11.933594-.960938-.949219-1.910157-1.921875-2.839844-2.890625-6.292969-6.460938-12.226563-13.25-17.796875-20.347657-28.671875-36.484374-47.636719-80.957031-53.007813-129.535156-1.035156-9.351562-1.566406-18.847656-1.566406-28.472656 0-7.292969.304688-14.523438.910156-21.660156 10.992188-131.25 121-234.339844 255.089844-234.339844 141.386719 0 256 114.613281 256 256zm0 0" fill="#77d9a5"/><path d="m504.386719 293.695312c-2.25 17.089844-16.328125 30.160157-33.535157 31.253907-125.347656 7.957031-250.6875 7.957031-376.039062 0-17.203125-1.09375-31.28125-14.164063-33.53125-31.253907-6.019531-45.753906-8.46875-91.511718-7.347656-137.269531.695312-27.964843 2.714844-55.929687 6.078125-83.886719.402343-3.382812.820312-6.765624 1.269531-10.152343 2.253906-17.089844 16.328125-30.160157 33.535156-31.25 125.347656-7.960938 250.6875-7.960938 376.039063 0 17.203125 1.089843 31.28125 14.160156 33.535156 31.25.445313 3.382812.867187 6.769531 1.265625 10.152343 3.367188 27.957032 5.382812 55.921876 6.078125 83.886719 1.121094 45.757813-1.328125 91.515625-7.347656 137.269531zm0 0" fill="#ec4081"/><path d="m494.714844 292.425781c-1.628906 12.40625-11.929688 21.996094-24.484375 22.785157-46.574219 2.957031-93.640625 4.828124-140.457031 5.578124-15.6875.246094-31.339844.371094-46.9375.371094-62.171876 0-125.222657-2-187.40625-5.949218-5.167969-.328126-9.957032-2.144532-13.910157-5.042969-5.644531-4.125-9.605469-10.445313-10.570312-17.742188-5.921875-45.042969-8.371094-90.722656-7.257813-135.757812.679688-27.601563 2.703125-55.507813 6.007813-82.957031.417969-3.597657.828125-6.875 1.25-10.035157 1.636719-12.417969 11.9375-22.007812 24.480469-22.808593 62.183593-3.949219 125.234374-5.949219 187.40625-5.949219 24.25 0 48.625.304687 73.027343.910156 38.1875.945313 76.445313 2.632813 114.367188 5.039063 12.554687.800781 22.855469 10.390624 24.484375 22.796874.417968 3.132813.828125 6.410157 1.257812 10.027344 2.992188 24.863282 4.933594 50.085938 5.773438 75.117188.097656 2.621094.164062 5.246094.234375 7.859375 1.101562 45.035156-1.335938 90.714843-7.265625 135.757812zm0 0" fill="#f974ac"/><path d="m501.746094 148.808594-171.972656 171.980468c-15.6875.246094-31.339844.371094-46.9375.371094-62.171876 0-125.222657-2-187.40625-5.949218-5.167969-.328126-9.957032-2.144532-13.910157-5.042969l274.34375-274.34375c38.1875.949219 76.445313 2.632812 114.367188 5.042969 12.554687.800781 22.855469 10.390624 24.484375 22.796874.417968 3.128907.828125 6.40625 1.257812 10.027344 2.992188 24.863282 4.933594 50.085938 5.773438 75.117188zm0 0" fill="#ff99c2"/><path d="m511.734375 156.425781h-457.796875c.691406-27.964843 2.710938-55.933593 6.078125-83.886719h445.640625c3.367188 27.957032 5.386719 55.921876 6.078125 83.886719zm0 0" fill="#2c363b"/><path d="m501.746094 148.808594-7.617188 7.617187h-258.863281l83.882813-83.886719h176.6875c.046874.382813.085937.761719.136718 1.152344 2.992188 24.863282 4.933594 50.085938 5.773438 75.117188zm0 0" fill="#3f4b4f"/><path d="m165.191406 197.109375h-61.015625c-5.613281 0-10.167969-4.554687-10.167969-10.171875s4.554688-10.167969 10.167969-10.167969h61.015625c5.617188 0 10.167969 4.550781 10.167969 10.167969s-4.550781 10.171875-10.167969 10.171875zm0 0" fill="#2c363b"/><path d="m263.957031 197.109375h-61.015625c-5.613281 0-10.167968-4.554687-10.167968-10.171875s4.554687-10.167969 10.167968-10.167969h61.015625c5.617188 0 10.167969 4.550781 10.167969 10.167969s-4.550781 10.171875-10.167969 10.171875zm0 0" fill="#2c363b"/><path d="m362.722656 197.109375h-61.011718c-5.617188 0-10.167969-4.554687-10.167969-10.171875s4.550781-10.167969 10.167969-10.167969h61.011718c5.617188 0 10.171875 4.550781 10.171875 10.167969s-4.554687 10.171875-10.171875 10.171875zm0 0" fill="#2c363b"/><path d="m461.488281 197.109375h-61.011719c-5.617187 0-10.167968-4.554687-10.167968-10.171875s4.550781-10.167969 10.167968-10.167969h61.011719c5.617188 0 10.171875 4.550781 10.171875 10.167969s-4.554687 10.171875-10.171875 10.171875zm0 0" fill="#2c363b"/><path d="m444.03125 429.726562c-46.773438 50.59375-113.695312 82.273438-188.03125 82.273438-141.386719 0-256-114.613281-256-256 0-7.292969.304688-14.523438.910156-21.660156 6.015625-9.625 16.433594-16.132813 28.367188-16.898438 125.347656-7.960937 250.691406-7.960937 376.039062 0 17.207032 1.097656 31.285156 14.171875 33.53125 31.253906.449219 3.386719.875 6.773438 1.273438 10.15625 3.363281 27.953126 5.382812 55.925782 6.070312 83.886719.710938 28.996094-.007812 57.992188-2.160156 86.988281zm0 0" fill="#274b7b"/><path d="m433.339844 440.613281c-33.257813 31.960938-75.136719 55.023438-121.804688 65.347657-15.777344.5-31.554687.886718-47.300781 1.136718-15.683594.242188-31.335937.367188-46.9375.367188-3.207031 0-6.40625-.011719-9.625-.019532-109.160156-20.855468-193.722656-111.03125-206.105469-222.972656.753906-8.179687 1.621094-16.332031 2.59375-24.449218.425782-3.605469.835938-6.886719 1.253906-10.042969 1.640626-12.414063 11.929688-22.003907 24.480469-22.796875 62.183594-3.960938 125.230469-5.957032 187.402344-5.957032 24.253906 0 48.628906.300782 73.027344.910157 38.191406.9375 76.445312 2.632812 114.363281 5.046875 12.5625.792968 22.863281 10.382812 24.492188 22.789062.417968 3.132813.828124 6.402344 1.253906 10.03125 3 24.855469 4.933594 50.078125 5.78125 75.117188.09375 2.621094.15625 5.242187.230468 7.855468.78125 32.371094-.253906 65.078126-3.105468 97.636719zm0 0" fill="#40649c"/><path d="m436.214844 335.121094-171.980469 171.976562c-15.683594.242188-31.335937.367188-46.9375.367188-3.199219 0-6.394531-.011719-9.601563-.019532 0 0-.011718 0-.023437 0-51.1875-9.78125-96.984375-34.816406-132.460937-70.199218l215.113281-215.109375c38.191406.9375 76.445312 2.632812 114.363281 5.046875 12.5625.792968 22.863281 10.382812 24.492188 22.789062.417968 3.132813.828124 6.402344 1.253906 10.03125 3 24.855469 4.933594 50.078125 5.78125 75.117188zm0 0" fill="#6182b7"/><g fill="#2c363b"><path d="m26.707031 345.691406c-5.632812 0-10.195312-4.5625-10.195312-10.195312v-18.554688c0-5.628906 4.5625-10.195312 10.195312-10.195312 5.628907 0 10.195313 4.566406 10.195313 10.195312v18.554688c0 5.632812-4.566406 10.195312-10.195313 10.195312zm0 0"/><path d="m88.394531 345.691406c-5.628906 0-10.191406-4.5625-10.191406-10.195312v-18.554688c0-5.628906 4.5625-10.195312 10.191406-10.195312 5.632813 0 10.195313 4.566406 10.195313 10.195312v18.554688c0 5.632812-4.5625 10.195312-10.195313 10.195312zm0 0"/><path d="m57.550781 345.691406c-5.628906 0-10.195312-4.5625-10.195312-10.195312v-18.554688c0-5.628906 4.566406-10.195312 10.195312-10.195312 5.632813 0 10.195313 4.566406 10.195313 10.195312v18.554688c0 5.632812-4.5625 10.195312-10.195313 10.195312zm0 0"/><path d="m119.242188 345.691406c-5.632813 0-10.195313-4.5625-10.195313-10.195312v-18.554688c0-5.628906 4.5625-10.195312 10.195313-10.195312 5.628906 0 10.195312 4.566406 10.195312 10.195312v18.554688c-.003906 5.632812-4.566406 10.195312-10.195312 10.195312zm0 0"/><path d="m315.355469 345.691406c-5.632813 0-10.195313-4.5625-10.195313-10.195312v-18.554688c0-5.628906 4.5625-10.195312 10.195313-10.195312 5.628906 0 10.195312 4.566406 10.195312 10.195312v18.554688c-.003906 5.632812-4.566406 10.195312-10.195312 10.195312zm0 0"/><path d="m377.042969 345.691406c-5.628907 0-10.195313-4.5625-10.195313-10.195312v-18.554688c0-5.628906 4.566406-10.195312 10.195313-10.195312 5.632812 0 10.195312 4.566406 10.195312 10.195312v18.554688c0 5.632812-4.566406 10.195312-10.195312 10.195312zm0 0"/><path d="m346.199219 345.691406c-5.632813 0-10.195313-4.5625-10.195313-10.195312v-18.554688c0-5.628906 4.5625-10.195312 10.195313-10.195312 5.628906 0 10.195312 4.566406 10.195312 10.195312v18.554688c0 5.632812-4.566406 10.195312-10.195312 10.195312zm0 0"/><path d="m407.886719 345.691406c-5.628907 0-10.195313-4.5625-10.195313-10.195312v-18.554688c0-5.628906 4.566406-10.195312 10.195313-10.195312 5.632812 0 10.195312 4.566406 10.195312 10.195312v18.554688c0 5.632812-4.5625 10.195312-10.195312 10.195312zm0 0"/><path d="m171.03125 345.691406c-5.632812 0-10.195312-4.5625-10.195312-10.195312v-18.554688c0-5.628906 4.5625-10.195312 10.195312-10.195312 5.628906 0 10.195312 4.566406 10.195312 10.195312v18.554688c0 5.632812-4.566406 10.195312-10.195312 10.195312zm0 0"/><path d="m232.71875 345.691406c-5.628906 0-10.195312-4.5625-10.195312-10.195312v-18.554688c0-5.628906 4.566406-10.195312 10.195312-10.195312 5.632812 0 10.195312 4.566406 10.195312 10.195312v18.554688c0 5.632812-4.566406 10.195312-10.195312 10.195312zm0 0"/><path d="m201.875 345.691406c-5.628906 0-10.195312-4.5625-10.195312-10.195312v-18.554688c0-5.628906 4.566406-10.195312 10.195312-10.195312 5.632812 0 10.195312 4.566406 10.195312 10.195312v18.554688c0 5.632812-4.566406 10.195312-10.195312 10.195312zm0 0"/><path d="m263.5625 345.691406c-5.628906 0-10.195312-4.5625-10.195312-10.195312v-18.554688c0-5.628906 4.566406-10.195312 10.195312-10.195312 5.632812 0 10.195312 4.566406 10.195312 10.195312v18.554688c0 5.632812-4.5625 10.195312-10.195312 10.195312zm0 0"/></g><path d="m353.714844 427.054688c0 27.5625-22.34375 49.90625-49.902344 49.90625-27.5625 0-49.90625-22.34375-49.90625-49.90625 0-27.558594 22.34375-49.902344 49.90625-49.902344 27.558594 0 49.902344 22.34375 49.902344 49.902344zm0 0" fill="#fee175"/><path d="m414.09375 427.054688c0 27.5625-22.34375 49.90625-49.902344 49.90625-27.5625 0-49.90625-22.34375-49.90625-49.90625 0-27.558594 22.34375-49.902344 49.90625-49.902344 27.558594 0 49.902344 22.34375 49.902344 49.902344zm0 0" fill="#f974ac"/><path d="m183.171875 424.1875c0 2.808594-1.140625 5.347656-2.980469 7.1875-1.835937 1.839844-4.375 2.980469-7.1875 2.980469h-100.632812c-6.292969-6.460938-12.226563-13.25-17.796875-20.347657h118.429687c5.609375 0 10.167969 4.558594 10.167969 10.179688zm0 0" fill="#2c363b"/><path d="m141.21875 459.347656c0 2.800782-1.140625 5.351563-2.980469 7.1875-1.835937 1.839844-4.375 2.980469-7.1875 2.980469h-16.320312c-9.351563-6.1875-18.265625-12.988281-26.699219-20.335937h43.019531c5.621094 0 10.167969 4.546874 10.167969 10.167968zm0 0" fill="#2c363b"/></svg>