<?xml version="1.0" encoding="iso-8859-1"?>
<!-- Generator: Adobe Illustrator 19.0.0, SVG Export Plug-In . SVG Version: 6.00 Build 0)  -->
<svg version="1.1" id="Capa_1" xmlns="http://www.w3.org/2000/svg" xmlns:xlink="http://www.w3.org/1999/xlink" x="0px" y="0px"
	 viewBox="0 0 512 512" style="enable-background:new 0 0 512 512;" xml:space="preserve">
<circle style="fill:#F43F7E;" cx="255.068" cy="257.272" r="254.725"/>
<path style="fill:#E5E5E5;" d="M476.773,34.884L476.773,34.884c-46.512-46.512-121.923-46.512-168.434,0L201.485,141.737
	l31.633,31.633L339.971,66.516c28.995-28.995,76.174-28.996,105.17,0c28.995,28.995,28.995,76.174,0,105.169L338.287,278.539
	l31.633,31.633l106.853-106.853C523.285,156.807,523.285,81.397,476.773,34.884z"/>
<path style="fill:#10BEC1;" d="M395.783,380.396L264.345,511.834c-3.078,0.114-6.165,0.166-9.274,0.166
	C114.39,512,0.346,397.956,0.346,257.275c0-3.587,0.073-7.153,0.229-10.709l130.689-130.689c14.431-14.431,37.834-14.431,52.276,0
	L395.783,328.12C410.214,342.551,410.214,365.954,395.783,380.396z"/>
<path style="fill:#10A8A3;" d="M210.032,142.368c-15.533-15.523-40.704-15.523-56.227,0L2.883,293.301
	c-1.674-11.769-2.537-23.799-2.537-36.025c0-3.587,0.073-7.143,0.229-10.698v-0.01l128.714-128.714
	c15.523-15.523,40.694-15.523,56.227,0L210.032,142.368z"/>
<path style="fill:#445280;" d="M231.535,344.469c18.185-18.185,17.759-47.935-1.28-65.579c-17.207-15.946-44.19-16.058-61.521-0.246
	c-13.558,12.37-17.838,30.821-12.86,47.04l-25.012,25.012c-8.311,8.311-8.311,21.787,0,30.098l0,0
	c8.311,8.311,21.787,8.311,30.098,0l25.012-25.012C201.558,360.566,219.204,356.801,231.535,344.469z"/>
<g>
</g>
<g>
</g>
<g>
</g>
<g>
</g>
<g>
</g>
<g>
</g>
<g>
</g>
<g>
</g>
<g>
</g>
<g>
</g>
<g>
</g>
<g>
</g>
<g>
</g>
<g>
</g>
<g>
</g>
</svg>
