<svg xmlns="http://www.w3.org/2000/svg" version="1.1" xmlns:xlink="http://www.w3.org/1999/xlink" xmlns:svgjs="http://svgjs.com/svgjs" x="0" y="0" viewBox="0 0 512 512" style="enable-background:new 0 0 512 512" xml:space="preserve" class=""><g><g><path d="m488.787 362.668c-40.449 88.128-129.47 149.332-232.787 149.332-141.385 0-256-114.615-256-256s114.615-256 256-256c103.317 0 192.338 61.204 232.787 149.332.409.892-20.787 69.645-20.787 106.668s21.196 105.776 20.787 106.668z" fill="#314dca" data-original="#314dca" class=""/><path d="m468 256c0 117.084-94.915 212-212 212s-212-94.916-212-212 94.916-212 212-212 212 94.916 212 212z" fill="#4f66d1" data-original="#4f66d1" class=""/><path d="m348.398 451.693c0 3.958-3.211 7.171-7.17 7.172-.015 0-.029 0-.043 0-32.395 0-64.79-12.288-89.505-36.866-2.933-2.917-3.241-7.725-.39-10.723 2.917-3.067 7.767-3.111 10.742-.138 21.118 21.118 51.198 32.017 79.327 32.699 3.917.095 7.039 3.291 7.039 7.209zm-151.534-392.117c0 3.918-3.123 7.114-7.039 7.209-28.129.682-58.209 11.581-79.327 32.699-2.975 2.973-7.825 2.929-10.742-.138-2.851-2.998-2.543-7.806.39-10.723 24.715-24.577 57.11-36.866 89.505-36.866h.043c3.958.001 7.17 3.214 7.17 7.172z" fill="#c5d3dd" data-original="#c5d3dd"/><path d="m429.612 423.058c-24.575 23.871-56.501 35.807-88.428 35.807-2.92 0-5.84-.1-8.755-.3-3.951-.271-7.032-3.528-7.032-7.488 0-4.369 3.719-7.767 8.078-7.469 31.045 2.124 62.814-8.599 86.561-32.17h-13.672c-4.219 0-7.624-3.483-7.497-7.731.123-4.105 3.704-7.269 7.811-7.269h30.434c4.142 0 7.5 3.358 7.5 7.5v30.433c0 4.107-3.165 7.688-7.27 7.811-4.247.127-7.73-3.278-7.73-7.497zm-151.533-347.121c0-4.218 3.482-7.623 7.73-7.497 4.105.123 7.27 3.704 7.27 7.811v30.433c0 4.142-3.358 7.5-7.5 7.5h-30.434c-4.107 0-7.688-3.164-7.811-7.269-.128-4.247 3.277-7.731 7.497-7.731h13.672c-23.748-23.571-55.516-34.294-86.561-32.17-4.359.298-8.078-3.1-8.078-7.469 0-3.96 3.082-7.217 7.032-7.488 2.915-.2 5.835-.3 8.755-.3 31.927 0 63.853 11.936 88.428 35.807z" fill="#d9e7ec" data-original="#d9e7ec" class=""/><path d="m497.772 340.368c-2.653 7.603-5.654 15.042-8.985 22.299-14.03 5.825-29.457 8.962-45.639 8.769-62.36-.743-113.286-51.669-114.029-114.029-.475-39.883 19.277-75.181 49.638-96.278 1.088-.756 2.458.464 1.808 1.619-9.655 17.129-15.063 36.97-14.796 58.095.788 62.315 51.628 113.155 113.943 113.943 6.965.088 18.882 3.225 18.06 5.582z" fill="#00b3ce" data-original="#00b3ce"/><path d="m512 256c0 29.561-5.01 57.951-14.228 84.368-7.993 1.751-16.295 2.674-24.814 2.674-63.758 0-115.445-51.686-115.445-115.445 0-24.626 7.71-47.451 20.849-66.193 18.741-13.139 41.566-20.849 66.192-20.849 15.669 0 30.609 3.122 44.232 8.777 14.905 32.472 23.214 68.6 23.214 106.668z" fill="#00c8de" data-original="#00c8de"/><path d="m486.893 285.162c0 23.345-18.993 42.338-42.338 42.338-21.005 0-39.03-15.667-41.929-36.442-.271-1.943-.409-3.927-.409-5.896 0-4.142 3.357-7.5 7.5-7.5s7.5 3.358 7.5 7.5c0 1.277.089 2.563.265 3.822 1.87 13.406 13.51 23.516 27.073 23.516 15.074 0 27.338-12.264 27.338-27.338s-12.264-27.337-27.338-27.337c-4.143 0-7.5-3.358-7.5-7.5s3.357-7.5 7.5-7.5c15.074 0 27.338-12.264 27.338-27.338s-12.264-27.338-27.338-27.338c-13.035 0-24.316 9.266-26.824 22.031-.798 4.064-4.739 6.712-8.805 5.914-4.064-.798-6.713-4.74-5.914-8.805 3.886-19.782 21.357-34.14 41.543-34.14 23.345 0 42.338 18.993 42.338 42.338 0 14.427-7.253 27.191-18.304 34.838 11.05 7.647 18.304 20.411 18.304 34.837z" fill="#d9e7ec" data-original="#d9e7ec" class=""/><path d="m370.316 321.798c-21.097 30.362-56.395 50.114-96.278 49.639-62.36-.743-113.286-51.669-114.03-114.029-.475-39.883 19.277-75.181 49.639-96.278 1.088-.756 2.458.464 1.808 1.619-9.655 17.129-15.063 36.97-14.796 58.095.787 62.315 51.628 113.155 113.943 113.943 21.125.267 40.966-5.141 58.095-14.796 1.154-.651 2.375.719 1.619 1.807z" fill="#00c53b" data-original="#00c53b"/><path d="m390.89 256c0 24.626-7.711 47.451-20.849 66.193-18.742 13.139-41.567 20.849-66.193 20.849-63.759 0-115.445-51.686-115.445-115.445 0-24.626 7.711-47.451 20.849-66.193 18.742-13.139 41.567-20.849 66.193-20.849 63.759 0 115.445 51.686 115.445 115.445z" fill="#4bcd5c" data-original="#4bcd5c" class=""/><path d="m320.34 317.34c.053 4.142-3.263 7.542-7.404 7.594-19.168.241-33.131.334-43.329.334-25.721 0-27.508-.596-28.517-.932-2.628-.876-4.584-2.838-5.367-5.384-1.432-4.653.281-6.896 8.512-17.672 6.949-9.099 19.883-26.034 41.544-56.983 6.904-9.866 11.354-18.813 13.229-26.598l.559-4.374c-.24-14.868-12.41-26.889-27.334-26.889-13.035 0-24.316 9.265-26.824 22.031-.798 4.064-4.739 6.712-8.805 5.914-4.064-.798-6.713-4.741-5.914-8.805 3.886-19.781 21.357-34.139 41.543-34.139 23.345 0 42.338 18.993 42.338 42.338 0 .318-.021.635-.061.951l-.673 5.267c-.032.25-.076.498-.134.744-2.26 9.746-7.521 20.566-15.636 32.163-21.7 31.005-34.729 48.082-41.776 57.309 13.313.119 35.841-.012 56.455-.271 4.155-.042 7.542 3.26 7.594 7.402z" fill="#afe6af" data-original="#afe6af"/><path d="m210.316 321.798c-21.097 30.362-56.395 50.114-96.278 49.639-62.36-.743-113.286-51.669-114.03-114.029-.475-39.883 19.277-75.181 49.639-96.278 1.088-.756 2.458.464 1.808 1.619-9.655 17.129-15.063 36.97-14.796 58.095.787 62.315 51.628 113.155 113.943 113.943 21.125.267 40.966-5.141 58.095-14.796 1.154-.651 2.375.719 1.619 1.807z" fill="#ffb509" data-original="#ffb509" class=""/><path d="m230.89 256c0 24.626-7.711 47.451-20.849 66.193-18.742 13.139-41.567 20.849-66.192 20.849-63.759 0-115.445-51.686-115.445-115.445 0-24.626 7.711-47.451 20.849-66.193 18.742-13.139 41.567-20.849 66.193-20.849 63.758 0 115.444 51.686 115.444 115.445z" fill="#ffc143" data-original="#ffc143" class=""/><path d="m127.5 187.926v136.148c0 4.142-3.357 7.5-7.5 7.5s-7.5-3.358-7.5-7.5v-128.648h-21.601c-4.143 0-7.5-3.358-7.5-7.5s3.357-7.5 7.5-7.5h29.101c4.143 0 7.5 3.358 7.5 7.5z" fill="#ffe7bf" data-original="#ffe7bf"/><path d="m127.5 187.853v62.398c0 4.142-3.358 7.5-7.5 7.5s-7.5-3.358-7.5-7.5v-54.898h-21.601c-4.142 0-7.5-3.358-7.5-7.5s3.358-7.5 7.5-7.5h29.101c4.142 0 7.5 3.358 7.5 7.5zm144.732-16.489c-4.143 0-7.5 3.358-7.5 7.5s3.357 7.5 7.5 7.5c14.924 0 27.094 12.021 27.334 26.889l-.559 4.375c-1.875 7.785-6.325 16.731-13.229 26.597-2.375 3.394-1.55 8.07 1.844 10.445 1.31.916 2.81 1.356 4.294 1.356 2.365 0 4.692-1.116 6.151-3.2 8.115-11.596 13.376-22.417 15.637-32.163.057-.246.101-.494.133-.744l.673-5.267c.04-.315.061-.633.061-.951-.001-23.345-18.994-42.337-42.339-42.337zm172.323 16.712c15.074 0 27.338 12.264 27.338 27.338 0 4.142 3.357 7.5 7.5 7.5s7.5-3.358 7.5-7.5c0-23.345-18.993-42.338-42.338-42.338-4.143 0-7.5 3.358-7.5 7.5s3.357 7.5 7.5 7.5z" fill="#ffffff" data-original="#ffffff"/></g></g></svg>