<svg xmlns="http://www.w3.org/2000/svg" version="1.1" xmlns:xlink="http://www.w3.org/1999/xlink" xmlns:svgjs="http://svgjs.com/svgjs" x="0" y="0" viewBox="0 0 512 512" style="enable-background:new 0 0 512 512" xml:space="preserve"><g><path fill="#2a428c" d="M256 22.004c-135.309 0-244.998 109.689-244.998 244.998 0 85.334 43.637 160.465 109.804 204.332l80.217 34.469C218.696 509.855 237.097 512 256 512c135.309 0 244.998-109.689 244.998-244.998S391.309 22.004 256 22.004z" data-original="#2a428c"/><path fill="#1c2e7a" d="M323.903 168.41h-64.815v-27.776h77.642c37.431 0 69.203-24.666 79.933-58.595C373.649 44.645 317.47 22.004 256 22.004c-63.337 0-121.059 24.036-164.546 63.482v363.032a246.05 246.05 0 0 0 29.351 22.817v-.001L201 505.793a244.67 244.67 0 0 0 36.465 5.512c13.43-14.869 21.623-34.556 21.623-56.123V336.045h64.815c46.217 0 83.816-37.601 83.816-83.817s-37.599-83.818-83.816-83.818z" data-original="#1c2e7a"/><path fill="#50dd89" d="M336.73 113.634c31.623 0 57.295-25.969 56.81-57.7C393.064 24.758 367.046 0 335.867 0H175.27c-31.379 0-56.817 25.438-56.817 56.817v398.366c0 5.61.83 11.028 2.352 16.151 24.093 15.973 51.166 27.808 80.217 34.469 18.417-9.408 31.065-28.559 31.065-50.62V317.569a8.524 8.524 0 0 1 8.524-8.524h82.429c31.179 0 57.197-24.758 57.673-55.933.485-31.732-25.187-57.701-56.81-57.701h-83.292a8.524 8.524 0 0 1-8.524-8.524v-64.729a8.524 8.524 0 0 1 8.524-8.524z" data-original="#50dd89"/><path fill="#70f2a4" d="M248 34.473c18.237 18.237 111.073 22.344 111.073 22.344s8.606 22.66 33.512 10.398a56.973 56.973 0 0 0 .954-11.282C393.064 24.758 367.046 0 335.867 0H248s-18.237 16.236 0 34.473zM323.903 195.411H316s-15.865 18.608 0 34.473 30.247 22.344 30.247 22.344 6.891 23.248 33.328 11.237a55.893 55.893 0 0 0 1.139-10.353c.484-31.732-25.188-57.701-56.811-57.701z" data-original="#70f2a4"/><path fill="#38c674" d="M120.806 471.334c24.093 15.973 51.166 27.808 80.217 34.469 18.417-9.408 31.065-28.559 31.065-50.62V317.569c0-2.072.74-3.969 1.969-5.447l-.042-.065c-1.111-1.736-2.963-2.879-5.018-3.034-6.762-.51-22.829-4.335-29.915-28.503-.902-3.077-3.862-5.129-7.048-4.757-8.456.987-24.792-.362-36.703-21.477-1.384-2.454-4.125-3.859-6.898-3.36-7.219 1.299-21.452.414-29.979-22.979v227.236a56.584 56.584 0 0 0 2.352 16.151z" data-original="#38c674"/><path fill="#38c674" d="M336.73 34.473H175.27c-12.34 0-22.344 10.004-22.344 22.344v398.366c0 12.34 10.004 22.344 22.344 22.344s22.344-10.004 22.344-22.344V274.571h126.289c12.34 0 22.344-10.004 22.344-22.344s-10.004-22.344-22.344-22.344H197.614V79.161H336.73c12.34 0 22.344-10.003 22.344-22.344S349.07 34.473 336.73 34.473z" data-original="#38c674"/><path fill="#1ba552" d="M175.27 477.527c12.34 0 22.344-10.004 22.344-22.344V277.899c-1.381-1.53-3.428-2.388-5.58-2.137-8.456.987-24.792-.362-36.703-21.477a6.876 6.876 0 0 0-2.404-2.477v203.374c0 12.341 10.003 22.345 22.343 22.345z" data-original="#1ba552"/><circle cx="314.149" cy="449.774" r="8.25" fill="#698dcc" data-original="#698dcc"/><circle cx="416.662" cy="153.153" r="8.25" fill="#698dcc" data-original="#698dcc"/><g fill="#5273ba"><circle cx="367" cy="387.271" r="14.777" transform="rotate(-77.64 366.928 387.192)" fill="#5273ba" data-original="#5273ba"/><circle cx="54.925" cy="238.124" r="14.777" transform="rotate(-22.48 54.994 237.923)" fill="#5273ba" data-original="#5273ba"/></g></g></svg>