<?xml version="1.0" encoding="iso-8859-1"?>
<!-- Generator: Adobe Illustrator 19.0.0, SVG Export Plug-In . SVG Version: 6.00 Build 0)  -->
<svg version="1.1" id="Capa_1" xmlns="http://www.w3.org/2000/svg" xmlns:xlink="http://www.w3.org/1999/xlink" x="0px" y="0px"
	 viewBox="0 0 511.998 511.998" style="enable-background:new 0 0 511.998 511.998;" xml:space="preserve">
<circle style="fill:#80D5FF;" cx="255.999" cy="260.408" r="251.59"/>
<circle style="fill:#3997EE;" cx="305.469" cy="193.518" r="193.49"/>
<path style="fill:#1F7FE8;" d="M281.764,318.914c-92.543-53.43-124.251-171.765-70.821-264.308
	c10.066-17.435,22.438-32.708,36.505-45.662c-44.618,14.013-84.316,44.137-109.542,87.83
	c-53.43,92.543-21.722,210.878,70.821,264.308c75.108,43.364,167.203,30.645,227.803-25.159
	C386.647,351.59,330.614,347.118,281.764,318.914z"/>
<g>
	<path style="fill:#32CC65;" d="M281.639,1.454c7.88,15.708,7.92,15.262,7.521,16.639c-7.285,25.115-7.11,23.693-6.667,24.876
		c7.116,18.987,6.601,18.374,7.877,19.033l18.601,9.621c1.786,0.924,3.916-0.372,3.916-2.383V46.654
		c0-1.231,0.838-2.304,2.033-2.603c15.154-3.789,14.029-3.488,14.345-3.629c30.387-13.584,30.491-12.904,30.491-15.38
		c0-0.317,0-8.548,0-17.239C334.617,0.461,308.021-1.807,281.639,1.454z"/>
	<path style="fill:#32CC65;" d="M268.695,255.604c-2.53-0.597-12.554-12.842-14.834-14.264
		c-17.745-11.002-9.774-7.665-31.051-13.797c-0.91-0.266-0.334-0.099-16.779-9.724c-1.72-1.011-1.438-0.385-21.969-0.576
		c-0.738,0-1.454,0.206-2.089,0.574l-23.91-12.451l-5.174-11.942c-2.874-6.634-8.943-5.791-33.304-16.009
		c0.471-7.06-1.296-10.885,2.11-12.822c15.438-8.268,16.205-10.437,19.322-9.33c12.298,3.828,4.738,2.957,15.094,3.084
		c6.518,0,4.022-11.97,7.195-15.11l13.988-13.834c1.57-1.553,10.063-21.285,11.567-22.696l9.48-8.887
		c2.582-2.421,2.272-10.36,5.842-11.996c13.581-6.003,13.687-6.798,15.77-6.523c28.382,2.888,15.686,4.935,33.51-1.522
		c2.887-1.089,3.635-4.827,1.39-6.944c-9.081-8.593-4.346-3.128-19.934-23.325c-1.512-1.955-3.265-1.464-9.508-3.076
		c-5.54-1.212-3.188-13.124-9.975-12.249c-3.458,0.749-6.638-0.071-8.183,2.826l-9.818,18.408
		c-5.443,10.021-5.194,12.522-8.226,13.356c-3.808,0.6-8.413,3.829-10.973,0.103c-5.612-8.091-6.838-10.274-8.147-11.659
		c-38.273,37.413-58.799,88.772-58.107,141.037c0.323,0.26,0.633,0.413,1.05,0.572c0,0,0.003,0.004,0.005,0.006l22.997,8.522
		l4.91,11.333c2.446,5.645,6.004,4.919,32.675,19.563c1.526,3.165,3.213,4.487,2.608,6.957c-4.888,20.984-4.207,9.341,0.184,29.088
		c0.369,1.413-0.287-0.046,16.433,22.428c0.937,1.249,0.355,0.468,20.024,11.641c2.361,1.324,1.414,1.899,10.803,25.693
		c0.309,0.816-0.884-1.215,23.363,35.478c1.108,1.673,2.254,1.531,8.914,4.735c3.806,1.722,7.502-2.596,5.214-6.091
		c-2.432-3.714,1.767-6.247,7.558-16.946c0.553-0.904,0.212-0.369,5.811-20.232c0.998-3.578,4.165-2.801,17.814-8.149
		c2.634-0.925,2.491-3.018,7.7-12.332c1.346-2.583-0.605-12.383,1.106-15.122l8.308-13.315c1.984-3.177-1.001-5.517-4.55-14.294
		C303.391,262.522,302.303,264.108,268.695,255.604z"/>
</g>
<path style="fill:#23B658;" d="M281.764,318.914c-41.098-23.728-70.185-60.261-85.159-101.646c-2.96,0.019-6.984,0.028-12.543-0.024
	c-0.738,0-1.454,0.206-2.089,0.574l-23.909-12.451l-5.174-11.942c-2.874-6.634-8.943-5.791-33.304-16.009
	c0.47-7.06-1.296-10.885,2.11-12.822c15.438-8.269,16.205-10.437,19.322-9.33c12.298,3.828,4.738,2.957,15.094,3.084
	c6.517,0,4.022-11.97,7.195-15.11l13.988-13.834c1.57-1.553,10.063-21.285,11.566-22.696l1.73-1.622
	c4.266-17.292,11-34.282,20.352-50.481c3.2-5.542,6.657-10.839,10.302-15.939c-1.066-3.419-1.992-6.972-5.81-6.48
	c-3.458,0.749-6.638-0.071-8.183,2.826l-9.818,18.408c-5.442,10.021-5.194,12.522-8.226,13.356c-3.808,0.6-8.413,3.829-10.973,0.103
	c-5.602-8.078-6.833-10.266-8.14-11.651c-37.589,36.733-58.736,87.703-58.114,140.734c0.001,0.099,0.002,0.199,0.003,0.298
	c0.322,0.259,0.632,0.412,1.047,0.57c0,0,0.003,0.004,0.005,0.006l22.997,8.522l4.911,11.333c2.446,5.645,6.004,4.919,32.675,19.563
	c1.526,3.165,3.213,4.487,2.608,6.957c-4.888,20.984-4.206,9.342,0.184,29.088c0.369,1.413-0.287-0.045,16.432,22.428
	c0.937,1.249,0.355,0.468,20.024,11.641c2.361,1.324,1.414,1.899,10.804,25.693c0.309,0.816-0.884-1.215,23.362,35.478
	c1.108,1.673,2.255,1.531,8.914,4.735c3.806,1.722,7.503-2.596,5.214-6.091c-2.432-3.714,1.767-6.247,7.558-16.946
	c0.553-0.904,0.212-0.369,5.811-20.232c0.886-3.177,3.5-2.931,13.624-6.576C286.013,321.296,283.88,320.136,281.764,318.914z"/>
<path style="fill:#32CC65;" d="M473.035,96.774c-15.052-26.071-35.256-47.312-58.582-63.183c0.362,1.603,0.254,3.323-0.47,4.93
	c-1.409,2.468-1.863,6.726-6.339,8.383c-24.536,9.448-9.069,0.952-32.787,22.188c-2.156,2.081-2.937,5.21-2.013,8.061
	c1.444,4.454-1.311,9.173-5.9,10.105l-7.617,1.546c-8.007,1.625-6.036,10.692-6.283,11.721c0,4.332,3.512,7.843,7.843,7.843
	c7.099,0,13.136,0,20.21,0c6.354,0,7.466-5.963,15.361-15.416c2.631-3.555,5.661-2.86,17.455-6.57
	c5.023-1.394,7.648,2.275,16.462,6.705c3.865,2.199,8.784,0.747,10.836-3.199l1.904-3.662c4.04-7.769,16.144-3.715,16.144,4.253
	c-0.285,11.418,0.702,13.179-1.083,16.213c-1.303,3.182-7.177,8.387-3.02,14.256l5.453,7.699c4.593,6.484-2.61,11.712-3.168,12.749
	c-1.911,2.184-4.873,3.134-7.698,2.47c-17.828-4.38-18.393-3.882-20.581-5.445c-12.297-8.584-12.473-9.393-14.959-10.014
	c-17.817-4.069-19.486-5.83-23.301-4.468c-25.631,9.479-26.312,8.633-28.641,11.253c-7.043,7.944-11.702,13.175-14.818,16.67
	l-26.748,25.346v19.694l14.72,19.571c17.703,11.818,18.152,13.586,22.169,13.586c14.304,0,26.129,0,39.388,0
	c3.207,0,6.091,1.953,7.282,4.93c2.292,6.313,3.805,7.944,3.405,11.146c-3.869,29.217,0.258,13.643-13.466,42.164
	c-14.594,28.632-11.622,21.616-14.548,31.387c-2.037,6.666,4.984,12.478,11.153,9.232c7.047-3.993-3.477,4.303,40.669-40.248
	c0.899-0.928,21.483-28.997,22.385-30.019c13.984-15.757,4.418-7.033,36.069-31.727c4.555-15.617,7.376-31.519,8.564-47.447
	C496.451,151.212,488.154,122.96,473.035,96.774z"/>
<path style="fill:#EDB87E;" d="M464.877,337.548c-7.268-8.457-17.965-8.203-28.681-2.235
	c-25.092,13.976-79.544,38.914-79.544,38.914h-0.002c1.731-2.782,2.747-6.21,2.747-10.43c0-13.659-20.377-21.026-43.732-24.987
	l-24.462-5.617c-12.213-2.804-23.904-7.641-34.324-14.601c-25.124-16.78-52.045-13.172-71.062-7.517
	c-9.748,2.899-19.888,4.258-30.057,4.258h-20.601v3.652l0,0v100.514c8.385,0.738,18.004-0.67,31.285,4.73
	c23.324,9.484,86.438,30.644,129.676,30.644c35.595,0,123.724-50.525,164.192-85.287
	C470.949,360.448,473.972,348.132,464.877,337.548z"/>
<g>
	<path style="fill:#E4A970;" d="M356.652,374.227L356.652,374.227c-5.196,6.475-13.881,9.966-22.183,8.803l-77.361-10.762
		c-3.98-0.555-7.658,2.224-8.212,6.206s2.224,7.658,6.206,8.212l77.361,10.762c1.739,0.242,3.477,0.36,5.207,0.36
		c12.564,0,24.614-6.249,31.781-16.767c0.025-0.034,0.05-0.069,0.075-0.104c0.04-0.059,0.084-0.113,0.123-0.172
		c0.141-0.211,0.269-0.427,0.386-0.647l6.613-12.522c0.518-0.981,0.781-2.026,0.828-3.066
		C365.391,370.225,356.652,374.227,356.652,374.227z"/>
	<path style="fill:#E4A970;" d="M169.44,372.665c0-27.012,13.361-50.888,33.821-65.429c-6.284,0.862-12.167,2.271-17.442,3.84
		c-9.748,2.899-19.888,4.257-30.057,4.257h-20.603v3.652v100.514c8.385,0.738,18.004-0.67,31.285,4.73
		c7.809,3.175,20.081,7.659,34.571,12.22C181.828,421.787,169.44,398.678,169.44,372.665z"/>
</g>
<path style="fill:#EFEFEF;" d="M84.533,445.829V287.86h43.973c4.746,0,8.594,3.848,8.594,8.594v140.781
	c0,4.746-3.847,8.594-8.594,8.594H84.533z"/>
<path style="fill:#DDDDDD;" d="M128.506,391.831H84.533v53.997h43.973c4.746,0,8.594-3.848,8.594-8.594v-53.996
	C137.1,387.984,133.252,391.831,128.506,391.831z"/>
<path style="fill:#7389A0;" d="M77.886,278.661H5.075c4.751,66.255,35.15,125.407,81.33,167.577
	c0.042-0.342,0.069-0.689,0.069-1.043V287.249C86.474,282.506,82.629,278.661,77.886,278.661z"/>
<path style="fill:#647892;" d="M77.886,399.782H46.54c11.377,17.066,24.771,32.672,39.864,46.455
	c0.042-0.342,0.069-0.689,0.069-1.043v-54C86.474,395.937,82.629,399.782,77.886,399.782z"/>
<g>
</g>
<g>
</g>
<g>
</g>
<g>
</g>
<g>
</g>
<g>
</g>
<g>
</g>
<g>
</g>
<g>
</g>
<g>
</g>
<g>
</g>
<g>
</g>
<g>
</g>
<g>
</g>
<g>
</g>
</svg>
