<svg xmlns="http://www.w3.org/2000/svg" version="1.1" xmlns:xlink="http://www.w3.org/1999/xlink" xmlns:svgjs="http://svgjs.com/svgjs" x="0" y="0" viewBox="0 0 512 512" style="enable-background:new 0 0 512 512" xml:space="preserve" class=""><g><g><path d="m501 256c0 135.31-109.69 245-245 245s-245-109.69-245-245 109.69-245 245-245 245 109.69 245 245z" fill="#00d683" data-original="#00d683" class=""/><path d="m456 256c0 110.457-89.543 200-200 200s-200-89.543-200-200 89.543-200 200-200 200 89.543 200 200z" fill="#00e294" data-original="#00e294" class=""/><path d="m80 148.865v214.269c0 11.046-8.954 20-20 20h-32.5c-11.046 0-20-8.954-20-20v-214.269c0-11.046 8.954-20 20-20h32.5c11.046 0 20 8.955 20 20z" fill="#c9f0ff" data-original="#c9f0ff"/><path d="m504.5 148.865v214.269c0 11.046-8.954 20-20 20h-414.5c-11.046 0-20-8.954-20-20v-214.269c0-11.046 8.954-20 20-20h414.5c11.046 0 20 8.955 20 20z" fill="#fff5f5" data-original="#fff5f5"/><path d="m380 380h-30v-250h30z" fill="#c9f0ff" data-original="#c9f0ff"/><path d="m484.5 121.365h-457c-15.164 0-27.5 12.336-27.5 27.5v214.27c0 15.164 12.336 27.5 27.5 27.5h457c15.164 0 27.5-12.336 27.5-27.5v-214.27c0-15.163-12.336-27.5-27.5-27.5zm12.5 241.77c0 6.893-5.607 12.5-12.5 12.5h-457c-6.893 0-12.5-5.607-12.5-12.5v-214.27c0-6.893 5.607-12.5 12.5-12.5h457c6.893 0 12.5 5.607 12.5 12.5z" fill="#00d1fc" data-original="#00d1fc"/><path d="m410 410.66c0 5.523-4.477 10-10 10h-30c-5.523 0-10-4.477-10-10s4.477-10 10-10h5v-291.32h-5c-5.523 0-10-4.477-10-10s4.477-10 10-10h30c5.523 0 10 4.477 10 10s-4.477 10-10 10h-5v291.32h5c5.523 0 10 4.477 10 10z" fill="#2740b1" data-original="#2740b1"/><path d="m81.145 333.345c-3.054 0-6.069-1.394-8.032-4.032-3.291-4.424-2.378-10.675 2.033-13.975.383-.289 38.37-29.442 44.49-82.735.63-5.487 5.584-9.43 11.075-8.794 5.487.63 9.424 5.589 8.794 11.075-7.139 62.165-50.556 95.113-52.4 96.485-1.793 1.333-3.885 1.976-5.96 1.976zm124.702-1.977c1.845-1.372 45.262-34.32 52.4-96.485.63-5.486-3.307-10.445-8.794-11.075-5.488-.636-10.445 3.307-11.075 8.794-6.12 53.293-44.107 82.447-44.49 82.735-4.412 3.3-5.324 9.551-2.033 13.975 1.963 2.639 4.978 4.032 8.032 4.032 2.074.001 4.167-.642 5.96-1.976z" fill="#2740b1" data-original="#2740b1"/><path d="m90.629 277.397c-27.223 0-49.371-22.147-49.371-49.371s22.147-49.371 49.371-49.371 49.371 22.149 49.371 49.372-22.147 49.37-49.371 49.37zm0-78.741c-16.195 0-29.371 13.176-29.371 29.371s13.176 29.371 29.371 29.371 29.371-13.176 29.371-29.371-13.176-29.371-29.371-29.371zm118.742 78.741c-27.223 0-49.371-22.147-49.371-49.371s22.147-49.371 49.371-49.371 49.371 22.148 49.371 49.371-22.148 49.371-49.371 49.371zm0-78.741c-16.195 0-29.371 13.176-29.371 29.371s13.176 29.371 29.371 29.371 29.371-13.176 29.371-29.371c-.001-16.195-13.177-29.371-29.371-29.371z" fill="#314dca" data-original="#314dca"/></g></g></svg>