<svg xmlns="http://www.w3.org/2000/svg" version="1.1" xmlns:xlink="http://www.w3.org/1999/xlink" xmlns:svgjs="http://svgjs.com/svgjs" x="0" y="0" viewBox="0 0 512 512" style="enable-background:new 0 0 512 512" xml:space="preserve" class=""><g><g><path d="m62.986 417.908 88.392 70.677c31.729 15.008 67.192 23.415 104.622 23.415 37.441 0 72.913-8.412 104.649-23.427l88.386-70.692c32.554-41.591 51.963-93.967 51.963-150.879 0-135.309-109.689-244.998-244.998-244.998s-244.998 109.689-244.998 244.998c0 56.924 19.417 109.31 51.984 150.906z" fill="#7255ce" data-original="#7255ce" class=""/><path d="m63.027 417.94 88.351 70.645.005.007c8.321 3.936 16.896 7.423 25.7 10.416l78.992-112.131 78.874 112.12c8.802-2.995 17.376-6.482 25.696-10.418l.004-.006 88.347-70.661c5.914-7.553 11.405-15.452 16.414-23.679l-107.181-152.362 89.628-127.229c-35.119-44.165-85.156-75.935-142.5-87.665l-49.184 69.819-49.165-69.889c-57.374 11.645-107.457 43.344-142.64 87.455l89.651 127.441-107.407 152.465c5.009 8.224 10.501 16.122 16.415 23.672z" fill="#5c45bf" data-original="#5c45bf" class=""/><path d="m86.624 444.005 34.408 27.468c9.479 6.268 19.413 11.905 29.753 16.83.358-.094.639-.168.997-.262l97.85-138.898c3.147-4.467 9.77-4.465 12.914.004l97.686 138.862c.371.098.661.174 1.033.271 10.33-4.923 20.254-10.557 29.725-16.821l34.41-27.476c8.484-8.121 16.388-16.842 23.637-26.103l-120.629-171.473c-1.918-2.727-1.917-6.365.003-9.091l104.454-148.274c17.94-25.464 11.817-60.776-13.648-78.716-25.522-17.979-60.731-11.882-78.716 13.648l-77.884 110.558c-3.147 4.467-9.77 4.465-12.914-.004l-77.749-110.522c-17.963-25.538-53.168-31.67-78.709-13.702-25.476 17.922-31.622 53.229-13.7 78.706l104.295 148.258c1.918 2.727 1.917 6.365-.003 9.091l-120.851 171.549c7.249 9.259 15.154 17.978 23.638 26.097z" fill="#65ddff" data-original="#65ddff"/><path d="m347.58 15.736c-.052.271-5.294 27.977 20.943 27.977l32.476 31.05s.813 26.934 27.211 20.887l4.656-6.609c17.94-25.464 11.817-60.776-13.648-78.716-22.499-15.848-52.519-12.979-71.638 5.411z" fill="#a2ebfc" data-original="#a2ebfc"/><path d="m93.245 10.304c-3.712 2.611-7 5.601-9.877 8.866-.002.385-.027 26.612 24.821 23.722l42.532 10.502s26.128 15.687 34.147-11.03l-12.915-18.358c-17.962-25.537-53.167-31.669-78.708-13.702z" fill="#a2ebfc" data-original="#a2ebfc"/><path d="m449.035 417.88-55.208-78.48c-.647.053-1.286.191-1.897.425-24.055 9.242-40.298-3.828-46.728-10.662-1.972-2.096-5.011-2.775-7.708-1.77-29.523 11.002-51.352-7.758-58.453-15.12-1.586-1.645-3.854-2.405-6.119-2.108-14.224 1.864-21.418-6.02-24.579-11.299-1.48-2.472-4.344-3.792-7.194-3.372-19.242 2.831-29.157-9.683-33.104-16.633-1.409-2.481-4.189-3.831-7.024-3.515-15.172 1.691-21.502-7.015-23.986-12.674-.556-1.267-1.455-2.301-2.546-3.044l-111.503 158.28c7.249 9.259 15.154 17.978 23.638 26.097l34.408 27.468c9.48 6.268 19.413 11.905 29.753 16.83.359-.094.639-.167.997-.262l97.85-138.898c3.147-4.467 9.77-4.465 12.914.004l97.686 138.862c.371.098.661.174 1.033.272 10.33-4.923 20.254-10.557 29.725-16.821l34.41-27.476c8.482-8.121 16.386-16.843 23.635-26.104z" fill="#56c2ff" data-original="#56c2ff"/><path d="m424.606 442.726-141.314-200.88 121.553-172.544c7.066-10.03 4.662-23.89-5.368-30.956-10.032-7.067-23.89-4.663-30.955 5.367l-112.385 159.531-112.218-159.518c-7.059-10.035-20.917-12.448-30.953-5.388-10.034 7.059-12.447 20.917-5.388 30.952l121.377 172.539-141.518 200.884c-.296.421-.552.857-.815 1.291 10.603 10.147 22.121 19.344 34.409 27.47.989-.957 1.909-2.008 2.729-3.172l132.35-187.871 132.156 187.859c.819 1.164 1.738 2.214 2.723 3.17 12.289-8.128 23.807-17.327 34.41-27.477-.257-.422-.505-.848-.793-1.257z" fill="#56c2ff" data-original="#56c2ff"/><g fill="#1e9ef4"><path d="m123.761 468.302 121.353-172.26c-1.222-.538-2.593-.748-3.965-.546-19.242 2.831-29.157-9.683-33.104-16.633-.737-1.298-1.853-2.276-3.152-2.878l-117.456 166.728c-.296.421-.552.857-.815 1.291 10.603 10.147 22.121 19.344 34.409 27.47.989-.957 1.91-2.009 2.73-3.172z" fill="#1e9ef4" data-original="#1e9ef4"/><path d="m424.606 442.726-80.574-114.537c-1.895-1.294-4.327-1.619-6.538-.794-29.523 11.002-51.352-7.758-58.453-15.12-.379-.393-.799-.732-1.247-1.022l110.472 157.037c.819 1.164 1.738 2.214 2.723 3.17 12.289-8.128 23.807-17.327 34.41-27.477-.257-.422-.505-.848-.793-1.257z" fill="#1e9ef4" data-original="#1e9ef4"/></g><ellipse cx="69.336" cy="208.427" fill="#9483e3" rx="17.933" ry="17.933" transform="matrix(.16 -.987 .987 .16 -147.507 243.481)" data-original="#9483e3"/><circle cx="233.638" cy="477.724" fill="#b5b0f7" r="8.25" data-original="#b5b0f7"/><path d="m441.103 189.431c2.097 4.045.518 9.024-3.527 11.121s-9.024.518-11.121-3.527-.518-9.024 3.527-11.121 9.024-.518 11.121 3.527z" fill="#b5b0f7" data-original="#b5b0f7"/><path d="m429.77 248.235c3.145 6.068.777 13.536-5.291 16.682-6.068 3.145-13.536.776-16.682-5.291-3.145-6.068-.777-13.536 5.291-16.682 6.068-3.145 13.536-.776 16.682 5.291z" fill="#9483e3" data-original="#9483e3"/></g></g></svg>