<svg xmlns="http://www.w3.org/2000/svg" version="1.1" xmlns:xlink="http://www.w3.org/1999/xlink" xmlns:svgjs="http://svgjs.com/svgjs" x="0" y="0" viewBox="0 0 512 512" style="enable-background:new 0 0 512 512" xml:space="preserve" class=""><g><path d="m512 256c0 55.2-17.48 106.32-47.19 148.13-6.53 9.19-13.65 17.93-21.31 26.17-6.65 7.15-13.7 13.91-21.12 20.25-2.77 2.38-5.59 4.69-8.46 6.94 0 .01-.01.01-.02.01-5.74 4.51-11.67 8.77-17.78 12.78-6.4 4.19-13 8.1-19.77 11.72-5.28 2.82-10.67 5.46-16.17 7.91-3.93 1.76-7.92 3.42-11.96 4.97-3.32 1.29-6.68 2.51-10.08 3.64-3.82 1.31-7.69 2.52-11.6 3.63-17.33 4.96-35.41 8.14-54.03 9.32-3.87.25-7.77.41-11.69.48-1.6.03-3.21.05-4.82.05s-3.22-.02-4.82-.05c-3.92-.07-7.82-.23-11.69-.48-18.62-1.18-36.7-4.36-54.03-9.32-3.91-1.11-7.78-2.32-11.6-3.63-3.4-1.13-6.76-2.35-10.08-3.64-4.04-1.55-8.02-3.21-11.95-4.96-5.5-2.45-10.9-5.09-16.18-7.92-6.77-3.62-13.37-7.53-19.77-11.72-6.11-4.01-12.05-8.27-17.79-12.79h-.01c-2.87-2.25-5.69-4.56-8.46-6.94-7.42-6.34-14.47-13.1-21.12-20.25-7.66-8.24-14.78-16.98-21.31-26.17-29.71-41.81-47.19-92.93-47.19-148.13 0-56.78 18.49-109.25 49.77-151.7 6.68-9.06 13.94-17.67 21.74-25.76 13.91-14.48 29.52-27.32 46.51-38.19 14.8-9.5 30.63-17.5 47.3-23.82h.01c28.18-10.68 58.74-16.53 90.67-16.53s62.49 5.85 90.67 16.53h.01c16.67 6.32 32.5 14.32 47.3 23.82 16.99 10.87 32.6 23.71 46.51 38.19 7.8 8.09 15.06 16.7 21.74 25.76 31.28 42.45 49.77 94.92 49.77 151.7z" fill="#80e29d" data-original="#80e29d"/><path d="m464.81 404.13c-46.39 65.28-122.63 107.87-208.81 107.87s-162.42-42.59-208.81-107.87c-4.37-99.94-3.51-199.89 2.58-299.83.76-12.51 1.6-25.01 2.53-37.51 1.71-23.01 19.58-41.61 42.51-44.15 23.5-2.61 47.01-4.64 70.51-6.11h.01c60.45-3.76 120.89-3.76 181.34 0h.01c23.5 1.47 47.01 3.5 70.51 6.11 22.93 2.54 40.8 21.14 42.51 44.15.93 12.5 1.77 25 2.53 37.51 6.09 99.94 6.95 199.89 2.58 299.83z" fill="#4a81f6" data-original="#4a81f6" class=""/><path d="m443.5 430.3c-46.75 50.26-113.45 81.7-187.5 81.7s-140.75-31.44-187.5-81.7c-6.21-117.04-5.2-235.05 3.01-351.76.24-3.43.49-6.85.74-10.27.99-13.44 11.41-24.27 24.77-25.75 6.99-.77 13.99-1.5 21-2.17 45.9-4.41 92.22-6.64 137.98-6.64 45.75 0 92.08 2.23 137.98 6.64 7.01.67 14.01 1.4 21 2.17 13.36 1.48 23.78 12.31 24.77 25.75.25 3.42.5 6.84.74 10.27 8.21 116.71 9.22 234.72 3.01 351.76z" fill="#61a2f9" data-original="#61a2f9" class=""/><path d="m395.199 181.955c-92.799 3.16-185.599 3.16-278.398 0-13.342-.454-24.525-10.134-26.984-23.256-4.358-23.262-4.358-46.524 0-69.786 2.458-13.121 13.641-22.801 26.984-23.256 92.8-3.16 185.599-3.16 278.398 0 13.342.454 24.525 10.134 26.984 23.256 4.358 23.262 4.358 46.524 0 69.786-2.459 13.121-13.642 22.801-26.984 23.256z" fill="#4a81f6" data-original="#4a81f6" class=""/><path d="m256 164.324c-45.957 0-92.562-.793-138.519-2.358-3.973-.135-7.265-2.994-8.006-6.952-3.88-20.708-3.88-41.71 0-62.419.741-3.956 4.033-6.814 8.006-6.949 45.957-1.565 92.562-2.358 138.519-2.358s92.562.793 138.519 2.358c3.973.135 7.266 2.994 8.007 6.951 3.88 20.708 3.88 41.71 0 62.42-.741 3.956-4.034 6.814-8.007 6.95-45.958 1.564-92.562 2.357-138.519 2.357z" fill="#ffece7" data-original="#ffece7" class=""/><path d="m380.967 129.399c2.233 0 4.113-.363 6.028-2.132 2.223-2.053 2.407-4.299 2.407-6.612v-12.681c0-2.313-.185-4.559-2.407-6.612-1.915-1.77-3.795-2.132-6.028-2.132h-20.543c-2.751 0-4.6 1.849-4.6 4.6 0 2.743 1.849 4.586 4.6 4.586h19.793v11.797h-15.898c-5.478 0-8.494 3.017-8.494 8.494v21.676h28.978c2.752 0 4.601-1.843 4.601-4.586 0-2.752-1.849-4.6-4.601-4.6h-19.793v-11.797h15.957z" fill="#454545" data-original="#454545"/><path d="m283.253 99.229h-21.292c-2.752 0-4.601 1.849-4.601 4.6 0 2.743 1.849 4.586 4.601 4.586h19.792v8.771c0 3.026-1.081 3.026-1.601 3.026h-12.123c-2.751 0-4.6 1.849-4.6 4.601 0 2.743 1.849 4.586 4.6 4.586h12.123c.52 0 1.601 0 1.601 3.026v8.771h-19.792c-2.752 0-4.601 1.849-4.601 4.6 0 2.743 1.849 4.586 4.601 4.586h21.292c4.382 0 7.687-3.304 7.687-7.686v-11.888c0-1.962-.249-4.025-1.846-5.999 1.597-1.984 1.846-4.046 1.846-6.007v-11.888c-.001-4.38-3.305-7.685-7.687-7.685z" fill="#454545" data-original="#454545"/><path d="m340.521 125.677v-16.587c0-2.795-1.8-4.601-4.586-4.601-2.795 0-4.601 1.806-4.601 4.601v16.383h-9.005v-21.643c0-2.795-1.806-4.6-4.601-4.6-2.786 0-4.586 1.806-4.586 4.6v30.83h18.191v11.137c0 2.914 1.677 4.586 4.601 4.586 2.914 0 4.586-1.672 4.586-4.586v-11.34c1.902-.55 3.101-2.175 3.101-4.383 0-2.215-1.198-3.845-3.1-4.397z" fill="#454545" data-original="#454545"/><path d="m244.156 108.416c2.752 0 4.601-1.843 4.601-4.586 0-2.752-1.849-4.6-4.601-4.6h-22.851v30.17h18.266v11.797h-12.798c-.386 0-1.293-.444-1.835-.708-.321-.157-.622-.303-.856-.401l-1.829-.798c-.836-.381-1.599-.635-2.606-.635-2.422 0-4.468 2.107-4.468 4.601 0 2.93 2.362 3.949 3.925 4.624l2.944 1.303c1.572.697 2.708 1.201 4.593 1.201h13.739c2.198 0 4.515-.204 6.543-2.638 1.693-2.021 1.834-3.896 1.834-5.798v-13.24c0-2.262-.18-4.302-2.377-6.348-1.873-1.782-3.754-2.147-6-2.147h-9.888v-11.797z" fill="#454545" data-original="#454545"/><path d="m297.989 141.197c-2.533 0-4.594 2.06-4.594 4.593s2.061 4.593 4.594 4.593c2.532 0 4.593-2.061 4.593-4.593s-2.061-4.593-4.593-4.593z" fill="#454545" data-original="#454545"/><path d="m148.233 281.485c-15.275 1.048-30.55 1.048-45.824 0-8.061-.553-14.499-6.991-15.052-15.052-1.048-15.275-1.048-30.55 0-45.824.553-8.061 6.991-14.499 15.052-15.052 15.275-1.048 30.549-1.048 45.824 0 8.061.553 14.499 6.991 15.052 15.052 1.048 15.275 1.048 30.549 0 45.824-.553 8.061-6.991 14.499-15.052 15.052z" fill="#4a81f6" data-original="#4a81f6" class=""/><path d="m125.321 270.583c-7.336 0-14.774-.256-22.112-.759-2.236-.154-4.038-1.955-4.191-4.19-1.008-14.673-1.008-29.552 0-44.225.153-2.237 1.955-4.038 4.191-4.192 7.336-.503 14.776-.758 22.112-.758s14.776.255 22.112.758c2.237.154 4.038 1.956 4.192 4.192 1.007 14.672 1.007 29.551 0 44.224-.153 2.236-1.955 4.038-4.192 4.191-7.337.503-14.776.759-22.112.759z" fill="#ffece7" data-original="#ffece7" class=""/><path d="m235.353 281.485c-15.275 1.048-30.55 1.048-45.824 0-8.061-.553-14.499-6.991-15.052-15.052-1.048-15.275-1.048-30.55 0-45.824.553-8.061 6.991-14.499 15.052-15.052 15.275-1.048 30.549-1.048 45.824 0 8.061.553 14.499 6.991 15.052 15.052 1.048 15.275 1.048 30.549 0 45.824-.554 8.061-6.992 14.499-15.052 15.052z" fill="#4a81f6" data-original="#4a81f6" class=""/><path d="m212.44 270.583c-7.336 0-14.775-.256-22.112-.759-2.236-.154-4.038-1.955-4.191-4.19-1.008-14.673-1.008-29.552 0-44.225.153-2.237 1.955-4.038 4.191-4.192 7.336-.503 14.776-.758 22.112-.758s14.776.255 22.112.758c2.237.154 4.038 1.956 4.192 4.192 1.007 14.672 1.007 29.551 0 44.224-.153 2.236-1.955 4.038-4.192 4.191-7.337.503-14.776.759-22.112.759z" fill="#ffece7" data-original="#ffece7" class=""/><path d="m322.472 281.485c-15.275 1.048-30.55 1.048-45.824 0-8.061-.553-14.499-6.991-15.052-15.052-1.048-15.275-1.048-30.55 0-45.824.553-8.061 6.991-14.499 15.052-15.052 15.275-1.048 30.549-1.048 45.824 0 8.061.553 14.499 6.991 15.052 15.052 1.048 15.275 1.048 30.549 0 45.824-.553 8.061-6.991 14.499-15.052 15.052z" fill="#4a81f6" data-original="#4a81f6" class=""/><path d="m299.56 270.583c-7.336 0-14.775-.256-22.112-.759-2.236-.154-4.038-1.955-4.191-4.19-1.008-14.673-1.008-29.552 0-44.225.153-2.237 1.955-4.038 4.191-4.192 7.336-.503 14.776-.758 22.112-.758s14.776.255 22.112.758c2.237.154 4.038 1.956 4.192 4.192 1.007 14.672 1.007 29.551 0 44.224-.153 2.236-1.955 4.038-4.192 4.191-7.338.503-14.776.759-22.112.759z" fill="#ffece7" data-original="#ffece7" class=""/><path d="m409.591 281.485c-15.275 1.048-30.55 1.048-45.824 0-8.061-.553-14.499-6.991-15.052-15.052-1.048-15.275-1.048-30.55 0-45.824.553-8.061 6.991-14.499 15.052-15.052 15.275-1.048 30.549-1.048 45.824 0 8.061.553 14.499 6.991 15.052 15.052 1.048 15.275 1.048 30.549 0 45.824-.553 8.061-6.991 14.499-15.052 15.052z" fill="#4a81f6" data-original="#4a81f6" class=""/><path d="m386.679 270.583c-7.336 0-14.775-.256-22.112-.759-2.236-.154-4.038-1.955-4.191-4.19-1.008-14.673-1.008-29.552 0-44.225.153-2.237 1.955-4.038 4.191-4.192 7.336-.503 14.776-.758 22.112-.758s14.776.255 22.112.758c2.237.154 4.038 1.956 4.192 4.192 1.007 14.672 1.007 29.551 0 44.224-.153 2.236-1.955 4.038-4.192 4.191-7.338.503-14.776.759-22.112.759z" fill="#ffece7" data-original="#ffece7" class=""/><path d="m148.233 369.941c-15.275 1.048-30.55 1.048-45.824 0-8.061-.553-14.499-6.991-15.052-15.052-1.048-15.275-1.048-30.55 0-45.824.553-8.061 6.991-14.499 15.052-15.052 15.275-1.048 30.549-1.048 45.824 0 8.061.553 14.499 6.991 15.052 15.052 1.048 15.275 1.048 30.549 0 45.824-.553 8.061-6.991 14.499-15.052 15.052z" fill="#4a81f6" data-original="#4a81f6" class=""/><path d="m125.321 359.039c-7.336 0-14.774-.256-22.112-.759-2.236-.154-4.038-1.955-4.191-4.19-1.008-14.673-1.008-29.552 0-44.225.153-2.237 1.955-4.038 4.191-4.192 7.336-.503 14.776-.758 22.112-.758s14.776.255 22.112.758c2.237.154 4.038 1.956 4.192 4.192 1.007 14.672 1.007 29.551 0 44.224-.153 2.236-1.955 4.038-4.192 4.191-7.337.503-14.776.759-22.112.759z" fill="#ffece7" data-original="#ffece7" class=""/><path d="m235.353 369.941c-15.275 1.048-30.55 1.048-45.824 0-8.061-.553-14.499-6.991-15.052-15.052-1.048-15.275-1.048-30.55 0-45.824.553-8.061 6.991-14.499 15.052-15.052 15.275-1.048 30.549-1.048 45.824 0 8.061.553 14.499 6.991 15.052 15.052 1.048 15.275 1.048 30.549 0 45.824-.554 8.061-6.992 14.499-15.052 15.052z" fill="#4a81f6" data-original="#4a81f6" class=""/><path d="m212.44 359.039c-7.336 0-14.775-.256-22.112-.759-2.236-.154-4.038-1.955-4.191-4.19-1.008-14.673-1.008-29.552 0-44.225.153-2.237 1.955-4.038 4.191-4.192 7.336-.503 14.776-.758 22.112-.758s14.776.255 22.112.758c2.237.154 4.038 1.956 4.192 4.192 1.007 14.672 1.007 29.551 0 44.224-.153 2.236-1.955 4.038-4.192 4.191-7.337.503-14.776.759-22.112.759z" fill="#ffece7" data-original="#ffece7" class=""/><path d="m322.472 369.941c-15.275 1.048-30.55 1.048-45.824 0-8.061-.553-14.499-6.991-15.052-15.052-1.048-15.275-1.048-30.55 0-45.824.553-8.061 6.991-14.499 15.052-15.052 15.275-1.048 30.549-1.048 45.824 0 8.061.553 14.499 6.991 15.052 15.052 1.048 15.275 1.048 30.549 0 45.824-.553 8.061-6.991 14.499-15.052 15.052z" fill="#4a81f6" data-original="#4a81f6" class=""/><path d="m299.56 359.039c-7.336 0-14.775-.256-22.112-.759-2.236-.154-4.038-1.955-4.191-4.19-1.008-14.673-1.008-29.552 0-44.225.153-2.237 1.955-4.038 4.191-4.192 7.336-.503 14.776-.758 22.112-.758s14.776.255 22.112.758c2.237.154 4.038 1.956 4.192 4.192 1.007 14.672 1.007 29.551 0 44.224-.153 2.236-1.955 4.038-4.192 4.191-7.338.503-14.776.759-22.112.759z" fill="#ffece7" data-original="#ffece7" class=""/><path d="m409.591 369.941c-15.275 1.048-30.55 1.048-45.824 0-8.061-.553-14.499-6.991-15.052-15.052-1.048-15.275-1.048-30.55 0-45.824.553-8.061 6.991-14.499 15.052-15.052 15.275-1.048 30.549-1.048 45.824 0 8.061.553 14.499 6.991 15.052 15.052 1.048 15.275 1.048 30.549 0 45.824-.553 8.061-6.991 14.499-15.052 15.052z" fill="#4a81f6" data-original="#4a81f6" class=""/><path d="m386.679 359.039c-7.336 0-14.775-.256-22.112-.759-2.236-.154-4.038-1.955-4.191-4.19-1.008-14.673-1.008-29.552 0-44.225.153-2.237 1.955-4.038 4.191-4.192 7.336-.503 14.776-.758 22.112-.758s14.776.255 22.112.758c2.237.154 4.038 1.956 4.192 4.192 1.007 14.672 1.007 29.551 0 44.224-.153 2.236-1.955 4.038-4.192 4.191-7.338.503-14.776.759-22.112.759z" fill="#ffece7" data-original="#ffece7" class=""/><path d="m163.29 443.34c-.56 8.07-7 14.5-15.06 15.06-15.27 1.04-30.55 1.04-45.82 0-1.51-.1-2.96-.42-4.32-.91-.01.01-.01 0-.01 0-2.87-2.25-5.69-4.56-8.46-6.94-1.28-2.13-2.08-4.58-2.26-7.21-1.05-15.27-1.05-30.54 0-45.82.55-8.06 6.99-14.5 15.05-15.05 15.27-1.05 30.55-1.05 45.82 0 8.06.55 14.5 6.99 15.06 15.05 1.04 15.28 1.04 30.55 0 45.82z" fill="#4a81f6" data-original="#4a81f6" class=""/><path d="m125.321 447.495c-7.336 0-14.774-.256-22.112-.759-2.236-.154-4.038-1.955-4.191-4.19-1.008-14.673-1.008-29.552 0-44.225.153-2.237 1.955-4.038 4.191-4.192 7.336-.503 14.776-.758 22.112-.758s14.776.255 22.112.758c2.237.154 4.038 1.956 4.192 4.192 1.007 14.672 1.007 29.551 0 44.224-.153 2.236-1.955 4.038-4.192 4.191-7.337.503-14.776.759-22.112.759z" fill="#ffece7" data-original="#ffece7" class=""/><path d="m235.353 458.397c-15.275 1.048-30.55 1.048-45.824 0-8.061-.553-14.499-6.991-15.052-15.052-1.048-15.275-1.048-30.55 0-45.824.553-8.061 6.991-14.499 15.052-15.052 15.275-1.048 30.549-1.048 45.824 0 8.061.553 14.499 6.991 15.052 15.052 1.048 15.275 1.048 30.549 0 45.824-.554 8.061-6.992 14.498-15.052 15.052z" fill="#4a81f6" data-original="#4a81f6" class=""/><path d="m212.44 447.495c-7.336 0-14.775-.256-22.112-.759-2.236-.154-4.038-1.955-4.191-4.19-1.008-14.673-1.008-29.552 0-44.225.153-2.237 1.955-4.038 4.191-4.192 7.336-.503 14.776-.758 22.112-.758s14.776.255 22.112.758c2.237.154 4.038 1.956 4.192 4.192 1.007 14.672 1.007 29.551 0 44.224-.153 2.236-1.955 4.038-4.192 4.191-7.337.503-14.776.759-22.112.759z" fill="#ffece7" data-original="#ffece7" class=""/><path d="m322.472 458.397c-15.275 1.048-30.55 1.048-45.824 0-8.061-.553-14.499-6.991-15.052-15.052-1.048-15.275-1.048-30.55 0-45.824.553-8.061 6.991-14.499 15.052-15.052 15.275-1.048 30.549-1.048 45.824 0 8.061.553 14.499 6.991 15.052 15.052 1.048 15.275 1.048 30.549 0 45.824-.553 8.061-6.991 14.498-15.052 15.052z" fill="#4a81f6" data-original="#4a81f6" class=""/><path d="m299.56 447.495c-7.336 0-14.775-.256-22.112-.759-2.236-.154-4.038-1.955-4.191-4.19-1.008-14.673-1.008-29.552 0-44.225.153-2.237 1.955-4.038 4.191-4.192 7.336-.503 14.776-.758 22.112-.758s14.776.255 22.112.758c2.237.154 4.038 1.956 4.192 4.192 1.007 14.672 1.007 29.551 0 44.224-.153 2.236-1.955 4.038-4.192 4.191-7.338.503-14.776.759-22.112.759z" fill="#ffece7" data-original="#ffece7" class=""/><path d="m424.64 443.34c-.18 2.63-.98 5.08-2.26 7.21-2.77 2.38-5.59 4.69-8.46 6.94 0 .01-.01.01-.02.01-1.36.49-2.81.8-4.31.9-15.27 1.04-30.55 1.04-45.82 0-8.06-.56-14.5-6.99-15.06-15.06-1.04-15.27-1.04-30.54 0-45.82.56-8.06 7-14.5 15.06-15.05 15.27-1.05 30.55-1.05 45.82 0 8.06.55 14.5 6.99 15.05 15.05 1.05 15.28 1.05 30.55 0 45.82z" fill="#4a81f6" data-original="#4a81f6" class=""/><path d="m386.679 447.495c-7.336 0-14.775-.256-22.112-.759-2.236-.154-4.038-1.955-4.191-4.19-1.008-14.673-1.008-29.552 0-44.225.153-2.237 1.955-4.038 4.191-4.192 7.336-.503 14.776-.758 22.112-.758s14.776.255 22.112.758c2.237.154 4.038 1.956 4.192 4.192 1.007 14.672 1.007 29.551 0 44.224-.153 2.236-1.955 4.038-4.192 4.191-7.338.503-14.776.759-22.112.759z" fill="#ffece7" data-original="#ffece7" class=""/><path d="m163.78 494.88c-4.04-1.55-8.02-3.21-11.95-4.96-5.5-2.45-10.9-5.09-16.18-7.92-6.77-3.62-13.37-7.53-19.77-11.72 10.78-.31 21.57-.09 32.35.64 8.06.56 14.5 7 15.06 15.06.2 2.97.36 5.93.49 8.9z" fill="#4a81f6" data-original="#4a81f6" class=""/><path d="m151.83 489.92c-5.5-2.45-10.9-5.09-16.18-7.92 3.94.12 7.87.31 11.78.58 2.24.16 4.04 1.96 4.2 4.2.07 1.05.14 2.1.2 3.14z" fill="#ffece7" data-original="#ffece7" class=""/><path d="m251.18 511.95c-3.92-.07-7.82-.23-11.69-.48-18.62-1.18-36.7-4.36-54.03-9.32-3.91-1.11-7.78-2.32-11.6-3.63.13-4.18.34-8.36.62-12.54.55-8.06 6.99-14.5 15.05-15.06 15.27-1.04 30.55-1.04 45.82 0 8.06.56 14.5 7 15.05 15.06.6 8.66.85 17.31.78 25.97z" fill="#4a81f6" data-original="#4a81f6" class=""/><path d="m239.49 511.47c-18.62-1.18-36.7-4.36-54.03-9.32.1-5.14.33-10.26.68-15.37.15-2.24 1.95-4.04 4.19-4.2 7.33-.5 14.77-.75 22.11-.75s14.78.25 22.11.75c2.24.16 4.04 1.96 4.19 4.2.56 8.19.81 16.44.75 24.69z" fill="#ffece7" data-original="#ffece7" class=""/><path d="m338.14 498.52c-3.82 1.31-7.69 2.52-11.6 3.63-17.33 4.96-35.41 8.14-54.03 9.32-3.87.25-7.77.41-11.69.48-.07-8.66.18-17.31.78-25.97.55-8.06 6.99-14.5 15.05-15.06 15.27-1.04 30.55-1.04 45.82 0 8.06.56 14.5 7 15.05 15.06.28 4.18.49 8.36.62 12.54z" fill="#4a81f6" data-original="#4a81f6" class=""/><path d="m326.54 502.15c-17.33 4.96-35.41 8.14-54.03 9.32-.06-8.25.19-16.5.75-24.69.15-2.24 1.95-4.04 4.19-4.2 7.33-.5 14.77-.75 22.11-.75s14.78.25 22.11.75c2.24.16 4.04 1.96 4.19 4.2.35 5.11.58 10.23.68 15.37z" fill="#ffece7" data-original="#ffece7" class=""/><path d="m396.12 470.28c-6.4 4.19-13 8.1-19.77 11.72-5.28 2.82-10.67 5.46-16.17 7.91-3.93 1.76-7.92 3.42-11.96 4.97.13-2.97.29-5.93.49-8.9.56-8.06 7-14.5 15.06-15.06 10.78-.73 21.57-.95 32.35-.64z" fill="#4a81f6" data-original="#4a81f6" class=""/><path d="m376.35 482c-5.28 2.82-10.67 5.46-16.17 7.91.06-1.04.13-2.09.2-3.13.15-2.24 1.95-4.04 4.19-4.2 3.91-.27 7.84-.46 11.78-.58z" fill="#ffece7" data-original="#ffece7" class=""/><g fill="#dd636e"><path d="m124.039 411.211-1.404.871c-.387.259-.791.387-1.21.387-.71 0-1.282-.314-1.718-.944-.436-.629-.653-1.314-.653-2.057 0-.516.112-1 .339-1.452.226-.451.581-.823 1.064-1.113l6.389-3.872c.354-.226.822-.339 1.403-.339.774 0 1.524.21 2.251.629.726.419 1.089 1 1.089 1.742v30.781c0 .774-.396 1.355-1.186 1.742-.791.387-1.654.581-2.59.581-.937 0-1.799-.193-2.589-.581-.791-.387-1.186-.968-1.186-1.742v-24.633z" fill="#dd636e" data-original="#dd636e"/><path d="m201.624 412.036c0-1.484.314-2.799.943-3.944s1.452-2.113 2.469-2.904c1.016-.791 2.178-1.396 3.484-1.815 1.307-.419 2.653-.629 4.041-.629 1.387 0 2.759.218 4.114.653 1.354.436 2.564 1.082 3.63 1.936 1.064.855 1.919 1.904 2.564 3.146.646 1.242.968 2.67.968 4.283 0 1.742-.371 3.308-1.112 4.694-.743 1.388-1.663 2.638-2.759 3.751-1.098 1.113-2.299 2.114-3.606 3.001-1.307.888-2.509 1.726-3.605 2.517-1.097.791-2.017 1.533-2.759 2.226-.742.694-1.112 1.412-1.112 2.154v.436h12.68c.612 0 1.145.323 1.598.968.451.646.677 1.404.677 2.275s-.226 1.646-.677 2.323c-.453.677-.985 1.016-1.598 1.016h-17.229c-.355 0-.719-.056-1.089-.169-.371-.112-.727-.266-1.064-.459-.339-.194-.613-.436-.823-.726s-.314-.613-.314-.968v-4.695c0-1.258.379-2.444 1.138-3.557.757-1.113 1.701-2.162 2.831-3.146 1.129-.984 2.347-1.943 3.653-2.88 1.308-.935 2.524-1.863 3.654-2.783 1.129-.919 2.073-1.847 2.831-2.783s1.138-1.919 1.138-2.953c0-.387-.064-.782-.193-1.186-.13-.403-.339-.774-.629-1.113-.291-.338-.67-.612-1.138-.823-.468-.209-1.041-.314-1.718-.314-.969 0-1.815.266-2.541.799-.727.532-1.089 1.476-1.089 2.831 0 .71-.355 1.348-1.065 1.912-.71.565-1.678.847-2.903.847-.968 0-1.775-.274-2.42-.823-.649-.549-.97-1.581-.97-3.098z" fill="#dd636e" data-original="#dd636e"/><path d="m299.439 431.685c1.646 0 2.799-.331 3.46-.992s.992-1.783.992-3.364v-.919c0-.806-.121-1.459-.362-1.96-.242-.5-.565-.895-.969-1.186s-.888-.484-1.451-.581c-.565-.097-1.186-.146-1.863-.146-.84 0-1.412-.298-1.719-.895s-.46-1.266-.46-2.009c0-.742.153-1.411.46-2.008s.879-.896 1.719-.896c.451 0 .902-.032 1.354-.097.452-.064.854-.234 1.21-.508.355-.274.646-.693.871-1.258.226-.564.339-1.331.339-2.299 0-1.387-.347-2.315-1.04-2.783-.694-.467-1.541-.702-2.541-.702-1.194 0-2.09.178-2.687.533s-.895 1-.895 1.936c0 .839-.235 1.509-.702 2.009-.468.5-1.412.75-2.831.75-.871 0-1.565-.048-2.081-.145-.517-.097-.912-.266-1.187-.508s-.452-.557-.532-.944c-.081-.387-.121-.871-.121-1.452 0-.936.186-1.912.557-2.928.371-1.017.984-1.952 1.84-2.807.854-.854 1.983-1.556 3.388-2.105 1.403-.548 3.153-.823 5.251-.823 1.549 0 2.977.154 4.283.46 1.307.307 2.444.798 3.412 1.476s1.726 1.573 2.274 2.686.823 2.493.823 4.138c0 .871-.081 1.727-.242 2.565-.162.839-.404 1.614-.727 2.323-.322.71-.71 1.323-1.161 1.839-.452.517-.984.92-1.597 1.21 1.451.549 2.638 1.379 3.557 2.493.92 1.113 1.38 2.654 1.38 4.622v.919c0 2.001-.323 3.695-.969 5.082s-1.517 2.517-2.613 3.388-2.396 1.5-3.896 1.888c-1.501.387-3.09.581-4.768.581-2.098 0-3.872-.283-5.323-.847-1.452-.564-2.638-1.298-3.558-2.202-.92-.903-1.59-1.887-2.009-2.952-.42-1.064-.629-2.113-.629-3.146 0-1.096.258-1.831.774-2.202s1.452-.557 2.807-.557c1.549 0 2.581.186 3.098.557.516.371.774 1.024.774 1.96 0 .581.121 1.049.363 1.403.242.355.563.638.968.847.403.21.863.355 1.379.436.518.08 1.051.12 1.6.12z" fill="#dd636e" data-original="#dd636e"/><path d="m386.704 430.474c-.872 0-1.605-.209-2.202-.629-.598-.419-.896-.968-.896-1.646v-4.695h-4.695c-.677 0-1.227-.273-1.646-.823-.419-.548-.629-1.29-.629-2.226 0-.871.21-1.605.629-2.202s.969-.896 1.646-.896h4.695v-4.646c0-.581.298-1.113.896-1.597.597-.484 1.33-.726 2.202-.726.935 0 1.677.242 2.226.726s.823 1.016.823 1.597v4.646h4.646c.58 0 1.112.299 1.597.896.484.597.726 1.331.726 2.202 0 .936-.241 1.678-.726 2.226-.484.549-1.017.823-1.597.823h-4.646v4.695c0 .677-.274 1.227-.823 1.646-.55.419-1.292.629-2.226.629z" fill="#dd636e" data-original="#dd636e"/><path d="m126.265 342.212h-11.325c-.71 0-1.307-.225-1.79-.677-.484-.452-.727-1.097-.727-1.936 0-.193.024-.419.073-.678.048-.258.153-.516.314-.774l11.18-21.924c.354-.709.814-1.21 1.379-1.5s1.153-.436 1.767-.436c.322 0 .702.065 1.138.193.436.129.847.323 1.234.581s.718.565.992.919c.273.355.411.743.411 1.162 0 .226-.081.532-.242.919l-8.566 17.181h4.162v-3.388c0-.806.395-1.387 1.186-1.742s1.653-.533 2.59-.533c.936 0 1.798.178 2.589.533s1.187.936 1.187 1.742v3.388h2.081c.774 0 1.354.363 1.742 1.089.387.726.58 1.525.58 2.396s-.241 1.669-.726 2.396-1.017 1.089-1.597 1.089h-2.081v5.13c0 .774-.396 1.355-1.187 1.742s-1.653.581-2.589.581c-.937 0-1.799-.194-2.59-.581s-1.186-.968-1.186-1.742v-5.13z" fill="#dd636e" data-original="#dd636e"/><path d="m212.44 327.21c1.678 0 3.234.186 4.671.557 1.436.371 2.686.976 3.751 1.815 1.064.839 1.903 1.928 2.517 3.267.612 1.339.919 2.977.919 4.913v.919c0 2.033-.307 3.751-.919 5.154-.613 1.404-1.452 2.549-2.517 3.437s-2.315 1.533-3.751 1.936c-1.437.403-2.961.605-4.574.605-1.936 0-3.653-.258-5.154-.774-1.5-.516-2.751-1.193-3.75-2.033-1.001-.839-1.76-1.798-2.275-2.88-.517-1.081-.774-2.186-.774-3.315 0-1.322.331-2.209.992-2.662.661-.452 1.589-.678 2.783-.678.806 0 1.459.073 1.96.218.5.146.887.347 1.162.605.273.259.451.557.532.896.08.339.121.702.121 1.089 0 .968.402 1.702 1.21 2.202.806.5 1.807.75 3 .75 1.387 0 2.469-.363 3.243-1.089s1.161-1.879 1.161-3.46v-.919c0-1.613-.38-2.807-1.138-3.582s-1.814-1.162-3.17-1.162h-7.356c-1.13 0-1.896-.258-2.299-.774s-.604-1.242-.604-2.178c0-.258.007-.492.024-.702.016-.209.04-.443.072-.702l1.307-12.196c.064-.742.201-1.314.411-1.718.21-.403.524-.605.944-.605h15.438c.742 0 1.29.339 1.646 1.016.354.678.532 1.436.532 2.275s-.178 1.597-.532 2.274c-.355.678-.903 1.017-1.646 1.017h-10.599l-.484 6.485h3.146z" fill="#dd636e" data-original="#dd636e"/><path d="m301.277 327.79c1.387 0 2.693.169 3.92.508s2.299.896 3.219 1.67 1.653 1.815 2.202 3.122c.548 1.307.823 2.928.823 4.864v.436c0 2.098-.308 3.864-.92 5.3-.613 1.436-1.452 2.613-2.517 3.533-1.064.919-2.315 1.581-3.751 1.984-1.437.403-2.993.605-4.671.605s-3.242-.202-4.694-.605-2.71-1.064-3.774-1.984c-1.065-.92-1.904-2.097-2.518-3.533-.613-1.436-.919-3.202-.919-5.3v-12.825c0-2.064.314-3.824.943-5.275.63-1.452 1.501-2.638 2.613-3.557 1.113-.92 2.42-1.581 3.921-1.984 1.5-.403 3.121-.605 4.863-.605 2.033 0 3.775.283 5.228.847 1.452.565 2.638 1.291 3.558 2.178.919.888 1.588 1.872 2.008 2.952.419 1.082.63 2.122.63 3.122 0 1.162-.283 1.96-.848 2.396-.564.436-1.46.653-2.686.653-.517 0-1.009-.04-1.477-.121-.468-.08-.888-.226-1.258-.436-.372-.209-.662-.492-.871-.847-.211-.354-.315-.806-.315-1.355 0-.936-.419-1.637-1.258-2.105-.84-.467-1.823-.702-2.952-.702-1.452 0-2.573.387-3.364 1.162s-1.186 2.001-1.186 3.678v4.356c.774-.839 1.686-1.404 2.734-1.694 1.05-.292 2.156-.438 3.317-.438zm-6.049 11.132c0 1.678.388 2.896 1.162 3.654.773.759 1.839 1.137 3.193 1.137 1.355 0 2.412-.378 3.171-1.137.758-.758 1.137-1.976 1.137-3.654v-.436c0-1.774-.379-3.033-1.137-3.775-.759-.742-1.832-1.113-3.219-1.113-1.323 0-2.372.338-3.146 1.016s-1.162 1.823-1.162 3.437v.871z" fill="#dd636e" data-original="#dd636e"/><path d="m394.931 336.696c0 .419-.105.831-.314 1.234-.211.404-.484.774-.823 1.113s-.718.613-1.137.823c-.42.21-.84.314-1.259.314-.549 0-1.017-.193-1.403-.581l-3.34-3.339-3.291 3.339c-.387.387-.871.581-1.452.581-.387 0-.791-.104-1.21-.314-.419-.209-.798-.484-1.137-.823s-.613-.718-.823-1.137-.314-.839-.314-1.258c0-.548.193-1.017.581-1.404l3.823-3.339-3.775-3.243c-.355-.354-.532-.823-.532-1.403 0-.419.097-.839.29-1.258.194-.419.452-.799.774-1.138s.694-.605 1.113-.798c.419-.194.839-.291 1.259-.291.548 0 1.032.178 1.452.532l3.242 3.291 3.291-3.291c.354-.354.823-.532 1.403-.532.419 0 .839.097 1.259.291.419.193.799.452 1.138.774.339.323.604.694.798 1.113.194.42.291.839.291 1.258 0 .614-.178 1.098-.532 1.452l-3.775 3.243 3.823 3.339c.386.387.58.871.58 1.452z" fill="#dd636e" data-original="#dd636e"/><path d="m137.202 234.059c0 .646-.161 1.388-.483 2.227-.323.839-.678 1.629-1.064 2.372l-11.325 21.682c-.355.678-1.065 1.016-2.13 1.016-.581 0-1.161-.097-1.742-.29-.581-.194-1.098-.46-1.549-.799-.452-.339-.815-.742-1.089-1.21-.274-.467-.411-.976-.411-1.524 0-.419.112-.838.339-1.258l11.905-20.618v-3.388h-8.663v3.243c0 .646-.387 1.194-1.161 1.646s-1.662.678-2.662.678c-1.033 0-1.912-.226-2.638-.678-.727-.452-1.089-1-1.089-1.646v-7.502c0-.581.339-1.113 1.016-1.597.678-.484 1.436-.726 2.275-.726h17.181c.355 0 .727.065 1.113.193.388.129.742.307 1.065.533.321.226.588.476.798.75s.314.557.314.847z" fill="#dd636e" data-original="#dd636e"/><path d="m212.465 225.686c1.549 0 2.983.162 4.308.484 1.322.323 2.451.839 3.388 1.549.936.71 1.67 1.605 2.202 2.686.532 1.082.798 2.38.798 3.896 0 2.033-.436 3.654-1.307 4.864s-2.032 2.057-3.484 2.541c1.807.613 3.25 1.654 4.332 3.122 1.08 1.469 1.621 3.46 1.621 5.978v.581c0 1.807-.308 3.339-.92 4.598-.613 1.258-1.452 2.292-2.517 3.098-1.064.807-2.315 1.388-3.751 1.742-1.436.355-2.993.532-4.67.532-1.679 0-3.243-.177-4.695-.532-1.451-.354-2.71-.936-3.774-1.742s-1.904-1.839-2.517-3.098c-.613-1.258-.92-2.791-.92-4.598v-.581c0-2.517.549-4.509 1.646-5.978 1.097-1.468 2.549-2.508 4.355-3.122-1.451-.484-2.613-1.331-3.484-2.541s-1.307-2.831-1.307-4.864c0-1.516.267-2.814.799-3.896.532-1.081 1.266-1.976 2.202-2.686.936-.709 2.064-1.226 3.388-1.549 1.321-.322 2.758-.484 4.307-.484zm4.307 23.715c0-1.581-.38-2.742-1.138-3.484-.759-.742-1.815-1.113-3.17-1.113s-2.42.371-3.194 1.113-1.162 1.904-1.162 3.484v1.065c0 1.678.388 2.904 1.162 3.678s1.839 1.162 3.194 1.162c1.387 0 2.451-.395 3.194-1.186.741-.79 1.113-2.008 1.113-3.654v-1.065zm-4.307-17.665c-1.098 0-1.944.283-2.541.847-.598.565-.896 1.46-.896 2.686 0 1.258.298 2.154.896 2.686.597.533 1.443.799 2.541.799 1.097 0 1.943-.266 2.541-.799.597-.532.895-1.428.895-2.686 0-1.226-.298-2.121-.895-2.686-.598-.564-1.445-.847-2.541-.847z" fill="#dd636e" data-original="#dd636e"/><path d="m297.842 247.707c-1.388 0-2.694-.169-3.92-.508-1.227-.339-2.299-.896-3.219-1.67s-1.654-1.815-2.202-3.122c-.549-1.307-.823-2.928-.823-4.864v-.436c0-2.064.307-3.823.92-5.275.612-1.452 1.452-2.638 2.517-3.557s2.315-1.581 3.751-1.984 2.992-.605 4.671-.605c1.677 0 3.242.202 4.694.605 1.452.404 2.71 1.065 3.774 1.984 1.065.919 1.904 2.105 2.518 3.557.612 1.452.919 3.211.919 5.275v12.826c0 2.098-.314 3.864-.943 5.299-.63 1.436-1.501 2.614-2.613 3.533-1.113.919-2.42 1.582-3.921 1.984-1.5.403-3.121.605-4.863.605-2.033 0-3.775-.283-5.228-.847-1.452-.564-2.638-1.29-3.558-2.178-.919-.887-1.589-1.871-2.008-2.952-.42-1.081-.63-2.121-.63-3.122 0-1.162.282-1.96.848-2.396.563-.436 1.459-.653 2.686-.653.516 0 1.009.041 1.477.121.467.081.887.226 1.258.436s.661.492.871.847.315.807.315 1.355c0 .936.419 1.638 1.258 2.105s1.822.702 2.952.702c1.452 0 2.573-.387 3.364-1.162.79-.774 1.186-2 1.186-3.678v-4.356c-.774.839-1.687 1.404-2.734 1.694-1.051.292-2.156.437-3.317.437zm6.05-11.131c0-1.677-.388-2.896-1.162-3.654-.773-.758-1.839-1.138-3.193-1.138-1.355 0-2.413.38-3.171 1.138s-1.137 1.977-1.137 3.654v.436c0 1.775.379 3.033 1.137 3.775.758.743 1.831 1.113 3.219 1.113 1.322 0 2.372-.339 3.146-1.016.774-.678 1.162-1.823 1.162-3.437v-.871z" fill="#dd636e" data-original="#dd636e"/><path d="m376.636 243.545c0-.839.218-1.532.653-2.081.436-.548 1.008-.823 1.719-.823h15.293c.613 0 1.17.274 1.67.823s.75 1.242.75 2.081c0 .871-.25 1.565-.75 2.081-.5.517-1.057.774-1.67.774h-15.293c-.711 0-1.283-.258-1.719-.774-.435-.516-.653-1.21-.653-2.081zm9.873-11.47c.388 0 .774.081 1.162.242.387.162.726.387 1.017.678.29.291.532.622.726.992.193.371.29.767.29 1.186 0 .871-.339 1.597-1.016 2.178-.678.581-1.404.871-2.179.871-.839 0-1.589-.291-2.25-.871-.662-.581-.992-1.307-.992-2.178 0-.838.33-1.564.992-2.178.662-.613 1.412-.92 2.25-.92zm0 16.745c.774 0 1.501.283 2.179.847.677.565 1.016 1.299 1.016 2.202 0 .42-.097.815-.29 1.186s-.436.702-.726.992c-.291.29-.63.517-1.017.677-.388.162-.774.242-1.162.242-.419 0-.822-.08-1.21-.242-.387-.161-.734-.387-1.04-.677-.308-.291-.549-.621-.727-.992s-.266-.766-.266-1.186c0-.903.33-1.637.992-2.202.663-.564 1.413-.847 2.251-.847z" fill="#dd636e" data-original="#dd636e"/></g></g></svg>