<svg xmlns="http://www.w3.org/2000/svg" version="1.1" xmlns:xlink="http://www.w3.org/1999/xlink" xmlns:svgjs="http://svgjs.com/svgjs" x="0" y="0" viewBox="0 0 512 512" style="enable-background:new 0 0 512 512" xml:space="preserve"><g><path d="M512 256c0 50.918-14.869 98.367-40.5 138.24C425.963 465.074 346.467 512 256 512S86.037 465.074 40.5 394.24C14.869 354.367 0 306.918 0 256s14.869-98.367 40.5-138.24c28.473-44.293 70.228-79.245 119.641-99.203C189.743 6.583 222.104 0 256 0s66.257 6.583 95.859 18.557c49.413 19.958 91.167 54.909 119.641 99.203C497.131 157.633 512 205.082 512 256z" style="" fill="#5897d1" data-original="#5897d1"/><path d="M470.319 214.319c0 42.628-12.448 82.352-33.906 115.732C398.29 389.352 331.737 428.638 256 428.638s-142.29-39.286-180.413-98.586c-21.458-33.381-33.906-73.105-33.906-115.733s12.448-82.352 33.906-115.732c23.837-37.081 58.793-66.343 100.162-83.051C200.531 5.511 227.623 0 256 0c28.377 0 55.469 5.511 80.251 15.536 41.368 16.708 76.324 45.969 100.162 83.051 21.458 33.382 33.906 73.104 33.906 115.732z" style="" fill="#9fc5e6" data-original="#9fc5e6"/><path d="M471.5 74.304V394.24C425.963 465.074 346.467 512 256 512c-45.589 0-88.388-11.912-125.45-32.81a255.903 255.903 0 0 1-51.722-38.41A257.54 257.54 0 0 1 40.5 394.24V74.304c0-22.141 16.823-40.072 37.575-40.072h355.84c20.751 0 37.585 17.93 37.585 40.072z" style="" fill="#f0f0f0" data-original="#f0f0f0"/><path d="M40.5 141.343h431v36.223h-431z" style="" fill="#d4d4d4" data-original="#d4d4d4"/><path d="M471.5 71.816v80.311h-431V71.816c0-20.762 16.823-37.585 37.575-37.585h355.84c20.751 0 37.585 16.823 37.585 37.585z" style="" fill="#ef487d" data-original="#ef487d"/><path d="M471.5 90.624v61.503h-431V90.624c0-20.762 16.823-37.585 37.575-37.585h355.84c20.751 0 37.585 16.823 37.585 37.585z" style="" fill="#ff668c" data-original="#ff668c"/><path d="M171.363 22.988v39.643c0 9.613-5.904 17.847-14.284 21.274a22.753 22.753 0 0 1-8.704 1.714c-12.695 0-22.988-10.292-22.988-22.988V22.988C125.388 10.292 135.68 0 148.376 0c3.082 0 6.019.606 8.704 1.714a22.84 22.84 0 0 1 7.555 5.016c4.158 4.168 6.728 9.915 6.728 16.258z" style="" fill="#f2ae5a" data-original="#f2ae5a"/><path d="M171.363 22.988v39.643c0 9.613-5.904 17.847-14.284 21.274-8.37-3.427-14.273-11.661-14.273-21.274V22.988c0-9.613 5.904-17.847 14.273-21.274a22.84 22.84 0 0 1 7.555 5.016c4.159 4.168 6.729 9.915 6.729 16.258z" style="" fill="#f9df73" data-original="#f9df73"/><path d="M386.612 22.988v39.643c0 9.613-5.904 17.847-14.284 21.274a22.753 22.753 0 0 1-8.704 1.714c-12.695 0-22.988-10.292-22.988-22.988V22.988C340.637 10.292 350.929 0 363.624 0c3.082 0 6.019.606 8.704 1.714a22.84 22.84 0 0 1 7.555 5.016c4.159 4.168 6.729 9.915 6.729 16.258z" style="" fill="#f2ae5a" data-original="#f2ae5a"/><path d="M386.612 22.988v39.643c0 9.613-5.904 17.847-14.284 21.274-8.37-3.427-14.273-11.661-14.273-21.274V22.988c0-9.613 5.904-17.847 14.273-21.274a22.84 22.84 0 0 1 7.555 5.016c4.159 4.168 6.729 9.915 6.729 16.258z" style="" fill="#f9df73" data-original="#f9df73"/><path d="M267.961 264.694h-23.922c-8.893 0-16.103-7.21-16.103-16.103v-23.922c0-8.893 7.21-16.103 16.103-16.103h23.922c8.893 0 16.103 7.21 16.103 16.103v23.922c0 8.893-7.21 16.103-16.103 16.103zM342.759 264.694h-23.922c-8.893 0-16.103-7.21-16.103-16.103v-23.922c0-8.893 7.21-16.103 16.103-16.103h23.922c8.893 0 16.103 7.21 16.103 16.103v23.922c0 8.893-7.21 16.103-16.103 16.103z" style="" fill="#484b7f" data-original="#484b7f"/><path d="M417.557 264.694h-23.922c-8.893 0-16.103-7.21-16.103-16.103v-23.922c0-8.893 7.21-16.103 16.103-16.103h23.922c8.893 0 16.103 7.21 16.103 16.103v23.922c0 8.893-7.21 16.103-16.103 16.103z" style="" fill="#ef487d" data-original="#ef487d"/><path d="M118.365 338.051H94.443c-8.893 0-16.103-7.21-16.103-16.103v-23.922c0-8.893 7.21-16.103 16.103-16.103h23.922c8.893 0 16.103 7.21 16.103 16.103v23.922c0 8.894-7.21 16.103-16.103 16.103zM193.163 338.051h-23.922c-8.893 0-16.103-7.21-16.103-16.103v-23.922c0-8.893 7.21-16.103 16.103-16.103h23.922c8.893 0 16.103 7.21 16.103 16.103v23.922c0 8.894-7.21 16.103-16.103 16.103zM267.961 338.051h-23.922c-8.893 0-16.103-7.21-16.103-16.103v-23.922c0-8.893 7.21-16.103 16.103-16.103h23.922c8.893 0 16.103 7.21 16.103 16.103v23.922c0 8.894-7.21 16.103-16.103 16.103zM342.759 338.051h-23.922c-8.893 0-16.103-7.21-16.103-16.103v-23.922c0-8.893 7.21-16.103 16.103-16.103h23.922c8.893 0 16.103 7.21 16.103 16.103v23.922c0 8.894-7.21 16.103-16.103 16.103z" style="" fill="#484b7f" data-original="#484b7f"/><path d="M417.557 338.051h-23.922c-8.893 0-16.103-7.21-16.103-16.103v-23.922c0-8.893 7.21-16.103 16.103-16.103h23.922c8.893 0 16.103 7.21 16.103 16.103v23.922c0 8.894-7.21 16.103-16.103 16.103z" style="" fill="#ef487d" data-original="#ef487d"/><path d="M118.365 411.409H94.443c-8.893 0-16.103-7.21-16.103-16.103v-23.922c0-8.893 7.21-16.103 16.103-16.103h23.922c8.893 0 16.103 7.21 16.103 16.103v23.922c0 8.893-7.21 16.103-16.103 16.103zM193.163 411.409h-23.922c-8.893 0-16.103-7.21-16.103-16.103v-23.922c0-8.893 7.21-16.103 16.103-16.103h23.922c8.893 0 16.103 7.21 16.103 16.103v23.922c0 8.893-7.21 16.103-16.103 16.103zM267.961 411.409h-23.922c-8.893 0-16.103-7.21-16.103-16.103v-23.922c0-8.893 7.21-16.103 16.103-16.103h23.922c8.893 0 16.103 7.21 16.103 16.103v23.922c0 8.893-7.21 16.103-16.103 16.103zM342.759 411.409h-23.922c-8.893 0-16.103-7.21-16.103-16.103v-23.922c0-8.893 7.21-16.103 16.103-16.103h23.922c8.893 0 16.103 7.21 16.103 16.103v23.922c0 8.893-7.21 16.103-16.103 16.103z" style="" fill="#484b7f" data-original="#484b7f"/><path d="M417.557 411.409h-23.922c-8.893 0-16.103-7.21-16.103-16.103v-23.922c0-8.893 7.21-16.103 16.103-16.103h23.922c8.893 0 16.103 7.21 16.103 16.103v23.922c0 8.893-7.21 16.103-16.103 16.103z" style="" fill="#ef487d" data-original="#ef487d"/><path d="M134.468 444.74v23.928c0 4.023-1.484 7.701-3.918 10.522a255.903 255.903 0 0 1-51.722-38.41c1.766-6.98 8.088-12.142 15.621-12.142h23.918c8.891 0 16.101 7.21 16.101 16.102zM193.163 484.767h-23.922c-8.893 0-16.103-7.21-16.103-16.103v-23.922c0-8.893 7.21-16.103 16.103-16.103h23.922c8.893 0 16.103 7.21 16.103 16.103v23.922c0 8.893-7.21 16.103-16.103 16.103zM267.961 484.767h-23.922c-8.893 0-16.103-7.21-16.103-16.103v-23.922c0-8.893 7.21-16.103 16.103-16.103h23.922c8.893 0 16.103 7.21 16.103 16.103v23.922c0 8.893-7.21 16.103-16.103 16.103z" style="" fill="#484b7f" data-original="#484b7f"/></g></svg>