<svg xmlns="http://www.w3.org/2000/svg" version="1.1" xmlns:xlink="http://www.w3.org/1999/xlink" xmlns:svgjs="http://svgjs.com/svgjs" x="0" y="0" viewBox="0 0 512 512" style="enable-background:new 0 0 512 512" xml:space="preserve"><g><g><path d="m512 256c0 141.385-114.615 256-256 256s-256-114.615-256-256 114.615-256 256-256 256 114.615 256 256z" fill="#ffef31" data-original="#ffef31"/><path d="m483.723 237.063c0 118.116-95.752 213.868-213.868 213.868s-213.869-95.751-213.869-213.868 95.753-213.868 213.869-213.868 213.868 95.752 213.868 213.868z" fill="#fff261" data-original="#fff261"/><path d="m488.41 262.213c-31.865 54.741-92.653 90.574-161.43 86.555-87.475-5.113-158.637-76.279-163.748-163.753-4.028-68.95 31.994-129.869 86.97-161.667.956-.554 2.03.499 1.519 1.478-14.828 28.428-22.062 61.445-18.998 96.365 7.317 83.41 74.641 150.75 158.049 158.083 34.76 3.057 67.634-4.09 95.974-18.775 1.105-.572 2.29.638 1.664 1.714z" fill="#00aaf2" data-original="#00aaf2"/><path d="m512 174.536c0 31.972-8.599 61.935-23.607 87.706-25.771 15.008-55.734 23.608-87.707 23.608-96.394 0-174.537-78.143-174.537-174.538 0-31.972 8.599-61.934 23.607-87.706 25.771-15.007 55.734-23.606 87.707-23.606 96.394 0 174.537 78.142 174.537 174.536z" fill="#00c1fb" data-original="#00c1fb"/><path d="m338.399 412.224c-31.865 54.741-92.653 90.574-161.43 86.555-87.474-5.114-158.637-76.279-163.748-163.754-4.028-68.95 31.994-129.869 86.97-161.667.956-.554 2.03.499 1.519 1.478-14.828 28.428-22.061 61.445-18.998 96.365 7.317 83.41 74.641 150.75 158.049 158.083 34.76 3.056 67.634-4.09 95.974-18.775 1.106-.571 2.291.639 1.664 1.715z" fill="#ff2aaa" data-original="#ff2aaa"/><path d="m361.99 324.547c0 31.972-8.599 61.936-23.607 87.706-25.771 15.008-55.734 23.608-87.707 23.608-96.394 0-174.537-78.143-174.537-174.538 0-31.972 8.599-61.934 23.607-87.706 25.771-15.008 55.734-23.607 87.707-23.607 96.393 0 174.537 78.142 174.537 174.537z" fill="#ff4fb8" data-original="#ff4fb8"/><path d="m411.897 99.766v66.392c0 5.523-4.477 10-10 10s-10-4.477-10-10v-42.25l-152.27 152.27c-1.953 1.953-4.512 2.929-7.071 2.929s-5.119-.976-7.071-2.929c-3.905-3.905-3.905-10.237 0-14.143l152.269-152.269h-42.249c-5.523 0-10-4.477-10-10s4.477-10 10-10h66.392c5.523 0 10 4.477 10 10z" fill="#54469d" data-original="#54469d"/></g></g></svg>