<svg height="512pt" viewBox="-6 0 512 512.00051" width="512pt" xmlns="http://www.w3.org/2000/svg"><path d="m4.585938 309.476562c-3.050782-15.882812-4.6875-32.648437-4.58203175-49.445312.85937475-137.539062 113.61328175-249.207031 251.15234375-248.789062 137.921875.417968 249.601562 112.359374 249.601562 250.378906 0 15.878906-1.480468 31.351562-4.308593 46.40625-2.058594 10.953125-12.78125 18.050781-23.621094 15.457031-17.480469-4.179687-42.617187-7.800781-55.148437.929687-19.816407 13.8125-46.140626 13.8125-65.957032 0s-46.140625-13.8125-65.957031 0-46.140625 13.8125-65.957031 0-46.140625-13.8125-65.960938 0c-19.816406 13.8125-46.140625 13.8125-65.957031 0-12.800781-8.921874-39.910156-4.296874-58.644531.539063-11.328125 2.921875-22.453125-3.992187-24.660156-15.476563zm0 0" fill="#8694dd"/><path d="m60.296875 224.832031v162.953125c-7.414063-8.636718-14.246094-17.78125-20.441406-27.378906v-135.574219c0-5.644531 4.574219-10.222656 10.21875-10.222656s10.222656 4.578125 10.222656 10.222656zm337.242187-72.4375c5.644532 0 10.222657-4.574219 10.222657-10.21875v-75.277343c-6.550781-5.296876-13.371094-10.273438-20.441407-14.902344v90.179687c0 5.644531 4.578126 10.21875 10.21875 10.21875zm71.515626 30.878907c-.351563-5.433594-5.105469-9.539063-10.546876-9.539063h-354.269531c-1.691406 0-3.066406-1.375-3.066406-3.066406v-110.121094c-7.113281 5.285156-13.929687 10.949219-20.4375 16.945313v93.175781c0 1.691406-1.371094 3.066406-3.066406 3.066406h-61.789063c-2.507812 6.679687-4.738281 13.496094-6.675781 20.4375h415.929687c1.695313 0 3.066407 1.371094 3.066407 3.066406v201.324219c7.28125-7.34375 14.105469-15.144531 20.4375-23.339844v-177.984375c0-1.695312 1.375-3.066406 3.066406-3.066406h7.15625c5.867187 0 10.582031-4.945313 10.195313-10.898437zm0 0" fill="#6c7fd7"/><path d="m56.554688 396.667969c-5.332032-.152344-40.007813-91.597657-34.621094-95.351563 19.816406-13.8125 46.140625-13.8125 65.957031 0 19.816406 13.816406 46.140625 13.816406 65.957031 0 19.820313-13.8125 46.144532-13.8125 65.960938 0 19.816406 13.816406 46.140625 13.816406 65.957031 0 19.816406-13.8125 46.140625-13.8125 65.957031 0 19.816406 13.816406 46.140625 13.816406 65.957032 0 20.761718-10.378906 45.199218-10.378906 65.960937 0 4.035156 2.8125 8.34375 5.042969 12.808594 6.710938-5.53125 29.5-16.316407 57.316406-31.210938 82.191406-2.527343 4.222656-7.039062 6.710938-11.957031 6.484375-12.398438-.5625-24.941406 2.863281-35.601562 10.292969-19.816407 13.8125-46.140626 13.8125-65.957032 0s-46.140625-13.8125-65.957031 0-46.140625 13.8125-65.957031 0-46.140625-13.8125-65.960938 0c-19.816406 13.8125-46.140625 13.8125-65.957031 0-9.4375-6.578125-20.351563-10.019532-31.335937-10.328125zm0 0" fill="#5de0c3"/><path d="m36.40625 391.710938c-15.164062-24.878907-26.078125-52.609376-31.8125-82.199219 6.085938-1.714844 11.953125-4.4375 17.339844-8.191407 9.019531-6.289062 19.386718-9.703124 29.875-10.269531 6.472656 55.269531 30.949218 105.027344 67.398437 143.277344-7.71875-.222656-31.785156-10.664063-49.789062-16.589844-13.730469-4.515625-25.492188-13.6875-33.011719-26.027343zm0 0" fill="#0ed1b2"/><path d="m465.238281 390.21875c-43.757812 72.953125-123.601562 121.78125-214.859375 121.78125-90.746094 0-170.21875-48.277344-214.132812-120.546875 17.09375-5.847656 36.316406-3.433594 51.644531 7.25 19.816406 13.8125 46.140625 13.8125 65.957031 0s46.140625-13.8125 65.957032 0c19.820312 13.8125 46.144531 13.8125 65.960937 0s46.140625-13.8125 65.957031 0 46.140625 13.8125 65.957032 0c14.121093-9.839844 31.539062-12.664063 47.558593-8.484375zm0 0" fill="#89e9d9"/><path d="m275.4375 510.761719c-8.242188.816406-16.601562 1.238281-25.058594 1.238281-90.746094 0-170.21875-48.277344-214.132812-120.546875 17.09375-5.847656 36.316406-3.433594 51.644531 7.25 1.667969 1.164063 3.386719 2.21875 5.140625 3.1875 40.613281 59.941406 106.527344 101.339844 182.40625 108.871094zm0 0" fill="#5de0c3"/><path d="m155.53125 286.316406c-36.402344-43.175781-39.054688-105.484375-6.449219-151.59375l91.777344-129.792968c4.644531-6.574219 14.394531-6.574219 19.039063 0l91.777343 129.789062c32.605469 46.109375 29.957031 108.421875-6.445312 151.597656-49.570313 58.792969-140.132813 58.792969-189.699219 0zm0 0" fill="#ade8f0"/><path d="m353.257812 137.011719c44.847657 66.515625-24.101562 152.929687-98.445312 122.785156-107.652344-43.652344-94.097656-141.527344-64.246094-183.746094l50.292969-71.121093c4.644531-6.570313 14.394531-6.570313 19.039063 0 0 0 92.84375 131.3125 93.359374 132.082031zm0 0" fill="#d3f1f5"/><path d="m264.6875 132.855469c-9.898438-22.074219-12.390625-60.988281-1.703125-65.066407 15.035156-5.738281 44.335937 39.953126 49.734375 48.375 10.984375 17.128907 31.933594 45.632813 13.285156 57.566407-25.550781 16.355469-45.429687-5.445313-61.316406-40.875zm0 0" fill="#fff5f5"/></svg>