<svg xmlns="http://www.w3.org/2000/svg" version="1.1" xmlns:xlink="http://www.w3.org/1999/xlink" xmlns:svgjs="http://svgjs.com/svgjs" x="0" y="0" viewBox="0 0 512 512" style="enable-background:new 0 0 512 512" xml:space="preserve"><g><g><path d="m501 267.01c0 135.305-109.69 244.99-245 244.99s-245-109.685-245-244.99 109.69-244.99 245-244.99 245 109.686 245 244.99z" fill="#2740b1" data-original="#2740b1"/><path d="m430 260.011c0 110.452-89.543 199.991-200 199.991s-200-89.539-200-199.991 89.543-199.991 200-199.991 200 89.538 200 199.991z" fill="#314dca" data-original="#314dca"/><path d="m359.933 240.809h-12.123c.49-81.244.781-170.881-.216-182.844-1.951-23.408-15.805-42.433-35.294-48.47-9.236-2.86-33.106-6.577-55.269 20.612-18.912 23.201-112.635 192.505-131.231 226.209-5.127 9.293-4.962 20.604.434 29.743 5.396 9.14 15.22 14.748 25.834 14.748h135.334c-.172 23.894-.354 46.887-.531 67.427-.143 16.567 13.173 30.113 29.74 30.257.089 0 .176.001.264.001 16.447-.001 29.852-13.262 29.994-29.74.106-12.332.315-37.288.539-67.945h12.525c16.568 0 30-13.431 30-29.999s-13.432-29.999-30-29.999zm-72.137 0h-84.778c33.236-59.588 66.104-117.232 85.211-148.934.131 33.268-.084 90.099-.433 148.934z" fill="#00d1fc" data-original="#00d1fc"/><path d="m348.064 193.321c-.076 16.517-13.489 29.869-30.006 29.869h-.002c-16.627 0-30.083-13.526-30.006-30.152.188-40.62.274-77.07.179-101.163-15.55 25.8-40.213 68.781-66.772 116.01-5.315 9.451-15.315 15.306-26.158 15.306-22.941 0-37.401-24.697-26.164-44.696 33.908-60.349 75.916-133.688 87.898-148.386 22.16-27.191 46.03-23.474 55.267-20.613 19.489 6.036 33.343 25.062 35.294 48.47.804 9.647.77 69.814.47 135.355z" fill="#64dcfc" data-original="#64dcfc"/><path d="m324.366 177.46c-.104 4.076-3.44 7.308-7.493 7.308-.065 0-.131-.001-.196-.002-4.141-.106-7.411-3.549-7.305-7.689.024-.966 2.455-96.754.852-115.997-.653-7.84-4.362-14.322-9.02-15.764-4.153-1.29-9.661 1.806-15.105 8.484-2.617 3.209-7.341 3.691-10.552 1.075-3.211-2.617-3.692-7.341-1.075-10.552 13.017-15.969 25.114-15.21 31.171-13.335 10.679 3.307 18.344 14.63 19.528 28.846 1.672 20.049-.702 113.652-.805 117.626zm-87.962 85.848h-71.616c3.173-5.725 7.432-13.398 12.44-22.394 2.015-3.619.715-8.186-2.904-10.201-3.62-2.015-8.186-.714-10.201 2.904-11.118 19.968-18.549 33.434-18.622 33.567-1.282 2.323-1.241 5.151.108 7.436s3.805 3.687 6.458 3.687h84.337c4.143 0 7.5-3.358 7.5-7.5 0-4.141-3.357-7.499-7.5-7.499z" fill="#9ae7fd" data-original="#9ae7fd"/><path d="m290.223 84.642c-3.241-.894-6.683.479-8.419 3.358-17.999 29.863-49.901 85.62-85.337 149.151-1.296 2.323-1.265 5.158.083 7.451 1.347 2.293 3.808 3.702 6.467 3.702h84.778c4.125 0 7.476-3.331 7.5-7.455.279-47.204.582-111.372.433-149.007-.014-3.362-2.264-6.305-5.505-7.2zm-9.884 148.663h-64.543c25.087-44.856 48.022-85.13 64.97-114.117-.016 34.475-.221 78.262-.427 114.117zm79.594 0h-4.579c.625-106.985.529-166.18-.287-175.966-2.206-26.472-18.122-48.065-40.548-55.011-10.688-3.311-38.25-7.694-63.3 23.037-18.822 23.09-105.782 179.834-131.987 227.324-6.378 11.562-6.171 25.807.543 37.178s19.087 18.435 32.292 18.435h127.779c-.155 21.179-.317 41.493-.477 59.864-.178 20.676 16.499 37.642 37.205 37.821l.301.001c20.495-.002 37.314-16.678 37.492-37.175.098-11.323.281-33.267.484-60.51h5.081c20.678 0 37.5-16.822 37.5-37.498s-16.822-37.5-37.499-37.5zm0 59.997h-12.526c-4.121 0-7.47 3.325-7.5 7.445-.224 30.662-.433 55.602-.539 67.935-.106 12.298-10.197 22.304-22.493 22.305h-.2c-12.405-.107-22.412-10.287-22.305-22.692.178-20.551.359-43.533.531-67.439.014-1.998-.77-3.92-2.178-5.338s-3.324-2.216-5.322-2.216h-135.335c-7.923 0-15.348-4.239-19.375-11.061-4.028-6.823-4.153-15.37-.326-22.308 51.228-92.84 116.138-207.498 130.48-225.093 13.083-16.051 26.58-19.801 36.336-19.801 4.618 0 8.398.841 10.898 1.615 16.552 5.127 28.343 21.585 30.039 41.929.548 6.58 1.026 43.527.189 182.174-.012 1.997.772 3.916 2.181 5.332 1.408 1.416 3.322 2.213 5.319 2.213h12.124c12.406 0 22.5 10.093 22.5 22.499.002 12.409-10.092 22.501-22.498 22.501z" fill="#c9f0ff" data-original="#c9f0ff"/></g></g></svg>