<svg xmlns="http://www.w3.org/2000/svg" version="1.1" xmlns:xlink="http://www.w3.org/1999/xlink" xmlns:svgjs="http://svgjs.com/svgjs" x="0" y="0" viewBox="0 0 508.454 508.454" style="enable-background:new 0 0 512 512" xml:space="preserve"><g><g><g><path d="m501.145 246.918c0 40.59-9.794 78.893-27.148 112.674-40.949 79.711-123.779 111.915-219.558 111.915-136.369 0-232.767-92.159-232.767-228.528 0-80.968 24.608-148.893 84.817-193.922 41.197-30.811 92.337-49.057 147.738-49.057 136.369 0 246.918 110.549 246.918 246.918z" fill="#6ee1ff" data-original="#6ee1ff"/></g><path d="m461.281 351.697v-225.93c0-9.165-2.929-18.097-8.378-25.466-.074-.101-.149-.201-.223-.301-8.1-10.921-20.876-17.384-34.473-17.384h-104.695c-3.684 0-6.67-2.986-6.67-6.67 0-3.684-2.986-6.67-6.67-6.67h-36.914c-3.684 0-6.67 2.986-6.67 6.67 0 3.684-2.986 6.67-6.67 6.67h-109.163c-9.234 0-15.884-8.949-13.124-17.761.06-.192.121-.385.182-.577 4.04-12.788-10.575-23.24-21.315-15.209-60.212 45.024-99.189 116.881-99.189 197.849 0 110.691 72.838 204.367 173.198 235.722.001 0 .002.001.003.001.703.22 1.413.425 2.119.638.005.002.011.003.016.005 22.659 6.853 46.687 10.552 71.582 10.552 95.819 0 178.889-54.58 219.82-134.346-.042.021-.084.042-.126.063-5.803 2.914-12.64-1.362-12.64-7.856z" fill="#05cdff" data-original="#05cdff"/><g><g><g><g><path d="m184.799 422.704-31.806 85.75h51.092l31.806-85.75z" fill="#ffc305" data-original="#ffc305"/></g><g><path d="m234.918 425.328 12.535-33.796h-51.092l-12.535 33.796z" fill="#ff8500" data-original="#ff8500"/></g></g><g><g><path d="m259.552 422.704 31.806 85.75h51.092l-31.806-85.75z" fill="#ffc305" data-original="#ffc305"/></g><g><path d="m260.525 425.328-12.535-33.796h51.092l12.535 33.796z" fill="#ff8500" data-original="#ff8500"/></g></g></g><g><path d="m229.312 94.444h50.255v57.659h-50.255z" fill="#ffc305" data-original="#ffc305"/></g><g><path d="m183.826 123.274h234.691v201.182h-234.691z" fill="#2d56a1" data-original="#2d56a1"/></g><g><path d="m61.437 107.785v303.782h372.569v-303.782zm341.592 272.805h-310.615v-241.828h310.614v241.828z" fill="#f8e000" data-original="#f8e000"/></g><g><path d="m377.959 289.787v-104.952c0-6.752-7.686-10.628-13.115-6.615l-132.912 98.246c-14.208 10.502-34.318.359-34.318-17.309v-135.883h-120.688v272.805h341.591v-79.182h-13.448c-14.972 0-27.11-12.138-27.11-27.11zm-15.488.68c-16.692 1.694-30.857 12.022-37.98 26.43h-78.583c-13.543 0-19.237-17.281-8.346-25.332l124.909-92.331z" fill="#1a396b" data-original="#1a396b"/></g><g><path d="m61.437 107.785v39.521h30.977v-8.544h310.615v241.828h-5.139v30.977h36.116v-303.782z" fill="#f8e000" data-original="#f8e000"/></g><g><path d="m121.751 380.59h-29.337v-241.828l-30.977-30.977v303.782h60.314z" fill="#ff8500" data-original="#ff8500"/></g><g><path d="m403.029 380.59h-310.615l-30.977 30.977h372.569z" fill="#ffc305" data-original="#ffc305"/></g><g><g><path d="m363.292 349.719h-244.215l244.215-180.519zm-197.205-15.489h181.716v-134.321z" fill="#ffffff" data-original="#ffffff"/></g><g><path d="m320.375 338.672h-15.489c0-26.344 21.432-47.777 47.777-47.777v15.489c-17.804 0-32.288 14.484-32.288 32.288z" fill="#ffffff" data-original="#ffffff"/></g></g></g></g></g></svg>