<svg height="512pt" viewBox="0 0 512 512" width="512pt" xmlns="http://www.w3.org/2000/svg"><path d="m512 256c0 141.386719-114.613281 256-256 256s-256-114.613281-256-256 114.613281-256 256-256 256 114.613281 256 256zm0 0" fill="#fdd33a"/><path d="m446.523438 444.234375h-378.5625v-378.558594h378.5625zm-362.890626-15.671875h347.21875v-347.214844h-347.21875zm0 0" fill="#322277"/><path d="m408.957031 46.9375h57.089844v57.089844h-57.089844zm0 0" fill="#7956ba"/><g fill="#f84e82"><path d="m228.191406 46.9375h57.089844v57.089844h-57.089844zm0 0"/><path d="m228.191406 406.382812h57.089844v57.089844h-57.089844zm0 0"/><path d="m465.003906 226.660156v57.089844h-57.089844v-57.089844zm0 0"/><path d="m105.558594 226.660156v57.089844h-57.089844v-57.089844zm0 0"/></g><path d="m48.46875 46.9375h57.089844v57.089844h-57.089844zm0 0" fill="#7956ba"/><path d="m48.46875 406.382812h57.089844v57.089844h-57.089844zm0 0" fill="#7956ba"/><path d="m48.46875 406.382812h28.875v57.089844h-28.875zm0 0" fill="#4b358e"/><path d="m48.46875 226.660156h28.210938v57.089844h-28.210938zm0 0" fill="#dd3a71"/><path d="m48.46875 46.9375h28.210938v57.089844h-28.210938zm0 0" fill="#4b358e"/><path d="m408.957031 406.382812h57.089844v57.089844h-57.089844zm0 0" fill="#7956ba"/><path d="m268.5625 253.910156c0 6.347656-5.148438 11.492188-11.496094 11.492188s-11.492187-5.144532-11.492187-11.492188 5.144531-11.492187 11.492187-11.492187 11.496094 5.144531 11.496094 11.492187zm0 0" fill="#322277"/></svg>