<svg id="Capa_1" enable-background="new 0 0 512 512" height="512" viewBox="0 0 512 512" width="512" xmlns="http://www.w3.org/2000/svg"><g><path d="m512 256c0 48.56-13.53 93.97-37.01 132.65-17.21 28.33-39.75 53.07-66.24 72.79-17.53 13.07-36.8 23.94-57.39 32.2-8.22 3.31-16.65 6.19-25.26 8.64-4.66 1.32-9.37 2.52-14.14 3.58-11.87 2.65-24.04 4.47-36.47 5.41-3.34.25-6.71.44-10.09.56-3.12.11-6.25.17-9.4.17-2.47 0-4.93-.03-7.39-.11-3.38-.09-6.75-.25-10.1-.48-3.7-.25-7.38-.58-11.04-.99-8.61-.95-17.09-2.34-25.42-4.12h-.01c-4.77-1.02-9.48-2.18-14.15-3.46-28.25-7.78-54.55-20.28-77.98-36.61-2.21-1.53-4.4-3.1-6.56-4.71-11.45-8.52-22.16-17.97-32.02-28.24-12.07-12.56-22.86-26.34-32.18-41.15v-.01c-24.8-39.43-39.15-86.1-39.15-136.12 0-51.59 15.27-99.62 41.52-139.82l.01-.01c10.06-15.41 21.75-29.68 34.82-42.55 25.82-25.43 57.01-45.42 91.71-58.11 27.42-10.03 57.04-15.51 87.94-15.51 30.77 0 60.26 5.43 87.59 15.39 53.71 19.55 99.03 56.57 129.07 104.2 24.92 39.49 39.34 86.27 39.34 136.41z" fill="#80e29d"/><path d="m474.99 388.65c-44.89 73.95-126.17 123.35-218.99 123.35-91.36 0-171.54-47.86-216.85-119.88-3.84-91.99-3.05-183.96 2.37-275.94.43-7.23.89-14.45 1.37-21.68.64-9.78 1.35-19.55 2.1-29.32 1.75-22.53 19.37-40.58 41.85-43.01 16.8-1.81 33.58-3.35 50.37-4.61 10.28-.78 20.57-1.46 30.85-2.05 58.51-3.3 117.02-3.35 175.53-.12 11.07.6 22.14 1.33 33.21 2.17 16.79 1.26 33.56 2.8 50.35 4.61 22.48 2.43 40.1 20.48 41.85 43.01.75 9.77 1.46 19.53 2.1 29.31.56 8.37 1.08 16.73 1.56 25.1 5.19 89.68 5.96 179.36 2.33 269.06z" fill="#bc95e2"/><path d="m96.44 21.16c-10.59 8.24-17.69 20.7-18.79 34.85-.45 5.87-.88 11.74-1.3 17.61-.31 4.33-.61 8.67-.89 13-6.81 101.77-8.19 237.22-4.13 346.66-12.07-12.56-22.86-26.34-32.18-41.15v-.01c-3.84-91.99-3.05-183.96 2.37-275.94l.01-.01c.42-7.22.88-14.45 1.36-21.67.64-9.78 1.35-19.55 2.1-29.32 1.75-22.53 19.37-40.58 41.85-43.01 3.2-.34 6.4-.68 9.6-1.01z" fill="#9373b9"/><path d="m441.408 158.927c.42 9.625-6.855 17.854-16.46 18.602-36.217 2.821-120.987 3.332-167.948 3.332s-131.739-.511-167.959-3.332c-9.605-.748-16.88-8.977-16.461-18.602 1.328-30.461 3.166-60.867 5.514-91.179.509-6.563 5.688-11.853 12.306-12.561 55.279-5.965 111.321-8.986 166.6-8.986 55.268 0 111.321 3.021 166.6 8.986 6.618.708 11.786 5.987 12.295 12.561 2.347 30.312 4.185 60.718 5.513 91.179z" fill="#9373b9"/><path d="m257 165.367c-29.224 0-127.616-.237-166.756-3.285-1.281-.1-2.241-1.19-2.185-2.481 1.294-29.674 3.098-59.661 5.366-89.157 54.281-5.807 109.301-8.751 163.575-8.751s109.295 2.943 163.564 8.749c2.266 29.484 4.071 59.474 5.366 89.159.056 1.29-.904 2.38-2.185 2.48-39.138 3.05-137.524 3.286-166.745 3.286z" fill="#f6f1f1"/><g><g><path d="m435.644 242.197c-.819 11.204-10.01 19.952-21.248 20.481-18.775.904-37.568 1.04-56.343.392-3.394-.102-6.77-.239-10.147-.392-11.221-.529-20.43-9.277-21.248-20.481-.802-10.829-.802-21.657 0-32.486.819-11.204 10.027-19.935 21.248-20.481 3.377-.153 6.753-.307 10.147-.392 18.775-.648 37.551-.512 56.343.392 11.238.546 20.43 9.277 21.248 20.481.802 10.829.802 21.657 0 32.486z" fill="#f6f1f1"/><path d="m364.82 263.264c-2.258-.056-4.516-.124-6.763-.202-3.393-.101-6.774-.236-10.145-.393-11.223-.528-20.435-9.268-21.255-20.48-.798-10.83-.798-21.659 0-32.478.82-11.212 10.032-19.941 21.255-20.491 3.37-.146 6.752-.303 10.145-.382 2.258-.079 4.505-.146 6.763-.202-7.156 3.808-12.223 11.021-12.852 19.547-.876 11.841-.876 23.693 0 35.534.63 8.527 5.696 15.75 12.852 19.547z" fill="#dfeaef"/></g><g><path d="m311.491 242.197c-.819 11.204-10.01 19.952-21.248 20.481-18.775.904-37.568 1.04-56.343.392-3.394-.102-6.77-.239-10.147-.392-11.221-.529-20.43-9.277-21.248-20.481-.802-10.829-.802-21.657 0-32.486.819-11.204 10.027-19.935 21.248-20.481 3.377-.153 6.753-.307 10.147-.392 18.775-.648 37.551-.512 56.343.392 11.238.546 20.43 9.277 21.248 20.481.802 10.829.802 21.657 0 32.486z" fill="#f6f1f1"/><path d="m240.667 263.264c-2.258-.056-4.516-.124-6.763-.202-3.393-.101-6.774-.236-10.144-.393-11.223-.528-20.435-9.268-21.255-20.48-.798-10.83-.798-21.659 0-32.478.82-11.212 10.032-19.941 21.255-20.491 3.37-.146 6.752-.303 10.144-.382 2.258-.079 4.505-.146 6.763-.202-7.156 3.808-12.223 11.021-12.852 19.547-.876 11.841-.876 23.693 0 35.534.63 8.527 5.696 15.75 12.852 19.547z" fill="#dfeaef"/></g><g><path d="m187.338 242.197c-.819 11.204-10.01 19.952-21.248 20.481-18.775.904-37.568 1.04-56.343.392-3.394-.102-6.77-.239-10.147-.392-11.221-.529-20.43-9.277-21.248-20.481-.802-10.829-.802-21.657 0-32.486.819-11.204 10.027-19.935 21.248-20.481 3.377-.153 6.753-.307 10.147-.392 18.775-.648 37.551-.512 56.343.392 11.238.546 20.43 9.277 21.248 20.481.802 10.829.802 21.657 0 32.486z" fill="#f6f1f1"/><path d="m116.514 263.264c-2.258-.056-4.516-.124-6.763-.202-3.393-.101-6.774-.236-10.144-.393-11.223-.528-20.435-9.268-21.255-20.48-.798-10.83-.798-21.659 0-32.478.82-11.212 10.032-19.941 21.255-20.491 3.37-.146 6.752-.303 10.144-.382 2.258-.079 4.505-.146 6.763-.202-7.156 3.808-12.223 11.021-12.852 19.547-.876 11.841-.876 23.693 0 35.534.63 8.527 5.696 15.75 12.852 19.547z" fill="#dfeaef"/></g></g><g><path d="m435.644 333.016c-.819 11.204-10.01 19.952-21.248 20.481-18.775.904-37.568 1.04-56.343.392-3.394-.102-6.77-.239-10.147-.392-11.221-.529-20.43-9.277-21.248-20.481-.802-10.829-.802-21.657 0-32.486.819-11.204 10.027-19.935 21.248-20.481 3.377-.153 6.753-.307 10.147-.392 18.775-.648 37.551-.512 56.343.392 11.238.546 20.43 9.277 21.248 20.481.802 10.829.802 21.657 0 32.486z" fill="#f6f1f1"/><path d="m364.82 354.083c-2.258-.056-4.516-.124-6.763-.202-3.393-.101-6.774-.236-10.145-.393-11.223-.528-20.435-9.268-21.255-20.48-.798-10.83-.798-21.659 0-32.478.82-11.212 10.032-19.941 21.255-20.491 3.37-.146 6.752-.303 10.145-.382 2.258-.079 4.505-.146 6.763-.202-7.156 3.808-12.223 11.021-12.852 19.547-.876 11.841-.876 23.693 0 35.534.63 8.526 5.696 15.75 12.852 19.547z" fill="#dfeaef"/></g><g><path d="m311.491 333.016c-.819 11.204-10.01 19.952-21.248 20.481-18.775.904-37.568 1.04-56.343.392-3.394-.102-6.77-.239-10.147-.392-11.221-.529-20.43-9.277-21.248-20.481-.802-10.829-.802-21.657 0-32.486.819-11.204 10.027-19.935 21.248-20.481 3.377-.153 6.753-.307 10.147-.392 18.775-.648 37.551-.512 56.343.392 11.238.546 20.43 9.277 21.248 20.481.802 10.829.802 21.657 0 32.486z" fill="#f6f1f1"/><path d="m240.667 354.083c-2.258-.056-4.516-.124-6.763-.202-3.393-.101-6.774-.236-10.144-.393-11.223-.528-20.435-9.268-21.255-20.48-.798-10.83-.798-21.659 0-32.478.82-11.212 10.032-19.941 21.255-20.491 3.37-.146 6.752-.303 10.144-.382 2.258-.079 4.505-.146 6.763-.202-7.156 3.808-12.223 11.021-12.852 19.547-.876 11.841-.876 23.693 0 35.534.63 8.526 5.696 15.75 12.852 19.547z" fill="#dfeaef"/></g><g><path d="m187.338 333.016c-.819 11.204-10.01 19.952-21.248 20.481-18.775.904-37.568 1.04-56.343.392-3.394-.102-6.77-.239-10.147-.392-11.221-.529-20.43-9.277-21.248-20.481-.802-10.829-.802-21.657 0-32.486.819-11.204 10.027-19.935 21.248-20.481 3.377-.153 6.753-.307 10.147-.392 18.775-.648 37.551-.512 56.343.392 11.238.546 20.43 9.277 21.248 20.481.802 10.829.802 21.657 0 32.486z" fill="#f6f1f1"/><path d="m116.514 354.083c-2.258-.056-4.516-.124-6.763-.202-3.393-.101-6.774-.236-10.144-.393-11.223-.528-20.435-9.268-21.255-20.48-.798-10.83-.798-21.659 0-32.478.82-11.212 10.032-19.941 21.255-20.491 3.37-.146 6.752-.303 10.144-.382 2.258-.079 4.505-.146 6.763-.202-7.156 3.808-12.223 11.021-12.852 19.547-.876 11.841-.876 23.693 0 35.534.63 8.526 5.696 15.75 12.852 19.547z" fill="#dfeaef"/></g><g><g><path d="m435.644 423.834c-.819 11.204-10.01 19.952-21.248 20.481-18.775.904-37.568 1.04-56.343.392-3.394-.102-6.77-.239-10.147-.392-11.221-.529-20.43-9.277-21.248-20.481-.802-10.829-.802-21.657 0-32.486.819-11.204 10.027-19.935 21.248-20.481 3.377-.153 6.753-.307 10.147-.392 18.775-.648 37.551-.512 56.343.392 11.238.546 20.43 9.277 21.248 20.481.802 10.829.802 21.658 0 32.486z" fill="#f6f1f1"/><path d="m364.82 444.901c-2.258-.056-4.516-.124-6.763-.202-3.393-.101-6.774-.236-10.145-.393-11.223-.528-20.435-9.268-21.255-20.48-.798-10.83-.798-21.659 0-32.478.82-11.212 10.032-19.941 21.255-20.491 3.37-.146 6.752-.303 10.145-.382 2.258-.079 4.505-.146 6.763-.202-7.156 3.808-12.223 11.021-12.852 19.547-.876 11.841-.876 23.693 0 35.534.63 8.527 5.696 15.75 12.852 19.547z" fill="#dfeaef"/></g><g><path d="m311.491 423.834c-.819 11.204-10.01 19.952-21.248 20.481-18.775.904-37.568 1.04-56.343.392-3.394-.102-6.77-.239-10.147-.392-11.221-.529-20.43-9.277-21.248-20.481-.802-10.829-.802-21.657 0-32.486.819-11.204 10.027-19.935 21.248-20.481 3.377-.153 6.753-.307 10.147-.392 18.775-.648 37.551-.512 56.343.392 11.238.546 20.43 9.277 21.248 20.481.802 10.829.802 21.658 0 32.486z" fill="#f6f1f1"/><path d="m240.667 444.901c-2.258-.056-4.516-.124-6.763-.202-3.393-.101-6.774-.236-10.144-.393-11.223-.528-20.435-9.268-21.255-20.48-.798-10.83-.798-21.659 0-32.478.82-11.212 10.032-19.941 21.255-20.491 3.37-.146 6.752-.303 10.144-.382 2.258-.079 4.505-.146 6.763-.202-7.156 3.808-12.223 11.021-12.852 19.547-.876 11.841-.876 23.693 0 35.534.63 8.527 5.696 15.75 12.852 19.547z" fill="#dfeaef"/></g><g><path d="m187.338 423.834c-.819 11.204-10.01 19.952-21.248 20.481-18.775.904-37.568 1.04-56.343.392-3.394-.102-6.77-.239-10.147-.392-11.221-.529-20.43-9.277-21.248-20.481-.802-10.829-.802-21.657 0-32.486.819-11.204 10.027-19.935 21.248-20.481 3.377-.153 6.753-.307 10.147-.392 18.775-.648 37.551-.512 56.343.392 11.238.546 20.43 9.277 21.248 20.481.802 10.829.802 21.658 0 32.486z" fill="#f6f1f1"/><path d="m116.514 444.901c-2.258-.056-4.516-.124-6.763-.202-3.393-.101-6.774-.236-10.144-.393-11.223-.528-20.435-9.268-21.255-20.48-.798-10.83-.798-21.659 0-32.478.82-11.212 10.032-19.941 21.255-20.491 3.37-.146 6.752-.303 10.144-.382 2.258-.079 4.505-.146 6.763-.202-7.156 3.808-12.223 11.021-12.852 19.547-.876 11.841-.876 23.693 0 35.534.63 8.527 5.696 15.75 12.852 19.547z" fill="#dfeaef"/></g></g><g><g><path d="m408.75 461.44c-24.53 18.28-52.45 32.26-82.65 40.84-.12-6.7.06-13.4.56-20.11.82-11.21 10.03-19.94 21.25-20.48 3.37-.16 6.75-.31 10.14-.4 16.9-.58 33.79-.53 50.7.15z" fill="#f6f1f1"/><path d="m364.82 461.09c-7.16 3.81-12.22 11.02-12.85 19.55-.32 4.33-.53 8.67-.61 13-8.22 3.31-16.65 6.19-25.26 8.64-.12-6.7.06-13.41.56-20.11.82-11.21 10.03-19.94 21.25-20.49 3.37-.15 6.75-.31 10.15-.39 2.26-.07 4.5-.14 6.76-.2z" fill="#dfeaef"/></g><g><path d="m311.96 505.86c-18.01 4.02-36.73 6.14-55.96 6.14-18.51 0-36.56-1.97-53.96-5.7-.29-8.04-.13-16.08.47-24.13.81-11.21 10.02-19.94 21.24-20.48 3.38-.16 6.76-.31 10.15-.4 18.78-.64 37.55-.51 56.34.4 11.24.54 20.43 9.27 21.25 20.48.58 7.9.74 15.79.47 23.69z" fill="#f6f1f1"/><path d="m240.67 461.09c-7.16 3.81-12.23 11.02-12.85 19.55-.74 9.92-.86 19.85-.35 29.78-8.61-.95-17.09-2.34-25.42-4.12-.29-8.05-.13-16.09.46-24.13.82-11.21 10.03-19.94 21.25-20.49 3.37-.15 6.75-.31 10.14-.39 2.26-.07 4.51-.14 6.77-.2z" fill="#dfeaef"/></g><g><path d="m187.89 502.84c-30.92-8.51-59.49-22.68-84.54-41.32 2.13-.09 4.26-.17 6.4-.23 18.77-.64 37.55-.51 56.34.4 11.24.54 20.43 9.27 21.25 20.48.51 6.89.69 13.78.55 20.67z" fill="#f6f1f1"/><path d="m116.51 461.09c-2.49 1.33-4.73 3.07-6.6 5.14-2.21-1.53-4.4-3.1-6.56-4.71 2.13-.1 4.26-.18 6.4-.23 2.26-.07 4.51-.14 6.76-.2z" fill="#dfeaef"/></g></g><g><path d="m127.854 207.599h4.983v41.71c0 2.761 2.238 5 5 5s5-2.239 5-5v-46.71c0-2.761-2.238-5-5-5h-9.983c-2.762 0-5 2.239-5 5s2.238 5 5 5z" fill="#f93d6e"/><path d="m325.217 94.317h5.817v48.69c0 3.224 2.613 5.837 5.837 5.837s5.837-2.613 5.837-5.837v-54.527c0-3.224-2.613-5.837-5.837-5.837h-11.654c-3.224 0-5.837 2.613-5.837 5.837s2.613 5.837 5.837 5.837z" fill="#2f373b"/><path d="m145.693 379.236h-25.696c-2.762 0-5 2.239-5 5s2.238 5 5 5h18.036l-17.45 39.698c-1.111 2.528.037 5.478 2.565 6.589.654.288 1.337.424 2.009.424 1.923 0 3.757-1.116 4.58-2.989l20.533-46.71c.68-1.546.533-3.331-.391-4.745-.922-1.414-2.497-2.267-4.186-2.267z" fill="#f93d6e"/><path d="m256.998 306.916c-1.298 0-2.451.054-3.501.158l1.494-9.016h13.31c2.762 0 5-2.239 5-5s-2.238-5-5-5h-17.55c-2.446 0-4.533 1.77-4.933 4.183l-3.477 20.984c-.309 1.859.465 3.729 1.984 4.844s3.546 1.275 5.227.424c.039-.02.173-.085.379-.178 1.878-.845 3.384-1.399 7.066-1.399 2.569 0 4.961 1.028 6.734 2.895 1.771 1.865 2.673 4.313 2.539 6.892-.25 4.828-4.238 8.686-9.079 8.783-4.69.079-8.742-3.337-9.391-7.982-.06-.427-.09-.865-.09-1.302 0-2.761-2.238-5-5-5s-5 2.239-5 5c0 .897.063 1.8.186 2.684 1.33 9.53 9.504 16.604 19.103 16.603.13 0 .263-.001.394-.004 10.058-.203 18.344-8.225 18.864-18.263.277-5.344-1.596-10.421-5.273-14.295-3.627-3.821-8.724-6.011-13.986-6.011z" fill="#f93d6e"/><path d="m147.511 321.342h-.939c.066-11.273.103-23.431-.037-25.103-.302-3.617-2.469-6.564-5.519-7.508-3.026-.937-6.246.245-8.618 3.157-2.644 3.242-14.902 25.342-18.597 32.039-.854 1.549-.827 3.434.072 4.957s2.537 2.458 4.306 2.458h18.325c-.022 3.097-.046 6.067-.069 8.743-.023 2.761 2.195 5.019 4.957 5.043h.044c2.741 0 4.976-2.21 4.999-4.957.014-1.638.041-4.852.07-8.829h1.006c2.762 0 5-2.239 5-5s-2.239-5-5-5zm-10.941 0h-9.896c3.726-6.667 7.367-13.07 9.958-17.475.002 4.572-.024 10.905-.062 17.475z" fill="#f93d6e"/><path d="m401.093 121.077h-1.097c.078-13.16.12-27.352-.043-29.303-.352-4.222-2.882-7.662-6.442-8.764-3.533-1.093-7.291.286-10.06 3.685-3.086 3.784-17.396 29.583-21.709 37.4-.997 1.808-.966 4.009.084 5.787s2.962 2.869 5.026 2.869h21.392c-.026 3.615-.054 7.083-.081 10.206-.027 3.224 2.563 5.859 5.786 5.887h.051c3.2 0 5.808-2.58 5.836-5.786.016-1.912.048-5.663.082-10.307h1.174c3.224 0 5.837-2.613 5.837-5.837s-2.613-5.837-5.836-5.837zm-12.772 0h-11.552c4.349-7.782 8.6-15.257 11.624-20.399.003 5.337-.027 12.73-.072 20.399z" fill="#2f373b"/><path d="m243.204 216.684c2.7.531 5.337-1.232 5.87-3.942.638-3.244 3.507-5.599 6.822-5.599 3.741 0 6.801 2.97 6.946 6.676l-.15 1.178c-.589 2.346-1.98 5.096-4.138 8.179-7.401 10.576-11.819 16.36-14.192 19.468-2.949 3.862-4.17 5.46-3.312 8.25.502 1.632 1.738 2.884 3.393 3.436.663.221 1.342.448 10.422.448 3.554 0 8.396-.035 15.025-.118 2.762-.035 4.972-2.301 4.938-5.062-.035-2.761-2.303-4.975-5.063-4.937-4.95.062-10.211.102-14.465.107 2.615-3.487 6.333-8.55 11.447-15.857 2.964-4.235 4.895-8.231 5.74-11.878.037-.163.067-.328.089-.494l.231-1.807c.026-.211.04-.423.04-.635 0-9.347-7.604-16.952-16.952-16.952-8.082 0-15.078 5.75-16.635 13.672-.531 2.706 1.234 5.335 3.944 5.867z" fill="#f93d6e"/><path d="m381.151 244.859c-3.45 0-6.41-2.569-6.885-5.978-.045-.318-.067-.646-.067-.975 0-2.761-2.238-5-5-5s-5 2.239-5 5c0 .79.055 1.584.163 2.358 1.16 8.32 8.378 14.594 16.789 14.594 9.348 0 16.952-7.605 16.952-16.952 0-4.659-1.89-8.885-4.941-11.952 3.052-3.067 4.941-7.293 4.941-11.952 0-9.347-7.604-16.952-16.952-16.952-8.082 0-15.078 5.75-16.635 13.672-.532 2.709 1.232 5.338 3.942 5.87 2.705.531 5.338-1.232 5.87-3.942.638-3.244 3.507-5.599 6.822-5.599 3.833 0 6.952 3.119 6.952 6.952s-3.119 6.952-6.952 6.952c-2.762 0-5 2.239-5 5s2.238 5 5 5c3.833 0 6.952 3.119 6.952 6.952s-3.118 6.952-6.951 6.952z" fill="#f93d6e"/><path d="m271.939 137.17c-4.028 0-7.483-2.999-8.037-6.978-.052-.372-.079-.754-.079-1.138 0-3.224-2.613-5.837-5.837-5.837s-5.837 2.613-5.837 5.837c0 .923.064 1.849.19 2.752 1.354 9.713 9.78 17.037 19.598 17.037 10.912 0 19.789-8.877 19.789-19.789 0-5.439-2.206-10.372-5.768-13.952 3.562-3.581 5.768-8.514 5.768-13.952 0-10.912-8.877-19.789-19.789-19.789-9.434 0-17.601 6.712-19.418 15.959-.621 3.163 1.439 6.231 4.602 6.852 3.158.619 6.231-1.438 6.852-4.602.744-3.787 4.094-6.536 7.964-6.536 4.474 0 8.115 3.641 8.115 8.115 0 4.475-3.641 8.116-8.115 8.116-3.224 0-5.837 2.613-5.837 5.837s2.613 5.837 5.837 5.837c4.474 0 8.115 3.641 8.115 8.116.003 4.475-3.638 8.115-8.113 8.115z" fill="#2f373b"/><g fill="#f93d6e"><path d="m268.736 403.142c1.941-2.51 3.11-5.647 3.11-9.058 0-8.187-6.66-14.848-14.848-14.848s-14.848 6.661-14.848 14.848c0 3.411 1.168 6.548 3.11 9.058-4.13 3.397-6.77 8.544-6.77 14.297 0 10.205 8.303 18.507 18.508 18.507s18.508-8.302 18.508-18.507c0-5.753-2.64-10.9-6.77-14.297zm-16.586-9.058c0-2.673 2.175-4.848 4.848-4.848s4.848 2.175 4.848 4.848-2.175 4.848-4.848 4.848-4.848-2.175-4.848-4.848zm4.848 31.863c-4.691 0-8.508-3.816-8.508-8.507s3.816-8.508 8.508-8.508 8.508 3.816 8.508 8.508c0 4.69-3.817 8.507-8.508 8.507z"/><path d="m381.151 379.487c-10.205 0-18.508 8.302-18.508 18.507s8.303 18.508 18.508 18.508c.868 0 1.715-.081 2.551-.197-4.059 6.696-8.666 10.283-8.806 10.39-2.204 1.651-2.658 4.774-1.014 6.985.981 1.319 2.488 2.016 4.016 2.016 1.037 0 2.084-.322 2.98-.988.655-.487 16.073-12.188 18.601-34.182.004-.037-.002-.073.001-.11.105-.795.177-1.599.177-2.422.001-10.205-8.301-18.507-18.506-18.507zm-8.507 18.507c0-4.691 3.816-8.507 8.508-8.507 4.69 0 8.507 3.816 8.507 8.507s-3.816 8.508-8.507 8.508c-4.692 0-8.508-3.817-8.508-8.508z"/><path d="m381.151 344.878c10.205 0 18.507-8.302 18.507-18.508s-8.302-18.508-18.507-18.508c-.868 0-1.715.081-2.551.197 4.058-6.695 8.666-10.282 8.806-10.39 2.204-1.651 2.658-4.774 1.014-6.985-1.648-2.216-4.78-2.677-6.996-1.028-.655.487-16.075 12.188-18.601 34.183-.004.035.002.068-.001.102-.105.797-.178 1.604-.178 2.429 0 10.205 8.302 18.508 18.507 18.508zm8.507-18.508c0 4.691-3.816 8.508-8.507 8.508s-8.508-3.816-8.508-8.508 3.816-8.508 8.508-8.508c4.691.001 8.507 3.817 8.507 8.508z"/><path d="m257 470.38c-10.21 0-18.51 8.31-18.51 18.51v21.6c0 .31.01.62.02.92 3.35.23 6.72.39 10.1.48-.08-.46-.12-.92-.12-1.4v-21.6c0-4.69 3.82-8.51 8.51-8.51s8.51 3.82 8.51 8.51v21.6c0 .45-.04.9-.11 1.34 3.38-.12 6.75-.31 10.09-.56.01-.26.02-.52.02-.78v-21.6c0-10.2-8.31-18.51-18.51-18.51z"/></g><circle cx="302.302" cy="142.867" fill="#2f373b" r="5.875"/></g></g></svg>