<svg xmlns="http://www.w3.org/2000/svg" version="1.1" xmlns:xlink="http://www.w3.org/1999/xlink" xmlns:svgjs="http://svgjs.com/svgjs" x="0" y="0" viewBox="0 0 512 512" style="enable-background:new 0 0 512 512" xml:space="preserve"><g><g><path d="m512 256c0 95.954-52.801 179.586-130.931 223.419-8.61 4.83-27.34-10.377-36.528-6.55-11.098 4.622-12.778 28.04-24.601 31.08-15.043 3.868-30.621 6.403-46.6 7.471-5.73.39-5.985-9.989-11.815-9.989-2.71 0-5.41-.04-8.1-.13-5.23-.16-15.955 10.089-21.095 9.619-13.768-1.263-27.22-3.616-40.27-6.971-11.353-2.919-15.407-26.699-26.094-31.08-8.806-3.61-24.361 12.405-32.643 7.875-79.445-43.458-133.323-127.81-133.323-224.744 0-141.38 114.62-256 256-256s256 114.62 256 256z" fill="#ffe04a" data-original="#ffe04a"/><g fill="#fe860a"><path d="m233.87 390.6-41.81 113.35c-21.61-5.56-42.12-13.87-61.13-24.53l41.16-111.61z" fill="#fe860a" data-original="#fe860a"/><path d="m381.07 479.42c-19.01 10.66-39.52 18.97-61.13 24.53l-41.81-113.35 61.78-22.79z" fill="#fe860a" data-original="#fe860a"/></g><path d="m452.63 439.09h-398.41c-21.481 0-38.894-17.414-38.894-38.894v-311.95c0-21.481 17.414-38.894 38.894-38.894h398.41c21.481 0 38.894 17.414 38.894 38.894v311.949c0 21.481-17.413 38.895-38.894 38.895z" fill="#fe9738" data-original="#fe9738"/><path d="m54.22 409.09c-4.904 0-8.895-3.99-8.895-8.894v-311.95c0-4.905 3.99-8.895 8.895-8.895h398.41c4.904 0 8.895 3.99 8.895 8.895v311.949c0 4.904-3.99 8.894-8.895 8.894h-398.41z" fill="#685e68" data-original="#685e68"/><path d="m72.835 409.085h-18.62c-4.9 0-8.89-3.99-8.89-8.89v-311.95c0-4.91 3.99-8.9 8.89-8.9h18.62c-4.9 0-8.89 3.99-8.89 8.9v311.95c0 4.9 3.99 8.89 8.89 8.89z" fill="#554e56" data-original="#554e56"/><path d="m69.515 439.086h-15.3c-21.48 0-38.89-17.41-38.89-38.89v-311.95c0-21.48 17.41-38.9 38.89-38.9h15.3c-21.48 0-38.9 17.42-38.9 38.9v311.95c0 21.48 17.42 38.89 38.9 38.89z" fill="#fe860a" data-original="#fe860a"/><g fill="#f9f7f8"><path d="m244.251 234.862h-16.856v-16.856c0-4.142-3.358-7.5-7.5-7.5s-7.5 3.358-7.5 7.5v16.856h-17.443c-4.142 0-7.5 3.358-7.5 7.5s3.358 7.5 7.5 7.5h17.443v17.442c0 4.142 3.358 7.5 7.5 7.5s7.5-3.358 7.5-7.5v-17.442h16.856c4.142 0 7.5-3.358 7.5-7.5s-3.357-7.5-7.5-7.5z" fill="#f9f7f8" data-original="#f9f7f8"/><path d="m310.609 272.569c-8.288.104-17.115.169-24.067.171 4.198-5.582 10.3-13.865 18.848-26.078 4.695-6.708 7.753-13.033 9.09-18.797.201-1.114.525-3.451.562-4.579 0-14.658-11.925-26.583-26.583-26.583-12.674 0-23.645 9.017-26.084 21.439-.798 4.064 1.85 8.006 5.914 8.805 4.063.795 8.006-1.85 8.805-5.914 1.062-5.406 5.841-9.33 11.365-9.33 6.247 0 11.354 4.971 11.576 11.164l-.249 1.949c-.952 3.812-3.2 8.265-6.686 13.245-11.825 16.895-18.882 26.135-22.673 31.1-4.602 6.025-6.506 8.519-5.208 12.736.755 2.455 2.618 4.339 5.11 5.169 1.025.342 2.075.691 16.279.691 5.68 0 13.463-.056 24.189-.19 4.142-.052 7.457-3.452 7.405-7.594-.051-4.141-3.416-7.463-7.593-7.404z" fill="#f9f7f8" data-original="#f9f7f8"/><path d="m140.306 200.062c-12.674 0-23.645 9.016-26.084 21.438-.798 4.064 1.85 8.006 5.914 8.805 4.063.795 8.006-1.85 8.805-5.914 1.062-5.406 5.841-9.329 11.365-9.329 6.387 0 11.583 5.196 11.583 11.583s-5.196 11.583-11.583 11.583c-4.142 0-7.5 3.358-7.5 7.5s3.358 7.5 7.5 7.5c6.387 0 11.583 5.196 11.583 11.583s-5.196 11.583-11.583 11.583c-5.747 0-10.679-4.281-11.471-9.955-.075-.537-.112-1.084-.112-1.628 0-4.142-3.358-7.5-7.5-7.5s-7.5 3.358-7.5 7.5c0 1.233.086 2.477.256 3.699 1.821 13.046 13.139 22.884 26.327 22.884 14.658 0 26.583-11.925 26.583-26.583 0-7.48-3.105-14.248-8.094-19.083 4.989-4.835 8.094-11.603 8.094-19.083 0-14.659-11.926-26.583-26.583-26.583z" fill="#f9f7f8" data-original="#f9f7f8"/><path d="m345.515 240.939h35.914c4.142 0 7.5-3.358 7.5-7.5s-3.358-7.5-7.5-7.5h-35.914c-4.142 0-7.5 3.358-7.5 7.5s3.358 7.5 7.5 7.5z" fill="#f9f7f8" data-original="#f9f7f8"/><path d="m381.429 251.878h-35.914c-4.142 0-7.5 3.358-7.5 7.5s3.358 7.5 7.5 7.5h35.914c4.142 0 7.5-3.358 7.5-7.5s-3.358-7.5-7.5-7.5z" fill="#f9f7f8" data-original="#f9f7f8"/></g><path d="m429.631 385.078h-68.768c-6.631 0-12.006 5.375-12.006 12.006 0 6.631 5.375 12.006 12.006 12.006h68.768c6.631 0 12.006-5.375 12.006-12.006 0-6.631-5.375-12.006-12.006-12.006z" fill="#f9f7f8" data-original="#f9f7f8"/><path d="m383.298 405.574c2.17 2.17 5.18 3.51 8.49 3.51h-30.93c-3.32 0-6.32-1.34-8.49-3.51s-3.51-5.17-3.51-8.49c0-6.63 5.37-12.01 12-12.01h30.93c-6.63 0-12.01 5.38-12.01 12.01 0 3.32 1.34 6.32 3.52 8.49z" fill="#dedbee" data-original="#dedbee"/><path d="m164.935 383.083h-.351c.222-.952.351-1.939.351-2.958 0-7.181-5.822-13.003-13.003-13.003h-40.766c-7.182 0-13.003 5.822-13.003 13.003 0 1.019.129 2.006.351 2.958h-.351c-7.182 0-13.003 5.822-13.003 13.003 0 7.181 5.822 13.003 13.003 13.003h66.772c7.182 0 13.003-5.822 13.003-13.003 0-7.181-5.822-13.003-13.003-13.003z" fill="#9be69d" data-original="#9be69d"/><path d="m122.809 380.117c0 1.02.13 2.01.35 2.96h-.35c-7.18 0-13 5.82-13 13.01 0 3.59 1.45 6.84 3.81 9.19 2.35 2.35 5.6 3.81 9.19 3.81h-24.65c-3.59 0-6.84-1.46-9.19-3.81s-3.81-5.6-3.81-9.19c0-7.19 5.82-13.01 13-13.01h.35c-.22-.95-.35-1.94-.35-2.96 0-7.18 5.82-13 13.01-13h24.65c-7.18 0-13.01 5.82-13.01 13z" fill="#6fd7a3" data-original="#6fd7a3"/><g><path d="m433.31 232.25-159.97 279.17c-5.73.39-11.51.58-17.34.58-7.98 0-15.88-.37-23.67-1.08l190.86-284.95c1.801-2.685 5.401-3.422 8.09-1.75 2.73 1.69 3.63 5.24 2.03 8.03z" fill="#aa6a51" data-original="#aa6a51"/><path d="m431.18 224.18c-.34-.08-.92.27-1.62.94-.76.75-1.65 1.89-2.51 3.24l-179.15 283.51c-5.23-.16-10.43-.48-15.57-.95l190.86-284.95c1.758-2.62 5.271-3.439 7.99-1.79z" fill="#935b50" data-original="#935b50"/></g></g></g></svg>