<svg id="Capa_1" enable-background="new 0 0 512 512" height="512" viewBox="0 0 512 512" width="512" xmlns="http://www.w3.org/2000/svg"><g><path d="m0 256c0-141.2 114.316-255.7 255.445-255.999 141.372-.3 255.586 112.848 256.549 254.217.521 76.588-32.591 145.453-85.441 192.698-3.72 3.326-9.065 4.041-13.532 1.816-34.335-17.109-73.054-26.732-114.021-26.732-60.041 0-115.255 20.67-158.913 55.282-3.259 2.584-7.764 2.953-11.371.882-76.913-44.16-128.716-127.113-128.716-222.164z" fill="#55a4f9"/><path d="m462 231.086c0 113.771-92.229 206-206 206s-206-92.229-206-206 92.229-206 206-206 206 92.229 206 206z" fill="#76b6fa"/><path d="m62.5 222.5h-25c-4.142 0-7.5-3.358-7.5-7.5s3.358-7.5 7.5-7.5h25c4.142 0 7.5 3.358 7.5 7.5s-3.358 7.5-7.5 7.5zm-2.964 16.858-17.678 17.678c-2.929 2.929-2.929 7.678 0 10.607 2.929 2.929 7.678 2.929 10.607 0l17.678-17.678c2.929-2.929 2.929-7.678 0-10.607-2.93-2.929-7.679-2.929-10.607 0zm-7.072-77c-2.929-2.929-7.678-2.929-10.607 0s-2.929 7.678 0 10.607l17.678 17.678c2.929 2.929 7.678 2.929 10.607 0 2.929-2.929 2.929-7.678 0-10.607zm318.674-105.827c-2.929-2.929-7.678-2.929-10.607 0l-17.678 17.678c-2.929 2.929-2.929 7.678 0 10.607 2.929 2.929 7.678 2.929 10.607 0l17.678-17.678c2.929-2.929 2.929-7.678 0-10.607zm-45.608-28.839c-4.142 0-7.5 3.358-7.5 7.5v25c0 4.142 3.358 7.5 7.5 7.5s7.5-3.358 7.5-7.5v-25c0-4.142-3.358-7.5-7.5-7.5zm66.947 66.947h-25c-4.142 0-7.5 3.358-7.5 7.5s3.358 7.5 7.5 7.5h25c4.142 0 7.5-3.358 7.5-7.5s-3.358-7.5-7.5-7.5z" fill="#c8e2fd"/><path d="m363.918 260.082c0 2.307-1.87 4.177-4.177 4.177h-8.355c-2.307 0-4.177-1.87-4.177-4.177s1.87-4.177 4.177-4.177h8.355c2.306 0 4.177 1.87 4.177 4.177zm-2.089-20.887h-12.532c-2.307 0-4.177 1.87-4.177 4.177s1.87 4.177 4.177 4.177h12.532c2.307 0 4.177-1.87 4.177-4.177s-1.87-4.177-4.177-4.177zm39.686 16.71h-8.355c-2.307 0-4.177 1.87-4.177 4.177s1.87 4.177 4.177 4.177h8.355c2.307 0 4.177-1.87 4.177-4.177.001-2.307-1.87-4.177-4.177-4.177zm2.089-16.71h-12.532c-2.307 0-4.177 1.87-4.177 4.177s1.87 4.177 4.177 4.177h12.532c2.307 0 4.177-1.87 4.177-4.177s-1.87-4.177-4.177-4.177z" fill="#f2bb88"/><path d="m457.506 247.117v58.182c0 21.714-19.696 40.186-39.065 47.032v74.038c0 18.423-9.329 35.639-24.857 45.554-22.762 14.534-47.977 25.568-74.884 32.342-7.007 1.764-28.26-10.143-28.26-16.244v-133.684c-18.969-3.851-31.584-20.621-31.584-40.727v-66.493c0-9.181 7.443-16.623 16.623-16.623h165.403c9.182-.001 16.624 7.442 16.624 16.623z" fill="#f2bb88"/><path d="m403.59 296.571c0 3.443-2.791 6.234-6.234 6.234-22.807 0-41.361 27.032-41.361 60.26 0 3.443-2.791 6.234-6.234 6.234s-6.234-2.791-6.234-6.234c0-19.066 5.362-37.056 15.097-50.657 10.187-14.232 23.942-22.07 38.732-22.07 3.443 0 6.234 2.791 6.234 6.233zm-151.59-56.819.208 73.858c0 20.106 14.278 36.876 33.247 40.727v144.272c0 6.266 5.602 11.088 11.787 10.086 7.26-1.176 14.418-2.657 21.459-4.43v-139.958c0-13.155-6.318-25.414-16.795-33.369-9.996-7.589-16.452-19.601-16.452-33.12v-9.291c0-4.083 1.418-8.039 4.012-11.192l.304-.37c1.942-2.361 5.614-2.47 7.546-.099 3.05 3.743 7.697 6.134 12.901 6.134h8.317c5.249 0 9.93-2.431 12.978-6.229 1.867-2.325 5.444-2.325 7.311 0 3.048 3.797 7.729 6.228 12.978 6.228h8.317c5.249 0 9.93-2.431 12.978-6.229 1.853-2.308 5.458-2.308 7.311 0 3.049 3.798 7.729 6.229 12.978 6.229h11.644c9.187 0 14.139-7.447 14.139-16.634 0 0 .648-24.239.816-25.066l-.208-1.548h-167.776zm167.984 1.548.016.115c0-.13-.005-.164-.016-.115z" fill="#e3a76f"/><path d="m460 258.58-41.558-3.151c0 9.181-7.443 16.623-16.623 16.623h-8.312c-9.181 0-16.623-7.443-16.623-16.623 0 9.181-7.443 16.623-16.623 16.623h-8.312c-9.181 0-16.623-7.443-16.623-16.623 0 9.181-7.443 16.623-16.623 16.623h-8.312c-9.181 0-16.623-7.443-16.623-16.623 0 7.459-4.913 13.771-11.68 15.876-1.562.486-8.268-.084-8.268-.084-9.181 0-16.623-6.611-16.623-15.792v-49.381c0-9.181 7.443-16.623 16.623-16.623h3.325c9.181 0 16.623 7.443 16.623 16.623v-12.712c0-9.181 7.443-16.623 16.623-16.623h8.312c1.738 0 3.413.267 4.987.761.736.231-.688 2.824 0 3.15 5.616 2.668 11.636 6.081 11.636 12.712v-12.712c0-9.181 7.443-16.623 16.623-16.623h8.312c1.738 0 3.413.267 4.987.761.843.265.883 3.005 1.662 3.395 5.454 2.727 8.312 6.786 8.312 13.299l1.662 11.881c0-9.181 7.443-16.623 16.623-16.623h8.312c1.738 0 3.413.267 4.987.761 6.744 2.118 8.312 8.419 8.312 15.862v37.158c0-2.295 5.922-3.443 9.818-3.873 18.784-2.077 35.064 13.059 35.064 31.958z" fill="#f2d1a5"/><path d="m282.13 271.291c-1.574.494-3.25.761-4.987.761h-8.312c-9.181 0-16.623-7.443-16.623-16.623v-49.381c0-9.181 7.443-16.623 16.623-16.623h8.312c1.738 0 3.413.267 4.987.761-6.744 2.118-11.636 8.419-11.636 15.862v49.381c-.001 7.443 4.892 13.743 11.636 15.862z" fill="#f2bb88"/><path d="m281.299 259.584c0 2.295-1.861 4.156-4.156 4.156h-8.312c-2.295 0-4.156-1.861-4.156-4.156s1.861-4.156 4.156-4.156h8.312c2.295.001 4.156 1.861 4.156 4.156zm-2.078-20.779h-12.468c-2.295 0-4.156 1.861-4.156 4.156s1.861 4.156 4.156 4.156h12.468c2.295 0 4.156-1.861 4.156-4.156s-1.861-4.156-4.156-4.156z" fill="#e3a76f"/><path d="m335.325 193.335v62.093c0 7.443-4.892 13.744-11.636 15.862-6.744-2.118-11.636-8.419-11.636-15.862v-62.093c0-7.443 4.892-13.744 11.636-15.862 6.744 2.119 11.636 8.419 11.636 15.862zm71.48-15.862c-6.744 2.118-11.636 8.419-11.636 15.862v62.093c0 7.443 4.892 13.744 11.636 15.862 6.744-2.118 11.636-8.419 11.636-15.862v-62.093c.001-7.443-4.892-13.743-11.636-15.862zm-41.558-12.712c-6.744 2.118-11.636 8.419-11.636 15.862v74.805c0 7.443 4.892 13.744 11.636 15.862 6.744-2.118 11.636-8.419 11.636-15.862v-74.805c0-7.443-4.892-13.743-11.636-15.862z" fill="#ffe4c2"/><path d="m460 280.558v24.741c0 17.052-8.558 32.105-21.613 41.098-7.235 4.984-11.633 13.138-11.633 21.923v78.417c-10.849 9.718-22.531 18.525-34.927 26.299v-111.788c0-12.559 5.547-24.499 15.21-32.52 11.019-9.148 11.387-14.638 11.387-30.078v-41.525h-17.437c-13.771 0-24.935-11.164-24.935-24.935 0-9.181 7.443-14.961 16.623-14.961h50.701c9.181 0 14.13 5.78 14.13 14.961z" fill="#f2d1a5"/><path d="m418.441 257.124h-17.455c-13.771 0-24.935-11.164-24.935-24.935 0-9.181 7.443-16.623 16.623-16.623 0 0 .831 7.443.831 16.623.002 13.771 11.165 24.935 24.936 24.935z" fill="#f2bb88"/><path d="m460 232.189v47.419c0 6.489-4.987 12.073-11.469 12.379-6.921.326-12.635-5.189-12.635-12.038v-32c0-4.59-3.721-8.312-8.312-8.312h-9.143c-7.71 0-14.603-3.499-19.176-8.996-4.978-5.983-.628-15.074 7.156-15.074h36.955c9.181-.001 16.624 7.441 16.624 16.622z" fill="#ffe4c2"/><path d="m410.13 218.89v9.974c0 1.836-1.488 3.325-3.325 3.325h-11.221c-5.968 0-10.805-4.838-10.805-10.805 0-3.213 2.605-5.818 5.818-5.818h16.208c1.836 0 3.325 1.488 3.325 3.324z" fill="#fff2de"/><path d="m322.857 259.584c0 2.295-1.861 4.156-4.156 4.156h-8.312c-2.295 0-4.156-1.861-4.156-4.156s1.861-4.156 4.156-4.156h8.312c2.295.001 4.156 1.861 4.156 4.156zm-2.078-20.779h-12.468c-2.295 0-4.156 1.861-4.156 4.156s1.861 4.156 4.156 4.156h12.468c2.295 0 4.156-1.861 4.156-4.156s-1.861-4.156-4.156-4.156zm39.481 16.624h-8.312c-2.295 0-4.156 1.861-4.156 4.156s1.861 4.156 4.156 4.156h8.312c2.295 0 4.156-1.861 4.156-4.156s-1.861-4.156-4.156-4.156zm2.078-16.624h-12.468c-2.295 0-4.156 1.861-4.156 4.156s1.861 4.156 4.156 4.156h12.468c2.295 0 4.156-1.861 4.156-4.156s-1.861-4.156-4.156-4.156zm39.48 16.624h-8.312c-2.295 0-4.156 1.861-4.156 4.156s1.861 4.156 4.156 4.156h8.312c2.295 0 4.156-1.861 4.156-4.156s-1.861-4.156-4.156-4.156z" fill="#f2bb88"/><path d="m335 150v70c0 26.124-23.696 48.349-47 56.586v193.497c0 23.015-8.556 41.879-31.571 41.917-.143 0-.286 0-.429 0-31.234 0-61.161-5.594-88.835-15.833-23.554-8.716-33.165-31.214-33.165-56.329v-160.839c-22.822-4.633-38-24.81-38-48.999v-80c0-11.046 8.954-20 20-20h199c11.046 0 20 8.954 20 20z" fill="#a65d4e"/><path d="m270.131 209.5c0 4.142-3.358 7.5-7.5 7.5-27.439 0-49.763 32.523-49.763 72.5 0 4.142-3.358 7.5-7.5 7.5s-7.5-3.358-7.5-7.5c0-22.938 6.451-44.583 18.164-60.947 12.257-17.123 28.806-26.553 46.599-26.553 4.142 0 7.5 3.358 7.5 7.5zm-170.237-65.5c-6.569 0-11.894 5.325-11.894 11.894v74.106c0 24.189 17.178 44.367 40 48.999v198.752c12.685 7.338 26.059 13.619 40 18.722v-205.48c0-15.827-7.601-30.577-20.207-40.147-12.027-9.13-19.793-23.581-19.793-39.846v-7.682c0-5.358 2.018-10.461 5.43-14.593.015-.019.031-.037.046-.056 2.308-2.816 6.639-3.001 8.918-.161 3.665 4.568 9.294 7.492 15.606 7.492h10c6.311 0 11.939-2.923 15.605-7.489 2.286-2.848 6.504-2.848 8.791 0 3.665 4.566 9.293 7.489 15.604 7.489h10c6.311 0 11.939-2.923 15.605-7.489 2.286-2.848 6.504-2.848 8.791 0 3.665 4.566 9.293 7.489 15.604 7.489h14c11.046 0 17-8.954 17-20 0 0 .779-29.144.981-30.139l-.25-1.861zm190.087 1.861.019.139c0-.157-.006-.199-.019-.139z" fill="#915041"/><path d="m338 163.791-50-3.791c0 11.046-8.954 20-20 20h-10c-11.046 0-20-8.954-20-20 0 11.046-8.954 20-20 20h-10c-11.046 0-20-8.954-20-20 0 11.046-8.954 20-20 20h-10c-11.046 0-20-8.954-20-20 0 8.975-5.911 16.569-14.053 19.101-1.878.584-9.947-.101-9.947-.101-11.046 0-20-7.954-20-19v-59.412c0-11.046 8.954-20 20-20h4c11.046 0 20 8.954 20 20v-15.294c0-11.046 8.954-20 20-20h10c2.09 0 4.106.321 6 .916.885.278-.828 3.397 0 3.79 6.757 3.21 14 7.316 14 15.294v-15.294c0-11.046 8.954-20 20-20h10c2.09 0 4.106.321 6 .916 1.014.319 1.062 3.616 2 4.084 6.562 3.281 10 8.164 10 16l2 14.294c0-11.046 8.954-20 20-20h10c2.09 0 4.106.321 6 .916 8.114 2.549 10 10.129 10 19.084v44.706c0-2.761 7.125-4.142 11.813-4.66 22.6-2.496 42.187 15.714 42.187 38.451z" fill="#b46e5a"/><path d="m124 179.084c-1.894.595-3.91.916-6 .916h-10c-11.046 0-20-8.954-20-20v-59.412c0-11.046 8.954-20 20-20h10c2.09 0 4.106.321 6 .916-8.114 2.549-14 10.129-14 19.084v59.412c0 8.955 5.886 16.536 14 19.084z" fill="#a65d4e"/><path d="m123 165c0 2.761-2.239 5-5 5h-10c-2.761 0-5-2.239-5-5s2.239-5 5-5h10c2.761 0 5 2.239 5 5zm-2.5-25h-15c-2.761 0-5 2.239-5 5s2.239 5 5 5h15c2.761 0 5-2.239 5-5s-2.239-5-5-5z" fill="#915041"/><path d="m188 85.294v74.706c0 8.955-5.886 16.536-14 19.084-8.114-2.549-14-10.129-14-19.084v-74.706c0-8.955 5.886-16.536 14-19.084 8.114 2.549 14 10.129 14 19.084zm86-19.084c-8.114 2.549-14 10.129-14 19.084v74.706c0 8.955 5.886 16.536 14 19.084 8.114-2.549 14-10.129 14-19.084v-74.706c0-8.955-5.886-16.535-14-19.084zm-50-15.294c-8.114 2.549-14 10.129-14 19.084v90c0 8.955 5.886 16.536 14 19.084 8.114-2.549 14-10.129 14-19.084v-90c0-8.955-5.886-16.536-14-19.084z" fill="#c38778"/><path d="m335 132.04 3 58.194v29.766c0 20.515-10.296 38.626-26.003 49.446-8.705 5.996-13.997 15.806-13.997 26.376v212.749c-13.665 2.255-27.696 3.429-42 3.429-.007 0-.014 0-.021 0v-224.686c0-15.11 6.673-29.475 18.299-39.126 13.258-11.006 13.701-17.611 13.701-36.188v-49.96h-20.979c-16.568 0-30-13.431-30-30 0-11.046 8.954-18 20-18h61c11.046 0 17 6.954 17 18z" fill="#b46e5a"/><path d="m288 162.04h-21c-16.568 0-30-13.431-30-30 0-11.046 8.954-20 20-20 0 0 1 8.954 1 20 0 16.569 13.431 30 30 30z" fill="#a65d4e"/><path d="m173 165c0 2.761-2.239 5-5 5h-10c-2.761 0-5-2.239-5-5s2.239-5 5-5h10c2.761 0 5 2.239 5 5zm-2.5-25h-15c-2.761 0-5 2.239-5 5s2.239 5 5 5h15c2.761 0 5-2.239 5-5s-2.239-5-5-5zm47.5 20h-10c-2.761 0-5 2.239-5 5s2.239 5 5 5h10c2.761 0 5-2.239 5-5s-2.239-5-5-5zm2.5-20h-15c-2.761 0-5 2.239-5 5s2.239 5 5 5h15c2.761 0 5-2.239 5-5s-2.239-5-5-5zm47.5 20h-10c-2.761 0-5 2.239-5 5s2.239 5 5 5h10c2.761 0 5-2.239 5-5s-2.239-5-5-5z" fill="#a65d4e"/><path d="m338 132.04v57.051c0 7.808-6 14.526-13.799 14.893-8.327.392-15.201-6.243-15.201-14.484v-38.5c0-5.523-4.477-10-10-10h-11c-9.276 0-17.569-4.21-23.072-10.824-5.99-7.199-.755-18.136 8.61-18.136h44.462c11.046 0 20 8.954 20 20z" fill="#c38778"/><path d="m278 116.04v12c0 2.209-1.791 4-4 4h-13.5c-7.18 0-13-5.82-13-13 0-3.866 3.134-7 7-7h19.5c2.209 0 4 1.791 4 4z" fill="#e0aea2"/></g></svg>