<svg xmlns="http://www.w3.org/2000/svg" version="1.1" xmlns:xlink="http://www.w3.org/1999/xlink" xmlns:svgjs="http://svgjs.com/svgjs" x="0" y="0" viewBox="0 0 512 512" style="enable-background:new 0 0 512 512" xml:space="preserve" class=""><g><g><path d="m512 256c0 141.385-114.615 256-256 256s-256-114.615-256-256 114.615-256 256-256 256 114.615 256 256z" fill="#6f3f8b" data-original="#6f3f8b" class=""/><path d="m432.324 243.962c0 104.029-84.332 188.362-188.362 188.362s-188.362-84.333-188.362-188.362 84.333-188.362 188.362-188.362 188.362 84.333 188.362 188.362z" fill="#814ba3" data-original="#814ba3" class=""/><path d="m466.92 248.043v202.463h-202.463v-202.463z" fill="#a374c0" data-original="#a374c0"/><path d="m476.694 245.292v45.178c0 4.143-3.358 7.5-7.5 7.5s-7.5-3.357-7.5-7.5v-37.678h-33.59c-4.142 0-7.5-3.357-7.5-7.5s3.358-7.5 7.5-7.5h41.09c4.142 0 7.5 3.358 7.5 7.5zm-173.421-7.5h-41.09c-4.142 0-7.5 3.357-7.5 7.5v45.178c0 4.143 3.358 7.5 7.5 7.5s7.5-3.357 7.5-7.5v-37.678h33.59c4.142 0 7.5-3.357 7.5-7.5s-3.358-7.5-7.5-7.5zm0 207.964h-33.59v-37.678c0-4.143-3.358-7.5-7.5-7.5s-7.5 3.357-7.5 7.5v45.178c0 4.143 3.358 7.5 7.5 7.5h41.09c4.142 0 7.5-3.357 7.5-7.5s-3.358-7.5-7.5-7.5zm165.921-45.178c-4.142 0-7.5 3.357-7.5 7.5v37.678h-33.59c-4.142 0-7.5 3.357-7.5 7.5s3.358 7.5 7.5 7.5h41.09c4.142 0 7.5-3.357 7.5-7.5v-45.178c0-4.142-3.358-7.5-7.5-7.5z" fill="#d9c4e4" data-original="#d9c4e4"/><path d="m430.427 348.98c.049 11.004-2.648 21.374-7.445 30.465-1.506 2.854-3.826 5.174-6.679 6.679-9.09 4.797-19.46 7.494-30.465 7.445-35.336-.157-64.286-29.108-64.444-64.444-.05-11.201 2.745-21.744 7.703-30.95 1.354-2.514 3.421-4.581 5.936-5.936 9.206-4.958 19.749-7.753 30.95-7.703 35.336.157 64.287 29.108 64.444 64.444z" fill="#2dd2e3" data-original="#2dd2e3"/><path d="m423.029 379.356c-10.832 20.605-32.445 34.657-57.34 34.657-35.754 0-64.739-28.985-64.739-64.739 0-24.895 14.052-46.508 34.657-57.34-4.725 8.988-7.399 19.223-7.399 30.082 0 35.754 28.985 64.739 64.739 64.739 10.859 0 21.094-2.674 30.082-7.399z" fill="#00bfd8" data-original="#00bfd8"/><path d="m151.341 419.712-16.161 16.161c-1.953 1.953-5.118 1.953-7.071 0l-83.651-83.651c-1.953-1.953-1.953-5.119 0-7.071l83.651-83.652c1.953-1.953 5.118-1.953 7.071 0l15.863 15.863c1.41 1.41 1.41 3.697 0 5.107l-62.682 62.681c-1.953 1.952-1.953 5.118 0 7.071l62.979 62.979c1.246 1.246 1.246 3.266.001 4.512z" fill="#ff4fb8" data-original="#ff4fb8"/><path d="m218.831 345.15c1.953 1.953 1.953 5.119 0 7.071l-68.038 68.038-68.038-68.038c-1.953-1.953-1.953-5.119 0-7.071l68.038-68.038z" fill="#ff73c6" data-original="#ff73c6"/><path d="m321.393 178.947v-118.302c0-2.761 2.239-5 5-5h118.301c2.761 0 5 2.239 5 5v118.301c0 2.761-2.239 5-5 5h-118.301c-2.761.001-5-2.238-5-4.999z" fill="#a3e72d" data-original="#a3e72d" class=""/><path d="m353.732 183.947h-27.339c-2.761 0-5-2.239-5-5v-118.302c0-2.761 2.239-5 5-5h27.339c-2.761 0-5 2.239-5 5v118.301c0 2.762 2.239 5.001 5 5.001z" fill="#80cf00" data-original="#80cf00"/><path d="m54.993 164.92 86.595-110.283c2.402-3.059 7.036-3.059 9.438 0l86.595 110.283c3.091 3.937.287 9.705-4.719 9.705h-173.19c-5.006.001-7.811-5.768-4.719-9.705z" fill="#ffea00" data-original="#ffea00" class=""/><path d="m237.621 164.92c3.091 3.937.287 9.706-4.719 9.706h-146.005l79.172-100.83z" fill="#fff261" data-original="#fff261"/></g></g></svg>