<?xml version="1.0" encoding="iso-8859-1"?>
<!-- Generator: Adobe Illustrator 19.0.0, SVG Export Plug-In . SVG Version: 6.00 Build 0)  -->
<svg version="1.1" id="Capa_1" xmlns="http://www.w3.org/2000/svg" x="0px" y="0px" viewBox="0 0 512 512" style="enable-background:new 0 0 512 512;" xml:space="preserve">
<path style="fill:#1AB0AE;" d="M512,256c0,65.348-24.492,125.001-64.794,170.235C400.311,478.856,332.027,512,256,512
	s-144.311-33.144-191.206-85.765C24.492,381.001,0,321.348,0,256S24.492,130.999,64.794,85.765
	c20.428-22.925,44.91-42.151,72.328-56.55C172.648,10.553,213.086,0,256,0s83.351,10.553,118.878,29.215
	c27.418,14.399,51.9,33.625,72.328,56.55C487.508,130.999,512,190.652,512,256z"/>
<path style="fill:#EBEBF2;" d="M447.206,64.397v361.838c-12.748,14.305-27.084,27.178-42.726,38.327
	c-22.956,16.374-48.724,29.048-76.445,37.167c-11.024,3.229-22.361,5.726-33.949,7.461C281.663,511.039,268.946,512,256,512
	c-12.946,0-25.663-0.961-38.087-2.811c-11.588-1.735-22.925-4.232-33.949-7.461c-27.721-8.119-53.488-20.793-76.445-37.167
	c-15.642-11.149-29.978-24.022-42.726-38.327V64.345c0.031-19.404,15.768-35.129,35.182-35.129h312.059
	C431.459,29.215,447.206,44.972,447.206,64.397z"/>
<path style="fill:#C5C6E0;" d="M121.386,29.215c-19.414,0-35.15,15.726-35.182,35.129v383.237
	c-7.555-6.687-14.702-13.824-21.41-21.347V64.345c0.031-19.404,15.768-35.129,35.182-35.129
	C99.976,29.215,121.386,29.215,121.386,29.215z"/>
<path style="fill:#65A3E6;" d="M391.571,215.725H120.434c-6.492,0-11.754-5.263-11.754-11.754V95.829
	c0-6.492,5.263-11.754,11.754-11.754h271.137c6.492,0,11.754,5.263,11.754,11.754V203.97
	C403.326,210.462,398.063,215.725,391.571,215.725z"/>
<g>
	<path style="fill:#374266;" d="M164.818,320.741h-38.397c-10.575,0-19.149-8.573-19.149-19.149v-38.397
		c0-10.575,8.573-19.149,19.149-19.149h38.397c10.575,0,19.149,8.573,19.149,19.149v38.397
		C183.967,312.167,175.393,320.741,164.818,320.741z"/>
	<path style="fill:#374266;" d="M275.199,320.741h-38.397c-10.575,0-19.149-8.573-19.149-19.149v-38.397
		c0-10.575,8.573-19.149,19.149-19.149h38.397c10.575,0,19.149,8.573,19.149,19.149v38.397
		C294.348,312.167,285.774,320.741,275.199,320.741z"/>
	<path style="fill:#374266;" d="M385.58,320.741h-38.397c-10.575,0-19.149-8.573-19.149-19.149v-38.397
		c0-10.575,8.573-19.149,19.149-19.149h38.397c10.575,0,19.149,8.573,19.149,19.149v38.397
		C404.729,312.167,396.155,320.741,385.58,320.741z"/>
	<path style="fill:#374266;" d="M164.818,421.051h-38.397c-10.575,0-19.149-8.573-19.149-19.149v-38.397
		c0-10.575,8.573-19.149,19.149-19.149h38.397c10.575,0,19.149,8.573,19.149,19.149v38.397
		C183.967,412.478,175.393,421.051,164.818,421.051z"/>
	<path style="fill:#374266;" d="M275.199,421.051h-38.397c-10.575,0-19.149-8.573-19.149-19.149v-38.397
		c0-10.575,8.573-19.149,19.149-19.149h38.397c10.575,0,19.149,8.573,19.149,19.149v38.397
		C294.348,412.478,285.774,421.051,275.199,421.051z"/>
	<path style="fill:#374266;" d="M385.58,421.051h-38.397c-10.575,0-19.149-8.573-19.149-19.149v-38.397
		c0-10.575,8.573-19.149,19.149-19.149h38.397c10.575,0,19.149,8.573,19.149,19.149v38.397
		C404.729,412.478,396.155,421.051,385.58,421.051z"/>
	<path style="fill:#374266;" d="M183.965,467.665v34.064c-27.721-8.119-53.488-20.793-76.445-37.167
		c1.484-9.101,9.383-16.05,18.902-16.05h38.4C175.397,448.512,183.965,457.091,183.965,467.665z"/>
	<path style="fill:#374266;" d="M294.348,467.665v38.4c0,1.066-0.084,2.111-0.261,3.124C281.663,511.039,268.946,512,256,512
		c-12.946,0-25.663-0.961-38.087-2.811c-0.178-1.014-0.261-2.058-0.261-3.124v-38.4c0-10.574,8.579-19.153,19.153-19.153h38.39
		C285.769,448.512,294.348,457.091,294.348,467.665z"/>
	<path style="fill:#374266;" d="M404.48,464.562c-22.956,16.374-48.724,29.048-76.445,37.167v-34.064
		c0-10.574,8.568-19.153,19.143-19.153h38.4C395.097,448.512,402.996,455.461,404.48,464.562z"/>
	<path style="fill:#374266;" d="M368.962,147.962L368.962,147.962c-4.232,0-7.662-3.43-7.662-7.662v-30.65
		c0-4.232,3.43-7.662,7.662-7.662l0,0c4.232,0,7.662,3.43,7.662,7.662v30.65C376.625,144.53,373.195,147.962,368.962,147.962z"/>
	<path style="fill:#374266;" d="M368.962,200.424L368.962,200.424c-4.232,0-7.662-3.43-7.662-7.662v-30.65
		c0-4.232,3.43-7.662,7.662-7.662l0,0c4.232,0,7.662,3.43,7.662,7.662v30.65C376.625,196.993,373.195,200.424,368.962,200.424z"/>
	<path style="fill:#374266;" d="M323.335,147.962L323.335,147.962c-4.232,0-7.662-3.43-7.662-7.662v-30.65
		c0-4.232,3.43-7.662,7.662-7.662l0,0c4.232,0,7.662,3.43,7.662,7.662v30.65C330.998,144.53,327.567,147.962,323.335,147.962z"/>
	<path style="fill:#374266;" d="M334.48,109.648L334.48,109.648c0-4.232,3.43-7.662,7.662-7.662h8.359
		c4.232,0,7.662,3.43,7.662,7.662l0,0c0,4.232-3.43,7.662-7.662,7.662h-8.359C337.911,117.311,334.48,113.88,334.48,109.648z"/>
	<path style="fill:#374266;" d="M334.48,192.761L334.48,192.761c0-4.232,3.43-7.662,7.662-7.662h8.359
		c4.232,0,7.662,3.43,7.662,7.662l0,0c0,4.232-3.43,7.662-7.662,7.662h-8.359C337.911,200.424,334.48,196.993,334.48,192.761z"/>
	<path style="fill:#374266;" d="M323.335,200.424L323.335,200.424c-4.232,0-7.662-3.43-7.662-7.662v-30.65
		c0-4.232,3.43-7.662,7.662-7.662l0,0c4.232,0,7.662,3.43,7.662,7.662v30.65C330.998,196.993,327.567,200.424,323.335,200.424z"/>
	<path style="fill:#374266;" d="M278.753,147.962L278.753,147.962c-4.232,0-7.662-3.43-7.662-7.662v-30.65
		c0-4.232,3.43-7.662,7.662-7.662l0,0c4.232,0,7.662,3.43,7.662,7.662v30.65C286.415,144.53,282.984,147.962,278.753,147.962z"/>
	<path style="fill:#374266;" d="M278.753,200.424L278.753,200.424c-4.232,0-7.662-3.43-7.662-7.662v-30.65
		c0-4.232,3.43-7.662,7.662-7.662l0,0c4.232,0,7.662,3.43,7.662,7.662v30.65C286.415,196.993,282.984,200.424,278.753,200.424z"/>
</g>
<g>
</g>
<g>
</g>
<g>
</g>
<g>
</g>
<g>
</g>
<g>
</g>
<g>
</g>
<g>
</g>
<g>
</g>
<g>
</g>
<g>
</g>
<g>
</g>
<g>
</g>
<g>
</g>
<g>
</g>
</svg>
