<svg xmlns="http://www.w3.org/2000/svg" viewBox="-6 0 512 512"><path d="m500.757812 261.621094c0 138.28125-112.097656 250.378906-250.378906 250.378906s-250.378906-112.097656-250.378906-250.378906 112.097656-250.378906 250.378906-250.378906 250.378906 112.097656 250.378906 250.378906zm0 0" fill="#7956ba"/><path d="m429.15625 51.097656h-357.554688c-7.9375 0-14.371093 6.433594-14.371093 14.371094v355.480469c45.921875 55.609375 115.394531 91.050781 193.148437 91.050781s147.226563-35.441406 193.148438-91.050781v-355.480469c0-7.9375-6.433594-14.371094-14.371094-14.371094zm0 0" fill="#fdd33a"/><path d="m388.164062 97.085938v373.605468c7.8125-5.160156 15.316407-10.738281 22.484376-16.714844v-356.890624zm0 0" fill="#f9bd3a"/><path d="m114.28125 65.46875c0-7.9375 6.433594-14.371094 14.371094-14.371094h-57.050782c-7.9375 0-14.371093 6.433594-14.371093 14.371094v355.480469c16.277343 19.714843 35.53125 36.875 57.050781 50.839843zm0 0" fill="#f9bd3a"/><path d="m102.375 97.085938v366.488281c39.78125 29.203125 88.5 46.945312 141.300781 48.335937.132813.003906.269531.007813.40625.011719 2.09375.050781 4.191407.078125 6.296875.078125 2.105469 0 4.207032-.027344 6.296875-.078125.136719-.003906.273438-.007813.410157-.011719 52.796874-1.390625 101.515624-19.132812 141.296874-48.335937v-366.488281zm0 0" fill="#fff"/><path d="m114.28125 102.292969v-5.207031h-11.90625v366.480468c3.886719 2.851563 7.855469 5.59375 11.90625 8.222656zm0 0" fill="#ddd"/><path d="m340.503906 29.636719h-32.0625c-6.667968 0-12.074218-5.40625-12.074218-12.074219v-5.492188c0-6.664062-5.40625-12.070312-12.070313-12.070312h-67.832031c-6.667969 0-12.074219 5.40625-12.074219 12.074219v5.492187c0 6.667969-5.40625 12.070313-12.070313 12.070313h-32.066406c-6.667968 0-12.070312 5.40625-12.070312 12.074219v59.65625c0 6.667968 5.402344 12.070312 12.070312 12.070312h180.25c6.664063 0 12.070313-5.402344 12.070313-12.070312v-59.65625c0-6.667969-5.40625-12.074219-12.070313-12.074219zm-90.125 9.53125c-6.675781 0-12.085937-5.410157-12.085937-12.085938s5.410156-12.085937 12.085937-12.085937c6.675782 0 12.085938 5.410156 12.085938 12.085937s-5.410156 12.085938-12.085938 12.085938zm0 0" fill="#322277"/><path d="m177.640625 101.246094v-60.253906c0-5.175782 3.226563-9.585938 7.777344-11.355469h-25.160157c-6.667968 0-12.074218 5.40625-12.074218 12.074219v59.65625c0 6.664062 5.40625 12.070312 12.074218 12.070312h29.578126c-6.734376 0-12.195313-5.460938-12.195313-12.191406zm0 0" fill="#08053d"/><g fill="#99d3ff"><path d="m350.351562 179.863281h-200.304687c-3.949219 0-7.152344-3.203125-7.152344-7.152343 0-3.953126 3.203125-7.152344 7.152344-7.152344h200.304687c3.953126 0 7.152344 3.199218 7.152344 7.152344 0 3.949218-3.199218 7.152343-7.152344 7.152343zm0 0"/><path d="m350.351562 224.832031h-200.304687c-3.949219 0-7.152344-3.203125-7.152344-7.15625 0-3.949219 3.203125-7.152343 7.152344-7.152343h200.304687c3.953126 0 7.152344 3.203124 7.152344 7.152343 0 3.953125-3.199218 7.15625-7.152344 7.15625zm0 0"/><path d="m350.351562 269.796875h-200.304687c-3.949219 0-7.152344-3.203125-7.152344-7.152344 0-3.953125 3.203125-7.15625 7.152344-7.15625h200.304687c3.953126 0 7.152344 3.203125 7.152344 7.15625 0 3.949219-3.199218 7.152344-7.152344 7.152344zm0 0"/><path d="m350.351562 314.761719h-200.304687c-3.949219 0-7.152344-3.203125-7.152344-7.152344 0-3.953125 3.203125-7.152344 7.152344-7.152344h200.304687c3.953126 0 7.152344 3.199219 7.152344 7.152344 0 3.949219-3.199218 7.152344-7.152344 7.152344zm0 0"/><path d="m350.351562 359.730469h-200.304687c-3.949219 0-7.152344-3.203125-7.152344-7.15625 0-3.949219 3.203125-7.152344 7.152344-7.152344h200.304687c3.953126 0 7.152344 3.203125 7.152344 7.152344 0 3.953125-3.199218 7.15625-7.152344 7.15625zm0 0"/><path d="m350.351562 404.695312h-200.304687c-3.949219 0-7.152344-3.203124-7.152344-7.15625 0-3.949218 3.203125-7.152343 7.152344-7.152343h200.304687c3.953126 0 7.152344 3.203125 7.152344 7.152343 0 3.953126-3.199218 7.15625-7.152344 7.15625zm0 0"/><path d="m350.351562 449.660156h-200.304687c-3.949219 0-7.152344-3.203125-7.152344-7.152344 0-3.953124 3.203125-7.15625 7.152344-7.15625h200.304687c3.953126 0 7.152344 3.203126 7.152344 7.15625 0 3.949219-3.199218 7.152344-7.152344 7.152344zm0 0"/></g></svg>