<svg height="512pt" viewBox="0 0 512 512" width="512pt" xmlns="http://www.w3.org/2000/svg"><path d="m512 256.027344c-.011719 95.992187-52.863281 179.628906-131.046875 223.4375-4.902344 2.746094-10.953125-.75-10.953125-6.371094 0-34.847656-28.246094-63.09375-63.09375-63.09375h-241.917969c-8.71875 0-16.875-4.335938-21.730469-11.574219-27.316406-40.722656-43.257812-89.710937-43.257812-142.425781 0-141.386719 114.613281-256 256-256 141.046875 0 256.015625 114.980469 256 256.027344zm0 0" fill="#015081"/><path d="m200 112.570312c0-17.402343 0-59.734374 0-77.140624 0-8.253907 6.484375-15.285157 14.738281-15.425782 6.640625-.117187 12.300781 4.097656 14.390625 9.996094h146.871094c24.300781 0 44 19.699219 44 44 0 .53125-.011719 1.0625-.027344 1.589844-.6875 19.308594-16.972656 34.410156-36.292968 34.410156h-85.679688c-4.417969 0-8 3.582031-8 8h-60.871094c-2.089844 5.898438-7.75 10.113281-14.394531 9.996094-8.25-.140625-14.734375-7.171875-14.734375-15.425782zm-129.871094 263.929688h289.253906c7.523438 0 11.917969-8.4375 7.65625-14.636719-21.410156-31.1875-56.273437-55.191406-98.039062-66.582031v-95.835938c6.582031-1.820312 11.355469-8 10.980469-15.246093-.417969-8.035157-7.351563-14.199219-15.398438-14.199219h-101.164062c-8.046875 0-14.980469 6.164062-15.398438 14.199219-.375 7.246093 4.398438 13.425781 10.980469 15.246093v95.828126c-41.214844 11.238281-75.703125 34.765624-97.179688 65.355468-4.6875 6.675782.148438 15.871094 8.308594 15.871094zm0 0" fill="#ade8f0"/><path d="m359.8125 376.5h-266.640625c14.902344-26.917969 41.519531-46.519531 75.042969-61.519531 7.179687-3.214844 11.785156-10.367188 11.785156-18.230469v-56.75c0-11.046875 8.953125-20 20-20h69v75.28125c41.925781 11.433594 76.894531 35.574219 98.28125 66.933594 4.140625 6.066406-.128906 14.285156-7.46875 14.285156zm-144.8125-276.5c8.285156 0 15-6.714844 15-15v-50c0-8.285156-6.714844-15-15-15s-15 6.714844-15 15v50c0 8.285156 6.714844 15 15 15zm60-20h120c10.960938 0 20.269531-7.058594 23.644531-16.875-4.84375-19.039062-22.097656-33.125-42.644531-33.125h-101c-13.808594 0-25 11.191406-25 25s11.191406 25 25 25zm-80 120h70c8.285156 0 15-6.714844 15-15s-6.714844-15-15-15h-70c-8.285156 0-15 6.714844-15 15s6.714844 15 15 15zm0 0" fill="#d3f1f5"/><path d="m62.261719 360h303.476562c15.414063 21.699219 24.261719 46.988281 24.261719 74 0 15.789062-3.03125 30.984375-8.621094 45.226562-37.058594 20.859376-79.824218 32.773438-125.378906 32.773438-88.660156 0-166.789062-45.078125-212.734375-113.558594 4.128906-13.679687 10.582031-26.597656 18.996094-38.441406zm0 0" fill="#e31e7f"/><path d="m365.738281 360h-4.375c-7.832031 0-15.417969-2.402344-22.058593-6.558594-3.488282-2.179687-7.613282-3.441406-12.03125-3.441406-4.421876 0-8.542969 1.261719-12.035157 3.441406-6.640625 4.15625-14.222656 6.558594-22.058593 6.558594-7.832032 0-15.414063-2.402344-22.058594-6.558594-3.488282-2.179687-7.613282-3.441406-12.03125-3.441406-4.417969 0-8.542969 1.261719-12.03125 3.441406-6.640625 4.15625-14.226563 6.558594-22.058594 6.558594s-15.417969-2.402344-22.058594-6.558594c-3.488281-2.179687-7.613281-3.441406-12.03125-3.441406-4.421875 0-8.542968 1.261719-12.035156 3.441406-6.640625 4.15625-14.222656 6.558594-22.058594 6.558594-7.832031 0-15.414062-2.402344-22.054687-6.558594-3.492188-2.179687-7.617188-3.441406-12.035157-3.441406-8.011718 0-15.050781 4.148438-19.097656 10.410156-.953125 1.480469-1.882812 2.976563-2.929687 4.394532-13.1875 17.8125-20.699219 39.199218-20.699219 65.195312 0 4.191406.207031 8.335938.589844 12.4375 45.816406 43.125 107.523437 69.5625 175.410156 69.5625 45.554688 0 88.320312-11.914062 125.382812-32.773438 5.585938-14.242187 8.617188-29.441406 8.617188-45.226562 0-27.011719-8.847656-52.300781-24.261719-74zm-125.738281 130c-11.046875 0-20-8.953125-20-20s8.953125-20 20-20 20 8.953125 20 20-8.953125 20-20 20zm35-60c-13.808594 0-25-11.191406-25-25s11.191406-25 25-25 25 11.191406 25 25-11.191406 25-25 25zm0 0" fill="#fd3d96"/><path d="m512 74c0 24.300781-19.699219 44-44 44h-178c-5.523438 0-10-4.476562-10-10s4.476562-10 10-10h23.90625c10.789062 0 20.75-5.796875 26.082031-15.179688l30.011719-52.820312h98c24.300781 0 44 19.699219 44 44zm0 0" fill="#6bae01"/><path d="m341.589844 80 28.410156-50h98c.726562 0 1.449219.019531 2.167969.054688.113281.003906.230469.015624.34375.019531 22.519531 1.269531 40.503906 19.46875 41.441406 42.074219-7.324219 4.832031-17.785156 7.851562-24.953125 7.851562zm0 0" fill="#7ecd00"/></svg>