<?xml version="1.0" encoding="iso-8859-1"?>
<!-- Generator: Adobe Illustrator 19.0.0, SVG Export Plug-In . SVG Version: 6.00 Build 0)  -->
<svg version="1.1" id="Capa_1" xmlns="http://www.w3.org/2000/svg" x="0px" y="0px" viewBox="0 0 512 512" style="enable-background:new 0 0 512 512;" xml:space="preserve">
<path style="fill:#FD7034;" d="M512,256c0,86.779-43.175,163.474-109.223,209.763C361.221,494.905,310.617,512,256,512
	c-49.58,0-95.869-14.085-135.074-38.494c-3.741-2.33-7.419-4.754-11.024-7.262C43.468,419.997,0,343.071,0,256
	C0,114.615,114.615,0,256,0S512,114.615,512,256z"/>
<path style="fill:#FD8B59;" d="M459.374,203.374c0,68.939-34.3,129.868-86.77,166.642c-33.013,23.151-73.214,36.731-116.603,36.731
	c-39.388,0-76.162-11.19-107.307-30.581c-2.972-1.852-5.893-3.777-8.757-5.769c-52.778-36.74-87.31-97.852-87.31-167.024
	C52.626,91.053,143.68,0,256,0S459.374,91.053,459.374,203.374z"/>
<circle style="fill:#E33958;" cx="114.531" cy="135.283" r="96.977"/>
<path style="fill:#FF4F6F;" d="M114.533,209.262c-40.795,0-73.984-33.189-73.984-73.984s33.189-73.984,73.984-73.984
	s73.984,33.189,73.984,73.984C188.517,176.073,155.328,209.262,114.533,209.262z"/>
<path style="fill:#FFFFFF;" d="M92.144,176.264l22.389-22.389l22.389,22.389c2.151,2.151,5.64,2.151,7.792,0l10.804-10.804
	c2.151-2.151,2.151-5.64,0-7.792l-22.389-22.389l22.389-22.389c2.151-2.151,2.151-5.64,0-7.792l-10.804-10.804
	c-2.151-2.151-5.64-2.151-7.792,0l-22.389,22.389l-22.389-22.39c-2.151-2.151-5.64-2.151-7.792,0l-10.804,10.804
	c-2.151,2.151-2.151,5.64,0,7.792l22.389,22.389l-22.389,22.389c-2.151,2.151-2.151,5.64,0,7.792l10.804,10.804
	C86.504,178.415,89.992,178.415,92.144,176.264z"/>
<circle style="fill:#4AB27C;" cx="397.458" cy="135.283" r="96.977"/>
<path style="fill:#5CC693;" d="M397.459,209.262c-40.795,0-73.984-33.189-73.984-73.984s33.189-73.984,73.984-73.984
	s73.984,33.189,73.984,73.984S438.254,209.262,397.459,209.262z"/>
<path style="fill:#FECD9C;" d="M403.937,353.667v96.413c0,5.319-0.387,10.553-1.16,15.684C361.221,494.905,310.617,512,256,512
	c-54.314,0-104.667-16.906-146.098-45.756c-1.223-8.537-1.849-17.178-1.849-25.882V334.158c0-8.046,3.26-15.329,8.537-20.605
	c1.327-1.327,2.779-2.529,4.336-3.574c4.639-3.124,10.24-4.953,16.259-4.953c16.091,0,29.132,13.04,29.132,29.132V309.75
	c0-8.046,3.26-15.318,8.537-20.595c5.277-5.277,12.56-8.537,20.605-8.537c16.081,0,29.132,13.051,29.132,29.132v-9.906
	c0-8.046,3.26-15.329,8.526-20.605c5.277-5.266,12.56-8.526,20.605-8.526c16.091,0,29.132,13.04,29.132,29.132V174.153
	c0-8.046,3.26-15.329,8.526-20.595c1.327-1.327,2.779-2.529,4.347-3.584c4.838-3.26,10.71-5.11,17.021-4.942
	c15.893,0.408,28.369,13.876,28.369,29.78v204.946c0-15.663,5.736-29.978,15.214-40.981c1.024-1.191,2.079-2.33,3.187-3.438
	l0.345-0.345C376.215,318.892,403.937,330.71,403.937,353.667z"/>
<g>
	<path style="fill:#EAB689;" d="M295.729,149.973v210.286c0,3.555-2.882,6.437-6.437,6.437l0,0c-3.555,0-6.437-2.882-6.437-6.437
		V174.152c0-8.046,3.26-15.329,8.526-20.595C292.709,152.23,294.162,151.029,295.729,149.973z"/>
	<path style="fill:#EAB689;" d="M237.466,275.664v96.423c0,3.555-2.882,6.437-6.437,6.437l0,0c-3.555,0-6.437-2.882-6.437-6.437
		v-72.244c0-8.046,3.26-15.329,8.526-20.595C234.446,277.921,235.898,276.719,237.466,275.664z"/>
	<path style="fill:#EAB689;" d="M179.192,285.57v93.832c0,3.555-2.882,6.437-6.437,6.437l0,0c-3.555,0-6.437-2.882-6.437-6.437
		v-69.653c0-8.046,3.26-15.329,8.526-20.595C176.172,287.827,177.624,286.625,179.192,285.57z"/>
	<path style="fill:#EAB689;" d="M120.926,309.979v163.527c-3.741-2.33-7.419-4.754-11.024-7.262
		c-1.223-8.537-1.849-17.178-1.849-25.882V334.158c0-8.046,3.26-15.329,8.537-20.605
		C117.917,312.226,119.369,311.024,120.926,309.979z"/>
	<path style="fill:#EAB689;" d="M356.333,338.776V441.97c0,4.202-3.405,7.607-7.607,7.607l0,0c-4.202,0-7.607-3.405-7.607-7.607
		v-62.213C341.119,364.094,346.856,349.779,356.333,338.776z"/>
</g>
<path style="fill:#FFFFFF;" d="M429.884,122.288l-19.646,19.646l-39.795-39.795c-3.276-3.276-8.586-3.276-11.861,0l-6.735,6.735
	c-3.276,3.276-3.276,8.586,0,11.861l51.568,51.568c3.769,3.769,9.878,3.769,13.647,0l31.419-31.419
	c3.276-3.276,3.276-8.586,0-11.861l-6.735-6.735C438.469,119.013,433.159,119.013,429.884,122.288z"/>
<g>
</g>
<g>
</g>
<g>
</g>
<g>
</g>
<g>
</g>
<g>
</g>
<g>
</g>
<g>
</g>
<g>
</g>
<g>
</g>
<g>
</g>
<g>
</g>
<g>
</g>
<g>
</g>
<g>
</g>
</svg>
