<svg xmlns="http://www.w3.org/2000/svg" version="1.1" xmlns:xlink="http://www.w3.org/1999/xlink" xmlns:svgjs="http://svgjs.com/svgjs" x="0" y="0" viewBox="0 0 512 512" style="enable-background:new 0 0 512 512" xml:space="preserve" class=""><g><path d="m512 256c0 141.386719-114.613281 256-256 256s-256-114.613281-256-256 114.613281-256 256-256 256 114.613281 256 256zm0 0" fill="#60bf81" data-original="#60bf81"/><path d="m160.953125 421.5h190.09375v55.546875h-190.09375zm0 0" fill="#dfeaed" data-original="#dfeaed"/><path d="m495.765625 111.773438v234.140624c-12.589844 33.570313-32.035156 63.800782-56.632813 88.972657h-366.257812c-24.597656-25.183594-44.054688-55.421875-56.644531-89.003907v-234.109374c0-28.109376 22.789062-50.886719 50.886719-50.886719h377.761718c28.109375 0 50.886719 22.777343 50.886719 50.886719zm0 0" fill="#e8f1f5" data-original="#e8f1f5" class=""/><path d="m390.722656 473.714844c-13.929687 8.652344-28.746094 15.984375-44.273437 21.847656h-180.871094c-15.546875-5.863281-30.363281-13.207031-44.292969-21.847656 1.785156-7.984375 8.921875-13.949219 17.449219-13.949219h234.539063c4.929687 0 9.402343 2.003906 12.652343 5.246094 2.351563 2.347656 4.042969 5.347656 4.796875 8.703125zm0 0" fill="#dfeaed" data-original="#dfeaed"/><path d="m390.722656 473.714844c-13.929687 8.652344-28.746094 15.984375-44.273437 21.847656h-138.585938c-4.941406 0-9.414062-1.996094-12.652343-5.246094-3.25-3.238281-5.246094-7.710937-5.246094-12.652344 0-9.886718 8.015625-17.898437 17.898437-17.898437h165.410157c4.929687 0 9.402343 2.003906 12.652343 5.246094 2.351563 2.347656 4.042969 5.347656 4.796875 8.703125zm0 0" fill="#e8f1f5" data-original="#e8f1f5" class=""/><path d="m265.875 415.332031c0 5.453125-4.421875 9.875-9.875 9.875s-9.875-4.421875-9.875-9.875c0-5.457031 4.421875-9.878906 9.875-9.878906s9.875 4.421875 9.875 9.878906zm0 0" fill="#c5d1d4" data-original="#c5d1d4"/><path d="m465.398438 26.761719v339.542969c0 14.058593-11.445313 25.5-25.515626 25.5h-367.773437c-14.058594 0-25.492187-11.441407-25.492187-25.5v-339.542969c0-14.070313 11.433593-25.515625 25.492187-25.515625h367.773437c14.070313 0 25.515626 11.445312 25.515626 25.515625zm0 0" fill="#2c6289" data-original="#2c6289" class=""/><path d="m465.394531 26.761719v27.542969h-418.78125v-27.542969c0-14.074219 11.441407-25.511719 25.503907-25.511719h367.765624c14.070313 0 25.511719 11.441406 25.511719 25.511719zm0 0" fill="#7ad8eb" data-original="#7ad8eb"/><g fill="#fff"><path d="m93.890625 30.273438c0 7.960937-6.457031 14.417968-14.421875 14.417968s-14.417969-6.457031-14.417969-14.417968c0-7.964844 6.453125-14.421876 14.417969-14.421876s14.421875 6.457032 14.421875 14.421876zm0 0" fill="#ffffff" data-original="#ffffff"/><path d="m174.40625 30.273438c0 7.960937-6.457031 14.417968-14.421875 14.417968s-14.417969-6.457031-14.417969-14.417968c0-7.964844 6.453125-14.421876 14.417969-14.421876s14.421875 6.457032 14.421875 14.421876zm0 0" fill="#ffffff" data-original="#ffffff"/><path d="m134.148438 30.273438c0 7.960937-6.457032 14.417968-14.421876 14.417968-7.964843 0-14.417968-6.457031-14.417968-14.417968 0-7.964844 6.453125-14.421876 14.417968-14.421876 7.964844 0 14.421876 6.457032 14.421876 14.421876zm0 0" fill="#ffffff" data-original="#ffffff"/></g><path d="m465.402344 86.746094v277.503906c0 11.753906-9.53125 21.285156-21.285156 21.285156h-376.226563c-11.75 0-21.273437-9.527344-21.273437-21.273437v-277.527344c-7.230469 5.945313-11.859376 14.964844-11.859376 25.039063v253.710937c0 17.878906 14.492188 32.371094 32.371094 32.371094h377.75c17.878906 0 32.371094-14.492188 32.371094-32.371094v-253.710937c0-10.074219-4.617188-19.082032-11.847656-25.027344zm0 0" fill="#c5d1d4" data-original="#c5d1d4"/><path d="m390.308594 113.613281h-249.476563c-6.207031 0-11.238281-5.03125-11.238281-11.234375 0-6.207031 5.03125-11.238281 11.238281-11.238281h249.476563c6.207031 0 11.234375 5.03125 11.234375 11.238281 0 6.203125-5.027344 11.234375-11.234375 11.234375zm0 0" fill="#f4de6e" data-original="#f4de6e" class=""/><path d="m90.648438 113.609375c-10.296876 0-15.171876-13.375-7.136719-19.917969 7.941406-6.46875 20.234375.691406 18.148437 10.878906-1.058594 5.1875-5.710937 9.039063-11.011718 9.039063zm0 0" fill="#ff806d" data-original="#ff806d" class=""/><path d="m390.308594 239.1875h-249.476563c-6.207031 0-11.238281-5.03125-11.238281-11.238281s5.03125-11.238281 11.238281-11.238281h249.476563c6.207031 0 11.234375 5.03125 11.234375 11.238281s-5.027344 11.238281-11.234375 11.238281zm0 0" fill="#f4de6e" data-original="#f4de6e" class=""/><path d="m90.648438 239.191406c-4.703126 0-8.992188-3.039062-10.585938-7.460937-1.566406-4.347657-.230469-9.375 3.304688-12.355469 7.53125-6.355469 19.449218-.171875 18.460937 9.675781-.566406 5.664063-5.488281 10.140625-11.179687 10.140625zm0 0" fill="#ff806d" data-original="#ff806d" class=""/><path d="m383.5625 301.972656h-131.097656c-6.210938 0-11.238282-5.03125-11.238282-11.238281s5.03125-11.238281 11.238282-11.238281h131.097656c6.207031 0 11.238281 5.03125 11.238281 11.238281s-5.03125 11.238281-11.238281 11.238281zm0 0" fill="#ff806d" data-original="#ff806d" class=""/><path d="m215 301.972656h-74.167969c-6.207031 0-11.238281-5.03125-11.238281-11.238281s5.03125-11.238281 11.238281-11.238281h74.167969c6.210938 0 11.238281 5.03125 11.238281 11.238281s-5.027343 11.238281-11.238281 11.238281zm0 0" fill="#e8f1f5" data-original="#e8f1f5" class=""/><path d="m90.648438 301.972656c-10.136719 0-15.039063-12.953125-7.445313-19.65625 7.570313-6.679687 19.882813-.25 18.59375 9.808594-.710937 5.539062-5.546875 9.847656-11.148437 9.847656zm0 0" fill="#eae7e5" data-original="#eae7e5"/><path d="m322.878906 364.757812h-182.046875c-6.207031 0-11.238281-5.03125-11.238281-11.238281s5.03125-11.238281 11.238281-11.238281h182.046875c6.210938 0 11.238282 5.03125 11.238282 11.238281s-5.027344 11.238281-11.238282 11.238281zm0 0" fill="#f4de6e" data-original="#f4de6e" class=""/><path d="m90.648438 364.757812c-4.5 0-8.660157-2.789062-10.382813-6.9375-1.949219-4.691406-.417969-10.277343 3.664063-13.308593 8.171874-6.066407 20.011718 1.523437 17.65625 11.546875-1.183594 5.023437-5.761719 8.699218-10.9375 8.699218zm0 0" fill="#7ad8eb" data-original="#7ad8eb"/><path d="m197.019531 176.402344h-56.1875c-6.207031 0-11.238281-5.03125-11.238281-11.238282 0-6.207031 5.03125-11.238281 11.238281-11.238281h56.1875c6.207031 0 11.238281 5.03125 11.238281 11.238281 0 6.203126-5.03125 11.238282-11.238281 11.238282zm0 0" fill="#ff806d" data-original="#ff806d" class=""/><path d="m345.355469 176.402344h-107.878907c-6.207031 0-11.238281-5.03125-11.238281-11.238282 0-6.207031 5.03125-11.238281 11.238281-11.238281h107.878907c6.207031 0 11.238281 5.03125 11.238281 11.238281 0 6.203126-5.03125 11.238282-11.238281 11.238282zm0 0" fill="#7ad8eb" data-original="#7ad8eb"/><path d="m90.648438 176.40625c-4.613282 0-8.824219-2.925781-10.484376-7.210938-1.765624-4.558593-.292968-9.886718 3.566407-12.890624 7.984375-6.222657 19.988281 1.011718 17.929687 11.050781-1.0625 5.183593-5.707031 9.050781-11.011718 9.050781zm0 0" fill="#eae7e5" data-original="#eae7e5"/></g></svg>