<svg xmlns="http://www.w3.org/2000/svg" viewBox="0 0 512 512"><path d="m512 256c0 141.386719-114.613281 256-256 256s-256-114.613281-256-256 114.613281-256 256-256 256 114.613281 256 256zm0 0" fill="#e8ce00"/><path d="m267.847656 140.464844 23.15625 7.984375c2.519532.867187 3.914063 3.558593 3.171875 6.117187l-25.167969 86.78125c-1.484374 5.125-6.179687 8.652344-11.515624 8.652344-6.625 0-11.992188-5.371094-11.992188-11.992188v-76.582031c0-.855469-.539062-1.613281-1.347656-1.890625l-23.15625-7.984375c-2.519532-.871093-3.914063-3.5625-3.171875-6.121093l25.167969-86.777344c1.484374-5.125 6.179687-8.652344 11.515624-8.652344 6.625 0 11.992188 5.367188 11.992188 11.992188v76.582031c0 .851562.539062 1.613281 1.347656 1.890625zm0 0" fill="#fff5f5"/><path d="m461 100v156c0 113.21875-91.78125 205-205 205-.054688 0-.109375 0-.160156 0-8.769532-.007812-15.839844-7.195312-15.839844-15.964844v-79.398437c0-8.714844 7.121094-15.648438 15.835938-15.636719h.164062c58.542969 0 106-47.457031 106-106v-144c0-5.523438 4.476562-10 10-10h79c5.523438 0 10 4.476562 10 10zm0 0" fill="#fd3d96"/><path d="m270.5 349.007812c51.679688-7.070312 91.5-51.386718 91.5-105.007812v-144c0-5.523438 4.476562-10 10-10h29c-5.523438 0-10 4.476562-10 10v144c0 58.542969-47.457031 106-106 106-4.921875 0-9.757812-.34375-14.5-.992188zm0 0" fill="#e31e7f"/><path d="m256 461c-113.21875 0-205-91.78125-205-205v-156c0-5.523438 4.476562-10 10-10h79c5.523438 0 10 4.476562 10 10v144c0 58.542969 47.457031 106 106 106zm0 0" fill="#056099"/><path d="m256 458.949219v2.050781c-113.21875 0-205-91.78125-205-205v-156c0-5.523438 4.476562-10 10-10h29c-5.523438 0-10 4.476562-10 10v156c0 103.371094 76.515625 188.859375 176 202.949219zm0 0" fill="#015081"/><path d="m51 100v-39c0-5.523438 4.476562-10 10-10h79c5.523438 0 10 4.476562 10 10v39zm410 0v-39c0-5.523438-4.476562-10-10-10h-79c-5.523438 0-10 4.476562-10 10v39zm0 0" fill="#84deea"/><path d="m150 61v39h-70v-39c0-5.523438 4.476562-10 10-10h50c5.523438 0 10 4.476562 10 10zm301-10h-50c-5.523438 0-10 4.476562-10 10v39h70v-39c0-5.523438-4.476562-10-10-10zm0 0" fill="#d3f1f5"/></svg>