<?xml version="1.0" encoding="iso-8859-1"?>
<!-- Generator: Adobe Illustrator 19.0.0, SVG Export Plug-In . SVG Version: 6.00 Build 0)  -->
<svg version="1.1" id="Capa_1" xmlns="http://www.w3.org/2000/svg" x="0px" y="0px" viewBox="0 0 512 512" style="enable-background:new 0 0 512 512;" xml:space="preserve">
<path style="fill:#D4D4D4;" d="M512,256c0,112.776-72.923,208.52-174.184,242.646c-19.843,6.687-40.772,11.013-62.464,12.633
	c-3.542,0.261-7.105,0.449-10.679,0.575C261.799,511.948,258.905,512,256,512c-1.567,0-3.124-0.01-4.681-0.042
	c-16.823-0.303-33.238-2.226-49.11-5.632c-8.171-1.735-16.185-3.866-24.033-6.374C74.846,467.028,0,370.249,0,256
	C0,114.615,114.615,0,256,0c14.252,0,28.223,1.16,41.838,3.406c2.79,0.449,5.569,0.961,8.328,1.515
	C423.528,28.233,512,131.783,512,256z"/>
<circle style="fill:#F0F0F0;" cx="256" cy="206.179" r="206.179"/>
<path style="fill:#484B7F;" d="M352.26,84.02h-9.627c-2.66,0-4.817,2.157-4.817,4.817v409.809
	c-23.082,7.785-47.637,12.361-73.143,13.208V88.837c0-2.66-2.157-4.817-4.817-4.817h-9.634c-12.18,0-18.279-14.727-9.666-23.339
	l49.291-49.285c6.296-6.294,16.501-6.294,22.796,0.001l49.285,49.285C370.539,69.294,364.439,84.02,352.26,84.02z"/>
<path style="fill:#EF487D;" d="M418.241,293.484v-9.637c0-2.66-2.157-4.817-4.817-4.817h-5.308
	c-38.826,0-70.301,31.474-70.301,70.301v149.316c-23.082,7.785-47.637,12.361-73.143,13.208V349.341
	c0-79.227,64.227-143.454,143.454-143.454h5.298c2.66,0,4.817-2.157,4.817-4.817v-9.63c0-12.179,14.725-18.278,23.337-9.667
	l49.294,49.288c6.296,6.294,6.296,16.502,0.001,22.797l-49.294,49.294C432.967,311.763,418.241,305.664,418.241,293.484z"/>
<path style="fill:#5897D1;" d="M251.319,349.341v162.617c-25.464-0.46-50.019-4.629-73.143-12.006V349.341
	c0-38.832-31.48-70.311-70.311-70.311h-5.308c-2.66,0-4.817,2.157-4.817,4.817v9.634c0,12.18-14.727,18.279-23.339,9.666
	l-49.285-49.291c-6.294-6.296-6.294-16.501,0.001-22.795l49.285-49.285c8.612-8.612,23.338-2.513,23.338,9.666v9.627
	c0,2.66,2.157,4.817,4.817,4.817h5.308C187.092,205.887,251.319,270.113,251.319,349.341z"/>
<path style="fill:#F9DF73;" d="M289.802,350.375h-9.623c-2.664,0-4.827,2.163-4.827,4.817v156.087
	c-3.542,0.261-7.105,0.449-10.679,0.575C261.799,511.948,258.905,512,256,512c-1.567,0-3.124-0.01-4.681-0.042
	c-16.823-0.303-33.238-2.226-49.11-5.632V355.192c0-2.654-2.152-4.817-4.817-4.817h-9.634c-12.173,0-18.275-14.723-9.665-23.333
	l49.298-49.288c6.29-6.29,16.499-6.29,22.789,0l49.288,49.288C308.078,335.653,301.975,350.375,289.802,350.375z"/>
<g>
</g>
<g>
</g>
<g>
</g>
<g>
</g>
<g>
</g>
<g>
</g>
<g>
</g>
<g>
</g>
<g>
</g>
<g>
</g>
<g>
</g>
<g>
</g>
<g>
</g>
<g>
</g>
<g>
</g>
</svg>
