<svg height="511pt" viewBox="-10 1 511 511.99988" width="511pt" xmlns="http://www.w3.org/2000/svg"><path d="m465.757812 374.394531c15.839844-32.429687 24.742188-68.871093 24.742188-107.394531 0-135.308594-109.691406-245-245-245s-245 109.691406-245 245c0 38.523438 8.902344 74.964844 24.746094 107.394531zm0 0" fill="#fff084"/><path d="m264.757812 5.144531c-11.878906-6.859375-26.636718-6.859375-38.515624 0l-182.707032 105.488281c-11.878906 6.855469-19.257812 19.636719-19.257812 33.355469v228.40625c39.402344 82.558594 123.644531 139.605469 221.222656 139.605469s181.820312-57.046875 221.226562-139.605469v-228.40625c0-13.71875-7.382812-26.5-19.261718-33.355469h.003906zm0 0" fill="#308dfc"/><path d="m136.589844 103.117188c-2.148438.761718-4.445313 1.195312-6.851563 1.195312-11.335937 0-20.523437-9.1875-20.523437-20.519531 0-5.726563 2.351562-10.898438 6.132812-14.621094l-71.8125 41.460937c-11.878906 6.855469-19.257812 19.636719-19.257812 33.355469v228.40625c23.601562 49.453125 63.300781 89.746094 112.3125 114.117188zm0 0" fill="#1374fa"/><path d="m422.8125 141.914062-172.824219-99.777343c-2.777343-1.605469-6.199219-1.605469-8.980469 0l-172.820312 99.777343c-2.78125 1.605469-4.492188 4.570313-4.492188 7.78125v281.527344c44.832032 49.605469 109.675782 80.777344 181.804688 80.777344 72.125 0 136.96875-31.171875 181.804688-80.777344v-281.527344c0-3.210937-1.710938-6.175781-4.492188-7.78125zm0 0" fill="#1374fa"/><path d="m244.230469 136.542969c4.589843-.066407 9.09375.234375 13.496093.863281v-12.386719c0-6.980469-5.660156-12.636719-12.640624-12.636719-6.980469 0-12.640626 5.65625-12.640626 12.636719v12.519531c3.855469-.59375 7.785157-.9375 11.785157-.996093zm0 0" fill="#ffd47c"/><path d="m244.230469 134.609375c-46.90625.683594-84.816407 39.613281-84.296875 86.523437.449218 40.824219 29.632812 74.878907 68.238281 82.847657 2.476563.511719 4.277344 2.660156 4.277344 5.1875v74.929687c2.34375-4.855468 7.296875-8.214844 13.050781-8.214844 5.75 0 10.707031 3.359376 13.050781 8.210938v-74.921875c0-2.53125 1.800781-4.679687 4.28125-5.191406 38.90625-8.035157 68.242188-42.5625 68.242188-83.808594 0-47.605469-39.078125-86.257813-86.84375-85.5625zm1.269531 85.179687c-15.835938 0-28.722656-12.882812-28.722656-28.722656 0-15.835937 12.886718-28.71875 28.722656-28.71875s28.722656 12.882813 28.722656 28.71875c0 15.839844-12.886718 28.722656-28.722656 28.722656zm0 0" fill="#fff084"/><path d="m228.171875 303.980469c2.476563.511719 4.277344 2.660156 4.277344 5.1875v74.929687c2.34375-4.855468 7.296875-8.214844 13.050781-8.214844 5.75 0 10.707031 3.359376 13.050781 8.210938v-74.921875c0-2.535156 1.800781-4.679687 4.28125-5.191406 14.632813-3.023438 27.910157-9.792969 38.78125-19.257813-54.144531-10.679687-45.074219-56.292968-41.417969-68.992187-4.300781 2.574219-9.328124 4.058593-14.695312 4.058593-15.835938 0-28.722656-12.882812-28.722656-28.722656 0-10.144531 5.296875-19.074218 13.261718-24.183594-21.472656-6.332031-14.644531-23.414062-12.660156-27.484374-33.6875 11.828124-57.859375 44.21875-57.445312 81.734374.449218 40.824219 29.632812 74.878907 68.238281 82.847657zm0 0" fill="#ffd47c"/><path d="m245.5 480.617188c-8.007812 0-14.503906-6.492188-14.503906-14.503907v-78.628906c0-8.007813 6.496094-14.503906 14.503906-14.503906s14.5 6.496093 14.5 14.503906v78.628906c0 8.011719-6.492188 14.503907-14.5 14.503907zm0 0" fill="#ffb874"/><path d="m245.5 433.617188c-8.007812 0-14.503906-6.492188-14.503906-14.503907v47c0 8.011719 6.496094 14.503907 14.503906 14.503907 8.011719 0 14.503906-6.492188 14.503906-14.503907v-47c-.003906 8.011719-6.496094 14.503907-14.503906 14.503907zm0 0" fill="#ffa46d"/><path d="m298.65625 468.214844h-36.71875c-8.011719 0-14.503906-6.492188-14.503906-14.503906 0-8.007813 6.492187-14.5 14.503906-14.5h36.71875c8.007812 0 14.503906 6.492187 14.503906 14.5 0 8.011718-6.496094 14.503906-14.503906 14.503906zm0 0" fill="#ffb874"/><path d="m282.714844 416.488281h-20.777344c-8.011719 0-14.503906-6.492187-14.503906-14.5 0-8.011719 6.492187-14.503906 14.503906-14.503906h20.777344c8.007812 0 14.5 6.492187 14.5 14.503906 0 8.007813-6.492188 14.5-14.5 14.5zm0 0" fill="#ffd47c"/><path d="m112.921875 160.179688c0-21.210938 7.679687-40.710938 20.390625-55.867188l-65.128906 37.601562c-2.777344 1.605469-4.488282 4.570313-4.488282 7.78125v281.527344c14.464844 16.003906 31.023438 30.074219 49.226563 41.8125zm0 0" fill="#0b60db"/></svg>