<svg height="512pt" viewBox="0 0 512 512.00023" width="512pt" xmlns="http://www.w3.org/2000/svg"><path d="m60.136719 420.835938c-37.972657-45.078126-60.683594-103.4375-60.1250002-167.121094 1.2226562-140.210938 116.1210932-253.902344 256.3398432-253.714844 141.222657.1875 255.648438 114.730469 255.648438 256 0 60.125-20.734375 115.398438-55.433594 159.085938-3.59375 4.523437-9.296875 6.847656-15.015625 6.015624-58.3125-8.5-120.699219-13.101562-185.550781-13.101562-67.402344 0-132.148438 4.972656-192.421875 14.121094-1.292969.195312-2.597656-.285156-3.441406-1.285156zm0 0" fill="#ade8f0"/><path d="m319.925781 2.152344c-1.683593 24.792968-32.316406 44.515625-69.925781 44.515625 0-25.328125 30.183594-45.90625 67.898438-46.6484378 1.167968-.0195312 2.109374.9726568 2.027343 2.1328128zm0 0" fill="#7ecd00"/><path d="m260 48.757812h-10c0-14.050781-16.929688-25.878906-32.164062-29.121093-4.574219-.972657-7.835938-5.023438-7.835938-9.699219 0-6.488281 6.125-11.230469 12.410156-9.621094 21.585938 5.535156 37.589844 25.152344 37.589844 48.441406zm0 0" fill="#5a9001"/><path d="m340.867188 75.839844c9.957031 23.230468 4.765624 50.183594-13.105469 68.054687-11.59375 11.59375-27.316407 18.105469-43.707031 18.105469h-56.109376c-16.390624 0-32.113281-6.511719-43.707031-18.105469-17.871093-17.871093-23.0625-44.824219-13.105469-68.054687 11.324219-26.417969 39.230469-41.675782 67.582032-36.953125l7.03125 1.171875c6.789062 1.132812 13.71875 1.132812 20.507812 0l7.03125-1.171875c28.351563-4.722657 56.261719 10.535156 67.582032 36.953125zm0 0" fill="#e31e7f"/><path d="m340.867188 75.839844c6.929687 16.171875 6.515624 34.144531-.40625 49.605468-14.886719 9.0625-34.261719 14.554688-55.460938 14.554688-46.945312 0-85-26.863281-85-60 0-16.253906 9.171875-30.992188 24.046875-41.796875 4.816406-.339844 9.734375-.136719 14.667969.683594l7.03125 1.171875c6.789062 1.132812 13.71875 1.132812 20.507812 0l7.03125-1.171875c28.351563-4.722657 56.261719 10.535156 67.582032 36.953125zm0 0" fill="#fd3d96"/><path d="m457.714844 413.636719c-46.855469 59.875-119.789063 98.363281-201.714844 98.363281-78.671875 0-149.039062-35.496094-196-91.335938v-.664062c0-5.523438 4.476562-10 10-10v-10h360v10h20c3.105469 0 5.882812 1.417969 7.714844 3.636719zm0 0" fill="#015081"/><path d="m115.976562 410h24.023438v48.46875c0 3.300781-3.757812 5.164062-6.40625 3.199219-10.324219-7.664063-20.050781-16.085938-29.101562-25.1875-3.210938-3.230469-4.839844-7.746094-4.429688-12.328125.71875-8.09375 7.789062-14.152344 15.914062-14.152344zm224.023438 87.882812c10.316406-3.582031 20.332031-7.796874 30-12.613281v-75.269531h-30zm-170-16.117187c0 1.515625.851562 2.910156 2.210938 3.585937 30.054687 14.949219 63.460937 24.171876 98.800781 26.210938 13.296875-.765625 26.3125-2.574219 38.988281-5.292969v-96.269531h-140zm280-71.765625h-50v57.671875c21.917969-14.9375 41.398438-33.183594 57.714844-54.035156-1.832032-2.21875-4.609375-3.636719-7.714844-3.636719zm0 0" fill="#056099"/><path d="m426 229c4.972656 0 9 4.027344 9 9v12c0 5.523438-4.476562 10-10 10h-328c-28.164062 0-51-22.832031-51-51 0-28.164062 22.832031-51 51-51h328c5.523438 0 10 4.476562 10 10v12c0 4.972656-4.027344 9-9 9-8.835938 0-16 7.164062-16 16v8c0 8.835938 7.164062 16 16 16zm0 0" fill="#056099"/><path d="m142 260h-45c-28.167969 0-51-22.832031-51-51s22.832031-51 51-51h45c-28.164062 0-51 22.832031-51 51s22.832031 51 51 51zm0 0" fill="#015081"/><path d="m420 350v18c0 6.074219 4.925781 11 11 11 4.972656 0 9 4.027344 9 9v12c0 5.523438-4.476562 10-10 10h-359c-28.167969 0-51-22.832031-51-51s22.832031-51 51-51h49v-8h310v8c5.523438 0 10 4.476562 10 10v12c0 4.972656-4.027344 9-9 9-6.074219 0-11 4.925781-11 11zm0 0" fill="#6bae01"/><path d="m110 410h-39c-28.167969 0-51-22.832031-51-51s22.832031-51 51-51h39c-28.167969 0-51 22.832031-51 51s22.835938 51 51 51zm0 0" fill="#5a9001"/><path d="m490 268v30c0 5.523438-4.476562 10-10 10h-360c-5.523438 0-10-4.476562-10-10v-30c0-5.523438 4.476562-10 10-10h360c5.523438 0 10 4.476562 10 10zm0 0" fill="#e31e7f"/><path d="m200 258v50h-50c-5.523438 0-10-4.476562-10-10v-30c0-5.523438 4.476562-10 10-10zm20 0v50h170v-50zm260 0h-30v50h30c5.523438 0 10-4.476562 10-10v-30c0-5.523438-4.476562-10-10-10zm-70 0v50h20v-50zm0 0" fill="#fd3d96"/><path d="m440 388h-371c-16.015625 0-29-12.984375-29-29s12.984375-29 29-29h371zm-5-208h-336c-16.015625 0-29 12.984375-29 29s12.984375 29 29 29h336zm0 0" fill="#fdf061"/><path d="m94.367188 202h340.632812v10h-340.765625c-2.289063 0-4.117187-1.917969-3.992187-4.207031.035156-.6875.082031-1.40625.136718-2.097657.164063-2.085937 1.894532-3.695312 3.988282-3.695312zm340.632812-10v-12h-316c-5.835938 0-11.265625 1.726562-15.8125 4.691406-3.296875 2.152344-1.683594 7.308594 2.25 7.308594zm-316 46h316v-16h-334.3125c-3.515625 0-5.300781 4.1875-2.90625 6.761719 5.292969 5.683593 12.839844 9.238281 21.21875 9.238281zm-20 92c-7.199219 0-13.785156 2.625-18.855469 6.96875-2.816406 2.410156-1.089843 7.03125 2.617188 7.03125h357.238281v-14zm-29 29c0 .757812.03125 1.511719.085938 2.253906.164062 2.105469 1.886718 3.746094 3.996093 3.746094h365.917969v-11h-365.976562c-2.171876 0-3.917969 1.734375-4 3.910156-.015626.359375-.023438.722656-.023438 1.089844zm29 29h341v-13h-356c-3.785156 0-5.507812 4.84375-2.488281 7.128906 4.859375 3.683594 10.917969 5.871094 17.488281 5.871094zm0 0" fill="#fdf7bd"/></svg>