<?xml version="1.0" encoding="iso-8859-1"?>
<!-- Generator: Adobe Illustrator 19.0.0, SVG Export Plug-In . SVG Version: 6.00 Build 0)  -->
<svg version="1.1" id="Capa_1" xmlns="http://www.w3.org/2000/svg" xmlns:xlink="http://www.w3.org/1999/xlink" x="0px" y="0px"
	 viewBox="0 0 512 512" style="enable-background:new 0 0 512 512;" xml:space="preserve">
<circle style="fill:#445280;" cx="256" cy="256" r="256"/>
<path style="fill:#10BEC1;" d="M70.182,158.771V33.777c0-18.654,15.123-33.776,33.776-33.776h84.171
	c13.884,0,26.358,8.501,31.441,21.431l6.65,16.945c5.083,12.915,17.557,21.416,31.441,21.416h150.371
	c18.668,0,33.791,15.136,33.791,33.791v65.187"/>
<path style="fill:#10A8A3;" d="M70.182,207.848V82.854c0-18.654,15.123-33.776,33.776-33.776h84.171
	c13.884,0,26.358,8.501,31.441,21.431l6.65,16.945c5.083,12.915,17.557,21.416,31.441,21.416h150.371
	c18.668,0,33.791,15.136,33.791,33.791v65.187"/>
<path style="fill:#F43F7E;" d="M70.182,239.242V107.465c0-18.654,15.123-33.776,33.776-33.776h84.171
	c13.884,0,26.358,8.501,31.441,21.431l6.65,16.945c5.083,12.915,17.557,21.416,31.441,21.416h150.371
	c18.668,0,33.791,15.136,33.791,33.791v71.97"/>
<path style="fill:#D63072;" d="M70.182,278.834V153.841c0-18.654,15.123-33.776,33.776-33.776h84.171
	c13.884,0,26.358,8.501,31.441,21.431l6.65,16.945c5.083,12.915,17.557,21.416,31.441,21.416h150.371
	c18.668,0,33.791,15.136,33.791,33.791v65.187"/>
<path style="fill:#FDD36E;" d="M70.182,274.098v-92.943c0-18.654,15.123-33.776,33.776-33.776h84.171
	c13.884,0,26.358,8.501,31.441,21.431l6.65,16.945c5.083,12.915,17.557,21.416,31.441,21.416h150.371
	c18.668,0,33.791,15.136,33.791,33.791v33.136"/>
<path style="fill:#10A8A3;" d="M136.656,0.001h-32.698c-18.654,0-33.776,15.123-33.776,33.776v92.943h32.699V33.777
	C102.88,15.124,118.002,0.001,136.656,0.001z"/>
<path style="fill:#D63072;" d="M136.656,73.688h-32.698c-18.654,0-33.776,15.123-33.776,33.776v92.943h32.699v-92.943
	C102.88,88.811,118.002,73.688,136.656,73.688z"/>
<path style="fill:#FBB659;" d="M136.656,147.379h-32.698c-18.654,0-33.776,15.123-33.776,33.776v92.943h32.699v-92.943
	C102.88,162.501,118.002,147.379,136.656,147.379z"/>
<path style="fill:#E5E5E5;" d="M464.241,285.157V404.94C417.795,469.765,341.831,512,256.003,512
	c-85.838,0-161.813-42.245-208.248-107.081V285.157c0-6.828,5.536-12.364,12.364-12.364h391.757
	C458.705,272.792,464.241,278.327,464.241,285.157z"/>
<path style="fill:#D6D6D6;" d="M440.584,314.598v118.784c-21.891,22.779-47.95,41.513-76.967,54.962H148.379
	c-29.006-13.458-55.077-32.183-76.957-54.962V314.598c0-10.024,8.126-18.15,18.15-18.15h332.864
	C432.459,296.448,440.584,304.574,440.584,314.598z"/>
<g>
	<path style="fill:#4D65A3;" d="M131.625,437.996c0-0.465,0.155-1.085,0.31-1.704l28.81-94.486c1.704-5.421,8.674-8.054,15.8-8.054
		c7.125,0,14.096,2.633,15.799,8.054l28.966,94.486c0.155,0.62,0.309,1.239,0.309,1.704c0,5.731-8.828,9.913-15.49,9.913
		c-3.872,0-6.971-1.239-7.899-4.492l-5.266-19.362H160.28l-5.266,19.362c-0.93,3.253-4.027,4.492-7.899,4.492
		C140.454,447.909,131.625,443.727,131.625,437.996z M187.852,405.468l-11.307-41.512l-11.308,41.512H187.852z"/>
	<path style="fill:#4D65A3;" d="M239.585,400.822h40.272c3.718,0,7.434,4.336,7.434,9.913c0,5.886-3.718,9.758-7.434,9.758h-40.272
		c-4.336,0-7.28-3.872-7.28-9.758C232.305,405.158,235.248,400.822,239.585,400.822z"/>
	<path style="fill:#4D65A3;" d="M342.433,355.747c-8.828,0-13.94,4.957-13.94,15.49v41.047c0,10.534,5.112,15.49,14.096,15.49
		c12.391,0,13.166-9.448,13.631-15.49c0.465-5.731,5.731-7.28,11.928-7.28c8.364,0,12.237,2.168,12.237,11.461
		c0,20.601-16.729,32.373-38.879,32.373c-20.291,0-37.175-9.913-37.175-36.556v-41.047c0-26.642,16.883-36.555,37.175-36.555
		c22.15,0,38.879,11.152,38.879,30.824c0,9.294-3.872,11.463-12.082,11.463c-6.506,0-11.773-1.703-12.082-7.28
		C356.064,365.66,355.599,355.747,342.433,355.747z"/>
</svg>
