<svg xmlns="http://www.w3.org/2000/svg" version="1.1" xmlns:xlink="http://www.w3.org/1999/xlink" xmlns:svgjs="http://svgjs.com/svgjs" x="0" y="0" viewBox="0 0 512 512" style="enable-background:new 0 0 512 512" xml:space="preserve"><g><g><path d="m256 21.996c-135.311 0-245.002 109.691-245.002 245.002 0 94.819 53.868 177.049 132.667 217.778l38.497 15.89c23.302 7.357 48.104 11.334 73.838 11.334 30.452 0 59.598-5.572 86.497-15.725l37.595-18c72.348-42.585 120.911-121.254 120.911-211.277-.001-135.311-109.692-245.002-245.003-245.002z" fill="#94dc79" data-original="#94dc79"/><g><path d="m379.42 437.991c-6.26 0-11.334-5.074-11.334-11.334 0-59.4-48.324-107.724-107.724-107.724-6.26 0-11.334-5.074-11.334-11.334s5.074-11.334 11.334-11.334c71.899 0 130.391 58.493 130.391 130.391.001 6.261-5.073 11.335-11.333 11.335z" fill="#2a428b" data-original="#2a428b"/></g><g><path d="m141.305 437.991c-6.26 0-11.334-5.074-11.334-11.334v-252.045c0-6.26 5.074-11.334 11.334-11.334s11.334 5.074 11.334 11.334v252.045c0 6.26-5.074 11.334-11.334 11.334z" fill="#1d2e79" data-original="#1d2e79"/></g><path d="m141.305 178.463c-14.684 0-26.587-11.904-26.587-26.587v-39.335h53.174v39.335c0 14.683-11.903 26.587-26.587 26.587z" fill="#3f57a0" data-original="#3f57a0"/><path d="m148.292 0h18.741v33.041h-18.741z" fill="#ffd402" data-original="#ffd402"/><path d="m115.578 0h18.741v33.041h-18.741z" fill="#ffd402" data-original="#ffd402"/><path d="m101.605 0h-8.673c-5.082 0-9.202 4.12-9.202 9.201v23.84h17.875z" fill="#fea53d" data-original="#fea53d"/><path d="m189.678 0h-8.673v33.041h17.875v-23.84c0-5.081-4.12-9.201-9.202-9.201z" fill="#fffbb3" data-original="#fffbb3"/><path d="m132.773 0h17.064v33.041h-17.064z" fill="#fef156" data-original="#fef156"/><path d="m165.487 0h17.064v33.041h-17.064z" fill="#fef156" data-original="#fef156"/><path d="m100.059 0h17.064v33.041h-17.064z" fill="#ffc242" data-original="#ffc242"/><path d="m180.857 70.761v-31.41c0-4.681 3.83-8.51 8.51-8.51h-61.175c-4.681 0-8.51 3.83-8.51 8.51v31.41c0 24.195 19.796 43.991 43.991 43.991h2.952c11.139 0 21.34-4.203 29.112-11.093-9.11-8.075-14.88-19.842-14.88-32.898z" fill="#3f57a0" data-original="#3f57a0"/><path d="m179.826 39.351v31.41c0 13.299 5.989 25.26 15.394 33.344 9.405-8.084 15.394-20.045 15.394-33.344v-31.41c0-4.681-3.83-8.51-8.51-8.51h-13.768c-4.68 0-8.51 3.829-8.51 8.51z" fill="#5071b7" data-original="#5071b7"/><path d="m121.742 70.761v-31.41c0-4.681 3.83-8.51 8.51-8.51h-49.747c-4.681 0-8.51 3.83-8.51 8.51v31.41c0 24.195 19.796 43.991 43.991 43.991h49.747c-24.195 0-43.991-19.796-43.991-43.991z" fill="#2a428b" data-original="#2a428b"/><path d="m102.784 142.935c0 6.102 4.993 11.094 11.095 11.094h54.854c6.102 0 11.094-4.992 11.094-11.094s-4.992-11.094-11.094-11.094h-54.854c-6.103-.001-11.095 4.992-11.095 11.094z" fill="#5071b7" data-original="#5071b7"/><g><path d="m141.305 437.991c-6.26 0-11.334-5.074-11.334-11.334 0-71.899 58.493-130.391 130.391-130.391 6.26 0 11.334 5.074 11.334 11.334s-5.074 11.334-11.334 11.334c-59.399 0-107.723 48.324-107.723 107.724 0 6.259-5.074 11.333-11.334 11.333z" fill="#2a428b" data-original="#2a428b"/></g><path d="m152.639 426.657c0-6.26-5.074-11.334-11.334-11.334s-11.334 5.074-11.334 11.334c0 20.872 4.937 40.609 13.693 58.119 12.265 6.339 25.133 11.671 38.497 15.89-18.288-19.314-29.522-45.373-29.522-74.009z" fill="#2a428b" data-original="#2a428b"/><path d="m379.42 415.323c-6.26 0-11.334 5.074-11.334 11.334 0 26.521-9.639 50.828-25.59 69.618 13.105-4.947 25.672-10.983 37.595-18.001 6.855-15.838 10.662-33.29 10.662-51.617.001-6.26-5.073-11.334-11.333-11.334z" fill="#3f57a0" data-original="#3f57a0"/><g><path d="m379.42 437.991c-6.26 0-11.334-5.074-11.334-11.334v-149.998c0-6.26 5.074-11.334 11.334-11.334s11.334 5.074 11.334 11.334v149.998c0 6.26-5.074 11.334-11.334 11.334z" fill="#3f57a0" data-original="#3f57a0"/></g><g><path d="m379.42 287.993c-6.26 0-11.334-5.074-11.334-11.334v-99.49c0-6.26 5.074-11.334 11.334-11.334s11.334 5.074 11.334 11.334v99.49c0 6.259-5.074 11.334-11.334 11.334z" fill="#5071b7" data-original="#5071b7"/></g><g><path d="m345.668 0c-6.711 0-12.151 5.44-12.151 12.151v22.966c0 6.711 5.44 12.151 12.151 12.151s12.151-5.44 12.151-12.151v-22.966c0-6.711-5.44-12.151-12.151-12.151z" fill="#fef156" data-original="#fef156"/><path d="m413.172 0c-6.711 0-12.151 5.44-12.151 12.151v22.966c0 6.711 5.44 12.151 12.151 12.151s12.151-5.44 12.151-12.151v-22.966c0-6.711-5.44-12.151-12.151-12.151z" fill="#fef156" data-original="#fef156"/><path d="m345.668 45.467c-6.711 0-12.151-5.44-12.151-12.151v38.853h24.302v-38.853c0 6.711-5.44 12.151-12.151 12.151z" fill="#ffc242" data-original="#ffc242"/><path d="m413.172 45.467c-6.711 0-12.151-5.44-12.151-12.151v38.853h24.302v-38.853c0 6.711-5.44 12.151-12.151 12.151z" fill="#ffc242" data-original="#ffc242"/><path d="m431.182 68.569h-42.455c-8.963 2.813-18.614 0-18.614 0h-4.652c-4.873 0-8.823 3.95-8.823 8.823v31.589c0 10.032 4.492 19.536 12.244 25.904 7.751 6.368 12.244 15.872 12.244 25.904 0 9.84 7.003 18.042 16.296 19.899l.126.26c10.113-1.154 17.97-9.737 17.97-20.159 0-10.032 4.493-19.536 12.244-25.904 7.751-6.368 12.244-15.872 12.244-25.904v-31.589c-.001-4.873-3.951-8.823-8.824-8.823z" fill="#3f57a0" data-original="#3f57a0"/><path d="m382.926 160.788c0-10.032-4.492-19.536-12.244-25.904-7.751-6.368-12.244-15.872-12.244-25.904v-31.588c0-4.873 3.95-8.823 8.823-8.823h-39.603c-4.873 0-8.823 3.95-8.823 8.823v31.589c0 10.032 4.493 19.536 12.244 25.904s12.244 15.872 12.244 25.904c0 11.209 9.087 20.295 20.295 20.295h31.604c1.369 0 2.706-.137 4-.396-9.294-1.858-16.296-10.06-16.296-19.9z" fill="#2a428b" data-original="#2a428b"/><path d="m388.727 89.947v-21.378h-18.614v21.378c0 5.119 4.188 9.307 9.307 9.307s9.307-4.189 9.307-9.307z" fill="#e8f8fc" data-original="#e8f8fc"/></g></g></g></svg>