<?xml version="1.0" encoding="iso-8859-1"?>
<!-- Generator: Adobe Illustrator 19.0.0, SVG Export Plug-In . SVG Version: 6.00 Build 0)  -->
<svg xmlns="http://www.w3.org/2000/svg" version="1.1" id="Capa_1" x="0px" y="0px" viewBox="0 0 512 512" style="enable-background:new 0 0 512 512;" xml:space="preserve"
    width="512" height="512">
<g>
	<path style="fill:#C9D8E4;" d="M501,256c0,135.31-109.69,245-245,245S11,391.31,11,256S120.69,11,256,11S501,120.69,501,256z"/>
	<path style="fill:#FF5526;" d="M256,51C142.782,51,51,142.782,51,256c0,113.218,91.782,205,205,205s205-91.782,205-205   C461,142.782,369.218,51,256,51z M256,381c-69.036,0-125-55.964-125-125s55.964-125,125-125s125,55.964,125,125   S325.036,381,256,381z"/>
	<path style="fill:#FF4927;" d="M256,101c-85.604,0-155,69.396-155,155c0,85.604,69.396,155,155,155c85.604,0,155-69.396,155-155   C411,170.396,341.604,101,256,101z M256,381c-69.036,0-125-55.964-125-125s55.964-125,125-125s125,55.964,125,125   S325.036,381,256,381z"/>
	<path style="fill:#FFB23C;" d="M252,380.93v80.02C145.653,458.913,59.149,375.899,51.561,271H7.012   c-5.559,0-8.9-6.168-5.863-10.824L92.576,119.99c2.762-4.235,8.965-4.235,11.726,0l91.428,140.186   c3.037,4.656-0.304,10.824-5.863,10.824h-57.96C139.164,331.664,189.856,378.975,252,380.93z"/>
	<path style="fill:#FFA40C;" d="M51.561,271h-6.549H24.804H7.012c-5.559,0-8.9-6.168-5.863-10.824L92.576,119.99   c2.762-4.235,8.965-4.235,11.727,0l13.137,20.143l-62.21,95.386c-2.169,3.326,0.217,7.731,4.188,7.731h15.143   c8.284,0,15,6.716,15,15V271c3.256,45.009,21.047,85.982,48.694,118.263l-23.479,15.313C78.891,370.453,55.356,323.464,51.561,271z   "/>
	<path style="fill:#FFF5F5;" d="M261,460.918v44.07c0,5.559-6.168,8.9-10.824,5.863L109.99,419.424   c-4.235-2.762-4.235-8.965,0-11.727l140.186-91.428c4.656-3.037,10.824,0.304,10.824,5.863v58.753   c65.39-2.574,117.869-55.365,119.93-120.886h80.02C458.848,369.705,370.576,458.292,261,460.918z"/>
	<path style="fill:#066DAE;" d="M510.852,251.824L419.424,392.01c-2.762,4.235-8.965,4.235-11.727,0L316.27,251.824   c-3.037-4.656,0.304-10.824,5.863-10.824h57.96C372.836,180.337,322.144,133.025,260,131.07v-80.02   C366.347,53.087,452.851,136.101,460.439,241h44.549C510.547,241,513.888,247.168,510.852,251.824z"/>
	<path style="fill:#FF5526;" d="M261.824,1.148L402.01,92.576c4.235,2.762,4.235,8.965,0,11.726L261.824,195.73   c-4.656,3.037-10.824-0.304-10.824-5.863V7.012C251,1.453,257.168-1.888,261.824,1.148z"/>
	<path style="fill:#FF4927;" d="M402.01,104.303L261.824,195.73c-4.656,3.037-10.824-0.304-10.824-5.863v-22.012v-14.867V101h12.75   c8.284,0,15,6.716,15,15v22.582c0,3.971,4.406,6.357,7.731,4.188L382.727,80l19.283,12.576   C406.245,95.338,406.245,101.541,402.01,104.303z"/>
	<path style="fill:#015D96;" d="M433.561,370.334l-14.137,21.676c-2.762,4.235-8.965,4.235-11.727,0L316.27,251.824   c-3.037-4.656,0.304-10.824,5.863-10.824h16.198h23.802h17.96c-4.352-36.378-24.327-67.95-53.021-87.823l24.871-16.221   C384.411,158.966,405.029,199.446,410,241v12.75c0,8.284-6.716,15-15,15h-18.461c-3.971,0-6.357,4.406-4.188,7.731L433.561,370.334   z"/>
	<path style="fill:#EAFAFF;" d="M408.481,392.988c-36.488,40.584-88.941,66.527-147.481,67.93v14.07v14.762v15.238   c0,5.559-6.168,8.9-10.824,5.863L109.99,419.424c-4.235-2.762-4.235-8.965,0-11.727l14.009-9.137l101.519,66.21   c3.326,2.169,7.731-0.218,7.731-4.188v-14.664c0-8.284,6.716-15,15-15H261c52.489-1.258,100.083-22.245,135.664-55.825   l11.033,16.917C407.932,392.371,408.2,392.689,408.481,392.988z"/>
</g>















</svg>
