<?xml version="1.0" encoding="iso-8859-1"?>
<!-- Generator: Adobe Illustrator 19.0.0, SVG Export Plug-In . SVG Version: 6.00 Build 0)  -->
<svg version="1.1" id="Capa_1" xmlns="http://www.w3.org/2000/svg" x="0px" y="0px" viewBox="0 0 512 512" style="enable-background:new 0 0 512 512;" xml:space="preserve">
<path style="fill:#F4A14E;" d="M512,256c0,34.419-6.792,67.25-19.122,97.217c-3.605,8.777-7.68,17.304-12.204,25.558
	c-5.465,10-11.588,19.592-18.307,28.714c-7.899,10.773-16.645,20.898-26.122,30.292c-10.888,10.804-22.747,20.626-35.422,29.341
	c-31.389,21.577-67.835,36.342-107.207,42.13C281.339,511.06,268.779,512,256,512c-55.463,0-106.799-17.638-148.72-47.606
	c-37.543-26.843-67.542-63.582-86.162-106.412C7.534,326.74,0,292.247,0,256c0-8.923,0.46-17.732,1.358-26.415
	c1.881-18.422,5.716-36.258,11.306-53.3c14.064-42.977,39.194-80.948,72.035-110.519c10.355-9.341,21.473-17.836,33.259-25.391
	c1.097-0.711,2.205-1.4,3.323-2.09c29.403-18.244,62.767-30.678,98.513-35.736C231.623,0.867,243.712,0,256,0
	c70.311,0,133.977,28.338,180.245,74.219c2.361,2.341,4.681,4.733,6.949,7.158c6.834,7.314,13.228,15.026,19.174,23.103
	c23.448,31.88,39.685,69.392,46.31,110.132C510.861,228.08,512,241.904,512,256z"/>
<g>
	<path style="fill:#5C5E70;" d="M269.406,38.452c-6.029-19.195-25.882-31.065-49.612-35.903C211.519,0.836,202.773,0,193.975,0
		c-34.011,0-67.291,12.57-75.431,38.452l-0.585,1.923L21.117,357.982c18.62,42.83,48.619,79.569,86.162,106.412l4.881-17.94
		c2.461-9.044,10.673-15.319,20.044-15.319h124.281c9.373,0,17.585,6.276,20.044,15.319l17.086,62.797
		c39.372-5.789,75.818-20.553,107.207-42.13L269.406,38.452z M143.389,329.932l50.586-185.725l50.595,185.725
		c1.709,6.276-3.016,12.46-9.52,12.46h-82.14C146.405,342.392,141.68,336.208,143.389,329.932z"/>
	<path style="fill:#5C5E70;" d="M512,13.061L512,13.061c0,7.214-5.847,13.061-13.061,13.061h-23.51
		c-7.214,0-13.061,5.847-13.061,13.061v368.306c-7.899,10.773-16.645,20.898-26.122,30.292V39.184
		c0-7.214-5.847-13.061-13.061-13.061h-23.51c-7.214,0-13.061-5.847-13.061-13.061l0,0C386.612,5.847,392.459,0,399.673,0h99.265
		C506.153,0,512,5.847,512,13.061z"/>
</g>
<g>
</g>
<g>
</g>
<g>
</g>
<g>
</g>
<g>
</g>
<g>
</g>
<g>
</g>
<g>
</g>
<g>
</g>
<g>
</g>
<g>
</g>
<g>
</g>
<g>
</g>
<g>
</g>
<g>
</g>
</svg>
