<svg xmlns="http://www.w3.org/2000/svg" version="1.1" xmlns:xlink="http://www.w3.org/1999/xlink" xmlns:svgjs="http://svgjs.com/svgjs" x="0" y="0" viewBox="0 0 512 512" style="enable-background:new 0 0 512 512" xml:space="preserve" class=""><g><g><g><g><g fill="#05e39c"><path d="m216.224 231.644c-69.248-17.816-117.912-79.624-119.307-150.959-52.578 44.937-85.917 111.728-85.917 186.315 0 74.738 33.486 141.657 86.249 186.595l-.365-20.861c0-72.659 49.074-136.031 119.339-154.108 10.735-2.761 18.232-12.421 18.232-23.491s-7.497-20.73-18.231-23.491z" fill="#05e39c" data-original="#05e39c"/><path d="m415.083 80.685c-1.395 71.334-50.059 133.143-119.306 150.959-10.734 2.761-18.231 12.421-18.231 23.491s7.497 20.729 18.231 23.491c70.265 18.078 119.339 81.449 119.339 154.108l-.363 20.842c52.763-44.938 86.247-111.838 86.247-186.576 0-74.587-33.339-141.378-85.917-186.315z" fill="#05e39c" data-original="#05e39c"/></g><g fill="#0ed290"><path d="m394.22 156.445c-20.781 36.428-55.689 64.199-98.444 75.199-10.734 2.761-18.231 12.421-18.231 23.491s7.497 20.729 18.231 23.491c48.135 12.384 86.321 46.026 105.602 89.346 19.929-28.64 31.622-63.438 31.622-100.972 0-41.829-14.519-80.262-38.78-110.555z" fill="#0ed290" data-original="#0ed290"/><path d="m216.224 278.625c10.735-2.761 18.232-12.421 18.232-23.491s-7.498-20.729-18.232-23.491c-42.755-11-77.662-38.771-98.444-75.199-24.261 30.294-38.78 68.727-38.78 110.556 0 37.534 11.693 72.332 31.621 100.971 19.282-43.32 57.468-76.962 105.603-89.346z" fill="#0ed290" data-original="#0ed290"/></g></g></g><g><g><g><path d="m296.025 232.612c70.707-18.191 120.09-81.961 120.09-155.077 0-10.447-1.014-20.743-2.966-30.786h-314.298c-1.952 10.043-2.966 20.339-2.966 30.786 0 73.116 49.383 136.886 120.09 155.077 10.292 2.647 17.481 11.91 17.481 22.523s-7.189 19.875-17.481 22.523c-70.707 18.191-120.09 81.961-120.09 155.077 0 7.033.468 13.996 1.365 20.861 4.452 3.791 9.041 7.426 13.759 10.896h289.984c4.718-3.47 9.307-7.104 13.759-10.896.896-6.865 1.365-13.828 1.365-20.861 0-73.116-49.383-136.886-120.09-155.077-10.292-2.647-17.48-11.91-17.48-22.523s7.186-19.875 17.478-22.523z" fill="#99e6fc" data-original="#99e6fc"/><path d="m115.179 448.378.859 1h125.822c6.065 0 11-4.935 11-11v-183.243c0-1.782-.113-3.543-.328-5.276h-1.005c.22 1.732.333 3.494.333 5.276 0 19.015-12.871 35.606-31.299 40.346-62.571 16.098-106.272 72.539-106.272 137.253 0 5.255.302 10.475.882 15.642.003.001.005.001.008.002z" fill="#f2fbff" data-original="#f2fbff"/><g><path d="m291.44 295.481c-18.428-4.74-31.299-21.331-31.299-40.346h-1.095v176.988c0 1.186.467 2.289 1.315 3.105.805.775 1.901 1.22 3.008 1.22.681 0 1.339-.16 1.957-.474l2.347-1.194c10.366-5.27 21.991-8.056 33.62-8.056 6.419 0 12.82.835 19.026 2.482l74.107 19.669 2.394-.497c.003-.001.006-.001.009-.002.58-5.167.882-10.387.882-15.642 0-64.714-43.7-121.155-106.271-137.253z" fill="#f2fbff" data-original="#f2fbff"/></g><path d="m134.934 145.537h242.132l3.897-1.095c10.741-20.078 16.748-42.923 16.748-66.906 0-10.447-1.173-20.759-3.409-30.786h-276.604c-2.236 10.027-3.409 20.339-3.409 30.786 0 23.984 6.007 46.828 16.748 66.906z" fill="#f2fbff" data-original="#f2fbff"/><path d="m117.68 449.377h41.979c-.656-5.495-1.004-11.048-1.004-16.643 0-54.34 30.815-102.84 77.739-126.526 9.5-4.795 15.467-14.555 15.467-25.197v-25.876c0-.891-.028-1.777-.084-2.657.056.88.084 1.766.084 2.657 0 19.015-12.871 35.606-31.299 40.346-62.571 16.098-106.272 72.539-106.272 137.253 0 5.196.327 10.532.891 15.643z" fill="#c8effe" data-original="#c8effe"/><path d="m175.402 144.442c-10.741-20.078-16.748-42.923-16.748-66.906 0-10.066 1.078-20.01 3.157-29.691h-44.366c-2.079 9.681-3.157 19.625-3.157 29.691 0 23.984 6.007 46.828 16.748 66.906z" fill="#c8effe" data-original="#c8effe"/><path d="m378 444.515c.303-.98.467-2.021.467-3.1 0-5.781-4.686-10.467-10.467-10.467-5.002 0-9.179 3.512-10.215 8.202z" fill="#fed2a4" data-original="#fed2a4"/><path d="m320.601 428.148c-17.897-4.75-36.918-2.736-53.424 5.656l-2.342 1.191c-2.149 1.093-4.694-.468-4.694-2.879v-176.981c0-19.015 12.871-35.606 31.299-40.346 39.377-10.131 71.25-36.253 89.485-70.347h-249.85c18.235 34.094 50.108 60.216 89.485 70.347 18.429 4.74 31.3 21.331 31.3 40.346v183.243c0 5.523-4.477 10-10 10h-126.681c.601 5.44 1.526 10.817 2.747 16.113h276.148c1.221-5.296 2.146-10.673 2.747-16.113z" fill="#ffbd86" data-original="#ffbd86"/><path d="m320.601 428.148c-17.897-4.75-36.918-2.736-53.424 5.656l-2.342 1.191c-2.149 1.093-4.694-.468-4.694-2.879v-176.981c0-14.01 6.993-26.698 18.042-34.306-3.947-2.718-8.407-4.793-13.258-6.04-39.381-10.132-71.283-36.248-89.523-70.347h-44.327c18.235 34.094 50.108 60.216 89.485 70.347 18.429 4.74 31.3 21.331 31.3 40.346v183.243c0 5.523-4.477 10-10 10h-126.681c.601 5.44 1.526 10.817 2.747 16.113h276.148c1.221-5.296 2.146-10.673 2.747-16.113z" fill="#f6a96c" data-original="#f6a96c"/><circle cx="329.835" cy="388.187" fill="#fed2a4" r="10.467" data-original="#fed2a4"/><circle cx="203.533" cy="426.533" fill="#ffbd86" r="10.467" data-original="#ffbd86"/><circle cx="289.459" cy="405.572" fill="#fed2a4" r="10.467" data-original="#fed2a4"/><circle cx="319.02" cy="165.935" fill="#ffffff" r="10.467" data-original="#ffffff"/><g fill="#fed2a4"><circle cx="277.416" cy="190.021" r="10.467" fill="#fed2a4" data-original="#fed2a4"/><circle cx="163.888" cy="410.013" r="10.467" fill="#fed2a4" data-original="#fed2a4"/><path d="m287.351 464.491c-.503-5.312-4.973-9.469-10.417-9.469s-9.914 4.156-10.417 9.469z" fill="#fed2a4" data-original="#fed2a4"/></g><path d="m355.988 464.491c.321-1.006.498-2.076.498-3.188 0-5.781-4.686-10.467-10.467-10.467s-10.467 4.686-10.467 10.467c0 1.112.177 2.182.498 3.188z" fill="#ffbd86" data-original="#ffbd86"/></g><g><path d="m426.888 47.844h-341.776c-6.395 0-11.578-5.184-11.578-11.578v-24.688c0-6.394 5.184-11.578 11.578-11.578h341.776c6.395 0 11.578 5.184 11.578 11.578v24.688c0 6.395-5.184 11.578-11.578 11.578z" fill="#af66da" data-original="#af66da"/></g><path d="m140.577 29.232c-6.395 0-11.578-5.184-11.578-11.578v-17.654h-43.887c-6.395 0-11.578 5.184-11.578 11.578v24.688c0 6.395 5.184 11.578 11.578 11.578h341.776c6.395 0 11.578-5.184 11.578-11.578v-7.034z" fill="#9857bd" data-original="#9857bd"/></g><path d="m109.507 463.396c40.86 30.527 91.565 48.604 146.493 48.604s105.633-18.077 146.493-48.604z" fill="#af66da" data-original="#af66da"/><path d="m177.014 463.396h-67.507c40.86 30.527 91.565 48.604 146.493 48.604 11.453 0 22.719-.797 33.754-2.318-41.888-5.773-80.399-22.124-112.74-46.286z" fill="#9857bd" data-original="#9857bd"/></g></g></g></svg>