<svg height="512pt" viewBox="0 -11 512 512" width="512pt" xmlns="http://www.w3.org/2000/svg"><path d="m245 0c-53.679688 0-103.316406 17.277344-143.679688 46.554688l-40.625 359.851562c44.90625 51.234375 110.824219 83.59375 184.304688 83.59375 135.308594 0 245-109.691406 245-245s-109.691406-245-245-245zm0 0" fill="#ff228e"/><path d="m1.414062 218.636719c-.925781 8.660156-1.414062 17.457031-1.414062 26.363281 0 26.582031 4.25 52.167969 12.078125 76.136719l86.476563-48.273438zm0 0" fill="#fff084"/><path d="m62.46875 408.40625 36.085938-20.144531v-115.398438l-86.476563 48.273438c10.664063 32.644531 27.996094 62.269531 50.390625 87.269531zm0 0" fill="#ffd47c"/><path d="m201.914062 215.164062-103.359374 57.699219 103.359374 57.699219 103.363282-57.699219zm0 0" fill="#fff084"/><path d="m201.914062 215.164062-103.359374 57.699219 103.359374 57.699219c-45.160156-25.210938-45.160156-90.1875 0-115.398438zm0 0" fill="#ffd47c"/><path d="m201.914062 330.5625v115.398438l103.363282-57.699219v-115.398438zm0 0" fill="#ffd47c"/><path d="m201.917969 330.5625v115.398438l-103.363281-57.699219v-115.398438zm0 0" fill="#ffb874"/><path d="m33.5625 121.183594 64.992188 36.28125 103.363281-57.699219-96.738281-54.003906c-.546876-.304688-1.109376-.5625-1.683594-.785157-28.371094 20.109376-52.269532 46.105469-69.933594 76.207032zm0 0" fill="#fff084"/><path d="m69.167969 74.40625c-13.648438 14.070312-25.621094 29.765625-35.605469 46.777344l56.152344 31.34375c-26.414063-18.03125-33.265625-51.882813-20.546875-78.121094zm0 0" fill="#ffd47c"/><path d="m98.554688 157.464844v115.398437l103.363281-57.699219v-115.398437zm0 0" fill="#ffd47c"/><path d="m1.414062 218.636719 97.140626 54.226562v-115.398437l-64.992188-36.28125c-17.117188 29.167968-28.375 62.1875-32.148438 97.453125zm0 0" fill="#ffb874"/><path d="m408.636719 215.164062-103.359375 57.699219 103.359375 57.699219 103.363281-57.699219zm0 0" fill="#fff084"/><path d="m408.636719 215.164062-103.359375 57.699219 103.359375 57.699219c-45.160157-25.210938-45.160157-90.1875 0-115.398438zm0 0" fill="#ffd47c"/><path d="m408.636719 330.5625v115.398438l96.398437-53.8125c4.300782-2.398438 6.964844-6.9375 6.964844-11.863282v-107.421875zm0 0" fill="#ffd47c"/><path d="m408.640625 330.5625v115.398438l-103.363281-57.699219v-115.398438zm0 0" fill="#ffb874"/><path d="m298.652344 45.761719-96.734375 54.003906 103.359375 57.699219 103.363281-57.699219-96.742187-54.003906c-4.113282-2.296875-9.128907-2.296875-13.246094 0zm0 0" fill="#fff084"/><path d="m298.652344 45.765625-96.734375 54 96.734375 54c-42.265625-23.59375-42.265625-84.40625 0-108zm0 0" fill="#ffd47c"/><path d="m305.277344 157.464844v115.398437l103.363281-57.699219v-115.398437zm0 0" fill="#ffd47c"/><path d="m305.277344 157.464844v115.398437l-103.363282-57.699219v-115.398437zm0 0" fill="#ffb874"/></svg>