<svg xmlns="http://www.w3.org/2000/svg" version="1.1" xmlns:xlink="http://www.w3.org/1999/xlink" xmlns:svgjs="http://svgjs.com/svgjs" x="0" y="0" viewBox="0 0 512 512" style="enable-background:new 0 0 512 512" xml:space="preserve" class=""><g><g><g><g><circle cx="256" cy="256" fill="#4f66d0" r="245" data-original="#4f66d0" class=""/></g></g><g><g><g><path d="m401.308 456.669c-2.277 0-4.525-1.033-6-2.992-2.49-3.31-1.825-8.012 1.485-10.502 46.066-34.651 75.875-85.122 83.935-142.115 8.06-56.994-6.584-113.751-41.235-159.817-12.316-16.374-26.782-30.847-42.995-43.016-3.313-2.487-3.983-7.188-1.497-10.501 2.487-3.312 7.188-3.981 10.501-1.496 17.343 13.018 32.813 28.493 45.978 45.996 37.06 49.268 52.721 109.974 44.1 170.935-8.621 60.96-40.502 114.942-89.771 152.002-1.35 1.016-2.933 1.506-4.501 1.506z" fill="#2740b0" data-original="#2740b0" class=""/></g><g><path d="m169.005 77.943c-2.769 0-5.431-1.539-6.736-4.192-1.828-3.717-.296-8.212 3.421-10.04 42.71-21.001 90.249-28.159 137.479-20.703 4.091.646 6.884 4.486 6.238 8.578-.646 4.091-4.487 6.881-8.578 6.238-44.157-6.971-88.599-.282-128.521 19.347-1.063.524-2.191.772-3.303.772z" fill="#172a7d" data-original="#172a7d"/></g><path d="m421.762 154.58c-31.083-41.324-76.361-68.063-127.492-75.295-48.942-6.919-97.684 4.831-138.008 33.109 2.676 4.708 6.288 7.324 12.562 9.572.005.002.007.006.013.008 36.405-24.123 79.781-33.996 123.333-27.836 47.164 6.67 88.931 31.338 117.605 69.459 51.546 68.527 47.104 164.141-10.563 227.349-2.792 3.06-2.574 7.804.486 10.595 1.438 1.313 3.248 1.959 5.053 1.959 2.035 0 4.063-.823 5.542-2.445 62.524-68.532 67.347-172.189 11.469-246.475z" fill="#2740b0" data-original="#2740b0" class=""/><g><g><g><path d="m140.994 446.235c-1.175 0-2.368-.277-3.48-.861-30.325-15.924-56.229-37.995-76.994-65.6-37.06-49.268-52.722-109.974-44.101-170.935 8.621-60.96 40.502-114.942 89.771-152.002 3.31-2.49 8.012-1.825 10.502 1.485s1.825 8.012-1.485 10.502c-46.066 34.651-75.875 85.122-83.935 142.115-8.06 56.994 6.584 113.751 41.235 159.817 19.419 25.816 43.636 46.453 71.98 61.336 3.667 1.926 5.079 6.46 3.153 10.127-1.341 2.556-3.949 4.016-6.646 4.016z" fill="#2740b0" data-original="#2740b0" class=""/></g><g><path d="m265.991 470.833c-3.823 0-7.09-2.91-7.458-6.793-.39-4.124 2.636-7.783 6.76-8.174 39.493-3.74 77.235-18.405 109.146-42.408 3.31-2.491 8.012-1.826 10.502 1.485 2.49 3.31 1.825 8.012-1.485 10.502-34.125 25.669-74.497 41.353-116.749 45.354-.24.022-.479.034-.716.034z" fill="#172a7d" data-original="#172a7d"/></g><g><path d="m244.772 434.583c-16.535.001-33.092-2.097-49.199-6.329-42.442-11.15-78.866-35.644-105.335-70.833-31.083-41.323-44.22-92.241-36.989-143.372s33.971-96.409 75.295-127.492c3.311-2.491 8.012-1.825 10.502 1.485s1.825 8.012-1.485 10.502c-38.122 28.675-62.79 70.441-69.459 117.605s5.449 94.133 34.124 132.255c34.604 46.005 87.831 71.319 142.556 71.323 23.269.001 46.799-4.573 69.3-14.079 3.815-1.613 8.215.174 9.827 3.99 1.612 3.815-.174 8.215-3.99 9.827-23.753 10.035-49.418 15.117-75.147 15.118z" fill="#1f3596" data-original="#1f3596"/></g><g><path d="m125.956 338.058c-2.277 0-4.525-1.032-6-2.992-20.35-27.053-31.214-59.173-31.42-92.887-.202-33.055 9.771-64.703 28.842-91.524 2.4-3.376 7.083-4.166 10.458-1.766s4.167 7.083 1.766 10.458c-17.236 24.241-26.25 52.852-26.067 82.74.186 30.469 10.01 59.503 28.408 83.962 2.49 3.31 1.825 8.012-1.485 10.502-1.351 1.016-2.933 1.507-4.502 1.507z" fill="#2740b0" data-original="#2740b0" class=""/></g></g></g><path d="m392.044 176.935c-2.49-3.31-7.192-3.975-10.502-1.485-3.311 2.49-3.975 7.192-1.485 10.502 22.699 30.177 32.292 67.357 27.013 104.692-5.042 35.657-23.088 67.409-50.988 89.966 2.476 4.987 5.716 7.818 11.327 10.118 29.79-24.846 49.049-59.344 54.513-97.983 5.841-41.303-4.77-82.432-29.878-115.81z" fill="#2740b0" data-original="#2740b0" class=""/></g></g><g><g><circle cx="256" cy="256" fill="#2740b0" r="127" data-original="#2740b0" class=""/></g></g><g><g><circle cx="256" cy="256" fill="#1f3596" r="105" data-original="#1f3596"/></g></g><g><g><circle cx="256" cy="256" fill="#172a7d" r="78" data-original="#172a7d"/></g></g><path d="m374.307 103.877c-1.007-.008-1.836-.794-1.897-1.8-2.647-43.464-4.436-45.282-47.851-48.633-1.004-.077-1.777-.919-1.769-1.926s.794-1.836 1.8-1.897c43.464-2.647 45.282-4.436 48.633-47.851.077-1.004.919-1.777 1.926-1.769s1.836.794 1.897 1.8c2.647 43.464 4.436 45.282 47.851 48.633 1.004.077 1.777.919 1.769 1.926s-.794 1.836-1.8 1.897c-43.464 2.647-45.282 4.436-48.633 47.851-.077 1.004-.919 1.777-1.926 1.769z" fill="#fed402" data-original="#fed402"/><g><path d="m357.903 44.884c-6.866 2.893-17.24 3.757-33.313 4.736-1.006.061-1.792.89-1.8 1.897s.765 1.849 1.769 1.926c43.415 3.351 45.204 5.169 47.851 48.633.061 1.006.89 1.792 1.897 1.8s1.849-.765 1.926-1.769c1.164-15.085 2.146-25.141 4.751-31.957-2.296-16.952-7.135-22.477-23.081-25.266z" fill="#fac600" data-original="#fac600"/></g><path d="m192.229 512c-1.007-.008-1.836-.794-1.897-1.8-2.647-43.464-4.436-45.282-47.851-48.633-1.005-.077-1.777-.919-1.769-1.926s.794-1.836 1.8-1.897c43.464-2.647 45.282-4.436 48.633-47.851.077-1.005.919-1.777 1.926-1.769s1.836.794 1.897 1.8c2.647 43.464 4.436 45.282 47.851 48.633 1.005.077 1.777.919 1.769 1.926s-.794 1.836-1.8 1.897c-43.464 2.647-45.282 4.436-48.633 47.851-.077 1.004-.919 1.777-1.926 1.769z" fill="#fea613" data-original="#fea613"/><g><path d="m175.849 452.997c-6.866 2.901-17.245 3.766-33.337 4.746-1.006.061-1.792.89-1.8 1.897s.765 1.849 1.769 1.926c43.415 3.351 45.204 5.169 47.851 48.633.061 1.006.89 1.792 1.897 1.8s1.849-.765 1.926-1.769c1.173-15.196 2.161-25.288 4.809-32.106-2.307-16.855-7.172-22.349-23.115-25.127z" fill="#fe9901" data-original="#fe9901"/></g><path d="m360.662 157.302c-8.054 2.885-11.475 6.306-14.36 14.36-.639 1.784-3.138 1.784-3.777 0-2.885-8.054-6.306-11.475-14.36-14.36-1.784-.639-1.784-3.138 0-3.777 8.054-2.885 11.475-6.306 14.36-14.36.639-1.784 3.138-1.784 3.777 0 2.885 8.054 6.306 11.475 14.36 14.36 1.784.639 1.784 3.138 0 3.777z" fill="#ffffff" data-original="#ffffff"/><g><path d="m349.525 164.662c-2.885-8.054-6.306-11.475-14.36-14.36-.073-.026-.125-.073-.193-.105-1.838 1.281-4.045 2.339-6.807 3.328-1.784.639-1.784 3.138 0 3.777 8.054 2.885 11.475 6.306 14.36 14.36.639 1.784 3.138 1.784 3.777 0 .989-2.762 2.047-4.97 3.328-6.807-.033-.068-.079-.12-.105-.193z" fill="#f3f0f3" data-original="#f3f0f3"/></g><path d="m169.162 124.802c-8.054 2.885-11.475 6.306-14.36 14.36-.639 1.784-3.138 1.784-3.777 0-2.885-8.054-6.306-11.475-14.36-14.36-1.784-.639-1.784-3.138 0-3.777 8.054-2.885 11.475-6.306 14.36-14.36.639-1.784 3.138-1.784 3.777 0 2.885 8.054 6.306 11.475 14.36 14.36 1.784.639 1.784 3.138 0 3.777z" fill="#ffffff" data-original="#ffffff"/><g><path d="m158.025 132.162c-2.885-8.054-6.306-11.475-14.36-14.36-.073-.026-.125-.073-.193-.105-1.838 1.281-4.045 2.339-6.807 3.328-1.784.639-1.784 3.138 0 3.777 8.054 2.885 11.475 6.306 14.36 14.36.639 1.784 3.138 1.784 3.777 0 .989-2.762 2.047-4.97 3.328-6.807-.033-.068-.079-.12-.105-.193z" fill="#f3f0f3" data-original="#f3f0f3"/></g><g fill="#fed402"><path d="m331.607 296.449-6.157 6.157c-.524.524-1.375.524-1.899 0l-6.157-6.157c-.524-.524-.524-1.375 0-1.899l6.157-6.157c.524-.524 1.375-.524 1.899 0l6.157 6.157c.524.525.524 1.375 0 1.899z" fill="#fed402" data-original="#fed402"/><path d="m170.607 213.449-6.157 6.157c-.524.524-1.375.524-1.899 0l-6.157-6.157c-.524-.524-.524-1.375 0-1.899l6.157-6.157c.524-.524 1.375-.524 1.899 0l6.157 6.157c.524.525.524 1.375 0 1.899z" fill="#fed402" data-original="#fed402"/><path d="m286.607 113.449-6.157 6.157c-.524.524-1.375.524-1.899 0l-6.157-6.157c-.524-.524-.524-1.374 0-1.899l6.157-6.157c.524-.524 1.375-.524 1.899 0l6.157 6.157c.524.525.524 1.375 0 1.899z" fill="#fed402" data-original="#fed402"/></g><path d="m185.607 384.449-6.157 6.157c-.524.524-1.375.524-1.899 0l-6.157-6.157c-.524-.524-.524-1.375 0-1.899l6.157-6.157c.524-.524 1.375-.524 1.899 0l6.157 6.157c.524.525.524 1.375 0 1.899z" fill="#ffffff" data-original="#ffffff"/><path d="m151.607 65.449-6.157 6.157c-.524.524-1.375.524-1.899 0l-6.157-6.157c-.524-.524-.524-1.374 0-1.899l6.157-6.157c.524-.524 1.375-.524 1.899 0l6.157 6.157c.524.525.524 1.375 0 1.899z" fill="#ffffff" data-original="#ffffff"/><path d="m157.736 356.337c-4.958 1.968-7.388 4.398-9.356 9.356-.669 1.685-3.048 1.685-3.717 0-1.968-4.958-4.398-7.388-9.356-9.356-1.685-.669-1.685-3.048 0-3.717 4.958-1.968 7.388-4.398 9.356-9.356.669-1.685 3.048-1.685 3.717 0 1.968 4.958 4.398 7.388 9.356 9.356 1.685.668 1.685 3.048 0 3.717z" fill="#fed402" data-original="#fed402"/><path d="m369.662 394.302c-8.054 2.885-11.475 6.306-14.36 14.36-.639 1.784-3.138 1.784-3.777 0-2.885-8.054-6.306-11.475-14.36-14.36-1.784-.639-1.784-3.138 0-3.777 8.054-2.885 11.475-6.306 14.36-14.36.639-1.784 3.138-1.784 3.777 0 2.885 8.054 6.306 11.475 14.36 14.36 1.784.639 1.784 3.138 0 3.777z" fill="#fea613" data-original="#fea613"/><g><path d="m358.698 400.836c-2.834-7.913-6.198-11.353-13.953-14.207-1.981 1.544-4.421 2.764-7.581 3.896-1.784.639-1.784 3.138 0 3.777 8.054 2.885 11.475 6.306 14.36 14.36.639 1.784 3.138 1.784 3.777 0 1.079-3.014 2.234-5.378 3.679-7.309-.11-.154-.211-.321-.282-.517z" fill="#fe9901" data-original="#fe9901"/></g></g></g></svg>