<?xml version="1.0" encoding="iso-8859-1"?>
<!-- Generator: Adobe Illustrator 19.0.0, SVG Export Plug-In . SVG Version: 6.00 Build 0)  -->
<svg version="1.1" id="Capa_1" xmlns="http://www.w3.org/2000/svg" x="0px" y="0px" viewBox="0 0 512 512" style="enable-background:new 0 0 512 512;" xml:space="preserve">
<circle style="fill:#51B0E0;" cx="256" cy="256" r="256"/>
<path style="fill:#F9F9F9;" d="M484.825,76.391v294.525c-4.399,8.746-9.289,17.209-14.629,25.349
	c-45.746,69.705-124.594,115.733-214.194,115.733S87.555,465.971,41.81,396.266c-5.339-8.14-10.23-16.603-14.629-25.349V76.391
	c0-7.011,5.674-12.696,12.685-12.696H472.13C479.141,63.696,484.825,69.38,484.825,76.391z"/>
<path style="fill:#535B70;" d="M470.197,127.957v268.309c-45.746,69.705-124.594,115.733-214.194,115.733
	S87.555,465.971,41.81,396.266V127.957L470.197,127.957L470.197,127.957z"/>
<circle style="fill:#F44E72;" cx="80.091" cy="97.134" r="15.672"/>
<circle style="fill:#FFCF4B;" cx="127.112" cy="97.134" r="15.672"/>
<circle style="fill:#4ACC9A;" cx="176.441" cy="97.134" r="15.672"/>
<path style="fill:#E8E8E8;" d="M420.975,82.247H232.903c-8.223,0-14.889,6.666-14.889,14.889l0,0
	c0,8.223,6.666,14.889,14.889,14.889h188.072c8.223,0,14.889-6.666,14.889-14.889l0,0C435.863,88.913,429.197,82.247,420.975,82.247
	z"/>
<path style="fill:#F9F9F9;" d="M121.09,307.153l55.048-35.76c1.084-0.867,2.601-1.085,4.118-1.085
	c6.501,0,14.737,6.936,14.737,15.822c0,3.683-1.517,6.934-3.902,8.452l-38.144,24.706l38.144,24.708
	c2.384,1.517,3.902,4.768,3.902,8.452c0,8.886-8.235,15.82-14.737,15.82c-1.517,0-3.034-0.216-4.118-1.084l-55.048-35.76
	c-4.984-3.251-6.718-8.451-6.718-12.136C114.372,315.604,116.106,310.404,121.09,307.153z"/>
<path style="fill:#F44E72;" d="M305.524,223.496c0,1.301-0.216,2.817-0.867,4.118l-76.288,156.258
	c-1.517,3.251-5.635,5.417-9.753,5.417c-7.369,0-12.135-6.068-12.135-11.487c0-1.3,0.433-2.817,1.084-4.118l76.07-156.257
	c1.733-3.685,5.2-5.419,9.102-5.419C298.805,212.01,305.524,216.562,305.524,223.496z"/>
<path style="fill:#F9F9F9;" d="M390.916,331.424l-55.047,35.76c-1.085,0.867-2.602,1.084-4.118,1.084
	c-6.501,0-14.737-6.934-14.737-15.82c0-3.683,1.516-6.934,3.9-8.452l38.144-24.708l-38.144-24.706c-2.384-1.517-3.9-4.768-3.9-8.452
	c0-8.886,8.235-15.822,14.737-15.822c1.516,0,3.033,0.218,4.118,1.085l55.047,35.76c4.984,3.251,6.718,8.451,6.718,12.135
	C397.635,322.973,395.901,328.173,390.916,331.424z"/>
<g>
</g>
<g>
</g>
<g>
</g>
<g>
</g>
<g>
</g>
<g>
</g>
<g>
</g>
<g>
</g>
<g>
</g>
<g>
</g>
<g>
</g>
<g>
</g>
<g>
</g>
<g>
</g>
<g>
</g>
</svg>
