<svg height="512pt" viewBox="-6 0 512 512" width="512pt" xmlns="http://www.w3.org/2000/svg"><path d="m500.757812 261.621094c0 29.3125-5.035156 57.449218-14.292968 83.589844-4.417969 12.480468-32.261719 62.683593-42.089844 74.710937-45.914062 56.199219-115.765625 92.078125-193.996094 92.078125-78.230468 0-148.082031-35.878906-193.996094-92.078125-8.492187-10.394531-36.953124-60.203125-42.085937-74.707031-9.257813-26.144532-14.296875-54.28125-14.296875-83.59375 0-138.28125 112.097656-250.378906 250.378906-250.378906s250.378906 112.097656 250.378906 250.378906zm0 0" fill="#b3e8f4"/><path d="m466.523438 388.046875v-37.660156c0-3.222657-2.621094-5.84375-5.839844-5.84375h-132.417969c-3.21875 0-5.839844 2.621093-5.839844 5.84375v48.175781c0 5.644531-4.574219 10.21875-10.21875 10.21875s-10.21875-4.574219-10.21875-10.21875v-48.175781c0-14.492188 11.789063-26.28125 26.277344-26.28125h55.988281v-58.398438c0-5.640625 4.578125-10.21875 10.222656-10.21875 5.640626 0 10.21875 4.578125 10.21875 10.21875v58.398438h55.988282c12.71875 0 23.351562 9.082031 25.761718 21.101562-5.304687 14.988281-11.996093 29.320313-19.921874 42.839844zm-294.03125-63.941406h-55.988282v-58.398438c0-5.640625-4.578125-10.21875-10.21875-10.21875-5.644531 0-10.222656 4.578125-10.222656 10.21875v58.398438h-55.988281c-12.714844 0-23.351563 9.082031-25.761719 21.101562 5.304688 14.988281 11.996094 29.316407 19.921875 42.839844v-37.660156c0-3.222657 2.621094-5.84375 5.839844-5.84375h132.417969c3.21875 0 5.839843 2.621093 5.839843 5.84375v48.175781c0 5.644531 4.574219 10.21875 10.21875 10.21875s10.21875-4.574219 10.21875-10.21875v-48.175781c0-14.492188-11.789062-26.28125-26.277343-26.28125zm208.222656-157.671875v48.175781c0 5.644531 4.578125 10.222656 10.21875 10.222656 5.644531 0 10.222656-4.578125 10.222656-10.222656v-48.175781c0-14.492188-11.789062-26.28125-26.28125-26.28125h-114.277344v-58.394532c0-5.644531-4.574218-10.222656-10.21875-10.222656-5.644531 0-10.21875 4.578125-10.21875 10.222656v58.394532h-114.277344c-14.492187 0-26.277343 11.792968-26.277343 26.28125v48.175781c0 5.644531 4.574219 10.222656 10.21875 10.222656 5.640625 0 10.21875-4.578125 10.21875-10.222656v-48.175781c0-3.222656 2.621093-5.839844 5.839843-5.839844h114.277344v84.675781c0 5.644531 4.574219 10.21875 10.21875 10.21875 5.644532 0 10.21875-4.574219 10.21875-10.21875v-84.675781h114.277344c3.222656 0 5.839844 2.617188 5.839844 5.839844zm-192.164063 283.226562c-5.644531 0-10.21875 4.574219-10.21875 10.21875 0 5.644532 4.574219 10.222656 10.21875 10.222656s10.21875-4.578124 10.21875-10.222656c0-5.644531-4.574219-10.21875-10.21875-10.21875zm0 30.660156c-5.644531 0-10.21875 4.574219-10.21875 10.21875 0 5.644532 4.574219 10.21875 10.21875 10.21875s10.21875-4.574218 10.21875-10.21875c0-5.644531-4.574219-10.21875-10.21875-10.21875zm123.65625-30.660156c-5.644531 0-10.21875 4.574219-10.21875 10.21875 0 5.644532 4.574219 10.222656 10.21875 10.222656s10.21875-4.578124 10.21875-10.222656c0-5.644531-4.574219-10.21875-10.21875-10.21875zm0 30.660156c-5.644531 0-10.21875 4.574219-10.21875 10.21875 0 5.644532 4.574219 10.21875 10.21875 10.21875s10.21875-4.574218 10.21875-10.21875c0-5.644531-4.574219-10.21875-10.21875-10.21875zm0 0" fill="#81ade2"/><path d="m301.476562 51.097656c0 28.21875-22.878906 51.097656-51.097656 51.097656s-51.097656-22.878906-51.097656-51.097656 22.878906-51.097656 51.097656-51.097656 51.097656 22.878906 51.097656 51.097656zm0 0" fill="#f43b5f"/><path d="m301.476562 51.097656c0 23.4375-15.785156 43.175782-37.300781 49.199219-21.515625-6.023437-37.300781-25.761719-37.300781-49.199219s15.785156-43.175781 37.300781-49.199218c21.515625 6.023437 37.300781 25.761718 37.300781 49.199218zm0 0" fill="#ff5284"/><path d="m223.808594 403.671875c0 19.753906-16.015625 35.769531-35.769532 35.769531-19.753906 0-35.769531-16.015625-35.769531-35.769531s16.015625-35.769531 35.769531-35.769531c19.753907 0 35.769532 16.015625 35.769532 35.769531zm88.910156-35.769531c-19.753906 0-35.769531 16.015625-35.769531 35.769531s16.015625 35.769531 35.769531 35.769531 35.769531-16.015625 35.769531-35.769531-16.015625-35.769531-35.769531-35.769531zm163.511719 0c-19.753907 0-35.765625 16.015625-35.765625 35.769531 0 5.851563 1.410156 11.367187 3.902344 16.242187 12.933593-15.832031 23.960937-33.277343 32.75-51.988281-.296876-.007812-.589844-.023437-.886719-.023437zm0 0" fill="#0573cd"/><path d="m152.269531 250.378906c0 25.398438-20.585937 45.988282-45.984375 45.988282-25.402344 0-45.988281-20.589844-45.988281-45.988282 0-25.398437 20.585937-45.988281 45.988281-45.988281 25.398438 0 45.984375 20.589844 45.984375 45.988281zm98.109375-45.988281c-25.398437 0-45.988281 20.589844-45.988281 45.988281 0 25.398438 20.589844 45.988282 45.988281 45.988282 25.398438 0 45.988282-20.589844 45.988282-45.988282 0-25.398437-20.589844-45.988281-45.988282-45.988281zm144.097656 0c-25.398437 0-45.988281 20.589844-45.988281 45.988281 0 25.398438 20.589844 45.988282 45.988281 45.988282 25.398438 0 45.988282-20.589844 45.988282-45.988282 0-25.398437-20.589844-45.988281-45.988282-45.988281zm0 0" fill="#4b9b5e"/><path d="m152.269531 250.378906c0 21.09375-14.207031 38.859375-33.570312 44.277344-19.363281-5.417969-33.570313-23.183594-33.570313-44.277344s14.207032-38.859375 33.570313-44.277344c19.363281 5.417969 33.570312 23.183594 33.570312 44.277344zm110.527344-44.277344c-19.363281 5.417969-33.570313 23.183594-33.570313 44.277344s14.207032 38.859375 33.570313 44.277344c19.363281-5.417969 33.570313-23.183594 33.570313-44.277344s-14.207032-38.859375-33.570313-44.277344zm144.09375 0c-19.363281 5.417969-33.570313 23.183594-33.570313 44.277344s14.207032 38.859375 33.570313 44.277344c19.363281-5.417969 33.574219-23.183594 33.574219-44.277344s-14.210938-38.859375-33.574219-44.277344zm0 0" fill="#15b568"/><path d="m60.296875 403.671875c0 5.851563-1.414063 11.367187-3.90625 16.242187-12.933594-15.832031-23.960937-33.277343-32.746094-51.988281.292969-.007812.585938-.023437.882813-.023437 19.753906 0 35.769531 16.015625 35.769531 35.769531zm137.402344-34.4375c-15.0625 4.214844-26.113281 18.03125-26.113281 34.4375s11.050781 30.222656 26.113281 34.4375c15.058593-4.214844 26.109375-18.03125 26.109375-34.4375s-11.050782-30.222656-26.109375-34.4375zm124.675781 0c-15.058594 4.214844-26.109375 18.03125-26.109375 34.4375s11.050781 30.222656 26.109375 34.4375c15.0625-4.214844 26.113281-18.03125 26.113281-34.4375s-11.050781-30.222656-26.113281-34.4375zm0 0" fill="#4691db"/></svg>