<svg height="512pt" viewBox="0 0 512 512" width="512pt" xmlns="http://www.w3.org/2000/svg"><path d="m511 256c0 141.386719-113.613281 255-255 255-124.03125 0-227.460938-87.207031-250.980469-204.3125-3.292969-16.382812-5.019531-33.332031-5.019531-50.6875 0-141.386719 114.613281-256 256-256 123.578125 0 226.703125 87.5625 250.722656 204.027344 3.460938 16.785156 4.277344 34.164062 4.277344 51.972656zm0 0" fill="#015081"/><path d="m506.71875 204.035156c3.460938 16.78125 4.28125 34.160156 4.28125 51.964844 0 141.386719-113.613281 255-255 255-17.484375 0-34.5625-.753906-51.0625-4.09375-100.539062-20.351562-179.703125-99.621094-199.910156-200.214844h87.441406c5.523438 0 10 4.476563 10 10v92.652344h102.46875v-92.652344c0-5.523437 4.476562-10 10-10h92.464844v-92.65625c0-5.523437 4.480468-10 10-10zm0 0" fill="#0cabb9"/><path d="m59.632812 383.261719h-16.796874c-4.527344 0-8.628907-1.804688-11.648438-4.722657-1.710938-3.132812-3.347656-6.308593-4.929688-9.515624-.132812-.847657-.21875-1.707032-.21875-2.589844v-16.832032c0-9.292968 7.519532-16.828124 16.796876-16.828124h16.796874c9.277344 0 16.800782 7.535156 16.800782 16.828124v16.832032c-.003906 9.292968-7.523438 16.828125-16.800782 16.828125zm32.835938-76.570313h-64.453125c-5.523437 0-10 4.476563-10 10v3.269532c0 3.1875 3.519531 5.054687 6.207031 3.328124 3.914063-2.515624 8.574219-3.976562 13.574219-3.976562h26.875c13.917969 0 25.199219 11.300781 25.199219 25.242188v26.925781c0 5.488281-1.75 10.566406-4.722656 14.707031-1.898438 2.648438-.011719 6.328125 3.246093 6.328125h4.074219c5.523438 0 10-4.476563 10-10v-65.824219c0-5.523437-4.476562-10-10-10zm-31.367188 115.277344h3.570313c13.917969 0 25.199219 11.300781 25.199219 25.242188v3.550781c4.089844 3.492187 8.289062 6.867187 12.597656 10.101562v-51.519531h-51.476562c3.234374 4.320312 6.613281 8.523438 10.109374 12.625zm101 13.460938h-16.796874c-9.277344 0-16.796876 7.535156-16.796876 16.828124v16.832032c0 4.457031 1.742188 8.5 4.566407 11.507812 3.25 1.785156 6.546875 3.492188 9.878906 5.136719.769531.105469 1.550781.183594 2.351563.183594h16.796874c9.277344 0 16.796876-7.535157 16.796876-16.828125v-16.832032c0-9.292968-7.519532-16.828124-16.796876-16.828124zm-31.621093-26.085938c-5.519531 0-10 4.476562-10 10v3.269531c0 3.191407 3.523437 5.058594 6.207031 3.332031 3.917969-2.519531 8.578125-3.980468 13.578125-3.980468h26.875c13.917969 0 25.199219 11.304687 25.199219 25.246094v26.925781c0 5.488281-1.75 10.566406-4.722656 14.707031-1.898438 2.644531-.011719 6.328125 3.246093 6.328125h4.074219c5.523438 0 10-4.476563 10-10v-75.828125zm0 0" fill="#2abbc7"/><path d="m506.71875 204.035156c3.460938 16.78125 5.28125 34.160156 5.28125 51.964844 0 123.777344-87.847656 227.039062-204.59375 250.835938v-97.492188h102.125v-205.308594zm0 0" fill="#e31e7f"/><path d="m437.546875 409.34375h23.460937c-3.238281 4.320312-6.613281 8.523438-10.109374 12.621094h-3.570313c-5 0-9.660156 1.460937-13.574219 3.980468-2.683594 1.726563-6.207031-.140624-6.207031-3.332031v-3.269531c0-5.523438 4.476563-10 10-10zm-112.128906 10v3.269531c0 3.191407 3.523437 5.058594 6.207031 3.332031 3.917969-2.519531 8.574219-3.980468 13.574219-3.980468h26.878906c13.914063 0 25.195313 11.304687 25.195313 25.246094v22.289062c4.292968-2.84375 8.496093-5.808594 12.601562-8.898438v-51.257812h-74.457031c-5.523438 0-10 4.476562-10 10zm41.621093 16.085938h-16.800781c-9.273437 0-16.796875 7.535156-16.796875 16.828124v16.832032c0 9.292968 7.523438 16.828125 16.796875 16.828125h16.800781c.625 0 1.246094-.042969 1.855469-.109375 3.625-1.785156 7.203125-3.648438 10.726563-5.597656 2.617187-2.964844 4.214844-6.851563 4.214844-11.121094v-16.828125c0-9.296875-7.519532-16.832031-16.796876-16.832031zm102.125-102.65625h-16.796874c-9.277344 0-16.796876 7.535156-16.796876 16.832031v16.828125c0 9.292968 7.519532 16.828125 16.796876 16.828125h16.796874c4.527344 0 8.628907-1.800781 11.648438-4.722657 1.710938-3.128906 3.347656-6.304687 4.929688-9.515624.132812-.847657.21875-1.707032.21875-2.589844v-16.828125c.003906-9.296875-7.519532-16.832031-16.796876-16.832031zm37.554688-128.738282h-69.171875c-5.523437 0-10 4.476563-10 10v3.269532c0 3.191406 3.519531 5.054687 6.207031 3.332031 3.914063-2.519531 8.574219-3.980469 13.574219-3.980469h26.875c13.917969 0 25.199219 11.300781 25.199219 25.242188v26.925781c0 5.488281-1.75 10.570312-4.722656 14.710937-1.898438 2.644532-.011719 6.324219 3.246093 6.324219h4.074219c3.460938 0 6.511719-1.757813 8.304688-4.429687 1.105468-9.660157 1.695312-19.476563 1.695312-29.429688 0-17.804688-1.820312-35.183594-5.28125-51.964844zm-54.351562 76.570313h16.796874c9.277344 0 16.800782-7.535157 16.800782-16.828125v-16.828125c0-9.296875-7.523438-16.832031-16.800782-16.832031h-16.796874c-9.277344 0-16.796876 7.535156-16.796876 16.832031v16.828125c0 9.292968 7.519532 16.828125 16.796876 16.828125zm-24.820313 36.085937v3.269532c0 3.1875 3.519531 5.054687 6.207031 3.328124 3.914063-2.515624 8.574219-3.976562 13.574219-3.976562h26.875c11.679687 0 21.5 7.960938 24.355469 18.761719 3.445312-10.1875 6.257812-20.667969 8.414062-31.386719h-69.429687c-5.519531.003906-9.996094 4.480469-9.996094 10.003906zm0 0" fill="#fd3d96"/><path d="m307.40625 506.835938c-16.609375 3.386718-33.800781 5.164062-51.40625 5.164062-17.488281 0-34.5625-1.753906-51.0625-5.09375v-190.214844c0-5.523437 4.476562-10 10-10h92.46875v-92.65625c0-5.523437 4.476562-10 10-10h92.464844v205.308594h-102.464844zm0 0" fill="#e8ce00"/><path d="m281.367188 452.257812v16.828126c0 9.296874-7.519532 16.828124-16.796876 16.828124h-16.796874c-9.277344 0-16.800782-7.53125-16.800782-16.828124v-16.828126c0-9.292968 7.523438-16.828124 16.800782-16.828124h16.796874c9.277344 0 16.796876 7.535156 16.796876 16.828124zm85.671874-119.484374h-16.800781c-9.273437 0-16.796875 7.535156-16.796875 16.832031v16.828125c0 9.292968 7.523438 16.828125 16.796875 16.828125h16.800781c9.277344 0 16.796876-7.535157 16.796876-16.828125v-16.828125c0-9.296875-7.519532-16.832031-16.796876-16.832031zm-119.265624 50.488281h16.796874c9.277344 0 16.796876-7.535157 16.796876-16.828125v-16.832032c0-9.292968-7.519532-16.828124-16.796876-16.828124h-16.796874c-9.277344 0-16.800782 7.535156-16.800782 16.828124v16.832032c0 9.292968 7.519532 16.828125 16.800782 16.828125zm102.464843-102.65625h16.800781c9.277344 0 16.796876-7.535157 16.796876-16.828125v-16.828125c0-9.296875-7.519532-16.832031-16.796876-16.832031h-16.800781c-9.273437 0-16.796875 7.535156-16.796875 16.832031v16.828125c0 9.292968 7.523438 16.828125 16.796875 16.828125zm-14.820312-76.570313c-5.523438 0-10 4.476563-10 10v3.269532c0 3.191406 3.523437 5.054687 6.207031 3.332031 3.917969-2.519531 8.574219-3.980469 13.574219-3.980469h26.878906c13.914063 0 25.195313 11.300781 25.195313 25.242188v26.925781c0 5.488281-1.75 10.570312-4.71875 14.710937-1.898438 2.644532-.011719 6.324219 3.246093 6.324219h4.070313c5.523437 0 10-4.476563 10-10v-75.824219zm-10 112.65625v3.269532c0 3.1875 3.523437 5.054687 6.207031 3.328124 3.917969-2.515624 8.574219-3.976562 13.574219-3.976562h26.878906c13.914063 0 25.195313 11.300781 25.195313 25.242188v26.925781c0 5.488281-1.75 10.566406-4.71875 14.707031-1.898438 2.648438-.011719 6.328125 3.246093 6.328125h4.074219c5.523438 0 10-4.476563 10-10v-75.824219h-74.457031c-5.523438 0-10 4.476563-10 10zm-102.46875 0v3.269532c0 3.1875 3.523437 5.054687 6.207031 3.328124 3.917969-2.515624 8.574219-3.976562 13.574219-3.976562h26.878906c13.914063 0 25.195313 11.300781 25.195313 25.242188v26.925781c0 5.488281-1.75 10.566406-4.71875 14.707031-1.898438 2.648438-.015626 6.328125 3.242187 6.328125h4.074219c5.523437 0 10-4.476563 10-10v-75.824219h-74.453125c-5.519531 0-10 4.476563-10 10zm0 102.652344v3.269531c0 3.191407 3.523437 5.058594 6.207031 3.332031 3.917969-2.519531 8.574219-3.980468 13.574219-3.980468h26.878906c13.914063 0 25.195313 11.304687 25.195313 25.246094v26.925781c0 5.488281-1.75 10.566406-4.71875 14.707031-1.898438 2.648438-.011719 6.328125 3.242187 6.328125h4.078125c5.523438 0 10-4.476563 10-10v-75.828125h-74.457031c-5.519531 0-10 4.476562-10 10zm0 0" fill="#fded32"/><path d="m340 58v82.65625c0 5.523438-4.476562 10-10 10h-92.46875v92.652344c0 5.523437-4.476562 10-10 10h-82.46875c-5.523438 0-10-4.476563-10-10v-92.652344h-92.46875c-5.523438 0-10-4.476562-10-10v-82.65625c0-5.523438 4.476562-10 10-10h287.40625c5.523438 0 10 4.476562 10 10zm0 0" fill="#7ecd00"/><path d="m211.496094 193.566406v16.832032c0 9.292968-7.523438 16.828124-16.800782 16.828124h-16.796874c-9.277344 0-16.796876-7.535156-16.796876-16.828124v-16.832032c0-9.292968 7.519532-16.828125 16.796876-16.828125h16.796874c9.277344 0 16.800782 7.535157 16.800782 16.828125zm85.667968-119.480468h-16.796874c-9.277344 0-16.796876 7.53125-16.796876 16.828124v16.828126c0 9.292968 7.519532 16.828124 16.796876 16.828124h16.796874c9.277344 0 16.800782-7.535156 16.800782-16.828124v-16.828126c0-9.296874-7.523438-16.828124-16.800782-16.828124zm-119.265624 50.484374h16.796874c9.277344 0 16.796876-7.535156 16.796876-16.828124v-16.828126c0-9.296874-7.519532-16.828124-16.796876-16.828124h-16.796874c-9.277344 0-16.796876 7.53125-16.796876 16.828124v16.828126c0 9.292968 7.519532 16.828124 16.796876 16.828124zm-85.671876-50.484374h-16.796874c-9.277344 0-16.796876 7.53125-16.796876 16.828124v16.828126c0 9.292968 7.519532 16.828124 16.796876 16.828124h16.796874c9.277344 0 16.800782-7.535156 16.800782-16.828124v-16.828126c0-9.296874-7.519532-16.828124-16.800782-16.828124zm-41.617187-16.085938v3.269531c0 3.191407 3.523437 5.054688 6.207031 3.332031 3.917969-2.519531 8.574219-3.980468 13.574219-3.980468h26.878906c13.914063 0 25.195313 11.300781 25.195313 25.242187v26.925781c0 5.488282-1.75 10.570313-4.71875 14.710938-1.898438 2.644531-.015625 6.324219 3.242187 6.324219h4.074219c5.523438 0 10-4.476563 10-10v-75.824219h-74.453125c-5.523437 0-10 4.476562-10 10zm102.46875 0v3.269531c0 3.191407 3.523437 5.054688 6.207031 3.332031 3.914063-2.519531 8.574219-3.980468 13.574219-3.980468h26.875c13.917969 0 25.199219 11.300781 25.199219 25.242187v26.925781c0 5.488282-1.75 10.570313-4.71875 14.710938-1.902344 2.644531-.015625 6.324219 3.242187 6.324219h4.074219c5.523438 0 10-4.476563 10-10v-75.824219h-74.453125c-5.523437 0-10 4.476562-10 10zm176.921875-10h-64.453125c-5.523437 0-10 4.476562-10 10v3.269531c0 3.191407 3.519531 5.054688 6.207031 3.332031 3.914063-2.519531 8.574219-3.980468 13.574219-3.980468h26.875c13.917969 0 25.199219 11.300781 25.199219 25.242187v26.925781c0 5.488282-1.75 10.570313-4.722656 14.710938-1.898438 2.644531-.011719 6.324219 3.246093 6.324219h4.074219c5.523438 0 10-4.476563 10-10v-65.824219c0-5.523438-4.476562-10-10-10zm-176.921875 112.65625v3.269531c0 3.1875 3.523437 5.054688 6.207031 3.328125 3.914063-2.515625 8.574219-3.976562 13.574219-3.976562h26.875c13.917969 0 25.199219 11.300781 25.199219 25.242187v26.925781c0 5.488282-1.75 10.566407-4.71875 14.707032-1.902344 2.648437-.015625 6.328125 3.242187 6.328125h4.074219c5.523438 0 10-4.476563 10-10v-75.824219h-74.457031c-5.519531 0-9.996094 4.476562-9.996094 10zm0 0" fill="#a1e52e"/></svg>