<?xml version="1.0" encoding="iso-8859-1"?>
<!-- Generator: Adobe Illustrator 19.0.0, SVG Export Plug-In . SVG Version: 6.00 Build 0)  -->
<svg version="1.1" id="Capa_1" xmlns="http://www.w3.org/2000/svg" x="0px" y="0px" viewBox="0 0 512 512" style="enable-background:new 0 0 512 512;" xml:space="preserve">
<path style="fill:#FFD15C;" d="M512,256c0,29.759-5.078,58.347-14.42,84.919c-8.338,23.74-20.083,45.871-34.649,65.829
	c-7.607,10.418-15.977,20.25-25.046,29.393c-21.922,22.141-47.867,40.302-76.643,53.29C329.143,503.933,293.512,512,256,512
	c-85.034,0-160.371-41.451-206.932-105.253c-14.566-19.958-26.311-42.089-34.649-65.829c-7.471-21.243-12.204-43.76-13.803-67.145
	C0.209,267.901,0,261.977,0,256c0-4.148,0.094-8.265,0.303-12.361v-0.01C4.336,158.626,49.831,84.49,117.018,40.981
	c16.457-10.658,34.21-19.487,52.976-26.175c13.897-4.953,28.348-8.746,43.238-11.243C227.14,1.223,241.424,0,256,0
	c35.244,0,68.817,7.116,99.37,19.999c2.299,0.972,4.566,1.975,6.834,3.009c0,0,0,0,0.01,0c14.649,6.687,28.557,14.712,41.566,23.928
	C469.264,93.309,512,169.66,512,256z"/>
<path style="fill:#494B5B;" d="M480.36,69.949V353.21H31.64V69.949c0-11.357,9.198-20.556,20.556-20.556h407.611
	C471.151,49.392,480.36,58.591,480.36,69.949z"/>
<path style="fill:#5C5E70;" d="M497.58,340.919c-8.338,23.74-20.083,45.871-34.649,65.829H49.068
	c-14.566-19.958-26.311-42.089-34.649-65.829H497.58z"/>
<path style="fill:#E8DBC4;" d="M454.531,88.074v226.461c0,5.559-4.503,10.062-10.062,10.062H67.532
	c-5.559,0-10.062-4.504-10.062-10.062V88.074c0-5.569,4.504-10.073,10.062-10.073h376.936
	C450.027,78.002,454.531,82.505,454.531,88.074z"/>
<path style="fill:#D6C8B0;" d="M266.824,164.331h-95.837c-6.141,0-11.119,4.978-11.119,11.119v95.837
	c0,6.141,4.978,11.119,11.119,11.119h95.837c6.141,0,11.119-4.978,11.119-11.119V175.45
	C277.943,169.309,272.965,164.331,266.824,164.331z"/>
<path style="fill:#FF525D;" d="M286.677,141.343H190.84c-6.141,0-11.119,4.978-11.119,11.119v95.837
	c0,6.141,4.978,11.119,11.119,11.119h95.837c6.141,0,11.119-4.978,11.119-11.119v-95.837
	C297.796,146.321,292.818,141.343,286.677,141.343z"/>
<path style="fill:#797B89;" d="M316.91,374.356H195.09c-11.949,0-21.637-9.687-21.637-21.637v-11.8h165.094v11.8
	C338.547,364.668,328.86,374.356,316.91,374.356z"/>
<path style="fill:#F9EED7;" d="M454.531,88.074v33.155H57.469V88.074c0-5.569,4.504-10.073,10.062-10.073h376.936
	C450.027,78.002,454.531,82.505,454.531,88.074z"/>
<polygon style="fill:#5C5E70;" points="267.272,220.639 287.478,310.786 303.02,268.821 341.877,268.821 "/>
<circle style="fill:#FF525D;" cx="79.935" cy="98.503" r="8.359"/>
<circle style="fill:#FFD15C;" cx="106.58" cy="98.503" r="8.359"/>
<circle style="fill:#4BC999;" cx="133.224" cy="98.503" r="8.359"/>
<g>
</g>
<g>
</g>
<g>
</g>
<g>
</g>
<g>
</g>
<g>
</g>
<g>
</g>
<g>
</g>
<g>
</g>
<g>
</g>
<g>
</g>
<g>
</g>
<g>
</g>
<g>
</g>
<g>
</g>
</svg>
