<svg xmlns="http://www.w3.org/2000/svg" version="1.1" xmlns:xlink="http://www.w3.org/1999/xlink" xmlns:svgjs="http://svgjs.com/svgjs" x="0" y="0" viewBox="0 0 512 512" style="enable-background:new 0 0 512 512" xml:space="preserve" class=""><g><path d="m512 256c0 141.386719-114.613281 256-256 256s-256-114.613281-256-256 114.613281-256 256-256 256 114.613281 256 256zm0 0" fill="#fded32" data-original="#fded32" class=""/><path d="m66.589844 349.023438c0 6.0625-4.914063 10.976562-10.976563 10.976562s-10.976562-4.914062-10.976562-10.976562 4.914062-10.976563 10.976562-10.976563 10.976563 4.914063 10.976563 10.976563zm265.617187 64.519531h-6.769531c-18.292969 0-33.414062 13.855469-35.414062 31.625-.242188 2.136719 1.429687 4.015625 3.582031 4.015625h14.570312c1.691407 0 3.1875-1.164063 3.53125-2.824219 1.308594-6.378906 6.96875-11.195313 13.730469-11.195313h6.769531c7.742188 0 14.015625 6.277344 14.015625 14.019532v.40625c0 5.28125-2.941406 10.164062-7.679687 12.503906-7.269531 3.585938-13.375 9.125-17.644531 16.011719-4.25 6.855469-6.5 14.746093-6.5 22.8125v4.382812c7.363281-1.714843 14.59375-3.761719 21.695312-6.097656.609375-7.589844 5.207031-14.304687 12.097656-17.761719 5.886719-2.957031 10.832032-7.472656 14.304688-13.074218 3.5-5.644532 5.347656-12.136719 5.347656-18.777344v-.40625c0-19.683594-15.953125-35.640625-35.636719-35.640625zm-270-180h-6.769531c-18.292969 0-33.414062 13.855469-35.414062 31.625-.242188 2.136719 1.429687 4.015625 3.582031 4.015625h14.570312c1.691407 0 3.1875-1.164063 3.53125-2.824219 1.308594-6.378906 6.96875-11.195313 13.730469-11.195313h6.769531c7.742188 0 14.015625 6.277344 14.015625 14.019532v.40625c0 5.28125-2.941406 10.164062-7.679687 12.503906-7.269531 3.585938-13.375 9.125-17.644531 16.011719-4.25 6.855469-6.5 14.746093-6.5 22.8125v5.164062c0 1.988281 1.613281 3.601563 3.605468 3.601563h14.414063c1.988281 0 3.605469-1.613282 3.605469-3.601563v-5.164062c0-8.285157 4.761718-15.761719 12.167968-19.476563 5.886719-2.957031 10.832032-7.472656 14.304688-13.074218 3.5-5.644532 5.347656-12.136719 5.347656-18.777344v-.40625c0-19.683594-15.953125-35.640625-35.636719-35.640625zm0 0" fill="#e8ce00" data-original="#e8ce00"/><path d="m446.589844 355.480469c0 6.058593-4.914063 10.976562-10.976563 10.976562s-10.976562-4.917969-10.976562-10.976562c0-6.0625 4.914062-10.976563 10.976562-10.976563s10.976563 4.914063 10.976563 10.976563zm-4.382813-115.480469h-6.769531c-18.292969 0-33.414062 13.855469-35.414062 31.621094-.242188 2.140625 1.429687 4.015625 3.582031 4.015625h14.570312c1.691407 0 3.1875-1.164063 3.53125-2.820313 1.308594-6.378906 6.96875-11.195312 13.730469-11.195312h6.769531c7.742188 0 14.015625 6.277344 14.015625 14.015625v.40625c0 5.28125-2.941406 10.167969-7.679687 12.503906-7.269531 3.585937-13.375 9.125-17.644531 16.015625-4.25 6.855469-6.5 14.742188-6.5 22.808594v5.164062c0 1.992188 1.613281 3.605469 3.605468 3.605469h14.414063c1.988281 0 3.605469-1.613281 3.605469-3.605469v-5.164062c0-8.28125 4.761718-15.757813 12.167968-19.472656 5.886719-2.957032 10.832032-7.472657 14.304688-13.074219 3.5-5.644531 5.347656-12.140625 5.347656-18.78125v-.40625c0-19.679688-15.953125-35.636719-35.636719-35.636719zm0 0" fill="#fff5f5" data-original="#fff5f5"/><path d="m190 98.910156v.628906c0 10.316407-2.875 20.40625-8.308594 29.175782-5.394531 8.699218-13.078125 15.71875-22.226562 20.308594-11.5 5.773437-18.90625 17.386718-18.90625 30.257812v8.023438c0 3.09375-2.503906 5.597656-5.597656 5.597656h-22.390626c-3.09375 0-5.597656-2.503906-5.597656-5.597656v-8.023438c0-12.53125 3.488282-24.785156 10.09375-35.4375 6.632813-10.699219 16.117188-19.308594 27.410156-24.878906 7.359376-3.628906 11.933594-11.21875 11.933594-19.425782v-.628906c0-12.027344-9.75-21.773437-21.773437-21.773437h-10.519531c-10.507813 0-19.300782 7.476562-21.332032 17.390625-.527344 2.574218-2.859375 4.382812-5.484375 4.382812h-22.632812c-3.34375 0-5.941407-2.914062-5.566407-6.238281.640626-5.703125 2.164063-11.167969 4.410157-16.214844 11.382812-11.566406 23.824219-22.027343 37.21875-31.273437 4.28125-1.066406 8.78125-1.636719 13.386719-1.636719h10.519531c30.574219-.003906 55.363281 24.785156 55.363281 55.363281zm-65.609375 106.984375c-9.417969 0-17.050781 7.636719-17.050781 17.054688s7.632812 17.050781 17.050781 17.050781 17.054687-7.636719 17.054687-17.054688c0-9.417968-7.636718-17.050781-17.054687-17.050781zm0 0" fill="#6bae01" data-original="#6bae01"/><path d="m446.023438 118.894531v1.128907c0 18.429687-5.132813 36.449218-14.84375 52.113281-9.640626 15.542969-23.359376 28.082031-39.699219 36.277343-20.546875 10.3125-33.769531 31.058594-33.769531 54.046876v14.332031c0 5.523437-4.476563 10-10 10h-40c-5.523438 0-10-4.476563-10-10v-14.332031c0-22.386719 6.234374-44.273438 18.03125-63.300782 11.851562-19.113281 28.785156-34.488281 48.960937-44.4375 13.148437-6.484375 21.320313-20.039062 21.320313-34.699218v-1.128907c0-21.480469-17.414063-38.894531-38.898438-38.894531h-18.789062c-18.765626 0-34.472657 13.359375-38.105469 31.066406-.941407 4.597656-5.101563 7.828125-9.796875 7.828125h-40.425782c-5.976562 0-10.613281-5.203125-9.945312-11.140625 5.554688-49.304687 47.507812-87.753906 98.273438-87.753906h18.789062c54.621094 0 98.898438 44.277344 98.898438 98.894531zm0 0" fill="#e31e7f" data-original="#e31e7f"/><path d="m349.722656 20.035156c-53.335937 1.378906-96.304687 45.195313-96.304687 98.859375h-13.410157c-5.976562 0-10.613281-5.203125-9.941406-11.140625 5.550782-49.304687 47.503906-87.753906 98.269532-87.753906h18.789062c.871094 0 1.734375.011719 2.597656.035156zm21.382813 59.964844h-18.792969c-.871094 0-1.738281.039062-2.59375.09375 20.269531 1.335938 36.304688 18.191406 36.304688 38.800781v1.128907c0 14.660156-8.171876 28.214843-21.320313 34.699218-20.175781 9.949219-37.109375 25.324219-48.960937 44.4375-11.796876 19.027344-18.03125 40.914063-18.03125 63.300782v14.332031c0 5.523437 4.476562 10 10 10h13.976562v-24.332031c0-22.386719 6.285156-43.582032 18.3125-62.460938 18-28.25 68-28.25 70-79.976562v-1.128907c0-21.480469-17.414062-38.894531-38.894531-38.894531zm-42.277344 230c-16.820313 0-30.460937 13.636719-30.460937 30.460938 0 16.820312 13.640624 30.460937 30.460937 30.460937 16.824219 0 30.460937-13.640625 30.460937-30.460937 0-16.824219-13.636718-30.460938-30.460937-30.460938zm0 0" fill="#c2186c" data-original="#c2186c"/><path d="m359.289062 340.460938c0 12.320312-7.316406 22.925781-17.839843 27.722656-10.523438-4.796875-17.839844-15.402344-17.839844-27.722656 0-12.320313 7.316406-22.925782 17.839844-27.722657 10.523437 4.796875 17.839843 15.402344 17.839843 27.722657zm0 0" fill="#e31e7f" data-original="#e31e7f"/><path d="m275.28125 320.097656v.855469c0 14.035156-3.910156 27.757813-11.304688 39.683594-7.335937 11.835937-17.785156 21.378906-30.226562 27.625-15.648438 7.851562-25.714844 23.648437-25.714844 41.152343v10.914063c0 4.203125-3.410156 7.613281-7.613281 7.613281h-30.460937c-4.203126 0-7.613282-3.40625-7.613282-7.613281v-10.914063c0-17.046874 4.746094-33.710937 13.730469-48.199218 9.023437-14.554688 21.917969-26.261719 37.28125-33.839844 10.011719-4.9375 16.234375-15.257812 16.234375-26.421875v-.855469c0-16.359375-13.261719-29.617187-29.617188-29.617187h-14.308593c-14.289063 0-26.246094 10.171875-29.015625 23.65625-.714844 3.5-3.882813 5.960937-7.457032 5.960937h-30.785156c-4.550781 0-8.082031-3.964844-7.570312-8.484375 4.226562-37.546875 36.171875-66.820312 74.828125-66.820312h14.308593c41.589844 0 75.304688 33.714843 75.304688 75.304687zm0 0" fill="#0995a3" data-original="#0995a3" class=""/><path d="m209.238281 488.804688c0 12.8125-10.386719 23.195312-23.195312 23.195312-12.808594 0-23.191407-10.382812-23.191407-23.195312 0-12.808594 10.382813-23.191407 23.191407-23.191407 12.8125 0 23.195312 10.382813 23.195312 23.191407zm-9.261719-244.011719h-14.308593c-38.65625 0-70.601563 29.273437-74.828125 66.820312-.511719 4.519531 3.019531 8.484375 7.570312 8.484375h10.210938c0-40.863281 32.71875-74.230468 73.332031-75.28125-.65625-.015625-1.316406-.023437-1.976563-.023437zm18.257813 45.6875h-14.308594c-.664062 0-1.320312.027343-1.976562.070312 15.4375 1.015625 27.644531 13.851563 27.644531 29.546875v.855469c0 11.164063-6.222656 21.484375-16.234375 26.421875-15.363281 7.578125-28.257813 19.28125-37.28125 33.839844-8.980469 14.484375-13.730469 31.152344-13.730469 48.199218v10.914063c0 4.207031 3.410156 7.613281 7.617188 7.613281h10.640625v-18.527344c0-17.042968 4.785156-33.183593 13.945312-47.558593 13.707031-21.511719 51.777344-21.511719 53.300781-60.898438v-.859375c0-16.359375-13.261718-29.617187-29.617187-29.617187zm0 0" fill="#00808a" data-original="#00808a" class=""/><path d="m209.238281 488.804688c0 9.382812-5.574219 17.457031-13.585937 21.109374-8.011719-3.652343-13.585938-11.726562-13.585938-21.109374 0-9.378907 5.574219-17.453126 13.585938-21.109376 8.011718 3.65625 13.585937 11.730469 13.585937 21.109376zm0 0" fill="#0995a3" data-original="#0995a3" class=""/></g></svg>