<svg height="512pt" viewBox="0 0 512.00048 512" width="512pt" xmlns="http://www.w3.org/2000/svg"><path d="m511.980469 252.726562c1.089843 87.355469-41.578125 164.800782-107.464844 211.808594-.414063.296875-.941406.371094-1.429687.222656-2.855469-.867187-5.882813-1.339843-9.023438-1.339843-14.785156 0-27.152344 10.351562-30.25 24.203125-.09375.429687-.375.792968-.773438.976562-32.433593 14.949219-68.515624 23.332032-106.554687 23.402344-141.128906.261719-256.484375-114.871094-256.484375-256 0-141.382812 114.613281-256 256-256 140.5 0 254.222656 112.234375 255.980469 252.726562zm0 0" fill="#84deea"/><path d="m138.074219 28.734375 333.671875 89.40625c4.394531 6.863281 8.46875 13.949219 12.207031 21.234375l-88.839844 331.550781c-7.671875 4.976563-15.628906 9.550781-23.839843 13.699219l-329.371094-88.253906c-5.019532-7.644532-9.65625-15.5625-13.851563-23.746094l88.835938-331.550781c6.84375-4.4375 13.914062-8.558594 21.1875-12.339844zm0 0" fill="#013f69"/><path d="m60.195312 401.273438-18.292968-4.902344c-5.019532-7.644532-9.660156-15.5625-13.855469-23.746094l88.839844-331.546875c6.84375-4.441406 13.914062-8.5625 21.1875-12.34375l21.234375 5.691406c-.324219.210938-.660156.410157-.984375.621094zm0 0" fill="#012d4e"/><path d="m87.28125 122.792969 26.398438-98.523438c1.429687-5.335937 6.914062-8.5 12.25-7.070312l98.523437 26.398437c5.332031 1.429688 8.5 6.914063 7.070313 12.246094l-26.398438 98.527344c-1.429688 5.332031-6.914062 8.5-12.25 7.070312l-98.523438-26.402344c-5.335937-1.429687-8.5-6.910156-7.070312-12.246093zm82.644531 162.941406 26.398438-98.523437c1.429687-5.332032-1.734375-10.816407-7.070313-12.246094l-98.523437-26.402344c-5.335938-1.425781-10.820313 1.738281-12.25 7.074219l-26.398438 98.523437c-1.429687 5.332032 1.734375 10.816406 7.070313 12.246094l98.523437 26.398438c5.335938 1.429687 10.816407-1.734376 12.25-7.070313zm282.921875-40.140625-98.523437-26.398438c-5.335938-1.429687-10.816407 1.734376-12.246094 7.070313l-26.402344 98.523437c-1.429687 5.335938 1.738281 10.820313 7.070313 12.25l98.527344 26.398438c5.332031 1.429688 10.816406-1.738281 12.246093-7.070312l26.402344-98.523438c1.425781-5.335938-1.738281-10.820312-7.074219-12.25zm-166.996094 96.050781-98.523437-26.398437c-5.335937-1.429688-10.820313 1.734375-12.25 7.070312l-26.398437 98.523438c-1.429688 5.335937 1.734374 10.820312 7.070312 12.25l98.523438 26.398437c5.335937 1.429688 10.820312-1.738281 12.25-7.070312l26.398437-98.527344c1.429687-5.332031-1.734375-10.816406-7.070313-12.246094zm0 0" fill="#fd3d96"/><path d="m196.324219 187.210938-21.222657 79.207031c-1.429687 5.332031-6.914062 8.5-12.25 7.070312l-58.488281-15.671875c-16.003906-4.289062-25.5-20.738281-21.214843-36.742187l16.046874-59.886719c1.429688-5.335938 6.914063-8.5 12.25-7.070312l77.808594 20.847656c5.332032 1.429687 8.5 6.910156 7.070313 12.246094zm-56.761719-60.761719 58.492188 15.671875c5.332031 1.429687 10.816406-1.734375 12.246093-7.070313l21.222657-79.207031c1.429687-5.335938-1.738282-10.816406-7.070313-12.246094l-77.808594-20.851562c-5.335937-1.429688-10.820312 1.738281-12.246093 7.070312l-16.046876 59.890625c-4.289062 16.003907 5.207032 32.453125 21.210938 36.742188zm146.289062 215.195312-77.808593-20.847656c-5.335938-1.429687-10.816407 1.734375-12.246094 7.070313l-16.050781 59.886718c-4.285156 16.003906 5.210937 32.453125 21.214844 36.742188l58.488281 15.671875c5.335937 1.429687 10.820312-1.738281 12.25-7.070313l21.222656-79.207031c1.429687-5.332031-1.734375-10.816406-7.070313-12.246094zm166.996094-96.050781-77.808594-20.847656c-5.335937-1.429688-10.816406 1.734375-12.246093 7.070312l-16.046875 59.886719c-4.289063 16.003906 5.207031 32.453125 21.214844 36.742187l58.488281 15.671876c5.332031 1.429687 10.816406-1.738282 12.246093-7.070313l21.222657-79.207031c1.429687-5.332032-1.734375-10.816406-7.070313-12.246094zm0 0" fill="#fd5ca6"/><path d="m324.675781 196.753906-98.527343-26.398437c-5.332032-1.429688-8.5-6.914063-7.070313-12.246094l26.402344-98.523437c1.425781-5.335938 6.910156-8.5 12.246093-7.074219l98.523438 26.402343c5.335938 1.429688 8.5 6.914063 7.070312 12.246094l-26.398437 98.523438c-1.429687 5.335937-6.914063 8.5-12.246094 7.070312zm92.972657 180.207032-98.523438-26.402344c-5.335938-1.429688-10.816406 1.738281-12.246094 7.070312l-26.402344 98.523438c-1.425781 5.335937 1.738282 10.820312 7.074219 12.25l75.445313 20.214844c14.644531-6.746094 28.550781-14.824219 41.546875-24.101563l20.179687-75.308594c1.425782-5.335937-1.738281-10.816406-7.074218-12.246093zm0 0" fill="#e8ce00"/><path d="m329.851562 177.4375-58.492187-15.671875c-16.003906-4.289063-25.5-20.738281-21.210937-36.742187l16.046874-59.886719c1.425782-5.335938 6.910157-8.5 12.246094-7.070313l77.808594 20.847656c5.335938 1.429688 8.5 6.914063 7.070312 12.246094l-21.222656 79.207032c-1.429687 5.332031-6.914062 8.5-12.246094 7.070312zm87.796876 199.523438-77.808594-20.851563c-5.332032-1.429687-10.816406 1.738281-12.246094 7.070313l-16.046875 59.886718c-4.289063 16.003906 5.210937 32.457032 21.214844 36.742188l56.125 15.039062c5.347656-3.253906 10.570312-6.703125 15.652343-10.332031l20.179688-75.308594c1.429688-5.335937-1.734375-10.816406-7.070312-12.246093zm0 0" fill="#fded32"/><path d="m161.125 318.578125-26.398438 98.523437c-1.429687 5.332032-6.914062 8.5-12.25 7.070313l-98.523437-26.398437c-5.335937-1.429688-8.5-6.914063-7.070313-12.25l26.398438-98.523438c1.429688-5.332031 6.914062-8.5 12.246094-7.070312l98.527344 26.398437c5.332031 1.429687 8.5 6.914063 7.070312 12.25zm326.921875-204.351563-98.523437-26.398437c-5.335938-1.429687-10.816407 1.738281-12.246094 7.070313l-26.398438 98.527343c-1.429687 5.335938 1.734375 10.816407 7.070313 12.246094l98.523437 26.398437c5.335938 1.429688 10.816406-1.734374 12.246094-7.070312l26.398438-98.523438c1.429687-5.335937-1.734376-10.820312-7.070313-12.25zm-166.996094 96.050782-98.523437-26.398438c-5.335938-1.429687-10.820313 1.738282-12.25 7.070313l-26.398438 98.523437c-1.429687 5.335938 1.734375 10.820313 7.070313 12.25l98.523437 26.398438c5.335938 1.429687 10.820313-1.738282 12.25-7.070313l26.398438-98.527343c1.429687-5.332032-1.734375-10.816407-7.070313-12.246094zm0 0" fill="#6bae01"/><path d="m161.125 318.578125-21.222656 79.203125c-1.429688 5.335938-6.914063 8.5-12.25 7.070312l-58.488282-15.671874c-16.003906-4.285157-25.5-20.738282-21.214843-36.742188l16.046875-59.886719c1.429687-5.332031 6.914062-8.5 12.25-7.070312l77.808594 20.851562c5.332031 1.425781 8.5 6.910157 7.070312 12.246094zm326.921875-204.351563-77.808594-20.847656c-5.332031-1.429687-10.816406 1.738282-12.246093 7.070313l-16.046876 59.886719c-4.289062 16.003906 5.207032 32.457031 21.210938 36.742187l58.492188 15.671875c5.332031 1.429688 10.816406-1.734375 12.246093-7.070312l21.222657-79.207032c1.429687-5.332031-1.734376-10.816406-7.070313-12.246094zm-166.996094 96.050782-77.808593-20.847656c-5.335938-1.429688-10.816407 1.734374-12.246094 7.070312l-16.046875 59.886719c-4.289063 16.003906 5.207031 32.453125 21.210937 36.742187l58.488282 15.671875c5.335937 1.429688 10.820312-1.734375 12.25-7.070312l21.222656-79.207031c1.429687-5.332032-1.734375-10.816407-7.070313-12.246094zm0 0" fill="#7ecd00"/></svg>