<?xml version="1.0" encoding="iso-8859-1"?>
<!-- Generator: Adobe Illustrator 19.0.0, SVG Export Plug-In . SVG Version: 6.00 Build 0)  -->
<svg version="1.1" id="Capa_1" xmlns="http://www.w3.org/2000/svg" x="0px" y="0px" viewBox="0 0 512 512" style="enable-background:new 0 0 512 512;" xml:space="preserve">
<circle style="fill:#FFCF4B;" cx="256" cy="256" r="256"/>
<path style="fill:#6E7789;" d="M347.359,43.456v451.762c-5.298,2.027-10.668,3.877-16.123,5.548
	c-23.792,7.304-49.048,11.233-75.233,11.233c-16.53,0-32.695-1.567-48.347-4.556c-68.127-13.03-126.673-53.049-164.059-108.513
	c-5.925-8.777-11.316-17.941-16.123-27.449V43.456c0-11.306,9.153-20.47,20.47-20.47h278.946
	C338.195,22.987,347.359,32.15,347.359,43.456z"/>
<path style="fill:#D6D6D6;" d="M331.236,93.319v407.447c-4.472,1.379-9.007,2.633-13.584,3.762
	c-19.749,4.88-40.396,7.471-61.649,7.471c-16.53,0-32.695-1.567-48.347-4.556C147.292,495.897,94.451,463.16,57.18,417.268
	c-4.786-5.893-9.32-12.016-13.584-18.338V93.319c0-6.74,5.465-12.204,12.204-12.204h263.231c0.742,0,1.463,0.073,2.163,0.199
	C326.899,82.337,331.236,87.321,331.236,93.319z"/>
<path style="fill:#E8E8E8;" d="M317.652,94.698v409.83c-19.749,4.88-40.396,7.471-61.649,7.471c-16.53,0-32.695-1.567-48.347-4.556
	C147.292,495.897,94.451,463.16,57.18,417.268V94.698H317.652z"/>
<g>
	<path style="fill:#42495B;" d="M241.59,60.479H133.241c-4.986,0-9.029-4.043-9.029-9.029l0,0c0-4.986,4.043-9.029,9.029-9.029
		H241.59c4.986,0,9.029,4.043,9.029,9.029l0,0C250.619,56.437,246.576,60.479,241.59,60.479z"/>
	<path style="fill:#42495B;" d="M486.205,368.137c-10.177,20.856-23.103,40.114-38.306,57.313c-2.173,2.456-4.389,4.869-6.656,7.241
		c-26.028,27.282-58.023,48.828-93.884,62.527c-5.298,2.027-10.668,3.877-16.123,5.548c-23.792,7.304-49.048,11.233-75.233,11.233
		c-16.53,0-32.695-1.567-48.347-4.556c-3.866-0.742-7.701-1.567-11.494-2.476V120.476c0-6.74,5.465-12.204,12.204-12.204h263.231
		c0.742,0,1.463,0.073,2.163,0.199c5.705,1.014,10.041,5.998,10.041,12.006v226.701
		C481.419,353.415,482.788,360.551,486.205,368.137z"/>
</g>
<path style="fill:#535B70;" d="M495.295,120.476v226.701c-11.055,28.985-27.22,55.442-47.397,78.273
	c-2.173,2.456-4.389,4.869-6.656,7.241c-12.121,12.716-25.548,24.179-40.061,34.189c-0.397,0.272-0.794,0.543-1.202,0.825
	c-41.023,27.951-90.593,44.293-143.976,44.293c-16.53,0-32.695-1.567-48.347-4.556V120.476c0-6.74,5.465-12.204,12.204-12.204
	h263.231c0.742,0,1.463,0.073,2.163,0.199C490.959,109.483,495.295,114.468,495.295,120.476z"/>
<rect x="243.325" y="147.769" style="fill:#3CBC9A;" width="78.306" height="17.402"/>
<rect x="243.325" y="182.774" style="fill:#6A4BBF;" width="36.125" height="17.402"/>
<g>
	<rect x="243.325" y="217.788" style="fill:#3CBC9A;" width="78.306" height="17.402"/>
	<rect x="243.325" y="252.792" style="fill:#3CBC9A;" width="78.306" height="17.402"/>
	<rect x="243.325" y="345.276" style="fill:#3CBC9A;" width="78.306" height="17.402"/>
</g>
<rect x="243.325" y="380.28" style="fill:#6A4BBF;" width="36.125" height="17.402"/>
<rect x="243.325" y="415.295" style="fill:#3CBC9A;" width="78.306" height="17.402"/>
<rect x="243.325" y="450.299" style="fill:#6A4BBF;" width="36.125" height="17.402"/>
<rect x="293.042" y="450.299" style="fill:#FCFCFC;" width="63.391" height="17.402"/>
<path style="fill:#F44E72;" d="M401.181,450.298v16.583c-0.397,0.272-0.794,0.543-1.202,0.825h-30.501v-17.408H401.181z"/>
<g>
	<rect x="337.168" y="147.769" style="fill:#51B0E0;" width="39.153" height="17.402"/>
	<rect x="293.355" y="182.774" style="fill:#51B0E0;" width="119.944" height="17.402"/>
</g>
<g>
	<rect x="337.168" y="217.788" style="fill:#FCFCFC;" width="126.767" height="17.402"/>
	<rect x="337.168" y="252.792" style="fill:#FCFCFC;" width="19.884" height="17.402"/>
</g>
<rect x="368.859" y="252.792" style="fill:#F44E72;" width="52.204" height="17.402"/>
<rect x="337.168" y="345.276" style="fill:#51B0E0;" width="56.55" height="17.402"/>
<rect x="293.355" y="380.28" style="fill:#FCFCFC;" width="77.375" height="17.402"/>
<rect x="382.84" y="380.28" style="fill:#51B0E0;" width="59.977" height="17.402"/>
<path style="fill:#FCFCFC;" d="M447.899,415.294v10.156c-2.173,2.456-4.389,4.869-6.656,7.241H337.171v-17.398H447.899z"/>
<g>
</g>
<g>
</g>
<g>
</g>
<g>
</g>
<g>
</g>
<g>
</g>
<g>
</g>
<g>
</g>
<g>
</g>
<g>
</g>
<g>
</g>
<g>
</g>
<g>
</g>
<g>
</g>
<g>
</g>
</svg>
