<?xml version="1.0" encoding="iso-8859-1"?>
<!-- Generator: Adobe Illustrator 19.0.0, SVG Export Plug-In . SVG Version: 6.00 Build 0)  -->
<svg version="1.1" id="Capa_1" xmlns="http://www.w3.org/2000/svg" x="0px" y="0px" viewBox="0 0 512 512" style="enable-background:new 0 0 512 512;" xml:space="preserve">
<path style="fill:#43A0D8;" d="M437.65,436.374C483.602,390.098,512,326.368,512,256C512,114.615,397.385,0,256,0S0,114.615,0,256
	c0,70.368,28.398,134.098,74.35,180.374H437.65z"/>
<path style="fill:#C66A42;" d="M74.35,436.374C120.727,483.076,184.983,512,256,512s135.273-28.924,181.65-75.626H74.35z"/>
<path style="fill:#B45729;" d="M245.001,436.374H74.35c43.478,43.783,102.67,71.941,168.416,75.29
	C194.061,509.183,196.233,436.374,245.001,436.374z"/>
<path style="fill:#515A71;" d="M490.523,74.505c0-15.39-12.522-27.912-27.912-27.912c-16.183,0-394.069,0-414.286,0
	c-15.39,0-27.913,12.522-27.913,27.912V356.32c5.652,13.255,12.385,25.937,20.096,37.932c2.482,0.725,5.103,1.122,7.816,1.122
	c20,0,395.786,0,414.286,0c3.207,0,6.286-0.551,9.157-1.551c7.124-11.13,13.395-22.855,18.755-35.071L490.523,74.505L490.523,74.505
	z"/>
<path style="fill:#41485D;" d="M77.425,74.505c0-15.39,12.522-27.912,27.913-27.912c-31.085,0-52.594,0-57.013,0
	c-15.39,0-27.913,12.522-27.913,27.912V356.32c5.652,13.255,12.385,25.937,20.096,37.932c2.482,0.725,5.103,1.122,7.816,1.122
	c2.908,0,13.345,0,29.1,0L77.425,74.505L77.425,74.505z"/>
<path style="fill:#F7F7F7;" d="M49.41,168.236v190.762c0,4.075,3.304,7.379,7.378,7.379c12.63,0,380.421,0,397.358,0
	c4.075,0,7.378-3.304,7.378-7.379V168.236H49.41z"/>
<path style="fill:#DFE1E5;" d="M395.272,259.329v107.048c33.189,0,55.899,0,58.875,0c4.075,0,7.378-3.304,7.378-7.379v-99.669
	H395.272z"/>
<path style="fill:#D2D3D6;" d="M428.399,259.329h-33.127v107.048c12.773,0,23.985,0,33.127,0V259.329z"/>
<path style="fill:#F7F7F7;" d="M41.195,395.295c14.389,22.144,32.102,41.926,52.442,58.632h324.725
	c20.341-16.705,38.053-36.488,52.442-58.632H41.195z"/>
<path style="fill:#DFE1E5;" d="M157.787,395.295v16.494c0,7.052,5.744,12.822,12.764,12.822h170.897
	c7.02,0,12.764-5.77,12.764-12.822v-16.494H157.787z"/>
<path style="fill:#D2D3D6;" d="M225.388,411.788v-16.494h-67.601v16.494c0,7.052,5.744,12.822,12.764,12.822h67.601
	C231.132,424.611,225.388,418.841,225.388,411.788z"/>
<path style="fill:#616B84;" d="M458.889,77.32c-0.062-0.052-0.127-0.1-0.191-0.151c-0.618-0.485-1.315-0.872-2.07-1.141
	c-0.776-0.277-1.609-0.437-2.48-0.437c-8.069,0-387.568,0-397.358,0c-3.98,0-7.378,3.239-7.378,7.378v55.987h412.115V82.97
	C461.526,80.701,460.5,78.673,458.889,77.32z"/>
<path style="fill:#515A71;" d="M77.425,75.591c-11.958,0-19.375,0-20.636,0c-3.98,0-7.379,3.239-7.379,7.378v55.987h28.015V75.591z"
	/>
<rect x="395.27" y="169.3" style="fill:#6BCAF9;" width="66.25" height="30.343"/>
<rect x="395.27" y="199.42" style="fill:#57B5E9;" width="66.25" height="30.343"/>
<rect x="395.27" y="229.76" style="fill:#43A0D8;" width="66.25" height="30.343"/>
<rect x="395.27" y="169.3" style="fill:#57B5E9;" width="33.13" height="30.343"/>
<rect x="395.27" y="199.42" style="fill:#43A0D8;" width="33.13" height="30.343"/>
<rect x="395.27" y="229.76" style="fill:#238CC1;" width="33.13" height="30.343"/>
<rect x="49.41" y="138.96" style="fill:#41485D;" width="412.12" height="30.343"/>
<rect x="49.41" y="138.96" style="fill:#FEC63B;" width="53.657" height="30.343"/>
<rect x="49.41" y="138.96" style="fill:#F3A225;" width="28.02" height="30.343"/>
<path style="fill:#40C488;" d="M258.912,206.855h-67.047c-1.329,0-2.407,1.078-2.407,2.407v116.664c0,1.33,1.078,2.407,2.407,2.407
	h67.047c1.329,0,2.407-1.078,2.407-2.407V209.262C261.318,207.933,260.241,206.855,258.912,206.855z"/>
<path style="fill:#DFE1E5;" d="M156.725,169.299v197.077c-53.66,0-94.548,0-99.936,0c-4.075,0-7.378-3.304-7.378-7.379V169.299
	H156.725z"/>
<path style="fill:#D2D3D6;" d="M77.425,169.299H49.411v189.698c0,4.075,3.304,7.379,7.379,7.379c2.068,0,9.387,0,20.636,0
	L77.425,169.299L77.425,169.299z"/>
<g>
	<path style="fill:#F7F7F7;" d="M129.966,243.02h-28.021c-4.406,0-7.977-3.571-7.977-7.977s3.572-7.977,7.977-7.977h28.021
		c4.406,0,7.977,3.571,7.977,7.977C137.944,239.449,134.372,243.02,129.966,243.02z"/>
	<path style="fill:#F7F7F7;" d="M129.966,271.264h-28.021c-4.406,0-7.977-3.571-7.977-7.977s3.572-7.977,7.977-7.977h28.021
		c4.406,0,7.977,3.571,7.977,7.977S134.372,271.264,129.966,271.264z"/>
	<path style="fill:#F7F7F7;" d="M129.966,214.838H77.185c-4.406,0-7.977-3.571-7.977-7.977s3.572-7.977,7.977-7.977h52.781
		c4.406,0,7.977,3.571,7.977,7.977C137.944,211.267,134.372,214.838,129.966,214.838z"/>
	<path style="fill:#F7F7F7;" d="M129.966,299.51h-28.021c-4.406,0-7.977-3.571-7.977-7.977c0-4.406,3.572-7.977,7.977-7.977h28.021
		c4.406,0,7.977,3.571,7.977,7.977C137.944,295.939,134.372,299.51,129.966,299.51z"/>
	<path style="fill:#F7F7F7;" d="M129.966,327.756h-28.021c-4.406,0-7.977-3.571-7.977-7.977s3.572-7.977,7.977-7.977h28.021
		c4.406,0,7.977,3.571,7.977,7.977S134.372,327.756,129.966,327.756z"/>
	<path style="fill:#F7F7F7;" d="M77.185,243.02h-0.198c-4.406,0-7.977-3.571-7.977-7.977s3.572-7.977,7.977-7.977h0.198
		c4.406,0,7.977,3.571,7.977,7.977C85.162,239.449,81.591,243.02,77.185,243.02z"/>
	<path style="fill:#F7F7F7;" d="M77.185,271.264h-0.198c-4.406,0-7.977-3.571-7.977-7.977s3.572-7.977,7.977-7.977h0.198
		c4.406,0,7.977,3.571,7.977,7.977S81.591,271.264,77.185,271.264z"/>
	<path style="fill:#F7F7F7;" d="M77.185,299.51h-0.198c-4.406,0-7.977-3.571-7.977-7.977c0-4.406,3.572-7.977,7.977-7.977h0.198
		c4.406,0,7.977,3.571,7.977,7.977C85.162,295.939,81.591,299.51,77.185,299.51z"/>
	<path style="fill:#F7F7F7;" d="M77.185,327.756h-0.198c-4.406,0-7.977-3.571-7.977-7.977s3.572-7.977,7.977-7.977h0.198
		c4.406,0,7.977,3.571,7.977,7.977S81.591,327.756,77.185,327.756z"/>
</g>
<g>
	<path style="fill:#37B77A;" d="M258.912,206.855h-67.047c-1.329,0-2.407,1.078-2.407,2.407v43.404h71.86v-43.404
		C261.318,207.933,260.241,206.855,258.912,206.855z"/>
	<path style="fill:#37B77A;" d="M225.388,325.927V209.262c0-1.329,1.078-2.407,2.407-2.407h-35.93c-1.329,0-2.407,1.078-2.407,2.407
		v116.664c0,1.33,1.078,2.407,2.407,2.407h35.93C226.466,328.334,225.388,327.256,225.388,325.927z"/>
</g>
<path style="fill:#1DA862;" d="M227.795,206.855h-35.93c-1.329,0-2.407,1.078-2.407,2.407v43.404h35.93v-43.404
	C225.388,207.933,226.466,206.855,227.795,206.855z"/>
<path style="fill:#FEC63B;" d="M361.379,206.855h-67.047c-1.329,0-2.407,1.078-2.407,2.407v116.664c0,1.33,1.078,2.407,2.407,2.407
	h67.047c1.329,0,2.407-1.078,2.407-2.407V209.262C363.786,207.933,362.708,206.855,361.379,206.855z"/>
<g>
	<path style="fill:#F3A225;" d="M361.379,206.855h-67.047c-1.329,0-2.407,1.078-2.407,2.407v43.404h71.86v-43.404
		C363.786,207.933,362.708,206.855,361.379,206.855z"/>
	<path style="fill:#F3A225;" d="M327.855,325.927V209.262c0-1.329,1.078-2.407,2.407-2.407h-35.93c-1.329,0-2.407,1.078-2.407,2.407
		v116.664c0,1.33,1.078,2.407,2.407,2.407h35.93C328.933,328.334,327.855,327.256,327.855,325.927z"/>
</g>
<path style="fill:#E08610;" d="M330.262,206.855h-35.93c-1.329,0-2.407,1.078-2.407,2.407v43.404h35.93v-43.404
	C327.855,207.933,328.933,206.855,330.262,206.855z"/>
<path style="fill:#F55479;" d="M85.403,115.651c-4.494,0-7.977-3.706-7.977-7.977c0-3.693,2.566-7.028,6.424-7.828
	c4.936-0.992,9.53,2.797,9.53,7.828C93.38,112.155,89.735,115.651,85.403,115.651z"/>
<path style="fill:#FEC63B;" d="M115.663,115.651c-4.315,0-7.977-3.51-7.977-7.977c0-5.017,4.587-8.8,9.541-7.828
	c3.868,0.803,6.413,4.143,6.413,7.828C123.64,112.125,119.991,115.651,115.663,115.651z"/>
<path style="fill:#40C488;" d="M145.945,115.651c-4.297,0-7.977-3.479-7.977-7.977c0-3.759,2.597-7.036,6.413-7.828
	c4.951-0.972,9.541,2.806,9.541,7.828C153.922,112.012,150.379,115.651,145.945,115.651z"/>
<path style="fill:#7D899E;" d="M354.212,115.648H182.41c-4.406,0-7.977-3.571-7.977-7.977s3.572-7.977,7.977-7.977h171.802
	c4.406,0,7.977,3.571,7.977,7.977S358.617,115.648,354.212,115.648z"/>
<path style="fill:#DFE1E5;" d="M69.067,424.611c0-12.494,6.743-23.406,16.784-29.316H41.195
	c8.438,12.985,18.026,25.15,28.609,36.367C69.324,429.386,69.067,427.029,69.067,424.611z"/>
<g>
</g>
<g>
</g>
<g>
</g>
<g>
</g>
<g>
</g>
<g>
</g>
<g>
</g>
<g>
</g>
<g>
</g>
<g>
</g>
<g>
</g>
<g>
</g>
<g>
</g>
<g>
</g>
<g>
</g>
</svg>
