<?xml version="1.0" encoding="iso-8859-1"?>
<!-- Generator: Adobe Illustrator 19.0.0, SVG Export Plug-In . SVG Version: 6.00 Build 0)  -->
<svg version="1.1" id="Capa_1" xmlns="http://www.w3.org/2000/svg" x="0px" y="0px" viewBox="0 0 512 512" style="enable-background:new 0 0 512 512;" xml:space="preserve">
<circle style="fill:#5C5E70;" cx="255.997" cy="255.998" r="255.997"/>
<path style="fill:#C69A6A;" d="M512,256.001c0,41.315-9.791,80.362-27.177,114.916c-4.399,8.746-9.289,17.209-14.628,25.349
	c-5.433,8.276-11.337,16.227-17.669,23.792c-46.957,56.194-117.56,91.939-196.522,91.939c-16.948,0-33.509-1.651-49.538-4.786
	c-7.649-1.505-15.172-3.344-22.559-5.507c-49.256-14.43-92.357-43.269-124.435-81.647c-6.332-7.565-12.225-15.517-17.659-23.792
	c-5.339-8.14-10.229-16.603-14.628-25.349C9.797,336.363,0.006,297.315,0.006,256.001s9.791-80.362,27.177-114.916
	C42.042,111.566,62.438,85.308,87.024,63.7C132.111,24.046,191.241,0.004,256.003,0.004S379.895,24.046,424.982,63.7
	c24.586,21.608,44.982,47.866,59.841,77.384C502.209,175.638,512,214.686,512,256.001z"/>
<path style="fill:#34ABE0;" d="M484.819,76.396v294.522c-4.399,8.746-9.289,17.209-14.628,25.349
	C424.446,465.971,345.599,511.998,256,511.998S87.554,465.971,41.809,396.267c-5.339-8.14-10.229-16.603-14.628-25.349V76.396
	c0-7.011,5.674-12.695,12.685-12.695h432.259C479.135,63.701,484.819,69.385,484.819,76.396z"/>
<path style="fill:#FCF8F2;" d="M470.191,127.961v268.306C424.446,465.971,345.599,511.998,256,511.998
	S87.554,465.971,41.809,396.267V127.961L470.191,127.961L470.191,127.961z"/>
<circle style="fill:#FF525D;" cx="80.09" cy="97.145" r="15.672"/>
<circle style="fill:#FFD15C;" cx="127.11" cy="97.145" r="15.672"/>
<circle style="fill:#4BC999;" cx="176.439" cy="97.145" r="15.672"/>
<path style="fill:#78CAEF;" d="M420.97,82.253H232.9c-8.223,0-14.889,6.666-14.889,14.889l0,0c0,8.223,6.666,14.889,14.889,14.889
	h188.07c8.223,0,14.889-6.666,14.889-14.889l0,0C435.858,88.918,429.192,82.253,420.97,82.253z"/>
<circle style="fill:none;stroke:#D6C8B0;stroke-width:9;stroke-miterlimit:10;" cx="147.862" cy="301.942" r="27.689"/>
<path style="fill:#FFD15C;" d="M108.034,348.992c-1.155,0-2.312-0.423-3.22-1.277c-1.891-1.779-1.983-4.755-0.204-6.647
	l20.854-22.176c1.78-1.891,4.755-1.982,6.647-0.204c1.891,1.779,1.983,4.755,0.204,6.647l-20.854,22.176
	C110.535,348.496,109.287,348.992,108.034,348.992z"/>
<circle style="fill:#78CAEF;" cx="147.862" cy="301.942" r="27.689"/>
<path style="fill:#5C5E70;" d="M147.832,334.336c-8.274,0-16.11-3.101-22.165-8.795c-6.303-5.928-9.92-13.954-10.187-22.602
	c-0.265-8.648,2.853-16.882,8.779-23.185c12.235-13.01,32.775-13.643,45.787-1.406c13.012,12.236,13.642,32.776,1.406,45.787
	c-5.927,6.303-13.953,9.92-22.602,10.187C148.512,334.33,148.172,334.336,147.832,334.336z M147.865,278.967
	c-6.125,0-12.236,2.425-16.753,7.229c-8.684,9.234-8.236,23.811,0.998,32.494c4.472,4.206,10.294,6.41,16.454,6.231
	c6.138-0.189,11.833-2.756,16.04-7.229l0,0c4.207-4.473,6.42-10.316,6.231-16.454c-0.189-6.138-2.755-11.834-7.229-16.04
	C159.176,281.032,153.513,278.967,147.865,278.967z"/>
<circle style="fill:#94DEF7;" cx="158.133" cy="294.628" r="7.314"/>
<path style="fill:#D6C8B0;" d="M435.023,301.943c0,13.291-10.773,24.064-24.064,24.064H216.433c-6.645,0-12.664-2.696-17.021-7.053
	c-4.357-4.347-7.053-10.365-7.053-17.011c0-13.291,10.783-24.064,24.074-24.064H410.96c6.645,0,12.664,2.696,17.011,7.053
	C432.328,289.279,435.023,295.298,435.023,301.943z"/>
<g>
	<path style="fill:#FF525D;" d="M174.283,203.434c0-6.214-16.279-5.136-16.279-17.153c0-7.703,6.727-10.631,13.147-10.631
		c2.722,0,10.219,0.514,10.219,4.519c0,1.387-0.924,4.211-3.184,4.211c-1.849,0-2.824-1.952-7.035-1.952
		c-3.646,0-5.136,1.489-5.136,3.081c0,5.136,16.279,4.16,16.279,17.102c0,7.395-5.392,11.401-12.839,11.401
		c-6.727,0-12.377-3.287-12.377-6.677c0-1.746,1.541-4.313,3.493-4.313c2.414,0,3.954,3.8,8.729,3.8
		C171.663,206.824,174.283,205.899,174.283,203.434z"/>
	<path style="fill:#FF525D;" d="M199.39,191.623h7.703c1.541,0,2.415,1.489,2.415,3.133c0,1.387-0.719,3.03-2.415,3.03h-7.703v8.73
		h13.763c1.541,0,2.414,1.644,2.414,3.543c0,1.644-0.719,3.441-2.414,3.441h-18.282c-1.746,0-3.492-0.821-3.492-2.465v-32.61
		c0-1.644,1.746-2.465,3.492-2.465h18.282c1.695,0,2.414,1.797,2.414,3.441c0,1.901-0.872,3.544-2.414,3.544H199.39V191.623z"/>
	<path style="fill:#FF525D;" d="M221.62,210.214c0-0.154,0.052-0.359,0.103-0.565l9.552-31.327c0.565-1.797,2.876-2.671,5.238-2.671
		c2.364,0,4.674,0.874,5.239,2.671l9.602,31.327c0.052,0.205,0.103,0.411,0.103,0.565c0,1.9-2.928,3.287-5.136,3.287
		c-1.284,0-2.311-0.411-2.62-1.489l-1.746-6.42h-10.835l-1.746,6.42c-0.308,1.078-1.335,1.489-2.62,1.489
		C224.548,213.5,221.62,212.113,221.62,210.214z M240.262,199.428l-3.749-13.763l-3.748,13.763H240.262z"/>
	<path style="fill:#FF525D;" d="M259.567,178.373c0-1.284,0.976-2.414,2.464-2.414h10.631c7.035,0,12.634,2.62,12.634,10.99
		c0,5.751-2.62,9.038-6.214,10.425l6.265,11.35c0.206,0.308,0.257,0.668,0.257,0.925c0,2.003-2.671,4.16-5.032,4.16
		c-1.027,0-2.003-0.411-2.567-1.489l-7.035-13.661h-3.39v12.377c0,1.644-2.003,2.465-4.006,2.465c-2.002,0-4.005-0.821-4.005-2.465
		v-32.662H259.567z M267.578,182.944v9.552h5.083c2.877,0,4.623-1.182,4.623-4.776c0-3.594-1.746-4.776-4.623-4.776H267.578z"/>
	<path style="fill:#FF525D;" d="M306.911,182.944c-2.928,0-4.623,1.644-4.623,5.136v13.609c0,3.492,1.695,5.136,4.674,5.136
		c4.108,0,4.366-3.133,4.519-5.136c0.154-1.9,1.9-2.414,3.954-2.414c2.773,0,4.057,0.719,4.057,3.8
		c0,6.83-5.546,10.733-12.89,10.733c-6.727,0-12.325-3.287-12.325-12.12V188.08c0-8.833,5.597-12.12,12.325-12.12
		c7.343,0,12.89,3.698,12.89,10.22c0,3.081-1.284,3.8-4.005,3.8c-2.157,0-3.903-0.565-4.006-2.414
		C311.43,186.23,311.277,182.944,306.911,182.944z"/>
	<path style="fill:#FF525D;" d="M346.911,197.118h-10.219v13.917c0,1.644-2.003,2.465-4.006,2.465c-2.002,0-4.005-0.821-4.005-2.465
		v-32.661c0-1.695,2.003-2.414,4.005-2.414c2.003,0,4.006,0.719,4.006,2.414v12.583h10.219v-12.583c0-1.695,2.003-2.414,4.006-2.414
		c2.003,0,4.005,0.719,4.005,2.414v32.661c0,1.644-2.002,2.465-4.005,2.465c-2.003,0-4.006-0.821-4.006-2.465V197.118z"/>
</g>
<g>
</g>
<g>
</g>
<g>
</g>
<g>
</g>
<g>
</g>
<g>
</g>
<g>
</g>
<g>
</g>
<g>
</g>
<g>
</g>
<g>
</g>
<g>
</g>
<g>
</g>
<g>
</g>
<g>
</g>
</svg>
