<svg xmlns="http://www.w3.org/2000/svg" version="1.1" xmlns:xlink="http://www.w3.org/1999/xlink" xmlns:svgjs="http://svgjs.com/svgjs" x="0" y="0" viewBox="0 0 510 510" style="enable-background:new 0 0 512 512" xml:space="preserve" class=""><g><g xmlns="http://www.w3.org/2000/svg"><g><path d="m510 255c0-140.833-114.167-255-255-255-98.131 0-158.58 55.352-158.747 55.445 0 0-2.513 3.137-2.983 5.222-3.818 16.948-7.385 39.663-7.385 56.238 0 140.833 118.763 254.972 259.596 254.972 54.231 0 114.568-25.992 154.949-57.243.903-.699 3.769-5.396 3.769-5.396.178-1.086 5.801-23.476 5.801-54.238z" fill="#dff6fd" data-original="#dff6fd" class=""/><path d="m345.459 364.679c-140.833 0-255-114.167-255-255 0-18.615 2.008-36.753 5.795-54.234-58.645 46.72-96.254 118.747-96.254 199.555 0 17.604 1.784 34.792 5.181 51.391l313.91 195.464c92.027-23.863 164.599-97.943 185.109-192.617-43.56 34.696-98.725 55.441-158.741 55.441z" fill="#c4e2ff" data-original="#c4e2ff" class=""/></g><g><path d="m510 185.466c0-102.43-83.036-185.466-185.466-185.466-71.372 0-115.338 40.258-115.459 40.326 0 0-1.828 2.281-2.17 3.798-2.777 12.327-5.371 28.848-5.371 40.903 0 102.43 86.379 185.445 188.808 185.445 39.443 0 83.327-18.904 112.697-41.634.657-.508 2.742-3.925 2.742-3.925.129-.789 4.219-17.074 4.219-39.447z" fill="#fd3581" data-original="#fd3581" class=""/><g><path d="m505.781 224.914c-31.681 25.235-71.804 40.323-115.455 40.323-102.43 0-185.466-83.036-185.466-185.466 0-13.539 1.46-26.731 4.215-39.445-.004.003.004-.003 0 0-42.653 33.98-70.007 86.367-70.007 145.139 0 102.43 83.036 185.466 185.466 185.466 88.129.001 163.004-61.807 181.247-146.017z" fill="#e41e7f" data-original="#e41e7f" class=""/></g></g><g><path d="m170.301 205.628c-71.372 0-115.338 40.258-115.459 40.326 0 0-1.828 2.281-2.17 3.798-2.777 12.327-5.371 28.848-5.371 40.903 0 102.43 86.378 185.445 188.808 185.445 39.443 0 83.327-18.904 112.697-41.634.657-.508 2.742-3.925 2.742-3.925.129-.79 4.219-17.075 4.219-39.449 0-102.428-83.036-185.464-185.466-185.464z" fill="#fef48b" data-original="#fef48b" class=""/><path d="m140.437 208.024c11.131 91.789 89.304 162.908 184.097 162.908 10.153 0 20.127-.83 29.862-2.411-11.138-91.782-89.308-162.892-184.095-162.892-10.576-.001-20.545.889-29.864 2.395z" fill="#00f2a6" data-original="#00f2a6" class=""/><path d="m50.628 285.4c0-13.539 1.46-26.731 4.215-39.445-20.548 16.37-37.53 37.02-49.628 60.588 23.835 116.123 126.61 203.457 249.785 203.457 22.09 0 43.57-2.837 64.087-8.157 15.484-20.765 26.749-44.934 32.461-71.3-31.681 25.235-71.804 40.323-115.455 40.323-102.429 0-185.465-83.036-185.465-185.466z" fill="#ffe177" data-original="#ffe177" class=""/></g></g></g></svg>