<svg xmlns="http://www.w3.org/2000/svg" version="1.1" xmlns:xlink="http://www.w3.org/1999/xlink" xmlns:svgjs="http://svgjs.com/svgjs" x="0" y="0" viewBox="0 0 512 512" style="enable-background:new 0 0 512 512" xml:space="preserve"><g><g><path d="m266.731 175.792c131.495 0 185.974-54.858 185.976-54.86-44.654-60.036-116.136-98.932-196.707-98.932-56.931 0-109.323 19.422-150.922 51.996.001.002 30.158 101.796 161.653 101.796z" fill="#85faf4" data-original="#85faf4"/><path d="m298.388 135.895c-8.816-10.68-24.441-13.573-36.647-6.778-2.532 1.409-5.83.396-7.09-2.17-8.594-17.505-33.221-21.234-46.833-7.098-2.001 2.078-5.353 2.259-7.395.22-9.107-9.097-23.545-11.121-34.929-4.736-2.432 1.364-5.607.469-6.909-1.957-6.086-11.341-19.352-17.191-31.984-14.347-2.866.646-5.754-1.21-6.164-4.055-1.338-9.305-7.356-16.92-15.36-20.977-24.982 19.563-46.067 43.87-61.905 71.566 15.107 9.445 26.04 22.757 35.066 33.764 9.222 11.246 16.706 20.376 24.941 20.374.96 0 1.93-.124 2.914-.383 16.034-4.221 29.905 6.139 35.126 10.79l2.255-2.02c-1.889-2.41-2.234-4.962-1.055-7.804 8.983-21.659 95.675-49.584 155.969-64.389z" fill="#60b550" data-original="#60b550"/><g><path d="m105.479 177.187c2.861.274 5.346-2.094 5.396-5.032.219-12.947 9.036-24.456 21.493-27.692 2.665-.692 4.284-3.566 3.533-6.251-3.517-12.57 1.86-26.121 12.85-32.823.632-.386 1.139-.892 1.522-1.469-6.655-4.824-15.296-6.779-23.672-4.893-2.866.646-5.754-1.21-6.164-4.055-1.338-9.305-7.356-16.92-15.36-20.977-24.982 19.563-46.067 43.87-61.905 71.566 15.107 9.445 26.04 22.757 35.066 33.764 1.71 2.085 3.358 4.095 4.964 5.989 5.774-5.686 13.802-8.94 22.277-8.127z" fill="#389f4d" data-original="#389f4d"/></g><path d="m155.486 215.577c-3.669-1.418-6.606-2.925-8.813-4.514l-1.533.735s-17.604-19.68-39.447-13.93c-16.066 4.229-29.363-33.42-61.753-53.633-20.942 36.098-32.94 78.029-32.94 122.765 0 27.827 4.648 54.566 13.195 79.494 3.131-1.609 6.289-3.23 9.489-4.872 71.975-36.926 146.398-75.109 144.814-104.031-.486-8.895-8.228-16.301-23.012-22.014z" fill="#85d249" data-original="#85d249"/><g><path d="m202.119 71.093c-.56 0-1.127-.062-1.697-.192-7.463-1.698-13.441-6.112-17.447-9.939-4.947 3.331-9.704 4.678-10.443 4.875-4.066 1.081-8.236-1.338-9.317-5.403-1.078-4.051 1.323-8.209 5.364-9.306 1.637-.459 6.453-2.369 9.133-5.685 1.506-1.863 3.787-2.908 6.192-2.824 2.394.085 4.608 1.29 5.977 3.254 1.639 2.306 7.375 8.687 13.921 10.177 4.101.933 6.67 5.014 5.736 9.116-.804 3.532-3.943 5.927-7.419 5.927z" fill="#b2381b" data-original="#b2381b"/></g><g><path d="m202.105 71.093c-3.476 0-6.615-2.395-7.419-5.927-.933-4.101 1.635-8.182 5.736-9.116 6.545-1.49 12.281-7.87 13.939-10.203 1.38-1.943 3.601-3.141 5.982-3.214 2.342-.072 4.669.957 6.168 2.811 2.682 3.319 7.506 5.23 9.139 5.686 4.033 1.127 6.423 5.305 5.321 9.345s-5.239 6.438-9.28 5.363c-.739-.197-5.496-1.545-10.443-4.875-4.006 3.827-9.983 8.241-17.446 9.939-.568.129-1.138.191-1.697.191z" fill="#d85e41" data-original="#d85e41"/></g><g><path d="m286.452 31.793c-.56 0-1.127-.062-1.697-.191-9.542-2.171-17.185-8.234-22-13.056-6.346 4.649-12.834 6.489-13.782 6.741-4.065 1.081-8.236-1.338-9.317-5.403-1.078-4.054 1.326-8.214 5.37-9.308.203-.057 7.985-2.292 12.394-7.747 1.505-1.863 3.799-2.906 6.192-2.824 2.394.085 4.608 1.29 5.977 3.254.064.09 7.946 11.08 18.545 13.492 4.101.933 6.669 5.014 5.736 9.116-.803 3.531-3.942 5.926-7.418 5.926z" fill="#b2381b" data-original="#b2381b"/></g><g><path d="m286.438 31.793c-3.475 0-6.615-2.395-7.419-5.927-.933-4.101 1.635-8.182 5.736-9.116 10.563-2.404 18.468-13.382 18.545-13.492 1.369-1.964 3.584-3.169 5.977-3.254 2.363-.081 4.686.961 6.192 2.824 4.385 5.426 12.284 7.718 12.362 7.738 4.065 1.081 6.483 5.252 5.402 9.317-1.08 4.065-5.249 6.484-9.317 5.403-.948-.252-7.436-2.091-13.782-6.741-4.815 4.822-12.458 10.885-22 13.056-.567.13-1.137.192-1.696.192z" fill="#d85e41" data-original="#d85e41"/></g><path d="m33.684 341.622c26.419-13.554 53.163-27.277 76.362-40.649.727-1.03 1.364-1.997 1.896-2.892 11.692-19.67 15.808-40.33-27.628-61.83s0-51.973 0-51.973c-10.018-11.844-22.186-28.691-40.373-40.04-20.943 36.095-32.941 78.026-32.941 122.762 0 27.827 4.648 54.566 13.195 79.494 3.131-1.609 6.289-3.23 9.489-4.872z" fill="#60b550" data-original="#60b550"/><path d="m435.963 122.809h-61.491c-10.566 0-21.11.76-31.561 2.28-57.584 8.376-258.24 64.733-187.99 91.883 69.914 27.02-40.702 81.563-131.22 128.081 22.062 65.686 71.206 118.926 134.16 146.481 2.714-5.149 7.174-9.391 12.786-11.962 8.196-3.756 17.636-3.392 25.248.976 1.566.899 3.476 1.12 5.242.606 1.76-.513 3.231-1.715 4.034-3.3 5.493-10.821 17.887-16.578 29.776-14.26-6.516-9.322-17.802-18.188-35.489-26.371-121.518-56.222 280.294-186.271 138.217-220.251-157.458-37.66 98.288-94.163 98.288-94.163z" fill="#64b6ec" data-original="#64b6ec"/><path d="m170.648 479.571c8.196-3.756 17.636-3.392 25.248.976 1.566.899 3.476 1.12 5.242.606 1.76-.513 3.231-1.715 4.034-3.3 5.493-10.821 17.887-16.578 29.776-14.26-6.516-9.322-17.802-18.188-35.489-26.371-60.019-27.768 7.626-73.547 74.35-116.864-1.698-1.409-3.895-2.21-6.247-2.104-25.939 1.17-57.596-11.489-43.311-40.505 16-32.5-47.277-38.57-47.277-38.57-1.263 29.132-83.275 69.902-153.271 105.873 22.062 65.686 71.206 118.926 134.16 146.481 2.713-5.148 7.173-9.39 12.785-11.962z" fill="#3188ca" data-original="#3188ca"/><path d="m452.706 120.932c-5.484-.134-11.102.449-16.743 1.877-6.167.044-255.927 56.949-100.336 94.162 142.077 33.981-259.735 164.03-138.217 220.252 17.467 8.081 28.685 16.828 35.238 26.023 1.814.196 3.628.569 5.416 1.141 1.723.551 3.55.415 5.146-.383 1.613-.806 2.808-2.192 3.366-3.903 2.592-7.965 8.817-14.133 17.079-16.923 8.269-2.792 17.065-1.701 24.135 2.995 1.516 1.006 3.411 1.346 5.199.931 1.824-.423 3.393-1.586 4.308-3.192 3.816-6.707 10.506-11.457 18.352-13.031 7.828-1.571 15.875.21 22.071 4.89 1.517 1.146 3.457 1.612 5.335 1.279 1.826-.325 3.429-1.393 4.399-2.932 3.831-6.077 10.116-10.46 17.244-12.024 1.797-.395 3.373-1.486 4.32-2.996.93-1.478 1.201-3.217.764-4.897-1.879-7.227-.483-14.982 3.831-21.275 4.323-6.305 11.136-10.528 18.695-11.585 1.75-.245 3.293-1.147 4.344-2.54 1.083-1.435 1.519-3.207 1.228-4.988-1.623-9.936 2.833-19.787 11.632-25.71 8.798-5.923 19.812-6.484 28.743-1.467 1.582.889 3.43 1.098 5.206.586 1.771-.51 3.268-1.715 4.107-3.306 3.846-7.296 10.901-12.343 19.359-13.847 8.447-1.502 16.856.783 23.065 6.269.267.236.556.441.853.629 6.596-22.173 10.155-45.653 10.155-69.967 0-54.739-17.957-105.281-48.294-146.068z" fill="#a3ea6e" data-original="#a3ea6e"/><path d="m292.989 447.103c1.824-.423 3.393-1.586 4.308-3.192 3.816-6.707 10.506-11.457 18.352-13.031 7.828-1.571 15.875.21 22.071 4.89 1.517 1.146 3.458 1.612 5.335 1.279 1.826-.325 3.43-1.393 4.399-2.932 3.831-6.077 10.116-10.46 17.244-12.024 1.797-.395 3.372-1.486 4.32-2.996.93-1.478 1.201-3.217.764-4.897-1.879-7.227-.483-14.982 3.831-21.275 2.682-3.912 6.324-7.021 10.508-9.071-18.124-11.684-16.727-31.173-56.039-26.437-39.789 4.794-48.993-18.081-51.024-31.312-.421-2.746-2.023-5.052-4.226-6.443-67.068 43.523-135.764 89.643-75.423 117.561 17.467 8.081 28.685 16.828 35.238 26.023 1.814.196 3.628.569 5.416 1.141 1.723.551 3.55.415 5.146-.383 1.613-.806 2.808-2.192 3.366-3.903 2.592-7.965 8.817-14.133 17.079-16.923 8.269-2.792 17.065-1.701 24.135 2.995 1.517 1.005 3.412 1.345 5.2.93z" fill="#85d249" data-original="#85d249"/><path d="m256 512c111.559 0 205.691-74.568 235.304-176.576-.092-.071-.194-.122-.283-.2-13.762-12.158-36.282-8.196-44.82 8.004-1.342 2.546-4.639 3.534-7.181 2.106-20.43-11.476-46.368 5.994-42.656 28.714.454 2.776-1.423 5.408-4.272 5.807-16.707 2.336-27.978 18.634-23.798 34.714.714 2.745-1.103 5.439-3.932 6.06-7.549 1.657-14.134 6.226-18.216 12.701-1.593 2.528-5.082 3.069-7.486 1.253-13.76-10.391-34.251-6.258-42.706 8.599-1.454 2.555-4.826 3.394-7.3 1.75-15.655-10.398-37.781-2.984-43.542 14.714-.884 2.717-3.795 4.204-6.569 3.316-13.547-4.34-28.433 1.788-34.747 14.226-1.294 2.55-4.609 3.508-7.122 2.066-14.562-8.356-33.032-2.142-40.227 11.661 30.421 13.545 64.105 21.085 99.553 21.085z" fill="#85d249" data-original="#85d249"/><g><path d="m399.218 424.608c1.277-2.618.222-5.712-2.34-6.977-12.949-6.391-18.353-21.643-14.274-34.7-11.182 5.932-17.634 18.849-14.31 31.637.714 2.745-1.103 5.439-3.932 6.06-7.549 1.657-14.134 6.226-18.216 12.701-1.593 2.528-5.082 3.069-7.486 1.253-13.76-10.391-34.251-6.258-42.706 8.599-1.454 2.555-4.826 3.394-7.3 1.75-15.655-10.398-37.781-2.984-43.542 14.714-.884 2.717-3.795 4.204-6.569 3.316-13.547-4.34-28.433 1.788-34.747 14.226-1.294 2.55-4.609 3.508-7.122 2.066-14.562-8.356-33.032-2.142-40.227 11.661 30.421 13.546 64.105 21.086 99.553 21.086 56.939 0 109.332-19.433 150.93-52.018-10.323-8.285-13.687-23.124-7.712-35.374z" fill="#60b550" data-original="#60b550"/></g></g></g></svg>