<svg xmlns="http://www.w3.org/2000/svg" version="1.1" xmlns:xlink="http://www.w3.org/1999/xlink" xmlns:svgjs="http://svgjs.com/svgjs" x="0" y="0" viewBox="0 0 510.25 510.25" style="enable-background:new 0 0 512 512" xml:space="preserve" class=""><g><g><g><path d="m471.33 119.805c-45.169-71.881-125.214-119.68-216.33-119.68-98.131 0-158.58 55.352-158.747 55.445 0 0-2.513 3.137-2.983 5.222-3.818 16.948-7.385 39.663-7.385 56.238 0 .927.026 1.849.036 2.774h385.409z" fill="#dff6fd" data-original="#dff6fd"/><g fill="#c4e2ff"><path d="m90.672 119.805c-.128-3.319-.213-6.65-.213-10 0-18.615 2.007-36.753 5.795-54.234-22.564 17.974-41.996 39.708-57.387 64.234z" fill="#c4e2ff" data-original="#c4e2ff"/><path d="m42.85 396.638c45.727 68.425 123.673 113.487 212.15 113.487 65.043 0 124.829-24.491 170.143-65.087l-3.289-11.221 16.462-1.456c10.632-10.989 20.293-22.941 28.836-35.723z" fill="#c4e2ff" data-original="#c4e2ff"/></g></g><g><path d="m161.011 397.708h305.427c17.759-26.285 30.779-56.119 37.761-88.345.178-1.087 6.051-23.477 6.051-54.239 0-49.871-14.58-96.388-39.326-135.686h-309.913z" fill="#bd80e1" data-original="#bd80e1" class=""/><g><path d="m161.011 119.439h349.239v139.135h-349.239z" fill="#bd80e1" data-original="#bd80e1" class=""/></g><path d="m39.094 119.439c-8.41 13.351-15.617 27.534-21.469 42.4l2.812 193.477c6.379 14.916 14.14 29.1 23.121 42.393h120.596v-278.27z" fill="#af66da" data-original="#af66da"/><g><path d="m123.36 161.836h256.113v193.476h-256.113z" fill="#ffffff" data-original="#ffffff"/></g><path d="m0 255.125c0 35.568 7.291 69.43 20.446 100.187h107.538v-193.476h-110.368c-11.368 28.893-17.616 60.361-17.616 93.289z" fill="#f9f3f1" data-original="#f9f3f1"/><g><path d="m379.473 161.836h84.762v193.476h-84.762z" fill="#af66da" transform="matrix(-1 0 0 -1 843.707 517.148)" data-original="#af66da"/></g><g><g><path d="m373.66 80.213h45v342.422h-45z" fill="#004281" data-original="#004281"/></g><g><path d="m354.003 65.213h84.315v30h-84.315z" fill="#004281" data-original="#004281"/></g><path d="m438.318 415.037h-84.315v30h71.139c4.54-4.067 8.937-8.292 13.177-12.674v-17.326z" fill="#004281" data-original="#004281"/></g><g fill="#00f2a6"><path d="m260.202 271.018v48.762c0 5.532-6.557 9.834-15.571 9.834-7.99 0-14.137-4.302-14.137-9.834v-4.508c-7.375 8.605-16.8 16.391-31.142 16.391-14.137 0-26.225-8.605-26.225-27.249 0-24.176 19.668-30.937 47.942-30.937h7.375v-2.049c0-6.966-3.688-15.161-15.366-15.161-16.8 0-18.439 6.761-23.971 6.761-6.966 0-10.654-8.4-10.654-15.776 0-9.629 19.874-16.39 35.035-16.39 33.601 0 46.714 19.463 46.714 40.156zm-31.757 17.825h-.819c-11.678 0-22.537 1.229-22.537 11.063 0 5.941 3.278 8.605 7.99 8.605 6.352 0 15.366-8.4 15.366-18.849z" fill="#00f2a6" data-original="#00f2a6"/><path d="m309.782 185.993v60.439c4.303-7.99 13.522-15.571 26.02-15.571 20.078 0 36.264 19.463 36.264 43.024v14.342c0 22.742-16.595 43.435-35.648 43.435-13.112 0-24.586-7.99-28.684-16.391v4.508c0 4.917-6.351 9.834-14.137 9.834-9.015 0-15.57-4.917-15.57-9.834v-133.786c0-5.737 6.556-9.629 15.57-9.629s16.185 3.892 16.185 9.629zm30.528 87.893c0-7.785-6.557-15.366-14.956-15.366-7.376 0-15.571 5.737-15.571 15.366v17.005c0 3.483 6.966 13.112 15.776 13.112 8.194 0 14.751-7.786 14.751-15.776z" fill="#00f2a6" data-original="#00f2a6"/></g></g></g></g></svg>