<svg height="512pt" viewBox="0 0 512.0005 512" width="512pt" xmlns="http://www.w3.org/2000/svg"><path d="m0 256c0-141.199219 114.3125-255.699219 255.441406-256 141.246094-.300781 255.414063 112.652344 256.550782 253.890625.613281 76.226563-32.097657 144.824219-84.429688 192.109375-45.398438-41.015625-105.5625-66-171.5625-66-64.140625 0-122.769531 23.59375-167.6875 62.570312-2.25 1.953126-5.613281 1.867188-7.78125-.175781-49.574219-46.6875-80.53125-112.921875-80.53125-186.394531zm0 0" fill="#fd4fb6"/><path d="m429.070312 149.070312c1.875 1.875 2.929688 4.417969 2.929688 7.070313v285.75c-45.878906 43.453125-107.824219 70.109375-176 70.109375s-130.121094-26.65625-176-70.109375v-371.78125c11.835938-11.210937 6.191406-21.304687 20-30.109375h215.859375c2.652344 0 5.195313 1.054688 7.070313 2.929688zm0 0" fill="#98e5fb"/><path d="m429.878906 150h-102.878906c-2.761719 0-5-2.238281-5-5v-102.878906c.324219.25.636719.515625.929688.808594l106.140624 106.140624c.292969.292969.558594.605469.808594.929688zm0 0" fill="#c7eefd"/><path d="m118 40c-5.523438 0-10 4.476562-10 10v414.90625c-9.875-7.011719-19.230469-14.707031-28-23.015625v-391.890625c0-5.523438 4.476562-10 10-10zm0 0" fill="#62dafa"/><path d="m200 165v10c0 2.761719-2.238281 5-5 5h-59c-2.761719 0-5-2.238281-5-5v-10c0-2.761719 2.238281-5 5-5h59c2.761719 0 5 2.238281 5 5zm-35 45h-29c-2.761719 0-5 2.238281-5 5v10c0 2.761719 2.238281 5 5 5h29c2.761719 0 5-2.238281 5-5v-10c0-2.761719-2.238281-5-5-5zm0 40h-29c-2.761719 0-5 2.238281-5 5v10c0 2.761719 2.238281 5 5 5h29c2.761719 0 5-2.238281 5-5v-10c0-2.761719-2.238281-5-5-5zm0 80h-29c-2.761719 0-5 2.238281-5 5v10c0 2.761719 2.238281 5 5 5h29c2.761719 0 5-2.238281 5-5v-10c0-2.761719-2.238281-5-5-5zm0 40h-29c-2.761719 0-5 2.238281-5 5v10c0 2.761719 2.238281 5 5 5h29c2.761719 0 5-2.238281 5-5v-10c0-2.761719-2.238281-5-5-5zm0 0" fill="#028fce"/><path d="m281 225v-10c0-2.761719 2.238281-5 5-5h19c2.761719 0 5 2.238281 5 5v10c0 2.761719-2.238281 5-5 5h-19c-2.761719 0-5-2.238281-5-5zm-71 80v-10c0-2.761719-2.238281-5-5-5h-69c-2.761719 0-5 2.238281-5 5v10c0 2.761719 2.238281 5 5 5h69c2.761719 0 5-2.238281 5-5zm135-15h-110c-2.761719 0-5 2.238281-5 5v10c0 2.761719 2.238281 5 5 5h110c2.761719 0 5-2.238281 5-5v-10c0-2.761719-2.238281-5-5-5zm-149.5-60h69.5c2.761719 0 5-2.238281 5-5v-10c0-2.761719-2.238281-5-5-5h-69.5c-2.761719 0-5 2.238281-5 5v10c0 2.761719 2.238281 5 5 5zm0 40h29.5c2.761719 0 5-2.238281 5-5v-10c0-2.761719-2.238281-5-5-5h-29.5c-2.761719 0-5 2.238281-5 5v10c0 2.761719 2.238281 5 5 5zm69.5 60h-69.5c-2.761719 0-5 2.238281-5 5v10c0 2.761719 2.238281 5 5 5h69.5c2.761719 0 5-2.238281 5-5v-10c0-2.761719-2.238281-5-5-5zm110-80h-129.75c-2.761719 0-5 2.238281-5 5v10c0 2.761719 2.238281 5 5 5h129.75c2.761719 0 5-2.238281 5-5v-10c0-2.761719-2.238281-5-5-5zm0 0" fill="#01bff9"/><path d="m470 480h-210c-5.523438 0-10-4.476562-10-10v-120c0-5.523438 4.476562-10 10-10h210c5.523438 0 10 4.476562 10 10v120c0 5.523438-4.476562 10-10 10zm0 0" fill="#1f3595"/><path d="m470 480h-190c-5.523438 0-10-4.476562-10-10v-120c0-5.523438 4.476562-10 10-10h190c5.523438 0 10 4.476562 10 10v120c0 5.523438-4.476562 10-10 10zm0 0" fill="#314dc8"/><path d="m451.695312 417.070312-35.101562 35.101563c-1.953125 1.953125-5.117188 1.953125-7.070312 0l-5.988282-5.988281c-1.953125-1.953125-1.953125-5.117188 0-7.070313l27.699219-27.699219c.78125-.78125.78125-2.046874 0-2.828124l-27.699219-27.695313c-1.953125-1.953125-1.953125-5.121094 0-7.074219l5.988282-5.988281c1.953124-1.953125 5.117187-1.953125 7.070312 0l35.101562 35.101563c3.90625 3.902343 3.90625 10.234374 0 14.140624zm-125.230468-36.183593c1.953125-1.953125 1.953125-5.117188 0-7.070313l-5.988282-5.988281c-1.953124-1.953125-5.117187-1.953125-7.070312 0l-35.101562 35.101563c-3.90625 3.902343-3.90625 10.234374 0 14.140624l35.101562 35.101563c1.953125 1.953125 5.117188 1.953125 7.070312 0l5.988282-5.988281c1.953125-1.953125 1.953125-5.117188 0-7.070313l-27.699219-27.699219c-.78125-.78125-.78125-2.046874 0-2.828124zm52.4375-20.886719h-9.804688c-2.382812 0-4.433594 1.683594-4.902344 4.019531l-18 90c-.617187 3.09375 1.75 5.980469 4.902344 5.980469h9.804688c2.382812 0 4.433594-1.683594 4.902344-4.019531l18-90c.617187-3.09375-1.75-5.980469-4.902344-5.980469zm0 0" fill="#fff5f5"/></svg>