<svg height="512pt" viewBox="0 0 512 512" width="512pt" xmlns="http://www.w3.org/2000/svg"><path d="m512 256c0 141.386719-114.613281 256-256 256s-256-114.613281-256-256 114.613281-256 256-256 256 114.613281 256 256zm0 0" fill="#98e5fb"/><path d="m263.65625 122.503906 39.691406-24.925781c3.613282-2.265625 8.308594-1.734375 11.324219 1.277344l15.394531 15.398437c3.082032 3.082032 3.558594 7.90625 1.144532 11.53125l-25.847657 38.769532c-3.199219 4.796874-9.984375 5.46875-14.0625 1.390624l-29.246093-29.242187c-4.148438-4.148437-3.367188-11.082031 1.601562-14.199219zm-70.976562 281.53125h-41.359376c-5.765624 0-10.089843 5.277344-8.960937 10.929688l9.140625 45.691406c.851562 4.269531 4.601562 7.34375 8.960938 7.34375h21.773437c4.261719 0 7.957031-2.945312 8.90625-7.101562l10.445313-45.6875c1.308593-5.722657-3.039063-11.175782-8.90625-11.175782zm16.867187-292.714844 38.207031 15.828126c5.328125 2.207031 11.34375-1.011719 12.460938-6.667969l9.042968-45.710938c.84375-4.273437-1.441406-8.546875-5.46875-10.214843l-20.117187-8.332032c-3.9375-1.632812-8.480469-.324218-10.945313 3.148438l-27.132812 38.21875c-3.398438 4.785156-1.46875 11.484375 3.953125 13.730468zm-58.226563-3.355468h41.359376c5.765624 0 10.089843-5.273438 8.960937-10.929688l-9.140625-45.6875c-.851562-4.273437-4.605469-7.347656-8.960938-7.347656h-21.773437c-4.261719 0-7.957031 2.945312-8.910156 7.101562l-10.441407 45.691407c-1.308593 5.71875 3.039063 11.171875 8.90625 11.171875zm217.308594 208.761718-38.21875-27.132812c-4.78125-3.398438-11.484375-1.46875-13.730468 3.953125l-15.828126 38.207031c-2.207031 5.328125 1.011719 11.34375 6.671876 12.460938l45.707031 9.042968c4.273437.84375 8.550781-1.441406 10.214843-5.46875l8.335938-20.117187c1.628906-3.9375.320312-8.480469-3.152344-10.945313zm-67.777344-136.480468 15.828126 38.207031c2.207031 5.328125 8.734374 7.304687 13.527343 4.097656l38.714844-25.925781c3.617187-2.425781 5.023437-7.066406 3.355469-11.089844l-8.332032-20.121094c-1.632812-3.9375-5.769531-6.222656-9.96875-5.511718l-46.210937 7.835937c-5.785156.984375-9.160156 7.085938-6.914063 12.507813zm-276.886718 96.433594v-41.359376c0-5.765624-5.273438-10.089843-10.929688-8.960937l-11.582031 2.316406c-.953125 8.980469-1.453125 18.09375-1.453125 27.324219 0 9.113281.484375 18.117188 1.414062 26.984375l11.378907 2.601563c5.71875 1.308593 11.171875-3.039063 11.171875-8.90625zm281.53125 70.976562c-3.117188-4.96875-10.050782-5.75-14.199219-1.601562l-29.242187 29.246093c-4.078126 4.078125-3.40625 10.863281 1.390624 14.0625l38.769532 25.847657c3.625 2.414062 8.449218 1.9375 11.53125-1.144532l15.398437-15.394531c3.011719-3.015625 3.542969-7.710937 1.277344-11.324219zm-192.875-288.578125c-2.421875-3.617187-7.0625-5.023437-11.089844-3.355469l-10.066406 4.167969c-5.375 4.515625-10.566406 9.246094-15.554688 14.179687l7.828125 46.164063c.980469 5.785156 7.085938 9.160156 12.507813 6.914063l38.207031-15.828126c5.328125-2.207031 7.304687-8.734374 4.097656-13.527343zm21.832031 341.601563-38.207031-15.828126c-5.328125-2.207031-11.34375 1.011719-12.460938 6.667969l-8.96875 45.332031c5.316406 5.328126 10.878906 10.410157 16.648438 15.257813l8.859375 3.667969c3.941406 1.632812 8.480469.324218 10.949219-3.148438l27.132812-38.21875c3.398438-4.78125 1.46875-11.484375-3.953125-13.730468zm125.808594-8.914063c-.984375-5.785156-7.085938-9.160156-12.507813-6.914063l-38.207031 15.828126c-5.328125 2.207031-7.304687 8.734374-4.097656 13.527343l25.925781 38.714844c2.425781 3.617187 7.066406 5.023437 11.089844 3.359375l20.121094-8.335938c3.9375-1.628906 6.222656-5.765624 5.511718-9.96875zm-207.558594-225.820313 29.242187-29.246093c4.078126-4.078125 3.40625-10.863281-1.390624-14.0625l-29.699219-19.800781c-9.609375 12.847656-18.027344 26.628906-25.117188 41.179687l12.765625 20.328125c3.117188 4.96875 10.046875 5.75 14.199219 1.601562zm324.195313 70.910157-45.691407-10.441407c-5.71875-1.308593-11.171875 3.039063-11.171875 8.90625v41.359376c0 5.765624 5.273438 10.089843 10.929688 8.960937l45.6875-9.140625c4.273437-.851562 7.347656-4.605469 7.347656-8.960938v-21.773437c0-4.261719-2.945312-7.957031-7.101562-8.910156zm-349.578126-18.402344 15.828126-38.207031c2.207031-5.328125-1.011719-11.34375-6.667969-12.460938l-19.414063-3.839844c-6.285156 16.304688-10.949218 33.414063-13.796875 51.136719l10.320313 7.324219c4.785156 3.398438 11.484375 1.46875 13.730468-3.953125zm54.625 156.84375-29.246093-29.242187c-4.074219-4.078126-10.863281-3.40625-14.0625 1.390624l-13.238281 19.855469c7.015624 14.507813 15.367187 28.25 24.878906 41.074219l30.066406-18.878906c4.96875-3.117188 5.75-10.050782 1.601562-14.199219zm-38.796874-43.542969-15.828126-38.207031c-2.207031-5.328125-8.734374-7.304687-13.527343-4.097656l-10.585938 7.089843c2.8125 17.671876 7.433594 34.734376 13.664063 51.003907l19.363281-3.28125c5.785156-.984375 9.160156-7.085938 6.914063-12.507813zm0 0" fill="#328091"/><path d="m357.5 256c0 102.449219-83.050781 185.5-185.5 185.5-57.796875 0-109.40625-26.441406-143.425781-67.878906-18.253907-35.21875-28.574219-75.214844-28.574219-117.621094s10.320312-82.402344 28.574219-117.621094c34.019531-41.4375 85.628906-67.878906 143.425781-67.878906 102.449219 0 185.5 83.050781 185.5 185.5zm0 0" fill="#2b6c7e"/><path d="m339.222656 256c0 92.355469-74.867187 167.222656-167.222656 167.222656s-167.222656-74.867187-167.222656-167.222656 74.867187-167.222656 167.222656-167.222656 167.222656 74.867187 167.222656 167.222656zm0 0" fill="#458fa4"/><path d="m339.222656 256c0 87.164062-66.695312 158.742188-151.835937 166.511719-85.140625-7.769531-151.835938-79.347657-151.835938-166.511719s66.695313-158.742188 151.835938-166.511719c85.140625 7.769531 151.835937 79.347657 151.835937 166.511719zm0 0" fill="#649eb0"/><path d="m139.230469 137.207031c0-18.097656 14.671875-32.769531 32.769531-32.769531s32.769531 14.671875 32.769531 32.769531c0 18.097657-14.671875 32.769531-32.769531 32.769531s-32.769531-14.671874-32.769531-32.769531zm-28.058594 57.964844c12.800781-12.796875 12.800781-33.546875 0-46.34375-12.796875-12.800781-33.546875-12.800781-46.34375 0-12.800781 12.796875-12.800781 33.546875 0 46.34375 12.796875 12.800781 33.546875 12.800781 46.34375 0zm168 0c12.796875-12.796875 12.796875-33.546875 0-46.34375-12.796875-12.800781-33.546875-12.800781-46.347656 0-12.796875 12.796875-12.796875 33.546875 0 46.34375 12.800781 12.800781 33.550781 12.800781 46.347656 0zm-193.195313 60.828125c0-18.097656-14.671874-32.769531-32.769531-32.769531-18.097656 0-32.769531 14.671875-32.769531 32.769531s14.671875 32.769531 32.769531 32.769531c18.097657 0 32.769531-14.671875 32.769531-32.769531zm146.851563 60.828125c-12.800781 12.796875-12.800781 33.546875 0 46.34375 12.796875 12.800781 33.546875 12.800781 46.34375 0 12.800781-12.796875 12.800781-33.546875 0-46.34375-12.796875-12.800781-33.546875-12.800781-46.34375 0zm57.964844-93.597656c-18.097657 0-32.769531 14.671875-32.769531 32.769531s14.671874 32.769531 32.769531 32.769531c18.097656 0 32.769531-14.671875 32.769531-32.769531s-14.671875-32.769531-32.769531-32.769531zm-225.964844 93.597656c-12.796875 12.796875-12.796875 33.546875 0 46.34375 12.796875 12.800781 33.546875 12.800781 46.347656 0 12.796875-12.796875 12.796875-33.546875 0-46.34375-12.800781-12.800781-33.550781-12.800781-46.347656 0zm107.171875-130.152344c-38.285156 0-69.324219 31.039063-69.324219 69.324219s31.039063 69.324219 69.324219 69.324219 69.324219-31.039063 69.324219-69.324219-31.039063-69.324219-69.324219-69.324219zm0 155.347657c-18.097656 0-32.769531 14.671874-32.769531 32.769531 0 18.097656 14.671875 32.769531 32.769531 32.769531s32.769531-14.671875 32.769531-32.769531c0-18.097657-14.671875-32.769531-32.769531-32.769531zm0 0" fill="#2b6c7e"/><path d="m101.480469 158.519531c7.445312 7.445313 7.445312 19.515625 0 26.960938-7.445313 7.445312-19.515625 7.445312-26.960938 0-7.445312-7.445313-7.445312-19.515625 0-26.960938 7.445313-7.445312 19.515625-7.445312 26.960938 0zm-48.273438 78.417969c-10.527343 0-19.0625 8.535156-19.0625 19.0625s8.535157 19.0625 19.0625 19.0625c10.527344 0 19.0625-8.535156 19.0625-19.0625s-8.535156-19.0625-19.0625-19.0625zm216.273438-51.457031c7.445312-7.445313 7.445312-19.515625 0-26.960938-7.445313-7.445312-19.515625-7.445312-26.960938 0-7.445312 7.445313-7.445312 19.515625 0 26.960938 7.445313 7.445312 19.515625 7.445312 26.960938 0zm-97.480469-29.210938c10.527344 0 19.0625-8.535156 19.0625-19.0625 0-10.527343-8.535156-19.0625-19.0625-19.0625s-19.0625 8.535157-19.0625 19.0625c0 10.527344 8.535156 19.0625 19.0625 19.0625zm-97.480469 170.25c-7.445312 7.445313-7.445312 19.515625 0 26.960938 7.445313 7.445312 19.515625 7.445312 26.960938 0 7.445312-7.445313 7.445312-19.515625 0-26.960938-7.445313-7.445312-19.515625-7.445312-26.960938 0zm216.273438-89.582031c-10.527344 0-19.0625 8.535156-19.0625 19.0625s8.535156 19.0625 19.0625 19.0625c10.527343 0 19.0625-8.535156 19.0625-19.0625.003906-10.527344-8.535157-19.0625-19.0625-19.0625zm-118.792969 118.792969c-10.527344 0-19.0625 8.535156-19.0625 19.0625 0 10.527343 8.535156 19.0625 19.0625 19.0625s19.0625-8.535157 19.0625-19.0625c0-10.527344-8.535156-19.0625-19.0625-19.0625zm70.519531-29.210938c-7.445312 7.445313-7.445312 19.515625 0 26.960938 7.445313 7.445312 19.515625 7.445312 26.960938 0 7.445312-7.445313 7.445312-19.515625 0-26.960938-7.445313-7.445312-19.515625-7.445312-26.960938 0zm-70.519531-118.949219c-26.746094 0-48.429688 21.683594-48.429688 48.429688s21.683594 48.429688 48.429688 48.429688 48.429688-21.683594 48.429688-48.429688-21.683594-48.429688-48.429688-48.429688zm0 0" fill="#98e5fb"/><path d="m477.5 256c0 86.066406-36.816406 163.519531-95.539062 217.523438-7.917969 7.28125-20.144532 7.089843-27.75-.515626-8.011719-8.011718-7.816407-21.121093.527343-28.78125 50.871094-46.695312 82.761719-113.730468 82.761719-188.226562 0-56.285156-18.214844-108.304688-49.054688-150.519531l-16.789062 16.792969c-2.453125 2.453124-6.597656 1.722656-8.066406-1.421876l-42.25-90.535156c-2.539063-5.441406-1.402344-11.886718 2.84375-16.132812 4.242187-4.246094 10.691406-5.382813 16.132812-2.84375l90.535156 42.25c3.144532 1.46875 3.875 5.613281 1.417969 8.066406l-15.234375 15.238281c37.933594 49.691407 60.464844 111.761719 60.464844 179.105469zm-162.808594 225.566406c-6.605468 6.605469-7.601562 16.671875-3.035156 24.347656 12.757812-2.828124 25.160156-6.601562 37.125-11.257812-.25-4.761719-2.167969-9.453125-5.804688-13.089844-7.8125-7.808594-20.476562-7.808594-28.285156 0zm0 0" fill="#fd2aa7"/><path d="m477.5 256c0 86.066406-36.816406 163.519531-95.539062 217.523438-.753907.691406-1.554688 1.292968-2.378907 1.851562-1.011719-.6875-1.972656-1.472656-2.871093-2.367188-8.007813-8.011718-7.816407-21.121093.527343-28.78125 50.871094-46.695312 82.761719-113.730468 82.761719-188.226562 0-58.828125-19.90625-112.992188-53.324219-156.171875-3.359375-4.34375-2.9375-10.515625.945313-14.398437 4.800781-4.800782 12.800781-4.140626 16.695312 1.425781 33.515625 47.917969 53.183594 106.230469 53.183594 169.144531zm-56.386719-206.953125-80.796875-37.707031c-5.441406-2.539063-11.890625-1.402344-16.132812 2.84375-.339844.335937-.652344.695312-.953125 1.058594 8.511719 25.984374 32.941406 44.757812 61.769531 44.757812 13.363281 0 25.785156-4.039062 36.113281-10.953125zm0 0" fill="#fd4fb6"/></svg>