<?xml version="1.0" encoding="UTF-8"?>
<svg width="351px" height="1070px" viewBox="0 0 351 1070" version="1.1" xmlns="http://www.w3.org/2000/svg" xmlns:xlink="http://www.w3.org/1999/xlink">
    <title>Codigo-Composition</title>
    <g id="Codigo-Composition" stroke="none" stroke-width="1" fill="none" fill-rule="evenodd">
        <g id="After-asserts" transform="translate(0.000000, 951.000000)">
            <rect id="Rectangle" stroke="#979797" fill="#D8D8D8" x="0.5" y="0.5" width="350" height="118" rx="8"></rect>
            <text id="AFTER-ASSERTS" font-family="UbuntuMono-Bold, Ubuntu Mono" font-size="32" font-weight="bold" fill="#000000">
                <tspan x="72" y="70">AFTER-ASSERTS</tspan>
            </text>
        </g>
        <g id="Asserts" transform="translate(0.000000, 761.000000)">
            <path id="Line" d="M177,117 L177,172 L185,172 L175.5,191 L166,172 L174,172 L174,117 L177,117 Z" fill="#D8D8D8" fill-rule="nonzero"></path>
            <rect id="Rectangle" stroke="#979797" fill="#D8D8D8" x="0.5" y="0.5" width="350" height="118" rx="8"></rect>
            <text id="ASSERTS" font-family="UbuntuMono-Bold, Ubuntu Mono" font-size="32" font-weight="bold" fill="#000000">
                <tspan x="120" y="70">ASSERTS</tspan>
            </text>
        </g>
        <g id="Before-asserts" transform="translate(0.000000, 571.000000)">
            <path id="Line" d="M177,117 L177,172 L185,172 L175.5,191 L166,172 L174,172 L174,117 L177,117 Z" fill="#D8D8D8" fill-rule="nonzero"></path>
            <rect id="Rectangle" stroke="#979797" fill="#D8D8D8" x="0.5" y="0.5" width="350" height="118" rx="8"></rect>
            <text id="BEFORE-ASSERTS" font-family="UbuntuMono-Bold, Ubuntu Mono" font-size="32" font-weight="bold" fill="#000000">
                <tspan x="63" y="71">BEFORE-ASSERTS</tspan>
            </text>
        </g>
        <g id="After-seed" transform="translate(0.000000, 191.000000)">
            <path id="Line" d="M176,308 L176,363 L184,363 L174.5,382 L165,363 L173,363 L173,308 L176,308 Z" fill="#D8D8D8" fill-rule="nonzero"></path>
            <rect id="Rectangle" stroke="#979797" fill="#D8D8D8" x="0.5" y="0.5" width="350" height="118" rx="8"></rect>
            <text id="SEED" font-family="UbuntuMono-Bold, Ubuntu Mono" font-size="32" font-weight="bold" fill="#000000">
                <tspan x="144" y="70">SEED</tspan>
            </text>
        </g>
        <g id="Seed" transform="translate(0.000000, 310.000000)">
            <path id="Line" d="M177,-1 L177,54 L185,54 L175.5,73 L166,54 L174,54 L174,-1 L177,-1 Z" fill="#D8D8D8" fill-rule="nonzero"></path>
            <rect id="Rectangle" stroke="#979797" fill="#D8D8D8" x="0.5" y="72.5" width="350" height="118" rx="8"></rect>
            <text id="AFTER-SEED" font-family="UbuntuMono-Bold, Ubuntu Mono" font-size="32" font-weight="bold" fill="#000000">
                <tspan x="96" y="142">AFTER-SEED</tspan>
            </text>
        </g>
        <path id="Line" d="M177,118 L177,173 L185,173 L175.5,192 L166,173 L174,173 L174,118 L177,118 Z" fill="#D8D8D8" fill-rule="nonzero"></path>
        <g id="Before-seed">
            <rect id="Rectangle" stroke="#979797" fill="#D8D8D8" x="0.5" y="0.5" width="350" height="118" rx="8"></rect>
            <text id="BEFORE-SEED" font-family="UbuntuMono-Bold, Ubuntu Mono" font-size="32" font-weight="bold" fill="#000000">
                <tspan x="87" y="71">BEFORE-SEED</tspan>
            </text>
        </g>
    </g>
</svg>